G75*
G70*
%OFA0B0*%
%FSLAX24Y24*%
%IPPOS*%
%LPD*%
%AMOC8*
5,1,8,0,0,1.08239X$1,22.5*
%
%ADD10C,0.0600*%
%ADD11C,0.0515*%
%ADD12C,0.0356*%
%ADD13C,0.0160*%
%ADD14C,0.0200*%
D10*
X023812Y023178D03*
X024812Y023178D03*
X025812Y023178D03*
X025792Y024578D03*
X024792Y024578D03*
X023792Y024578D03*
X028112Y025058D03*
X029112Y025058D03*
X032252Y023738D03*
X033372Y023978D03*
X033372Y022978D03*
X032252Y022738D03*
X033372Y021978D03*
X032252Y021738D03*
X033672Y025138D03*
X034672Y025138D03*
X034672Y026178D03*
X033672Y026178D03*
X036732Y029438D03*
X036732Y030438D03*
X037852Y030438D03*
X037852Y029438D03*
X039052Y029418D03*
X039052Y030418D03*
X039052Y031418D03*
X040912Y032078D03*
X041912Y032078D03*
X042912Y032078D03*
X046072Y029618D03*
X047072Y029618D03*
X046632Y023158D03*
X045632Y023158D03*
X044632Y023158D03*
X044632Y022078D03*
X045632Y022078D03*
X046632Y022078D03*
X049772Y020758D03*
X049772Y019758D03*
X028352Y020178D03*
X027352Y020178D03*
X025832Y033058D03*
X025832Y034058D03*
X025832Y035058D03*
X021192Y037578D03*
X020192Y037578D03*
X020192Y038778D03*
X021192Y038778D03*
X021192Y039978D03*
X020192Y039978D03*
X020212Y041218D03*
X021212Y041218D03*
X021192Y042418D03*
X020192Y042418D03*
X020192Y043618D03*
X021192Y043618D03*
X014392Y042178D03*
X014392Y041178D03*
X014392Y040178D03*
X014392Y039178D03*
D11*
X025792Y014128D03*
X025292Y013378D03*
X025792Y012631D03*
X026292Y013378D03*
X026792Y012631D03*
X027292Y013378D03*
X027792Y012631D03*
X028292Y013378D03*
X028792Y012631D03*
X029292Y013378D03*
X029792Y012631D03*
X030292Y013378D03*
X030792Y012631D03*
X031292Y013378D03*
X031792Y012631D03*
X032292Y013378D03*
X032792Y012631D03*
X033292Y013378D03*
X033792Y012631D03*
X034292Y013378D03*
X034792Y012631D03*
X035292Y013378D03*
X035792Y012631D03*
X036292Y013378D03*
X036792Y012631D03*
X037292Y013378D03*
X037792Y012631D03*
X038292Y013378D03*
X038792Y012631D03*
X039292Y013378D03*
X039792Y012631D03*
X040292Y013378D03*
X040792Y012631D03*
X041292Y013378D03*
X041792Y012631D03*
X042292Y013378D03*
X042792Y012631D03*
X043292Y013378D03*
X043792Y012631D03*
X044292Y013378D03*
X044792Y012631D03*
X045292Y013378D03*
X045792Y012631D03*
X046292Y013378D03*
X046792Y012631D03*
X047292Y013378D03*
X047792Y012631D03*
X048292Y013378D03*
X048792Y012631D03*
X049292Y013378D03*
X049792Y012631D03*
X049292Y011881D03*
X048292Y011881D03*
X047292Y011881D03*
X046292Y011881D03*
X045292Y011881D03*
X044292Y011881D03*
X043292Y011881D03*
X042292Y011881D03*
X041292Y011881D03*
X040292Y011881D03*
X039292Y011881D03*
X038292Y011881D03*
X037292Y011881D03*
X036292Y011881D03*
X035292Y011881D03*
X034292Y011881D03*
X033292Y011881D03*
X032292Y011881D03*
X031292Y011881D03*
X030292Y011881D03*
X029292Y011881D03*
X028292Y011881D03*
X027292Y011881D03*
X026292Y011881D03*
X025292Y011881D03*
X026792Y014128D03*
X027792Y014128D03*
X028792Y014128D03*
X029792Y014128D03*
X030792Y014128D03*
X031792Y014128D03*
X032792Y014128D03*
X033792Y014128D03*
X034792Y014128D03*
X035792Y014128D03*
X036792Y014128D03*
X037792Y014128D03*
X038792Y014128D03*
X039792Y014128D03*
X040792Y014128D03*
X041792Y014128D03*
X042792Y014128D03*
X043792Y014128D03*
X044792Y014128D03*
X045792Y014128D03*
X046792Y014128D03*
X047792Y014128D03*
X048792Y014128D03*
X049792Y014128D03*
D12*
X048572Y016498D03*
X045932Y016578D03*
X044372Y017838D03*
X044832Y018278D03*
X045612Y020018D03*
X046692Y019698D03*
X047572Y020878D03*
X045612Y020818D03*
X044972Y020818D03*
X042652Y017938D03*
X040812Y017938D03*
X039052Y017938D03*
X037292Y017938D03*
X035132Y017698D03*
X034412Y019698D03*
X033612Y019938D03*
X030732Y020018D03*
X028652Y019058D03*
X029532Y017938D03*
X030972Y016098D03*
X027052Y015858D03*
X026492Y016498D03*
X025532Y016098D03*
X023812Y015578D03*
X022732Y016258D03*
X022212Y015818D03*
X021292Y016778D03*
X019852Y015218D03*
X018412Y013018D03*
X020492Y012458D03*
X023892Y016858D03*
X023972Y017738D03*
X021772Y020418D03*
X021132Y020338D03*
X020532Y020658D03*
X022212Y022638D03*
X022212Y023518D03*
X021212Y024258D03*
X021292Y026898D03*
X022412Y028418D03*
X021292Y029218D03*
X023252Y029658D03*
X024712Y028238D03*
X024532Y026138D03*
X028172Y028578D03*
X028972Y028898D03*
X028172Y029538D03*
X027468Y030123D03*
X028972Y031538D03*
X029452Y030898D03*
X030657Y029500D03*
X030972Y027778D03*
X032092Y027858D03*
X032812Y028018D03*
X033372Y028018D03*
X034572Y028818D03*
X033932Y030018D03*
X035132Y031378D03*
X033932Y032418D03*
X032812Y031858D03*
X031532Y032338D03*
X032092Y033058D03*
X032212Y034698D03*
X029972Y032778D03*
X028812Y033218D03*
X029332Y034858D03*
X027252Y037498D03*
X026572Y038498D03*
X028092Y039138D03*
X029692Y040778D03*
X029692Y041378D03*
X031092Y041778D03*
X031692Y041778D03*
X032132Y042858D03*
X033892Y043378D03*
X035772Y042258D03*
X037092Y040978D03*
X038572Y042418D03*
X040452Y040858D03*
X042812Y039378D03*
X044492Y040538D03*
X044492Y041098D03*
X045772Y043018D03*
X046892Y044698D03*
X044092Y044218D03*
X041292Y043578D03*
X037452Y044938D03*
X034972Y039538D03*
X032412Y037498D03*
X030972Y039378D03*
X029412Y043658D03*
X026292Y043578D03*
X026092Y041178D03*
X021692Y036018D03*
X021052Y035378D03*
X020012Y035938D03*
X018852Y035338D03*
X017892Y035658D03*
X016892Y037378D03*
X015852Y037218D03*
X015932Y036338D03*
X014972Y035778D03*
X013532Y035018D03*
X013492Y033978D03*
X013692Y032778D03*
X016292Y032578D03*
X017612Y031098D03*
X017892Y029378D03*
X018372Y028018D03*
X015892Y027578D03*
X013732Y026738D03*
X013572Y027538D03*
X013492Y029298D03*
X014652Y029938D03*
X015932Y030098D03*
X015852Y030818D03*
X020532Y032298D03*
X022292Y031578D03*
X023852Y031778D03*
X025392Y030778D03*
X025672Y031638D03*
X024152Y033838D03*
X032292Y026578D03*
X032732Y024978D03*
X030732Y025298D03*
X029292Y022338D03*
X027212Y022658D03*
X026172Y022098D03*
X025452Y020738D03*
X017892Y020178D03*
X015772Y021298D03*
X015532Y020738D03*
X015852Y022018D03*
X016332Y022738D03*
X017292Y022578D03*
X017452Y024658D03*
X013492Y022978D03*
X013492Y020938D03*
X013332Y020058D03*
X013612Y018098D03*
X015292Y018218D03*
X015612Y017338D03*
X014412Y014018D03*
X035932Y025858D03*
X035852Y026658D03*
X035932Y028338D03*
X038412Y026738D03*
X038892Y026098D03*
X039612Y026738D03*
X040172Y026098D03*
X041692Y025938D03*
X043372Y027858D03*
X041852Y028658D03*
X041372Y030098D03*
X043132Y029618D03*
X044172Y030898D03*
X044892Y032258D03*
X045532Y032738D03*
X047132Y034418D03*
X045932Y037058D03*
X046572Y038738D03*
X047292Y041178D03*
X040332Y037618D03*
X038412Y037458D03*
X037052Y035658D03*
X038532Y032778D03*
X037212Y032418D03*
X040092Y028418D03*
X037692Y025458D03*
X037532Y023618D03*
X037532Y023058D03*
X037532Y022338D03*
X038572Y022018D03*
X039772Y021938D03*
X047052Y026658D03*
X047132Y028418D03*
X048572Y030818D03*
X050012Y032098D03*
X050252Y025298D03*
X047732Y023538D03*
X048292Y022818D03*
X051972Y019058D03*
X051572Y018738D03*
X050932Y018178D03*
X015852Y045178D03*
X013532Y037418D03*
D13*
X013072Y045831D02*
X013072Y010758D01*
X052082Y010758D01*
X052082Y020680D01*
X050079Y018677D01*
X049984Y018638D01*
X048040Y018638D01*
X047945Y018677D01*
X047872Y018750D01*
X047552Y019070D01*
X047512Y019166D01*
X047512Y019990D01*
X046784Y020718D01*
X044463Y020718D01*
X044461Y020717D01*
X044411Y020718D01*
X044360Y020718D01*
X044359Y020718D01*
X044358Y020718D01*
X044311Y020738D01*
X044265Y020757D01*
X044264Y020758D01*
X044263Y020759D01*
X044227Y020795D01*
X044192Y020830D01*
X044191Y020832D01*
X040307Y024795D01*
X040272Y024830D01*
X040271Y024832D01*
X040270Y024833D01*
X040251Y024879D01*
X040232Y024926D01*
X040232Y024927D01*
X040232Y024928D01*
X040232Y024979D01*
X040232Y025739D01*
X040101Y025739D01*
X039969Y025794D01*
X039869Y025895D01*
X039814Y026026D01*
X039814Y026169D01*
X039869Y026300D01*
X039969Y026401D01*
X040101Y026456D01*
X040232Y026456D01*
X040232Y027110D01*
X039824Y027518D01*
X038040Y027518D01*
X037392Y026870D01*
X037392Y025664D01*
X037489Y025761D01*
X037621Y025816D01*
X037763Y025816D01*
X037895Y025761D01*
X037996Y025660D01*
X038050Y025529D01*
X038050Y025386D01*
X037996Y025255D01*
X037895Y025154D01*
X037763Y025099D01*
X037621Y025099D01*
X037489Y025154D01*
X037392Y025251D01*
X037392Y023947D01*
X037461Y023976D01*
X037603Y023976D01*
X037735Y023921D01*
X037836Y023820D01*
X037890Y023689D01*
X037890Y023546D01*
X037836Y023415D01*
X037759Y023338D01*
X037836Y023260D01*
X037890Y023129D01*
X037890Y023095D01*
X038251Y022735D01*
X038251Y022735D01*
X038330Y022656D01*
X038372Y022553D01*
X038372Y022322D01*
X038501Y022376D01*
X038643Y022376D01*
X038775Y022321D01*
X038876Y022220D01*
X038930Y022089D01*
X038930Y021946D01*
X038876Y021815D01*
X038775Y021714D01*
X038643Y021659D01*
X038501Y021659D01*
X038369Y021714D01*
X038346Y021738D01*
X038330Y021699D01*
X033691Y017060D01*
X033588Y017018D01*
X031396Y017018D01*
X031294Y017060D01*
X031215Y017139D01*
X029055Y019299D01*
X029012Y019402D01*
X029012Y022111D01*
X028989Y022135D01*
X028934Y022266D01*
X028934Y022409D01*
X028989Y022540D01*
X029089Y022641D01*
X029221Y022696D01*
X029363Y022696D01*
X029495Y022641D01*
X029596Y022540D01*
X029650Y022409D01*
X029650Y022266D01*
X029596Y022135D01*
X029572Y022111D01*
X029572Y019574D01*
X031568Y017578D01*
X033416Y017578D01*
X037812Y021974D01*
X037812Y022111D01*
X037735Y022034D01*
X037603Y021979D01*
X037461Y021979D01*
X037392Y022008D01*
X037392Y021966D01*
X037353Y021870D01*
X037279Y021797D01*
X037279Y021797D01*
X033919Y018437D01*
X033824Y018398D01*
X032840Y018398D01*
X032745Y018437D01*
X031072Y020110D01*
X031032Y020206D01*
X031032Y024629D01*
X031072Y024725D01*
X031145Y024798D01*
X035625Y029278D01*
X035720Y029318D01*
X036262Y029318D01*
X036252Y029342D01*
X036252Y029533D01*
X036325Y029709D01*
X036460Y029844D01*
X036637Y029918D01*
X036828Y029918D01*
X037004Y029844D01*
X037139Y029709D01*
X037212Y029533D01*
X037212Y029342D01*
X037202Y029318D01*
X037382Y029318D01*
X037372Y029342D01*
X037372Y029533D01*
X037445Y029709D01*
X037580Y029844D01*
X037757Y029918D01*
X037948Y029918D01*
X038124Y029844D01*
X038259Y029709D01*
X038332Y029533D01*
X038332Y029342D01*
X038322Y029318D01*
X038574Y029318D01*
X038572Y029322D01*
X038572Y029513D01*
X038645Y029689D01*
X038780Y029824D01*
X038957Y029898D01*
X039148Y029898D01*
X039324Y029824D01*
X039428Y029721D01*
X039432Y029725D01*
X039432Y030119D01*
X039324Y030011D01*
X039148Y029938D01*
X038957Y029938D01*
X038780Y030011D01*
X038645Y030146D01*
X038572Y030322D01*
X038572Y030513D01*
X038645Y030689D01*
X038780Y030824D01*
X038957Y030898D01*
X039148Y030898D01*
X039324Y030824D01*
X039432Y030716D01*
X039432Y031119D01*
X039324Y031011D01*
X039148Y030938D01*
X038957Y030938D01*
X038780Y031011D01*
X038645Y031146D01*
X038572Y031322D01*
X038572Y031513D01*
X038645Y031689D01*
X038780Y031824D01*
X038957Y031898D01*
X039148Y031898D01*
X039324Y031824D01*
X039432Y031716D01*
X039432Y032070D01*
X038672Y032830D01*
X038632Y032926D01*
X029027Y032926D01*
X029015Y032914D02*
X029116Y033015D01*
X029170Y033146D01*
X029170Y033289D01*
X029116Y033420D01*
X029015Y033521D01*
X028883Y033576D01*
X028741Y033576D01*
X028609Y033521D01*
X028509Y033420D01*
X028454Y033289D01*
X028454Y033146D01*
X028509Y033015D01*
X028609Y032914D01*
X028741Y032859D01*
X028883Y032859D01*
X029015Y032914D01*
X029145Y033085D02*
X038632Y033085D01*
X038632Y033243D02*
X029170Y033243D01*
X029124Y033402D02*
X038632Y033402D01*
X038632Y033560D02*
X028921Y033560D01*
X028703Y033560D02*
X027092Y033560D01*
X027092Y033402D02*
X028501Y033402D01*
X028454Y033243D02*
X027092Y033243D01*
X027092Y033085D02*
X028480Y033085D01*
X028597Y032926D02*
X027092Y032926D01*
X027092Y032768D02*
X038734Y032768D01*
X038632Y032926D02*
X038632Y036230D01*
X037024Y037838D01*
X026200Y037838D01*
X026105Y037877D01*
X026032Y037950D01*
X025184Y038798D01*
X025068Y038798D01*
X026971Y036895D01*
X026971Y036895D01*
X027050Y036816D01*
X027092Y036713D01*
X027092Y028854D01*
X027371Y028575D01*
X027450Y028496D01*
X027492Y028393D01*
X027492Y022884D01*
X027516Y022860D01*
X027570Y022729D01*
X027570Y022586D01*
X027516Y022455D01*
X027415Y022354D01*
X027283Y022299D01*
X027141Y022299D01*
X027009Y022354D01*
X026909Y022455D01*
X026854Y022586D01*
X026854Y022729D01*
X026909Y022860D01*
X026932Y022884D01*
X026932Y028222D01*
X026654Y028500D01*
X026575Y028579D01*
X026532Y028682D01*
X026532Y036542D01*
X024616Y038458D01*
X021551Y038458D01*
X021464Y038371D01*
X021288Y038298D01*
X021097Y038298D01*
X020920Y038371D01*
X020785Y038506D01*
X020712Y038682D01*
X020712Y038873D01*
X020785Y039049D01*
X020920Y039184D01*
X021097Y039258D01*
X021288Y039258D01*
X021464Y039184D01*
X021599Y039049D01*
X021612Y039018D01*
X021764Y039018D01*
X021284Y039498D01*
X021097Y039498D01*
X020920Y039571D01*
X020785Y039706D01*
X020712Y039882D01*
X020712Y040073D01*
X020785Y040249D01*
X020920Y040384D01*
X021097Y040458D01*
X021140Y040458D01*
X021152Y040485D01*
X021225Y040558D01*
X021473Y040806D01*
X021308Y040738D01*
X021117Y040738D01*
X020940Y040811D01*
X020805Y040946D01*
X020732Y041122D01*
X020732Y041313D01*
X020805Y041489D01*
X020940Y041624D01*
X021117Y041698D01*
X021308Y041698D01*
X021484Y041624D01*
X021619Y041489D01*
X021692Y041313D01*
X021692Y041122D01*
X021624Y040957D01*
X021785Y041118D01*
X021880Y041158D01*
X025504Y041158D01*
X025599Y041118D01*
X025673Y041045D01*
X026440Y040278D01*
X044246Y040278D01*
X044189Y040335D01*
X044134Y040466D01*
X044134Y040609D01*
X044189Y040740D01*
X044266Y040818D01*
X044189Y040895D01*
X044134Y041026D01*
X044134Y041169D01*
X044189Y041300D01*
X044289Y041401D01*
X044421Y041456D01*
X044563Y041456D01*
X044695Y041401D01*
X044796Y041300D01*
X044850Y041169D01*
X044850Y041026D01*
X044796Y040895D01*
X044719Y040818D01*
X044796Y040740D01*
X044850Y040609D01*
X044850Y040466D01*
X044796Y040335D01*
X044739Y040278D01*
X051024Y040278D01*
X051119Y040238D01*
X051193Y040165D01*
X052082Y039275D01*
X052082Y045830D01*
X013072Y045831D01*
X013072Y045765D02*
X052082Y045765D01*
X052082Y045606D02*
X013072Y045606D01*
X013072Y045448D02*
X013617Y045448D01*
X013633Y045464D02*
X013406Y045236D01*
X013282Y044939D01*
X013282Y044616D01*
X013406Y044319D01*
X013633Y044091D01*
X013931Y043968D01*
X014253Y043968D01*
X014551Y044091D01*
X014779Y044319D01*
X014902Y044616D01*
X014902Y044939D01*
X014779Y045236D01*
X014551Y045464D01*
X014253Y045587D01*
X013931Y045587D01*
X013633Y045464D01*
X013458Y045289D02*
X013072Y045289D01*
X013072Y045131D02*
X013362Y045131D01*
X013296Y044972D02*
X013072Y044972D01*
X013072Y044814D02*
X013282Y044814D01*
X013282Y044655D02*
X013072Y044655D01*
X013072Y044497D02*
X013332Y044497D01*
X013398Y044338D02*
X013072Y044338D01*
X013072Y044180D02*
X013545Y044180D01*
X013802Y044021D02*
X013072Y044021D01*
X013072Y043863D02*
X019774Y043863D01*
X019785Y043889D02*
X019712Y043713D01*
X019712Y043522D01*
X019785Y043346D01*
X019920Y043211D01*
X020097Y043138D01*
X020288Y043138D01*
X020464Y043211D01*
X020599Y043346D01*
X020672Y043522D01*
X020672Y043713D01*
X020599Y043889D01*
X020464Y044024D01*
X020288Y044098D01*
X020097Y044098D01*
X019920Y044024D01*
X019785Y043889D01*
X019917Y044021D02*
X014382Y044021D01*
X014640Y044180D02*
X050545Y044180D01*
X050633Y044091D02*
X050931Y043968D01*
X051253Y043968D01*
X051551Y044091D01*
X051779Y044319D01*
X051902Y044616D01*
X051902Y044939D01*
X051779Y045236D01*
X051551Y045464D01*
X051253Y045587D01*
X050931Y045587D01*
X050633Y045464D01*
X050406Y045236D01*
X050282Y044939D01*
X050282Y044616D01*
X050406Y044319D01*
X050633Y044091D01*
X050802Y044021D02*
X021467Y044021D01*
X021464Y044024D02*
X021288Y044098D01*
X021097Y044098D01*
X020920Y044024D01*
X020785Y043889D01*
X020712Y043713D01*
X020712Y043522D01*
X020785Y043346D01*
X020920Y043211D01*
X021097Y043138D01*
X021288Y043138D01*
X021464Y043211D01*
X021599Y043346D01*
X021672Y043522D01*
X021672Y043713D01*
X021599Y043889D01*
X021464Y044024D01*
X021610Y043863D02*
X052082Y043863D01*
X052082Y044021D02*
X051382Y044021D01*
X051640Y044180D02*
X052082Y044180D01*
X052082Y044338D02*
X051787Y044338D01*
X051852Y044497D02*
X052082Y044497D01*
X052082Y044655D02*
X051902Y044655D01*
X051902Y044814D02*
X052082Y044814D01*
X052082Y044972D02*
X051888Y044972D01*
X051823Y045131D02*
X052082Y045131D01*
X052082Y045289D02*
X051726Y045289D01*
X051568Y045448D02*
X052082Y045448D01*
X050617Y045448D02*
X014568Y045448D01*
X014726Y045289D02*
X050458Y045289D01*
X050362Y045131D02*
X014823Y045131D01*
X014888Y044972D02*
X050296Y044972D01*
X050282Y044814D02*
X014902Y044814D01*
X014902Y044655D02*
X050282Y044655D01*
X050332Y044497D02*
X014852Y044497D01*
X014787Y044338D02*
X050398Y044338D01*
X052082Y043704D02*
X021672Y043704D01*
X021672Y043546D02*
X052082Y043546D01*
X052082Y043387D02*
X021616Y043387D01*
X021482Y043229D02*
X052082Y043229D01*
X052082Y043070D02*
X013072Y043070D01*
X013072Y042912D02*
X052082Y042912D01*
X052082Y042753D02*
X021535Y042753D01*
X021599Y042689D02*
X021464Y042824D01*
X021288Y042898D01*
X021097Y042898D01*
X020920Y042824D01*
X020785Y042689D01*
X020712Y042513D01*
X020712Y042322D01*
X020785Y042146D01*
X020920Y042011D01*
X021097Y041938D01*
X021288Y041938D01*
X021464Y042011D01*
X021599Y042146D01*
X021672Y042322D01*
X021672Y042513D01*
X021599Y042689D01*
X021638Y042595D02*
X052082Y042595D01*
X052082Y042436D02*
X021672Y042436D01*
X021654Y042278D02*
X052082Y042278D01*
X052082Y042119D02*
X031803Y042119D01*
X031763Y042136D02*
X031621Y042136D01*
X031489Y042081D01*
X031392Y041984D01*
X031295Y042081D01*
X031163Y042136D01*
X031021Y042136D01*
X030889Y042081D01*
X030789Y041980D01*
X030734Y041849D01*
X030734Y041706D01*
X030789Y041575D01*
X030889Y041474D01*
X031021Y041419D01*
X031163Y041419D01*
X031295Y041474D01*
X031392Y041571D01*
X031489Y041474D01*
X031621Y041419D01*
X031763Y041419D01*
X031895Y041474D01*
X031996Y041575D01*
X032050Y041706D01*
X032050Y041849D01*
X031996Y041980D01*
X031895Y042081D01*
X031763Y042136D01*
X031581Y042119D02*
X031203Y042119D01*
X030981Y042119D02*
X021573Y042119D01*
X021343Y041961D02*
X030780Y041961D01*
X030734Y041802D02*
X014696Y041802D01*
X014664Y041771D02*
X014799Y041906D01*
X014872Y042082D01*
X014872Y042273D01*
X014799Y042449D01*
X014664Y042584D01*
X014488Y042658D01*
X014297Y042658D01*
X014120Y042584D01*
X013985Y042449D01*
X013912Y042273D01*
X013912Y042082D01*
X013985Y041906D01*
X014120Y041771D01*
X014297Y041698D01*
X014488Y041698D01*
X014664Y041771D01*
X014664Y041584D02*
X014488Y041658D01*
X014297Y041658D01*
X014120Y041584D01*
X013985Y041449D01*
X013912Y041273D01*
X013912Y041082D01*
X013985Y040906D01*
X014120Y040771D01*
X014297Y040698D01*
X014488Y040698D01*
X014664Y040771D01*
X014799Y040906D01*
X014872Y041082D01*
X014872Y041273D01*
X014799Y041449D01*
X014664Y041584D01*
X014763Y041485D02*
X019803Y041485D01*
X019805Y041489D02*
X019732Y041313D01*
X019732Y041122D01*
X019805Y040946D01*
X019940Y040811D01*
X020117Y040738D01*
X020308Y040738D01*
X020484Y040811D01*
X020619Y040946D01*
X020692Y041122D01*
X020692Y041313D01*
X020619Y041489D01*
X020484Y041624D01*
X020308Y041698D01*
X020117Y041698D01*
X019940Y041624D01*
X019805Y041489D01*
X019738Y041327D02*
X014850Y041327D01*
X014872Y041168D02*
X019732Y041168D01*
X019779Y041010D02*
X014842Y041010D01*
X014745Y040851D02*
X019900Y040851D01*
X020525Y040851D02*
X020900Y040851D01*
X020779Y041010D02*
X020646Y041010D01*
X020692Y041168D02*
X020732Y041168D01*
X020738Y041327D02*
X020687Y041327D01*
X020621Y041485D02*
X020803Y041485D01*
X020986Y041644D02*
X020438Y041644D01*
X020288Y041938D02*
X020097Y041938D01*
X019920Y042011D01*
X019785Y042146D01*
X019712Y042322D01*
X019712Y042513D01*
X019785Y042689D01*
X019920Y042824D01*
X020097Y042898D01*
X020288Y042898D01*
X020464Y042824D01*
X020599Y042689D01*
X020672Y042513D01*
X020672Y042322D01*
X020599Y042146D01*
X020464Y042011D01*
X020288Y041938D01*
X020343Y041961D02*
X021041Y041961D01*
X020812Y042119D02*
X020573Y042119D01*
X020654Y042278D02*
X020731Y042278D01*
X020712Y042436D02*
X020672Y042436D01*
X020638Y042595D02*
X020746Y042595D01*
X020849Y042753D02*
X020535Y042753D01*
X020482Y043229D02*
X020902Y043229D01*
X020768Y043387D02*
X020616Y043387D01*
X020672Y043546D02*
X020712Y043546D01*
X020712Y043704D02*
X020672Y043704D01*
X020610Y043863D02*
X020774Y043863D01*
X020917Y044021D02*
X020467Y044021D01*
X019712Y043704D02*
X013072Y043704D01*
X013072Y043546D02*
X019712Y043546D01*
X019768Y043387D02*
X013072Y043387D01*
X013072Y043229D02*
X019902Y043229D01*
X019849Y042753D02*
X013072Y042753D01*
X013072Y042595D02*
X014145Y042595D01*
X013980Y042436D02*
X013072Y042436D01*
X013072Y042278D02*
X013914Y042278D01*
X013912Y042119D02*
X013072Y042119D01*
X013072Y041961D02*
X013963Y041961D01*
X014089Y041802D02*
X013072Y041802D01*
X013072Y041644D02*
X014263Y041644D01*
X014521Y041644D02*
X019986Y041644D01*
X020041Y041961D02*
X014822Y041961D01*
X014872Y042119D02*
X019812Y042119D01*
X019731Y042278D02*
X014870Y042278D01*
X014805Y042436D02*
X019712Y042436D01*
X019746Y042595D02*
X014640Y042595D01*
X014021Y041485D02*
X013072Y041485D01*
X013072Y041327D02*
X013934Y041327D01*
X013912Y041168D02*
X013072Y041168D01*
X013072Y041010D02*
X013942Y041010D01*
X014040Y040851D02*
X013072Y040851D01*
X013072Y040693D02*
X021360Y040693D01*
X021201Y040534D02*
X013072Y040534D01*
X013072Y040376D02*
X020911Y040376D01*
X020772Y040217D02*
X013072Y040217D01*
X013072Y040059D02*
X020712Y040059D01*
X020712Y039900D02*
X013072Y039900D01*
X013072Y039742D02*
X020770Y039742D01*
X020908Y039583D02*
X014665Y039583D01*
X014664Y039584D02*
X014488Y039658D01*
X014297Y039658D01*
X014120Y039584D01*
X013985Y039449D01*
X013912Y039273D01*
X013912Y039082D01*
X013985Y038906D01*
X014120Y038771D01*
X014297Y038698D01*
X014488Y038698D01*
X014664Y038771D01*
X014799Y038906D01*
X014872Y039082D01*
X014872Y039273D01*
X014799Y039449D01*
X014664Y039584D01*
X014809Y039425D02*
X021357Y039425D01*
X021516Y039266D02*
X014872Y039266D01*
X014872Y039108D02*
X019843Y039108D01*
X019785Y039049D02*
X019712Y038873D01*
X019712Y038682D01*
X019785Y038506D01*
X019920Y038371D01*
X020097Y038298D01*
X020288Y038298D01*
X020464Y038371D01*
X020599Y038506D01*
X020672Y038682D01*
X020672Y038873D01*
X020599Y039049D01*
X020464Y039184D01*
X020288Y039258D01*
X020097Y039258D01*
X019920Y039184D01*
X019785Y039049D01*
X019744Y038949D02*
X014817Y038949D01*
X014684Y038791D02*
X019712Y038791D01*
X019733Y038632D02*
X013072Y038632D01*
X013072Y038474D02*
X019817Y038474D01*
X020054Y038315D02*
X013072Y038315D01*
X013072Y038157D02*
X024917Y038157D01*
X024759Y038315D02*
X021330Y038315D01*
X021288Y038058D02*
X021097Y038058D01*
X020920Y037984D01*
X020785Y037849D01*
X020712Y037673D01*
X020712Y037482D01*
X020785Y037306D01*
X020920Y037171D01*
X021097Y037098D01*
X021288Y037098D01*
X021464Y037171D01*
X021599Y037306D01*
X021672Y037482D01*
X021672Y037673D01*
X021599Y037849D01*
X021464Y037984D01*
X021288Y038058D01*
X021431Y037998D02*
X025076Y037998D01*
X025234Y037840D02*
X021603Y037840D01*
X021669Y037681D02*
X025393Y037681D01*
X025551Y037523D02*
X021672Y037523D01*
X021623Y037364D02*
X025710Y037364D01*
X025868Y037206D02*
X021499Y037206D01*
X020885Y037206D02*
X020499Y037206D01*
X020464Y037171D02*
X020599Y037306D01*
X020672Y037482D01*
X020672Y037673D01*
X020599Y037849D01*
X020464Y037984D01*
X020288Y038058D01*
X020097Y038058D01*
X019920Y037984D01*
X019785Y037849D01*
X019712Y037673D01*
X019712Y037482D01*
X019785Y037306D01*
X019920Y037171D01*
X020097Y037098D01*
X020288Y037098D01*
X020464Y037171D01*
X020623Y037364D02*
X020761Y037364D01*
X020712Y037523D02*
X020672Y037523D01*
X020669Y037681D02*
X020716Y037681D01*
X020781Y037840D02*
X020603Y037840D01*
X020431Y037998D02*
X020953Y037998D01*
X021054Y038315D02*
X020330Y038315D01*
X020567Y038474D02*
X020817Y038474D01*
X020733Y038632D02*
X020651Y038632D01*
X020672Y038791D02*
X020712Y038791D01*
X020744Y038949D02*
X020641Y038949D01*
X020541Y039108D02*
X020843Y039108D01*
X021541Y039108D02*
X021674Y039108D01*
X021884Y039266D02*
X051724Y039266D01*
X051882Y039108D02*
X022042Y039108D01*
X022092Y039058D02*
X021522Y039628D01*
X021558Y039665D01*
X021603Y039726D01*
X021637Y039793D01*
X021660Y039865D01*
X021672Y039940D01*
X021672Y039958D01*
X021372Y039958D01*
X021372Y039998D01*
X021672Y039998D01*
X021672Y040015D01*
X021660Y040090D01*
X021637Y040162D01*
X021603Y040229D01*
X021558Y040290D01*
X021505Y040344D01*
X021444Y040388D01*
X021430Y040395D01*
X021932Y040898D01*
X025452Y040898D01*
X026332Y040018D01*
X050972Y040018D01*
X052082Y038907D01*
X052082Y021048D01*
X049932Y018898D01*
X048092Y018898D01*
X047772Y019218D01*
X047772Y020098D01*
X046892Y020978D01*
X045934Y020978D01*
X045916Y021020D01*
X045815Y021121D01*
X045683Y021176D01*
X045541Y021176D01*
X045409Y021121D01*
X045309Y021020D01*
X045292Y020981D01*
X045276Y021020D01*
X045175Y021121D01*
X045043Y021176D01*
X044901Y021176D01*
X044769Y021121D01*
X044669Y021020D01*
X044651Y020978D01*
X044412Y020978D01*
X040492Y024978D01*
X040492Y025934D01*
X040530Y026026D01*
X040530Y026169D01*
X040492Y026261D01*
X040492Y027218D01*
X039932Y027778D01*
X037932Y027778D01*
X037132Y026978D01*
X037132Y022018D01*
X033772Y018658D01*
X032892Y018658D01*
X031292Y020258D01*
X031292Y024578D01*
X035772Y029058D01*
X036433Y029058D01*
X036460Y029031D01*
X036637Y028958D01*
X036828Y028958D01*
X037004Y029031D01*
X037031Y029058D01*
X037553Y029058D01*
X037580Y029031D01*
X037757Y028958D01*
X037948Y028958D01*
X038124Y029031D01*
X038151Y029058D01*
X038733Y029058D01*
X038780Y029011D01*
X038957Y028938D01*
X039148Y028938D01*
X039324Y029011D01*
X039459Y029146D01*
X039532Y029322D01*
X039532Y029458D01*
X039692Y029618D01*
X039692Y032178D01*
X038892Y032978D01*
X038892Y036338D01*
X037132Y038098D01*
X026252Y038098D01*
X025292Y039058D01*
X022092Y039058D01*
X021725Y039425D02*
X051565Y039425D01*
X051407Y039583D02*
X021567Y039583D01*
X021611Y039742D02*
X051248Y039742D01*
X051090Y039900D02*
X021666Y039900D01*
X021665Y040059D02*
X026291Y040059D01*
X026133Y040217D02*
X021609Y040217D01*
X021461Y040376D02*
X025974Y040376D01*
X025816Y040534D02*
X021569Y040534D01*
X021727Y040693D02*
X025657Y040693D01*
X025499Y040851D02*
X021886Y040851D01*
X021677Y041010D02*
X021646Y041010D01*
X021692Y041168D02*
X029395Y041168D01*
X029389Y041175D02*
X029486Y041078D01*
X029389Y040980D01*
X029334Y040849D01*
X029334Y040706D01*
X029389Y040575D01*
X029489Y040474D01*
X029621Y040419D01*
X029763Y040419D01*
X029895Y040474D01*
X029996Y040575D01*
X030050Y040706D01*
X030050Y040849D01*
X029996Y040980D01*
X029899Y041078D01*
X029996Y041175D01*
X030050Y041306D01*
X030050Y041449D01*
X029996Y041580D01*
X029895Y041681D01*
X029763Y041736D01*
X029621Y041736D01*
X029489Y041681D01*
X029389Y041580D01*
X029334Y041449D01*
X029334Y041306D01*
X029389Y041175D01*
X029334Y041327D02*
X021687Y041327D01*
X021621Y041485D02*
X029349Y041485D01*
X029452Y041644D02*
X021438Y041644D01*
X019953Y037998D02*
X013072Y037998D01*
X013072Y037840D02*
X019781Y037840D01*
X019716Y037681D02*
X017095Y037681D01*
X016963Y037736D01*
X016821Y037736D01*
X016689Y037681D01*
X013072Y037681D01*
X013072Y037523D02*
X015653Y037523D01*
X015649Y037521D02*
X015549Y037420D01*
X015494Y037289D01*
X015494Y037146D01*
X015549Y037015D01*
X015649Y036914D01*
X015781Y036859D01*
X015923Y036859D01*
X016055Y036914D01*
X016156Y037015D01*
X016210Y037146D01*
X016210Y037289D01*
X016156Y037420D01*
X016055Y037521D01*
X015923Y037576D01*
X015781Y037576D01*
X015649Y037521D01*
X015525Y037364D02*
X013072Y037364D01*
X013072Y037206D02*
X015494Y037206D01*
X015535Y037047D02*
X013072Y037047D01*
X013072Y036889D02*
X015711Y036889D01*
X015861Y036696D02*
X015729Y036641D01*
X015629Y036540D01*
X015574Y036409D01*
X015574Y036266D01*
X015629Y036135D01*
X015729Y036034D01*
X015861Y035979D01*
X016003Y035979D01*
X016135Y036034D01*
X016236Y036135D01*
X016290Y036266D01*
X016290Y036409D01*
X016236Y036540D01*
X016135Y036641D01*
X016003Y036696D01*
X015861Y036696D01*
X015994Y036889D02*
X026185Y036889D01*
X026027Y037047D02*
X017030Y037047D01*
X017095Y037074D02*
X017196Y037175D01*
X017250Y037306D01*
X017250Y037449D01*
X017196Y037580D01*
X017095Y037681D01*
X017220Y037523D02*
X019712Y037523D01*
X019761Y037364D02*
X017250Y037364D01*
X017209Y037206D02*
X019885Y037206D01*
X019941Y036296D02*
X019809Y036241D01*
X019709Y036140D01*
X019654Y036009D01*
X019654Y035866D01*
X019709Y035735D01*
X019809Y035634D01*
X019941Y035579D01*
X020083Y035579D01*
X020215Y035634D01*
X020316Y035735D01*
X020370Y035866D01*
X020370Y036009D01*
X020316Y036140D01*
X020215Y036241D01*
X020083Y036296D01*
X019941Y036296D01*
X019842Y036255D02*
X016285Y036255D01*
X016289Y036413D02*
X026532Y036413D01*
X026532Y036255D02*
X021962Y036255D01*
X021996Y036220D02*
X021895Y036321D01*
X021763Y036376D01*
X021621Y036376D01*
X021489Y036321D01*
X021389Y036220D01*
X021334Y036089D01*
X021334Y035946D01*
X021389Y035815D01*
X021489Y035714D01*
X021621Y035659D01*
X021763Y035659D01*
X021895Y035714D01*
X021996Y035815D01*
X022050Y035946D01*
X022050Y036089D01*
X021996Y036220D01*
X022047Y036096D02*
X026532Y036096D01*
X026532Y035938D02*
X022047Y035938D01*
X021960Y035779D02*
X026532Y035779D01*
X026532Y035621D02*
X021316Y035621D01*
X021356Y035580D02*
X021255Y035681D01*
X021123Y035736D01*
X020981Y035736D01*
X020849Y035681D01*
X020749Y035580D01*
X020694Y035449D01*
X020694Y035306D01*
X020749Y035175D01*
X020849Y035074D01*
X020981Y035019D01*
X021123Y035019D01*
X021255Y035074D01*
X021356Y035175D01*
X021410Y035306D01*
X021410Y035449D01*
X021356Y035580D01*
X021405Y035462D02*
X025558Y035462D01*
X025560Y035464D02*
X025425Y035329D01*
X025352Y035153D01*
X025352Y034962D01*
X025425Y034786D01*
X025560Y034651D01*
X025737Y034578D01*
X025928Y034578D01*
X026104Y034651D01*
X026239Y034786D01*
X026312Y034962D01*
X026312Y035153D01*
X026239Y035329D01*
X026104Y035464D01*
X025928Y035538D01*
X025737Y035538D01*
X025560Y035464D01*
X025415Y035304D02*
X021409Y035304D01*
X021326Y035145D02*
X025352Y035145D01*
X025352Y034987D02*
X013072Y034987D01*
X013072Y035145D02*
X020778Y035145D01*
X020695Y035304D02*
X013072Y035304D01*
X013072Y035462D02*
X014798Y035462D01*
X014769Y035474D02*
X014901Y035419D01*
X015043Y035419D01*
X015175Y035474D01*
X015276Y035575D01*
X015330Y035706D01*
X015330Y035849D01*
X015276Y035980D01*
X015175Y036081D01*
X015043Y036136D01*
X014901Y036136D01*
X014769Y036081D01*
X014669Y035980D01*
X014614Y035849D01*
X014614Y035706D01*
X014669Y035575D01*
X014769Y035474D01*
X014650Y035621D02*
X013072Y035621D01*
X013072Y035779D02*
X014614Y035779D01*
X014651Y035938D02*
X013072Y035938D01*
X013072Y036096D02*
X014805Y036096D01*
X015139Y036096D02*
X015667Y036096D01*
X015579Y036255D02*
X013072Y036255D01*
X013072Y036413D02*
X015576Y036413D01*
X015660Y036572D02*
X013072Y036572D01*
X013072Y036730D02*
X026344Y036730D01*
X026502Y036572D02*
X016205Y036572D01*
X016197Y036096D02*
X019690Y036096D01*
X019654Y035938D02*
X015294Y035938D01*
X015330Y035779D02*
X019690Y035779D01*
X019842Y035621D02*
X015295Y035621D01*
X015146Y035462D02*
X020700Y035462D01*
X020789Y035621D02*
X020183Y035621D01*
X020334Y035779D02*
X021424Y035779D01*
X021338Y035938D02*
X020370Y035938D01*
X020334Y036096D02*
X021337Y036096D01*
X021423Y036255D02*
X020183Y036255D01*
X017095Y037074D02*
X016963Y037019D01*
X016821Y037019D01*
X016689Y037074D01*
X016589Y037175D01*
X016534Y037306D01*
X016534Y037449D01*
X016589Y037580D01*
X016689Y037681D01*
X016565Y037523D02*
X016052Y037523D01*
X016179Y037364D02*
X016534Y037364D01*
X016576Y037206D02*
X016210Y037206D01*
X016169Y037047D02*
X016754Y037047D01*
X014100Y038791D02*
X013072Y038791D01*
X013072Y038949D02*
X013967Y038949D01*
X013912Y039108D02*
X013072Y039108D01*
X013072Y039266D02*
X013912Y039266D01*
X013975Y039425D02*
X013072Y039425D01*
X013072Y039583D02*
X014119Y039583D01*
X013072Y034828D02*
X025408Y034828D01*
X025541Y034670D02*
X013072Y034670D01*
X013072Y034511D02*
X025673Y034511D01*
X025737Y034538D02*
X025560Y034464D01*
X025425Y034329D01*
X025352Y034153D01*
X025352Y033962D01*
X025425Y033786D01*
X025560Y033651D01*
X025737Y033578D01*
X025928Y033578D01*
X026104Y033651D01*
X026239Y033786D01*
X026312Y033962D01*
X026312Y034153D01*
X026239Y034329D01*
X026104Y034464D01*
X025928Y034538D01*
X025737Y034538D01*
X025992Y034511D02*
X026532Y034511D01*
X026532Y034353D02*
X026216Y034353D01*
X026295Y034194D02*
X026532Y034194D01*
X026532Y034036D02*
X026312Y034036D01*
X026277Y033877D02*
X026532Y033877D01*
X026532Y033719D02*
X026172Y033719D01*
X026104Y033464D02*
X026239Y033329D01*
X026312Y033153D01*
X026312Y032962D01*
X026239Y032786D01*
X026104Y032651D01*
X025928Y032578D01*
X025737Y032578D01*
X025560Y032651D01*
X025425Y032786D01*
X025352Y032962D01*
X025352Y033153D01*
X025425Y033329D01*
X025560Y033464D01*
X025737Y033538D01*
X025928Y033538D01*
X026104Y033464D01*
X026167Y033402D02*
X026532Y033402D01*
X026532Y033560D02*
X013072Y033560D01*
X013072Y033402D02*
X025497Y033402D01*
X025389Y033243D02*
X013072Y033243D01*
X013072Y033085D02*
X025352Y033085D01*
X025367Y032926D02*
X013072Y032926D01*
X013072Y032768D02*
X025443Y032768D01*
X025661Y032609D02*
X013072Y032609D01*
X013072Y032451D02*
X026532Y032451D01*
X026532Y032609D02*
X026004Y032609D01*
X026221Y032768D02*
X026532Y032768D01*
X026532Y032926D02*
X026297Y032926D01*
X026312Y033085D02*
X026532Y033085D01*
X026532Y033243D02*
X026275Y033243D01*
X025492Y033719D02*
X013740Y033719D01*
X013695Y033674D02*
X013796Y033775D01*
X013850Y033906D01*
X013850Y034049D01*
X013796Y034180D01*
X013695Y034281D01*
X013563Y034336D01*
X013421Y034336D01*
X013289Y034281D01*
X013189Y034180D01*
X013134Y034049D01*
X013134Y033906D01*
X013189Y033775D01*
X013289Y033674D01*
X013421Y033619D01*
X013563Y033619D01*
X013695Y033674D01*
X013838Y033877D02*
X025387Y033877D01*
X025352Y034036D02*
X013850Y034036D01*
X013782Y034194D02*
X025369Y034194D01*
X025448Y034353D02*
X013072Y034353D01*
X013072Y034194D02*
X013202Y034194D01*
X013134Y034036D02*
X013072Y034036D01*
X013072Y033877D02*
X013146Y033877D01*
X013072Y033719D02*
X013245Y033719D01*
X013072Y032292D02*
X026532Y032292D01*
X026532Y032134D02*
X023928Y032134D01*
X023923Y032136D02*
X023781Y032136D01*
X023649Y032081D01*
X023549Y031980D01*
X023494Y031849D01*
X023494Y031706D01*
X023549Y031575D01*
X023649Y031474D01*
X023781Y031419D01*
X023923Y031419D01*
X024055Y031474D01*
X024156Y031575D01*
X024210Y031706D01*
X024210Y031849D01*
X024156Y031980D01*
X024055Y032081D01*
X023923Y032136D01*
X023776Y032134D02*
X013072Y032134D01*
X013072Y031975D02*
X023546Y031975D01*
X023494Y031817D02*
X013072Y031817D01*
X013072Y031658D02*
X023514Y031658D01*
X023624Y031500D02*
X013072Y031500D01*
X013072Y031341D02*
X017349Y031341D01*
X017309Y031300D02*
X017254Y031169D01*
X017254Y031026D01*
X017309Y030895D01*
X017409Y030794D01*
X017541Y030739D01*
X017683Y030739D01*
X017815Y030794D01*
X017916Y030895D01*
X017970Y031026D01*
X017970Y031169D01*
X017916Y031300D01*
X017815Y031401D01*
X017683Y031456D01*
X017541Y031456D01*
X017409Y031401D01*
X017309Y031300D01*
X017260Y031183D02*
X013072Y031183D01*
X013072Y031024D02*
X015552Y031024D01*
X015549Y031020D02*
X015494Y030889D01*
X015494Y030746D01*
X015549Y030615D01*
X015649Y030514D01*
X015781Y030459D01*
X015923Y030459D01*
X016055Y030514D01*
X016156Y030615D01*
X016210Y030746D01*
X016210Y030889D01*
X016156Y031020D01*
X016055Y031121D01*
X015923Y031176D01*
X015781Y031176D01*
X015649Y031121D01*
X015549Y031020D01*
X015494Y030866D02*
X013072Y030866D01*
X013072Y030707D02*
X015510Y030707D01*
X015615Y030549D02*
X013072Y030549D01*
X013072Y030390D02*
X015718Y030390D01*
X015729Y030401D02*
X015629Y030300D01*
X015574Y030169D01*
X015574Y030026D01*
X015629Y029895D01*
X015729Y029794D01*
X015861Y029739D01*
X016003Y029739D01*
X016135Y029794D01*
X016236Y029895D01*
X016290Y030026D01*
X016290Y030169D01*
X016236Y030300D01*
X016135Y030401D01*
X016003Y030456D01*
X015861Y030456D01*
X015729Y030401D01*
X015600Y030232D02*
X014865Y030232D01*
X014855Y030241D02*
X014723Y030296D01*
X014581Y030296D01*
X014449Y030241D01*
X014349Y030140D01*
X014294Y030009D01*
X014294Y029866D01*
X014349Y029735D01*
X014449Y029634D01*
X014581Y029579D01*
X014723Y029579D01*
X014855Y029634D01*
X014956Y029735D01*
X015010Y029866D01*
X015010Y030009D01*
X014956Y030140D01*
X014855Y030241D01*
X014984Y030073D02*
X015574Y030073D01*
X015620Y029915D02*
X015010Y029915D01*
X014965Y029756D02*
X015821Y029756D01*
X016044Y029756D02*
X026532Y029756D01*
X026532Y029598D02*
X014767Y029598D01*
X014537Y029598D02*
X013072Y029598D01*
X013072Y029756D02*
X014340Y029756D01*
X014294Y029915D02*
X013072Y029915D01*
X013072Y030073D02*
X014321Y030073D01*
X014440Y030232D02*
X013072Y030232D01*
X013072Y029439D02*
X021007Y029439D01*
X020989Y029420D02*
X020934Y029289D01*
X020934Y029146D01*
X020989Y029015D01*
X021089Y028914D01*
X021221Y028859D01*
X021363Y028859D01*
X021495Y028914D01*
X021596Y029015D01*
X021650Y029146D01*
X021650Y029289D01*
X021596Y029420D01*
X021495Y029521D01*
X021363Y029576D01*
X021221Y029576D01*
X021089Y029521D01*
X020989Y029420D01*
X020934Y029281D02*
X013072Y029281D01*
X013072Y029122D02*
X020944Y029122D01*
X021040Y028964D02*
X013072Y028964D01*
X013072Y028805D02*
X026532Y028805D01*
X026532Y028964D02*
X021545Y028964D01*
X021640Y029122D02*
X026532Y029122D01*
X026532Y029281D02*
X021650Y029281D01*
X021577Y029439D02*
X026532Y029439D01*
X026532Y029915D02*
X016244Y029915D01*
X016290Y030073D02*
X026532Y030073D01*
X026532Y030232D02*
X016264Y030232D01*
X016146Y030390D02*
X026532Y030390D01*
X026532Y030549D02*
X016090Y030549D01*
X016194Y030707D02*
X026532Y030707D01*
X026532Y030866D02*
X017887Y030866D01*
X017969Y031024D02*
X026532Y031024D01*
X026532Y031183D02*
X017965Y031183D01*
X017875Y031341D02*
X026532Y031341D01*
X026532Y031500D02*
X024081Y031500D01*
X024190Y031658D02*
X026532Y031658D01*
X026532Y031817D02*
X024210Y031817D01*
X024158Y031975D02*
X026532Y031975D01*
X027092Y031975D02*
X032473Y031975D01*
X032454Y031929D02*
X032454Y031786D01*
X032509Y031655D01*
X032609Y031554D01*
X032741Y031499D01*
X032883Y031499D01*
X033015Y031554D01*
X033116Y031655D01*
X033170Y031786D01*
X033170Y031929D01*
X033116Y032060D01*
X033015Y032161D01*
X032883Y032216D01*
X032741Y032216D01*
X032609Y032161D01*
X032509Y032060D01*
X032454Y031929D01*
X032454Y031817D02*
X029200Y031817D01*
X029175Y031841D02*
X029043Y031896D01*
X028901Y031896D01*
X028769Y031841D01*
X028669Y031740D01*
X028614Y031609D01*
X028614Y031466D01*
X028669Y031335D01*
X028769Y031234D01*
X028901Y031179D01*
X029043Y031179D01*
X029175Y031234D01*
X029276Y031335D01*
X029330Y031466D01*
X029330Y031609D01*
X029276Y031740D01*
X029175Y031841D01*
X029310Y031658D02*
X032507Y031658D01*
X032741Y031500D02*
X029330Y031500D01*
X029278Y031341D02*
X038572Y031341D01*
X038572Y031500D02*
X032884Y031500D01*
X033117Y031658D02*
X038632Y031658D01*
X038772Y031817D02*
X033170Y031817D01*
X033151Y031975D02*
X039432Y031975D01*
X039432Y031817D02*
X039332Y031817D01*
X039368Y032134D02*
X033043Y032134D01*
X032582Y032134D02*
X031835Y032134D01*
X031836Y032135D02*
X031890Y032266D01*
X031890Y032409D01*
X031836Y032540D01*
X031735Y032641D01*
X031603Y032696D01*
X031461Y032696D01*
X031329Y032641D01*
X031229Y032540D01*
X031174Y032409D01*
X031174Y032266D01*
X031229Y032135D01*
X031329Y032034D01*
X031461Y031979D01*
X031603Y031979D01*
X031735Y032034D01*
X031836Y032135D01*
X031890Y032292D02*
X039210Y032292D01*
X039051Y032451D02*
X031873Y032451D01*
X031767Y032609D02*
X038893Y032609D01*
X039102Y032768D02*
X052082Y032768D01*
X052082Y032926D02*
X038944Y032926D01*
X038892Y033085D02*
X052082Y033085D01*
X052082Y033243D02*
X038892Y033243D01*
X038892Y033402D02*
X052082Y033402D01*
X052082Y033560D02*
X038892Y033560D01*
X038892Y033719D02*
X052082Y033719D01*
X052082Y033877D02*
X038892Y033877D01*
X038892Y034036D02*
X052082Y034036D01*
X052082Y034194D02*
X038892Y034194D01*
X038892Y034353D02*
X052082Y034353D01*
X052082Y034511D02*
X038892Y034511D01*
X038892Y034670D02*
X052082Y034670D01*
X052082Y034828D02*
X038892Y034828D01*
X038892Y034987D02*
X052082Y034987D01*
X052082Y035145D02*
X038892Y035145D01*
X038892Y035304D02*
X052082Y035304D01*
X052082Y035462D02*
X038892Y035462D01*
X038892Y035621D02*
X052082Y035621D01*
X052082Y035779D02*
X038892Y035779D01*
X038892Y035938D02*
X052082Y035938D01*
X052082Y036096D02*
X038892Y036096D01*
X038892Y036255D02*
X052082Y036255D01*
X052082Y036413D02*
X038817Y036413D01*
X038658Y036572D02*
X052082Y036572D01*
X052082Y036730D02*
X038500Y036730D01*
X038341Y036889D02*
X052082Y036889D01*
X052082Y037047D02*
X038183Y037047D01*
X038024Y037206D02*
X052082Y037206D01*
X052082Y037364D02*
X037866Y037364D01*
X037707Y037523D02*
X052082Y037523D01*
X052082Y037681D02*
X037549Y037681D01*
X037390Y037840D02*
X052082Y037840D01*
X052082Y037998D02*
X037232Y037998D01*
X037181Y037681D02*
X026185Y037681D01*
X026196Y037840D02*
X026026Y037840D01*
X025984Y037998D02*
X025868Y037998D01*
X025825Y038157D02*
X025709Y038157D01*
X025667Y038315D02*
X025551Y038315D01*
X025508Y038474D02*
X025392Y038474D01*
X025350Y038632D02*
X025234Y038632D01*
X025191Y038791D02*
X025075Y038791D01*
X025401Y038949D02*
X052041Y038949D01*
X052082Y038791D02*
X025559Y038791D01*
X025718Y038632D02*
X052082Y038632D01*
X052082Y038474D02*
X025876Y038474D01*
X026035Y038315D02*
X052082Y038315D01*
X052082Y038157D02*
X026193Y038157D01*
X026343Y037523D02*
X037339Y037523D01*
X037498Y037364D02*
X026502Y037364D01*
X026660Y037206D02*
X037656Y037206D01*
X037815Y037047D02*
X026819Y037047D01*
X026977Y036889D02*
X037973Y036889D01*
X038132Y036730D02*
X027085Y036730D01*
X027092Y036572D02*
X038290Y036572D01*
X038449Y036413D02*
X027092Y036413D01*
X027092Y036255D02*
X038607Y036255D01*
X038632Y036096D02*
X027092Y036096D01*
X027092Y035938D02*
X038632Y035938D01*
X038632Y035779D02*
X027092Y035779D01*
X027092Y035621D02*
X038632Y035621D01*
X038632Y035462D02*
X027092Y035462D01*
X027092Y035304D02*
X038632Y035304D01*
X038632Y035145D02*
X027092Y035145D01*
X027092Y034987D02*
X038632Y034987D01*
X038632Y034828D02*
X027092Y034828D01*
X027092Y034670D02*
X038632Y034670D01*
X038632Y034511D02*
X027092Y034511D01*
X027092Y034353D02*
X038632Y034353D01*
X038632Y034194D02*
X027092Y034194D01*
X027092Y034036D02*
X038632Y034036D01*
X038632Y033877D02*
X027092Y033877D01*
X027092Y033719D02*
X038632Y033719D01*
X039261Y032609D02*
X044805Y032609D01*
X044821Y032616D02*
X044689Y032561D01*
X044589Y032460D01*
X044534Y032329D01*
X044534Y032186D01*
X044589Y032055D01*
X044689Y031954D01*
X044821Y031899D01*
X044963Y031899D01*
X045095Y031954D01*
X045196Y032055D01*
X045250Y032186D01*
X045250Y032329D01*
X045196Y032460D01*
X045095Y032561D01*
X044963Y032616D01*
X044821Y032616D01*
X044979Y032609D02*
X052082Y032609D01*
X052082Y032451D02*
X045200Y032451D01*
X045250Y032292D02*
X052082Y032292D01*
X052082Y032134D02*
X045228Y032134D01*
X045116Y031975D02*
X052082Y031975D01*
X052082Y031817D02*
X043324Y031817D01*
X043319Y031806D02*
X043392Y031982D01*
X043392Y032173D01*
X043319Y032349D01*
X043184Y032484D01*
X043008Y032558D01*
X042817Y032558D01*
X042640Y032484D01*
X042505Y032349D01*
X042432Y032173D01*
X042432Y031982D01*
X042505Y031806D01*
X042640Y031671D01*
X042817Y031598D01*
X043008Y031598D01*
X043184Y031671D01*
X043319Y031806D01*
X043389Y031975D02*
X044668Y031975D01*
X044556Y032134D02*
X043392Y032134D01*
X043343Y032292D02*
X044534Y032292D01*
X044585Y032451D02*
X043218Y032451D01*
X042606Y032451D02*
X042218Y032451D01*
X042184Y032484D02*
X042319Y032349D01*
X042392Y032173D01*
X042392Y031982D01*
X042319Y031806D01*
X042184Y031671D01*
X042008Y031598D01*
X041817Y031598D01*
X041640Y031671D01*
X041505Y031806D01*
X041432Y031982D01*
X041432Y032173D01*
X041505Y032349D01*
X041640Y032484D01*
X041817Y032558D01*
X042008Y032558D01*
X042184Y032484D01*
X042343Y032292D02*
X042482Y032292D01*
X042432Y032134D02*
X042392Y032134D01*
X042389Y031975D02*
X042435Y031975D01*
X042501Y031817D02*
X042324Y031817D01*
X042154Y031658D02*
X042671Y031658D01*
X043154Y031658D02*
X052082Y031658D01*
X052082Y031500D02*
X039692Y031500D01*
X039692Y031658D02*
X040671Y031658D01*
X040640Y031671D02*
X040817Y031598D01*
X041008Y031598D01*
X041184Y031671D01*
X041319Y031806D01*
X041392Y031982D01*
X041392Y032173D01*
X041319Y032349D01*
X041184Y032484D01*
X041008Y032558D01*
X040817Y032558D01*
X040640Y032484D01*
X040505Y032349D01*
X040432Y032173D01*
X040432Y031982D01*
X040505Y031806D01*
X040640Y031671D01*
X040501Y031817D02*
X039692Y031817D01*
X039692Y031975D02*
X040435Y031975D01*
X040432Y032134D02*
X039692Y032134D01*
X039578Y032292D02*
X040482Y032292D01*
X040606Y032451D02*
X039419Y032451D01*
X039692Y031341D02*
X052082Y031341D01*
X052082Y031183D02*
X039692Y031183D01*
X039692Y031024D02*
X052082Y031024D01*
X052082Y030866D02*
X039692Y030866D01*
X039692Y030707D02*
X052082Y030707D01*
X052082Y030549D02*
X039692Y030549D01*
X039692Y030390D02*
X052082Y030390D01*
X052082Y030232D02*
X039692Y030232D01*
X039692Y030073D02*
X045918Y030073D01*
X045977Y030098D02*
X045800Y030024D01*
X045665Y029889D01*
X045592Y029713D01*
X045592Y029522D01*
X045665Y029346D01*
X045800Y029211D01*
X045977Y029138D01*
X046168Y029138D01*
X046344Y029211D01*
X046479Y029346D01*
X046552Y029522D01*
X046552Y029713D01*
X046479Y029889D01*
X046344Y030024D01*
X046168Y030098D01*
X045977Y030098D01*
X046227Y030073D02*
X046918Y030073D01*
X046977Y030098D02*
X046800Y030024D01*
X046665Y029889D01*
X046592Y029713D01*
X046592Y029522D01*
X046665Y029346D01*
X046800Y029211D01*
X046977Y029138D01*
X047168Y029138D01*
X047344Y029211D01*
X047479Y029346D01*
X047552Y029522D01*
X047552Y029713D01*
X047479Y029889D01*
X047344Y030024D01*
X047168Y030098D01*
X046977Y030098D01*
X047227Y030073D02*
X052082Y030073D01*
X052082Y029915D02*
X047454Y029915D01*
X047534Y029756D02*
X052082Y029756D01*
X052082Y029598D02*
X047552Y029598D01*
X047518Y029439D02*
X052082Y029439D01*
X052082Y029281D02*
X047414Y029281D01*
X046730Y029281D02*
X046414Y029281D01*
X046518Y029439D02*
X046627Y029439D01*
X046592Y029598D02*
X046552Y029598D01*
X046534Y029756D02*
X046610Y029756D01*
X046690Y029915D02*
X046454Y029915D01*
X045690Y029915D02*
X039692Y029915D01*
X039692Y029756D02*
X045610Y029756D01*
X045592Y029598D02*
X039672Y029598D01*
X039532Y029439D02*
X045627Y029439D01*
X045730Y029281D02*
X039515Y029281D01*
X039436Y029122D02*
X052082Y029122D01*
X052082Y028964D02*
X039211Y028964D01*
X038894Y028964D02*
X037962Y028964D01*
X037742Y028964D02*
X036842Y028964D01*
X036622Y028964D02*
X035678Y028964D01*
X035520Y028805D02*
X052082Y028805D01*
X052082Y028647D02*
X040370Y028647D01*
X040396Y028620D02*
X040295Y028721D01*
X040163Y028776D01*
X040021Y028776D01*
X039889Y028721D01*
X039789Y028620D01*
X039734Y028489D01*
X039734Y028346D01*
X039789Y028215D01*
X039889Y028114D01*
X040021Y028059D01*
X040163Y028059D01*
X040295Y028114D01*
X040396Y028215D01*
X040450Y028346D01*
X040450Y028489D01*
X040396Y028620D01*
X040450Y028488D02*
X052082Y028488D01*
X052082Y028330D02*
X040443Y028330D01*
X040352Y028171D02*
X052082Y028171D01*
X052082Y028013D02*
X034727Y028013D01*
X034886Y028171D02*
X039832Y028171D01*
X039741Y028330D02*
X035044Y028330D01*
X035203Y028488D02*
X039734Y028488D01*
X039815Y028647D02*
X035361Y028647D01*
X035152Y028805D02*
X029322Y028805D01*
X029330Y028826D02*
X029276Y028695D01*
X029175Y028594D01*
X029043Y028539D01*
X028901Y028539D01*
X028769Y028594D01*
X028669Y028695D01*
X028614Y028826D01*
X028614Y028969D01*
X028669Y029100D01*
X028769Y029201D01*
X028901Y029256D01*
X029043Y029256D01*
X029175Y029201D01*
X029276Y029100D01*
X029330Y028969D01*
X029330Y028826D01*
X029330Y028964D02*
X035311Y028964D01*
X035469Y029122D02*
X029254Y029122D01*
X029228Y028647D02*
X034994Y028647D01*
X034835Y028488D02*
X027453Y028488D01*
X027492Y028330D02*
X032630Y028330D01*
X032609Y028321D02*
X032509Y028220D01*
X032454Y028089D01*
X032454Y027946D01*
X032509Y027815D01*
X032609Y027714D01*
X032741Y027659D01*
X032883Y027659D01*
X033015Y027714D01*
X033092Y027791D01*
X033169Y027714D01*
X033301Y027659D01*
X033443Y027659D01*
X033575Y027714D01*
X033676Y027815D01*
X033730Y027946D01*
X033730Y028089D01*
X033676Y028220D01*
X033575Y028321D01*
X033443Y028376D01*
X033301Y028376D01*
X033169Y028321D01*
X033092Y028244D01*
X033015Y028321D01*
X032883Y028376D01*
X032741Y028376D01*
X032609Y028321D01*
X032488Y028171D02*
X032271Y028171D01*
X032295Y028161D02*
X032163Y028216D01*
X032021Y028216D01*
X031889Y028161D01*
X031789Y028060D01*
X031734Y027929D01*
X031734Y027786D01*
X031789Y027655D01*
X031889Y027554D01*
X032021Y027499D01*
X032163Y027499D01*
X032295Y027554D01*
X032396Y027655D01*
X032450Y027786D01*
X032450Y027929D01*
X032396Y028060D01*
X032295Y028161D01*
X032416Y028013D02*
X032454Y028013D01*
X032450Y027854D02*
X032492Y027854D01*
X032413Y027696D02*
X032654Y027696D01*
X032971Y027696D02*
X033214Y027696D01*
X033531Y027696D02*
X034043Y027696D01*
X034201Y027854D02*
X033692Y027854D01*
X033730Y028013D02*
X034360Y028013D01*
X034518Y028171D02*
X033696Y028171D01*
X033555Y028330D02*
X034677Y028330D01*
X034569Y027854D02*
X052082Y027854D01*
X052082Y027696D02*
X040014Y027696D01*
X040173Y027537D02*
X052082Y027537D01*
X052082Y027379D02*
X040331Y027379D01*
X040490Y027220D02*
X052082Y027220D01*
X052082Y027062D02*
X040492Y027062D01*
X040492Y026903D02*
X052082Y026903D01*
X052082Y026745D02*
X040492Y026745D01*
X040492Y026586D02*
X052082Y026586D01*
X052082Y026428D02*
X040492Y026428D01*
X040492Y026269D02*
X052082Y026269D01*
X052082Y026111D02*
X040530Y026111D01*
X040500Y025952D02*
X052082Y025952D01*
X052082Y025794D02*
X040492Y025794D01*
X040492Y025635D02*
X052082Y025635D01*
X052082Y025477D02*
X040492Y025477D01*
X040492Y025318D02*
X052082Y025318D01*
X052082Y025160D02*
X040492Y025160D01*
X040492Y025001D02*
X052082Y025001D01*
X052082Y024843D02*
X040624Y024843D01*
X040780Y024684D02*
X052082Y024684D01*
X052082Y024526D02*
X040935Y024526D01*
X041090Y024367D02*
X052082Y024367D01*
X052082Y024209D02*
X041246Y024209D01*
X041401Y024050D02*
X052082Y024050D01*
X052082Y023892D02*
X047813Y023892D01*
X047803Y023896D02*
X047661Y023896D01*
X047529Y023841D01*
X047429Y023740D01*
X047374Y023609D01*
X047374Y023466D01*
X047429Y023335D01*
X047529Y023234D01*
X047661Y023179D01*
X047803Y023179D01*
X047935Y023234D01*
X048036Y023335D01*
X048090Y023466D01*
X048090Y023609D01*
X048036Y023740D01*
X047935Y023841D01*
X047803Y023896D01*
X047651Y023892D02*
X041556Y023892D01*
X041712Y023733D02*
X047426Y023733D01*
X047374Y023575D02*
X046880Y023575D01*
X046904Y023564D02*
X046728Y023638D01*
X046537Y023638D01*
X046360Y023564D01*
X046225Y023429D01*
X046152Y023253D01*
X046152Y023062D01*
X046225Y022886D01*
X046360Y022751D01*
X046537Y022678D01*
X046728Y022678D01*
X046904Y022751D01*
X047039Y022886D01*
X047112Y023062D01*
X047112Y023253D01*
X047039Y023429D01*
X046904Y023564D01*
X047045Y023416D02*
X047395Y023416D01*
X047506Y023258D02*
X047110Y023258D01*
X047112Y023099D02*
X048067Y023099D01*
X048089Y023121D02*
X047989Y023020D01*
X047934Y022889D01*
X047934Y022746D01*
X047989Y022615D01*
X048089Y022514D01*
X048221Y022459D01*
X048363Y022459D01*
X048495Y022514D01*
X048596Y022615D01*
X048650Y022746D01*
X048650Y022889D01*
X048596Y023020D01*
X048495Y023121D01*
X048363Y023176D01*
X048221Y023176D01*
X048089Y023121D01*
X047959Y023258D02*
X052082Y023258D01*
X052082Y023416D02*
X048069Y023416D01*
X048090Y023575D02*
X052082Y023575D01*
X052082Y023733D02*
X048039Y023733D01*
X048517Y023099D02*
X052082Y023099D01*
X052082Y022941D02*
X048629Y022941D01*
X048650Y022782D02*
X052082Y022782D01*
X052082Y022624D02*
X048599Y022624D01*
X048377Y022465D02*
X052082Y022465D01*
X052082Y022307D02*
X047057Y022307D01*
X047039Y022349D02*
X047112Y022173D01*
X047112Y021982D01*
X047039Y021806D01*
X046904Y021671D01*
X046728Y021598D01*
X046537Y021598D01*
X046360Y021671D01*
X046225Y021806D01*
X046152Y021982D01*
X046152Y022173D01*
X046225Y022349D01*
X046360Y022484D01*
X046537Y022558D01*
X046728Y022558D01*
X046904Y022484D01*
X047039Y022349D01*
X046923Y022465D02*
X048207Y022465D01*
X047985Y022624D02*
X042799Y022624D01*
X042644Y022782D02*
X044329Y022782D01*
X044360Y022751D02*
X044537Y022678D01*
X044728Y022678D01*
X044904Y022751D01*
X045039Y022886D01*
X045112Y023062D01*
X045112Y023253D01*
X045039Y023429D01*
X044904Y023564D01*
X044728Y023638D01*
X044537Y023638D01*
X044360Y023564D01*
X044225Y023429D01*
X044152Y023253D01*
X044152Y023062D01*
X044225Y022886D01*
X044360Y022751D01*
X044203Y022941D02*
X042488Y022941D01*
X042333Y023099D02*
X044152Y023099D01*
X044154Y023258D02*
X042178Y023258D01*
X042022Y023416D02*
X044220Y023416D01*
X044385Y023575D02*
X041867Y023575D01*
X041658Y023416D02*
X037836Y023416D01*
X037837Y023258D02*
X041814Y023258D01*
X041969Y023099D02*
X037890Y023099D01*
X038045Y022941D02*
X042124Y022941D01*
X042280Y022782D02*
X038204Y022782D01*
X038343Y022624D02*
X042435Y022624D01*
X042590Y022465D02*
X038372Y022465D01*
X038790Y022307D02*
X042746Y022307D01*
X042901Y022148D02*
X040068Y022148D01*
X040076Y022140D02*
X039975Y022241D01*
X039843Y022296D01*
X039701Y022296D01*
X039569Y022241D01*
X039469Y022140D01*
X039414Y022009D01*
X039414Y021866D01*
X039469Y021735D01*
X039569Y021634D01*
X039701Y021579D01*
X039843Y021579D01*
X039975Y021634D01*
X040076Y021735D01*
X040130Y021866D01*
X040130Y022009D01*
X040076Y022140D01*
X040130Y021990D02*
X043056Y021990D01*
X043212Y021831D02*
X040116Y021831D01*
X040014Y021673D02*
X043367Y021673D01*
X043522Y021514D02*
X038145Y021514D01*
X038303Y021673D02*
X038469Y021673D01*
X038675Y021673D02*
X039531Y021673D01*
X039429Y021831D02*
X038883Y021831D01*
X038930Y021990D02*
X039414Y021990D01*
X039476Y022148D02*
X038906Y022148D01*
X037812Y021990D02*
X037628Y021990D01*
X037670Y021831D02*
X037313Y021831D01*
X037392Y021990D02*
X037437Y021990D01*
X037511Y021673D02*
X037155Y021673D01*
X036996Y021514D02*
X037353Y021514D01*
X037194Y021356D02*
X036838Y021356D01*
X036679Y021197D02*
X037036Y021197D01*
X036877Y021039D02*
X036521Y021039D01*
X036362Y020880D02*
X036719Y020880D01*
X036560Y020722D02*
X036204Y020722D01*
X036045Y020563D02*
X036402Y020563D01*
X036243Y020405D02*
X035887Y020405D01*
X035728Y020246D02*
X036085Y020246D01*
X035926Y020088D02*
X035570Y020088D01*
X035411Y019929D02*
X035768Y019929D01*
X035609Y019771D02*
X035253Y019771D01*
X035094Y019612D02*
X035451Y019612D01*
X035292Y019454D02*
X034936Y019454D01*
X034777Y019295D02*
X035134Y019295D01*
X034975Y019137D02*
X034619Y019137D01*
X034460Y018978D02*
X034817Y018978D01*
X034658Y018820D02*
X034302Y018820D01*
X034143Y018661D02*
X034500Y018661D01*
X034341Y018503D02*
X033985Y018503D01*
X034183Y018344D02*
X030802Y018344D01*
X030960Y018186D02*
X034024Y018186D01*
X033866Y018027D02*
X031119Y018027D01*
X031277Y017869D02*
X033707Y017869D01*
X033549Y017710D02*
X031436Y017710D01*
X030961Y017393D02*
X013072Y017393D01*
X013072Y017235D02*
X031119Y017235D01*
X031278Y017076D02*
X013072Y017076D01*
X013072Y016918D02*
X045817Y016918D01*
X045861Y016936D02*
X045729Y016881D01*
X045629Y016780D01*
X045574Y016649D01*
X045574Y016506D01*
X045629Y016375D01*
X045729Y016274D01*
X045861Y016219D01*
X046003Y016219D01*
X046135Y016274D01*
X046236Y016375D01*
X046290Y016506D01*
X046290Y016649D01*
X046236Y016780D01*
X046135Y016881D01*
X046003Y016936D01*
X045861Y016936D01*
X046047Y016918D02*
X050282Y016918D01*
X050282Y016816D02*
X050406Y016519D01*
X050633Y016291D01*
X050931Y016168D01*
X051253Y016168D01*
X051551Y016291D01*
X051779Y016519D01*
X051902Y016816D01*
X051902Y017139D01*
X051779Y017436D01*
X051551Y017664D01*
X051253Y017787D01*
X050931Y017787D01*
X050633Y017664D01*
X050406Y017436D01*
X050282Y017139D01*
X050282Y016816D01*
X050306Y016759D02*
X046245Y016759D01*
X046290Y016601D02*
X050372Y016601D01*
X050482Y016442D02*
X046264Y016442D01*
X046145Y016284D02*
X050651Y016284D01*
X050282Y017076D02*
X033707Y017076D01*
X033865Y017235D02*
X050322Y017235D01*
X050388Y017393D02*
X034024Y017393D01*
X034182Y017552D02*
X050521Y017552D01*
X050744Y017710D02*
X034341Y017710D01*
X034499Y017869D02*
X052082Y017869D01*
X052082Y018027D02*
X034658Y018027D01*
X034816Y018186D02*
X052082Y018186D01*
X052082Y018344D02*
X034975Y018344D01*
X035133Y018503D02*
X052082Y018503D01*
X052082Y018661D02*
X050041Y018661D01*
X050222Y018820D02*
X052082Y018820D01*
X052082Y018978D02*
X050380Y018978D01*
X050539Y019137D02*
X052082Y019137D01*
X052082Y019295D02*
X050697Y019295D01*
X050856Y019454D02*
X052082Y019454D01*
X052082Y019612D02*
X051014Y019612D01*
X051173Y019771D02*
X052082Y019771D01*
X052082Y019929D02*
X051331Y019929D01*
X051490Y020088D02*
X052082Y020088D01*
X052082Y020246D02*
X051648Y020246D01*
X051807Y020405D02*
X052082Y020405D01*
X052082Y020563D02*
X051965Y020563D01*
X051756Y020722D02*
X050252Y020722D01*
X050252Y020662D02*
X050179Y020486D01*
X050044Y020351D01*
X049868Y020278D01*
X049677Y020278D01*
X049500Y020351D01*
X049365Y020486D01*
X049292Y020662D01*
X049292Y020853D01*
X049365Y021029D01*
X049500Y021164D01*
X049677Y021238D01*
X049868Y021238D01*
X050044Y021164D01*
X050179Y021029D01*
X050252Y020853D01*
X050252Y020662D01*
X050211Y020563D02*
X051598Y020563D01*
X051439Y020405D02*
X050098Y020405D01*
X050044Y020164D02*
X049868Y020238D01*
X049677Y020238D01*
X049500Y020164D01*
X049365Y020029D01*
X049292Y019853D01*
X049292Y019662D01*
X049365Y019486D01*
X049500Y019351D01*
X049677Y019278D01*
X049868Y019278D01*
X050044Y019351D01*
X050179Y019486D01*
X050252Y019662D01*
X050252Y019853D01*
X050179Y020029D01*
X050044Y020164D01*
X050121Y020088D02*
X051122Y020088D01*
X051281Y020246D02*
X047624Y020246D01*
X047772Y020088D02*
X049423Y020088D01*
X049324Y019929D02*
X047772Y019929D01*
X047772Y019771D02*
X049292Y019771D01*
X049313Y019612D02*
X047772Y019612D01*
X047772Y019454D02*
X049397Y019454D01*
X049634Y019295D02*
X047772Y019295D01*
X047853Y019137D02*
X050171Y019137D01*
X050330Y019295D02*
X049910Y019295D01*
X050147Y019454D02*
X050488Y019454D01*
X050647Y019612D02*
X050231Y019612D01*
X050252Y019771D02*
X050805Y019771D01*
X050964Y019929D02*
X050221Y019929D01*
X049446Y020405D02*
X047465Y020405D01*
X047501Y020519D02*
X047643Y020519D01*
X047775Y020574D01*
X047876Y020675D01*
X047930Y020806D01*
X047930Y020949D01*
X047876Y021080D01*
X047775Y021181D01*
X047643Y021236D01*
X047501Y021236D01*
X047369Y021181D01*
X047269Y021080D01*
X047214Y020949D01*
X047214Y020806D01*
X047269Y020675D01*
X047369Y020574D01*
X047501Y020519D01*
X047396Y020563D02*
X047307Y020563D01*
X047249Y020722D02*
X047148Y020722D01*
X047214Y020880D02*
X046990Y020880D01*
X047251Y021039D02*
X045898Y021039D01*
X045327Y021039D02*
X045258Y021039D01*
X044687Y021039D02*
X044352Y021039D01*
X044197Y021197D02*
X047408Y021197D01*
X047737Y021197D02*
X049579Y021197D01*
X049374Y021039D02*
X047893Y021039D01*
X047930Y020880D02*
X049303Y020880D01*
X049292Y020722D02*
X047895Y020722D01*
X047749Y020563D02*
X049333Y020563D01*
X050241Y020880D02*
X051915Y020880D01*
X052073Y021039D02*
X050170Y021039D01*
X049965Y021197D02*
X052082Y021197D01*
X052082Y021356D02*
X044042Y021356D01*
X043886Y021514D02*
X052082Y021514D01*
X052082Y021673D02*
X046906Y021673D01*
X047050Y021831D02*
X052082Y021831D01*
X052082Y021990D02*
X047112Y021990D01*
X047112Y022148D02*
X052082Y022148D01*
X050013Y018978D02*
X048012Y018978D01*
X047802Y018820D02*
X035450Y018820D01*
X035609Y018978D02*
X047644Y018978D01*
X047524Y019137D02*
X035767Y019137D01*
X035926Y019295D02*
X047512Y019295D01*
X047512Y019454D02*
X036084Y019454D01*
X036243Y019612D02*
X047512Y019612D01*
X047512Y019771D02*
X045872Y019771D01*
X045916Y019815D02*
X045970Y019946D01*
X045970Y020089D01*
X045916Y020220D01*
X045815Y020321D01*
X045683Y020376D01*
X045541Y020376D01*
X045409Y020321D01*
X045309Y020220D01*
X045254Y020089D01*
X045254Y019946D01*
X045309Y019815D01*
X045409Y019714D01*
X045541Y019659D01*
X045683Y019659D01*
X045815Y019714D01*
X045916Y019815D01*
X045963Y019929D02*
X047512Y019929D01*
X047414Y020088D02*
X045970Y020088D01*
X045890Y020246D02*
X047256Y020246D01*
X047097Y020405D02*
X037035Y020405D01*
X037194Y020563D02*
X046939Y020563D01*
X046358Y021673D02*
X045906Y021673D01*
X045904Y021671D02*
X046039Y021806D01*
X046112Y021982D01*
X046112Y022173D01*
X046039Y022349D01*
X045904Y022484D01*
X045728Y022558D01*
X045537Y022558D01*
X045360Y022484D01*
X045225Y022349D01*
X045152Y022173D01*
X045152Y021982D01*
X045225Y021806D01*
X045360Y021671D01*
X045537Y021598D01*
X045728Y021598D01*
X045904Y021671D01*
X046050Y021831D02*
X046215Y021831D01*
X046152Y021990D02*
X046112Y021990D01*
X046112Y022148D02*
X046152Y022148D01*
X046208Y022307D02*
X046057Y022307D01*
X045923Y022465D02*
X046341Y022465D01*
X046329Y022782D02*
X045936Y022782D01*
X045904Y022751D02*
X046039Y022886D01*
X046112Y023062D01*
X046112Y023253D01*
X046039Y023429D01*
X045904Y023564D01*
X045728Y023638D01*
X045537Y023638D01*
X045360Y023564D01*
X045225Y023429D01*
X045152Y023253D01*
X045152Y023062D01*
X045225Y022886D01*
X045360Y022751D01*
X045537Y022678D01*
X045728Y022678D01*
X045904Y022751D01*
X046062Y022941D02*
X046203Y022941D01*
X046152Y023099D02*
X046112Y023099D01*
X046110Y023258D02*
X046154Y023258D01*
X046220Y023416D02*
X046045Y023416D01*
X045880Y023575D02*
X046385Y023575D01*
X047062Y022941D02*
X047956Y022941D01*
X047934Y022782D02*
X046936Y022782D01*
X045329Y022782D02*
X044936Y022782D01*
X045062Y022941D02*
X045203Y022941D01*
X045152Y023099D02*
X045112Y023099D01*
X045110Y023258D02*
X045154Y023258D01*
X045220Y023416D02*
X045045Y023416D01*
X044880Y023575D02*
X045385Y023575D01*
X045341Y022465D02*
X044923Y022465D01*
X044904Y022484D02*
X044728Y022558D01*
X044537Y022558D01*
X044360Y022484D01*
X044225Y022349D01*
X044152Y022173D01*
X044152Y021982D01*
X044225Y021806D01*
X044360Y021671D01*
X044537Y021598D01*
X044728Y021598D01*
X044904Y021671D01*
X045039Y021806D01*
X045112Y021982D01*
X045112Y022173D01*
X045039Y022349D01*
X044904Y022484D01*
X045057Y022307D02*
X045208Y022307D01*
X045152Y022148D02*
X045112Y022148D01*
X045112Y021990D02*
X045152Y021990D01*
X045215Y021831D02*
X045050Y021831D01*
X044906Y021673D02*
X045358Y021673D01*
X044358Y021673D02*
X043731Y021673D01*
X043576Y021831D02*
X044215Y021831D01*
X044152Y021990D02*
X043420Y021990D01*
X043265Y022148D02*
X044152Y022148D01*
X044208Y022307D02*
X043110Y022307D01*
X042954Y022465D02*
X044341Y022465D01*
X043678Y021356D02*
X037986Y021356D01*
X037828Y021197D02*
X043833Y021197D01*
X043988Y021039D02*
X037669Y021039D01*
X037511Y020880D02*
X044144Y020880D01*
X044350Y020722D02*
X037352Y020722D01*
X036877Y020246D02*
X045334Y020246D01*
X045254Y020088D02*
X036718Y020088D01*
X036560Y019929D02*
X045261Y019929D01*
X045353Y019771D02*
X036401Y019771D01*
X035678Y020563D02*
X031292Y020563D01*
X031292Y020405D02*
X035519Y020405D01*
X035361Y020246D02*
X031304Y020246D01*
X031462Y020088D02*
X035202Y020088D01*
X035044Y019929D02*
X031621Y019929D01*
X031779Y019771D02*
X034885Y019771D01*
X034727Y019612D02*
X031938Y019612D01*
X032096Y019454D02*
X034568Y019454D01*
X034410Y019295D02*
X032255Y019295D01*
X032413Y019137D02*
X034251Y019137D01*
X034093Y018978D02*
X032572Y018978D01*
X032730Y018820D02*
X033934Y018820D01*
X033776Y018661D02*
X032889Y018661D01*
X032679Y018503D02*
X030643Y018503D01*
X030485Y018661D02*
X032521Y018661D01*
X032362Y018820D02*
X030326Y018820D01*
X030168Y018978D02*
X032204Y018978D01*
X032045Y019137D02*
X030009Y019137D01*
X029851Y019295D02*
X031887Y019295D01*
X031728Y019454D02*
X029692Y019454D01*
X029572Y019612D02*
X031570Y019612D01*
X031411Y019771D02*
X029572Y019771D01*
X029572Y019929D02*
X031253Y019929D01*
X031094Y020088D02*
X029572Y020088D01*
X029572Y020246D02*
X031032Y020246D01*
X031032Y020405D02*
X029572Y020405D01*
X029572Y020563D02*
X031032Y020563D01*
X031032Y020722D02*
X029572Y020722D01*
X029572Y020880D02*
X031032Y020880D01*
X031032Y021039D02*
X029572Y021039D01*
X029572Y021197D02*
X031032Y021197D01*
X031032Y021356D02*
X029572Y021356D01*
X029572Y021514D02*
X031032Y021514D01*
X031032Y021673D02*
X029572Y021673D01*
X029572Y021831D02*
X031032Y021831D01*
X031032Y021990D02*
X029572Y021990D01*
X029601Y022148D02*
X031032Y022148D01*
X031032Y022307D02*
X029650Y022307D01*
X029627Y022465D02*
X031032Y022465D01*
X031032Y022624D02*
X029513Y022624D01*
X029072Y022624D02*
X027570Y022624D01*
X027548Y022782D02*
X031032Y022782D01*
X031032Y022941D02*
X027492Y022941D01*
X027492Y023099D02*
X031032Y023099D01*
X031032Y023258D02*
X027492Y023258D01*
X027492Y023416D02*
X031032Y023416D01*
X031032Y023575D02*
X027492Y023575D01*
X027492Y023733D02*
X031032Y023733D01*
X031032Y023892D02*
X027492Y023892D01*
X027492Y024050D02*
X031032Y024050D01*
X031032Y024209D02*
X027492Y024209D01*
X027492Y024367D02*
X031032Y024367D01*
X031032Y024526D02*
X027492Y024526D01*
X027492Y024684D02*
X027807Y024684D01*
X027840Y024651D02*
X028017Y024578D01*
X028208Y024578D01*
X028384Y024651D01*
X028519Y024786D01*
X028592Y024962D01*
X028592Y025153D01*
X028519Y025329D01*
X028384Y025464D01*
X028208Y025538D01*
X028017Y025538D01*
X027840Y025464D01*
X027705Y025329D01*
X027632Y025153D01*
X027632Y024962D01*
X027705Y024786D01*
X027840Y024651D01*
X027682Y024843D02*
X027492Y024843D01*
X027492Y025001D02*
X027632Y025001D01*
X027635Y025160D02*
X027492Y025160D01*
X027492Y025318D02*
X027701Y025318D01*
X027870Y025477D02*
X027492Y025477D01*
X027492Y025635D02*
X030611Y025635D01*
X030661Y025656D02*
X030529Y025601D01*
X030429Y025500D01*
X030374Y025369D01*
X030374Y025226D01*
X030429Y025095D01*
X030529Y024994D01*
X030661Y024939D01*
X030803Y024939D01*
X030935Y024994D01*
X031036Y025095D01*
X031090Y025226D01*
X031090Y025369D01*
X031036Y025500D01*
X030935Y025601D01*
X030803Y025656D01*
X030661Y025656D01*
X030853Y025635D02*
X031982Y025635D01*
X031824Y025477D02*
X031046Y025477D01*
X031090Y025318D02*
X031665Y025318D01*
X031507Y025160D02*
X031063Y025160D01*
X030942Y025001D02*
X031348Y025001D01*
X031190Y024843D02*
X029543Y024843D01*
X029519Y024786D02*
X029592Y024962D01*
X029592Y025153D01*
X029519Y025329D01*
X029384Y025464D01*
X029208Y025538D01*
X029017Y025538D01*
X028840Y025464D01*
X028705Y025329D01*
X028632Y025153D01*
X028632Y024962D01*
X028705Y024786D01*
X028840Y024651D01*
X029017Y024578D01*
X029208Y024578D01*
X029384Y024651D01*
X029519Y024786D01*
X029418Y024684D02*
X031055Y024684D01*
X031292Y024526D02*
X037132Y024526D01*
X037132Y024684D02*
X034832Y024684D01*
X034768Y024658D02*
X034944Y024731D01*
X035079Y024866D01*
X035152Y025042D01*
X035152Y025233D01*
X035079Y025409D01*
X034944Y025544D01*
X034768Y025618D01*
X034577Y025618D01*
X034400Y025544D01*
X034265Y025409D01*
X034192Y025233D01*
X034192Y025042D01*
X034265Y024866D01*
X034400Y024731D01*
X034577Y024658D01*
X034768Y024658D01*
X034513Y024684D02*
X033832Y024684D01*
X033768Y024658D02*
X033944Y024731D01*
X034079Y024866D01*
X034152Y025042D01*
X034152Y025233D01*
X034079Y025409D01*
X033944Y025544D01*
X033768Y025618D01*
X033577Y025618D01*
X033400Y025544D01*
X033265Y025409D01*
X033192Y025233D01*
X033192Y025042D01*
X033265Y024866D01*
X033400Y024731D01*
X033577Y024658D01*
X033768Y024658D01*
X033513Y024684D02*
X031399Y024684D01*
X031557Y024843D02*
X033288Y024843D01*
X033209Y025001D02*
X031716Y025001D01*
X031874Y025160D02*
X033192Y025160D01*
X033227Y025318D02*
X032033Y025318D01*
X032191Y025477D02*
X033332Y025477D01*
X033400Y025771D02*
X033577Y025698D01*
X033768Y025698D01*
X033944Y025771D01*
X034079Y025906D01*
X034152Y026082D01*
X034152Y026273D01*
X034079Y026449D01*
X033944Y026584D01*
X033768Y026658D01*
X033577Y026658D01*
X033400Y026584D01*
X033265Y026449D01*
X033192Y026273D01*
X033192Y026082D01*
X033265Y025906D01*
X033400Y025771D01*
X033377Y025794D02*
X032508Y025794D01*
X032667Y025952D02*
X033246Y025952D01*
X033192Y026111D02*
X032825Y026111D01*
X032984Y026269D02*
X033192Y026269D01*
X033142Y026428D02*
X033256Y026428D01*
X033301Y026586D02*
X033404Y026586D01*
X033459Y026745D02*
X037132Y026745D01*
X037132Y026903D02*
X033618Y026903D01*
X033776Y027062D02*
X037216Y027062D01*
X037375Y027220D02*
X033935Y027220D01*
X034093Y027379D02*
X037533Y027379D01*
X037692Y027537D02*
X034252Y027537D01*
X034410Y027696D02*
X037850Y027696D01*
X037901Y027379D02*
X039963Y027379D01*
X040122Y027220D02*
X037742Y027220D01*
X037584Y027062D02*
X038259Y027062D01*
X038209Y027041D02*
X038109Y026940D01*
X038054Y026809D01*
X038054Y026666D01*
X038109Y026535D01*
X038209Y026434D01*
X038341Y026379D01*
X038483Y026379D01*
X038615Y026434D01*
X038716Y026535D01*
X038770Y026666D01*
X038770Y026809D01*
X038716Y026940D01*
X038615Y027041D01*
X038483Y027096D01*
X038341Y027096D01*
X038209Y027041D01*
X038093Y026903D02*
X037425Y026903D01*
X037392Y026745D02*
X038054Y026745D01*
X038087Y026586D02*
X037392Y026586D01*
X037392Y026428D02*
X038225Y026428D01*
X038600Y026428D02*
X038753Y026428D01*
X038689Y026401D02*
X038589Y026300D01*
X038534Y026169D01*
X038534Y026026D01*
X038589Y025895D01*
X038689Y025794D01*
X038821Y025739D01*
X038963Y025739D01*
X039095Y025794D01*
X039196Y025895D01*
X039250Y026026D01*
X039250Y026169D01*
X039196Y026300D01*
X039095Y026401D01*
X038963Y026456D01*
X038821Y026456D01*
X038689Y026401D01*
X038576Y026269D02*
X037392Y026269D01*
X037392Y026111D02*
X038534Y026111D01*
X038565Y025952D02*
X037392Y025952D01*
X037392Y025794D02*
X037568Y025794D01*
X037817Y025794D02*
X038690Y025794D01*
X039094Y025794D02*
X039970Y025794D01*
X039845Y025952D02*
X039220Y025952D01*
X039250Y026111D02*
X039814Y026111D01*
X039856Y026269D02*
X039209Y026269D01*
X039031Y026428D02*
X039425Y026428D01*
X039409Y026434D02*
X039541Y026379D01*
X039683Y026379D01*
X039815Y026434D01*
X039916Y026535D01*
X039970Y026666D01*
X039970Y026809D01*
X039916Y026940D01*
X039815Y027041D01*
X039683Y027096D01*
X039541Y027096D01*
X039409Y027041D01*
X039309Y026940D01*
X039254Y026809D01*
X039254Y026666D01*
X039309Y026535D01*
X039409Y026434D01*
X039287Y026586D02*
X038737Y026586D01*
X038770Y026745D02*
X039254Y026745D01*
X039293Y026903D02*
X038731Y026903D01*
X038566Y027062D02*
X039459Y027062D01*
X039766Y027062D02*
X040232Y027062D01*
X040232Y026903D02*
X039931Y026903D01*
X039970Y026745D02*
X040232Y026745D01*
X040232Y026586D02*
X039937Y026586D01*
X040033Y026428D02*
X039800Y026428D01*
X040232Y025635D02*
X038006Y025635D01*
X038050Y025477D02*
X040232Y025477D01*
X040232Y025318D02*
X038022Y025318D01*
X037901Y025160D02*
X040232Y025160D01*
X040232Y025001D02*
X037392Y025001D01*
X037392Y024843D02*
X040266Y024843D01*
X040416Y024684D02*
X037392Y024684D01*
X037392Y024526D02*
X040571Y024526D01*
X040726Y024367D02*
X037392Y024367D01*
X037392Y024209D02*
X040882Y024209D01*
X041037Y024050D02*
X037392Y024050D01*
X037132Y024050D02*
X033852Y024050D01*
X033852Y024073D02*
X033779Y024249D01*
X033644Y024384D01*
X033468Y024458D01*
X033277Y024458D01*
X033100Y024384D01*
X032965Y024249D01*
X032892Y024073D01*
X032892Y023882D01*
X032965Y023706D01*
X033100Y023571D01*
X033277Y023498D01*
X033468Y023498D01*
X033644Y023571D01*
X033779Y023706D01*
X033852Y023882D01*
X033852Y024073D01*
X033796Y024209D02*
X037132Y024209D01*
X037132Y024367D02*
X033661Y024367D01*
X033852Y023892D02*
X037132Y023892D01*
X037132Y023733D02*
X033790Y023733D01*
X033648Y023575D02*
X037132Y023575D01*
X037132Y023416D02*
X033568Y023416D01*
X033644Y023384D02*
X033468Y023458D01*
X033277Y023458D01*
X033100Y023384D01*
X032965Y023249D01*
X032892Y023073D01*
X032892Y022882D01*
X032965Y022706D01*
X033100Y022571D01*
X033277Y022498D01*
X033468Y022498D01*
X033644Y022571D01*
X033779Y022706D01*
X033852Y022882D01*
X033852Y023073D01*
X033779Y023249D01*
X033644Y023384D01*
X033771Y023258D02*
X037132Y023258D01*
X037132Y023099D02*
X033841Y023099D01*
X033852Y022941D02*
X037132Y022941D01*
X037132Y022782D02*
X033811Y022782D01*
X033697Y022624D02*
X037132Y022624D01*
X037132Y022465D02*
X032659Y022465D01*
X032659Y022466D02*
X032732Y022642D01*
X032732Y022833D01*
X032659Y023009D01*
X032524Y023144D01*
X032348Y023218D01*
X032157Y023218D01*
X031980Y023144D01*
X031845Y023009D01*
X031772Y022833D01*
X031772Y022642D01*
X031845Y022466D01*
X031980Y022331D01*
X032157Y022258D01*
X032348Y022258D01*
X032524Y022331D01*
X032659Y022466D01*
X032725Y022624D02*
X033047Y022624D01*
X032934Y022782D02*
X032732Y022782D01*
X032688Y022941D02*
X032892Y022941D01*
X032903Y023099D02*
X032569Y023099D01*
X032524Y023331D02*
X032659Y023466D01*
X032732Y023642D01*
X032732Y023833D01*
X032659Y024009D01*
X032524Y024144D01*
X032348Y024218D01*
X032157Y024218D01*
X031980Y024144D01*
X031845Y024009D01*
X031772Y023833D01*
X031772Y023642D01*
X031845Y023466D01*
X031980Y023331D01*
X032157Y023258D01*
X032348Y023258D01*
X032973Y023258D01*
X033177Y023416D02*
X032610Y023416D01*
X032524Y023331D02*
X032348Y023258D01*
X032157Y023258D02*
X031292Y023258D01*
X031292Y023416D02*
X031895Y023416D01*
X031800Y023575D02*
X031292Y023575D01*
X031292Y023733D02*
X031772Y023733D01*
X031796Y023892D02*
X031292Y023892D01*
X031292Y024050D02*
X031886Y024050D01*
X032135Y024209D02*
X031292Y024209D01*
X031292Y024367D02*
X033083Y024367D01*
X032948Y024209D02*
X032369Y024209D01*
X032618Y024050D02*
X032892Y024050D01*
X032892Y023892D02*
X032708Y023892D01*
X032732Y023733D02*
X032954Y023733D01*
X033096Y023575D02*
X032704Y023575D01*
X031935Y023099D02*
X031292Y023099D01*
X031292Y022941D02*
X031817Y022941D01*
X031772Y022782D02*
X031292Y022782D01*
X031292Y022624D02*
X031780Y022624D01*
X031846Y022465D02*
X031292Y022465D01*
X031292Y022307D02*
X032038Y022307D01*
X032157Y022218D02*
X031980Y022144D01*
X031845Y022009D01*
X031772Y021833D01*
X031772Y021642D01*
X031845Y021466D01*
X031980Y021331D01*
X032157Y021258D01*
X032348Y021258D01*
X032524Y021331D01*
X032659Y021466D01*
X032732Y021642D01*
X032732Y021833D01*
X032659Y022009D01*
X032524Y022144D01*
X032348Y022218D01*
X032157Y022218D01*
X031989Y022148D02*
X031292Y022148D01*
X031292Y021990D02*
X031837Y021990D01*
X031772Y021831D02*
X031292Y021831D01*
X031292Y021673D02*
X031772Y021673D01*
X031825Y021514D02*
X031292Y021514D01*
X031292Y021356D02*
X031955Y021356D01*
X032549Y021356D02*
X036470Y021356D01*
X036629Y021514D02*
X033508Y021514D01*
X033468Y021498D02*
X033644Y021571D01*
X033779Y021706D01*
X033852Y021882D01*
X033852Y022073D01*
X033779Y022249D01*
X033644Y022384D01*
X033468Y022458D01*
X033277Y022458D01*
X033100Y022384D01*
X032965Y022249D01*
X032892Y022073D01*
X032892Y021882D01*
X032965Y021706D01*
X033100Y021571D01*
X033277Y021498D01*
X033468Y021498D01*
X033237Y021514D02*
X032679Y021514D01*
X032732Y021673D02*
X032998Y021673D01*
X032913Y021831D02*
X032732Y021831D01*
X032667Y021990D02*
X032892Y021990D01*
X032923Y022148D02*
X032515Y022148D01*
X032466Y022307D02*
X033022Y022307D01*
X033722Y022307D02*
X037132Y022307D01*
X037132Y022148D02*
X033821Y022148D01*
X033852Y021990D02*
X037104Y021990D01*
X036946Y021831D02*
X033831Y021831D01*
X033746Y021673D02*
X036787Y021673D01*
X036312Y021197D02*
X031292Y021197D01*
X031292Y021039D02*
X036153Y021039D01*
X035995Y020880D02*
X031292Y020880D01*
X031292Y020722D02*
X035836Y020722D01*
X037392Y022667D02*
X037392Y022728D01*
X037461Y022699D01*
X037494Y022699D01*
X037498Y022696D01*
X037461Y022696D01*
X037392Y022667D01*
X037890Y023575D02*
X041503Y023575D01*
X041348Y023733D02*
X037872Y023733D01*
X037765Y023892D02*
X041192Y023892D01*
X037484Y025160D02*
X037392Y025160D01*
X037132Y025160D02*
X035152Y025160D01*
X035135Y025001D02*
X037132Y025001D01*
X037132Y024843D02*
X035056Y024843D01*
X035117Y025318D02*
X037132Y025318D01*
X037132Y025477D02*
X035012Y025477D01*
X034944Y025771D02*
X035079Y025906D01*
X035152Y026082D01*
X035152Y026273D01*
X035079Y026449D01*
X034944Y026584D01*
X034768Y026658D01*
X034577Y026658D01*
X034400Y026584D01*
X034265Y026449D01*
X034192Y026273D01*
X034192Y026082D01*
X034265Y025906D01*
X034400Y025771D01*
X034577Y025698D01*
X034768Y025698D01*
X034944Y025771D01*
X034967Y025794D02*
X037132Y025794D01*
X037132Y025952D02*
X035098Y025952D01*
X035152Y026111D02*
X037132Y026111D01*
X037132Y026269D02*
X035152Y026269D01*
X035088Y026428D02*
X037132Y026428D01*
X037132Y026586D02*
X034940Y026586D01*
X034404Y026586D02*
X033940Y026586D01*
X034088Y026428D02*
X034256Y026428D01*
X034192Y026269D02*
X034152Y026269D01*
X034152Y026111D02*
X034192Y026111D01*
X034246Y025952D02*
X034098Y025952D01*
X033967Y025794D02*
X034377Y025794D01*
X034332Y025477D02*
X034012Y025477D01*
X034117Y025318D02*
X034227Y025318D01*
X034192Y025160D02*
X034152Y025160D01*
X034135Y025001D02*
X034209Y025001D01*
X034288Y024843D02*
X034056Y024843D01*
X032350Y025635D02*
X037132Y025635D01*
X033884Y027537D02*
X032254Y027537D01*
X031930Y027537D02*
X031238Y027537D01*
X031276Y027575D02*
X031330Y027706D01*
X031330Y027849D01*
X031276Y027980D01*
X031175Y028081D01*
X031043Y028136D01*
X030901Y028136D01*
X030769Y028081D01*
X030669Y027980D01*
X030614Y027849D01*
X030614Y027706D01*
X030669Y027575D01*
X030769Y027474D01*
X030901Y027419D01*
X031043Y027419D01*
X031175Y027474D01*
X031276Y027575D01*
X031326Y027696D02*
X031772Y027696D01*
X031734Y027854D02*
X031328Y027854D01*
X031244Y028013D02*
X031769Y028013D01*
X031913Y028171D02*
X027492Y028171D01*
X027492Y028013D02*
X030701Y028013D01*
X030616Y027854D02*
X027492Y027854D01*
X027492Y027696D02*
X030619Y027696D01*
X030706Y027537D02*
X027492Y027537D01*
X027492Y027379D02*
X033726Y027379D01*
X033567Y027220D02*
X027492Y027220D01*
X027492Y027062D02*
X033409Y027062D01*
X033250Y026903D02*
X027492Y026903D01*
X027492Y026745D02*
X033092Y026745D01*
X032933Y026586D02*
X027492Y026586D01*
X027492Y026428D02*
X032775Y026428D01*
X032616Y026269D02*
X027492Y026269D01*
X027492Y026111D02*
X032458Y026111D01*
X032299Y025952D02*
X027492Y025952D01*
X027492Y025794D02*
X032141Y025794D01*
X030419Y025477D02*
X029355Y025477D01*
X029524Y025318D02*
X030374Y025318D01*
X030402Y025160D02*
X029589Y025160D01*
X029592Y025001D02*
X030522Y025001D01*
X028870Y025477D02*
X028355Y025477D01*
X028524Y025318D02*
X028701Y025318D01*
X028635Y025160D02*
X028589Y025160D01*
X028592Y025001D02*
X028632Y025001D01*
X028682Y024843D02*
X028543Y024843D01*
X028418Y024684D02*
X028807Y024684D01*
X026932Y024684D02*
X026268Y024684D01*
X026272Y024673D02*
X026199Y024849D01*
X026064Y024984D01*
X025888Y025058D01*
X025697Y025058D01*
X025520Y024984D01*
X025385Y024849D01*
X025312Y024673D01*
X025312Y024482D01*
X025385Y024306D01*
X025520Y024171D01*
X025697Y024098D01*
X025888Y024098D01*
X026064Y024171D01*
X026199Y024306D01*
X026272Y024482D01*
X026272Y024673D01*
X026272Y024526D02*
X026932Y024526D01*
X026932Y024367D02*
X026225Y024367D01*
X026102Y024209D02*
X026932Y024209D01*
X026932Y024050D02*
X021511Y024050D01*
X021516Y024055D02*
X021570Y024186D01*
X021570Y024329D01*
X021516Y024460D01*
X021415Y024561D01*
X021283Y024616D01*
X021141Y024616D01*
X021009Y024561D01*
X020909Y024460D01*
X020854Y024329D01*
X020854Y024186D01*
X020909Y024055D01*
X021009Y023954D01*
X021141Y023899D01*
X021283Y023899D01*
X021415Y023954D01*
X021516Y024055D01*
X021570Y024209D02*
X023482Y024209D01*
X023520Y024171D02*
X023697Y024098D01*
X023888Y024098D01*
X024064Y024171D01*
X024199Y024306D01*
X024272Y024482D01*
X024272Y024673D01*
X024199Y024849D01*
X024064Y024984D01*
X023888Y025058D01*
X023697Y025058D01*
X023520Y024984D01*
X023385Y024849D01*
X023312Y024673D01*
X023312Y024482D01*
X023385Y024306D01*
X023520Y024171D01*
X023360Y024367D02*
X021554Y024367D01*
X021451Y024526D02*
X023312Y024526D01*
X023317Y024684D02*
X017810Y024684D01*
X017810Y024729D02*
X017756Y024860D01*
X017655Y024961D01*
X017523Y025016D01*
X017381Y025016D01*
X017249Y024961D01*
X017149Y024860D01*
X017094Y024729D01*
X017094Y024586D01*
X017149Y024455D01*
X017249Y024354D01*
X017381Y024299D01*
X017523Y024299D01*
X017655Y024354D01*
X017756Y024455D01*
X017810Y024586D01*
X017810Y024729D01*
X017763Y024843D02*
X023382Y024843D01*
X023560Y025001D02*
X017559Y025001D01*
X017346Y025001D02*
X013072Y025001D01*
X013072Y024843D02*
X017141Y024843D01*
X017094Y024684D02*
X013072Y024684D01*
X013072Y024526D02*
X017119Y024526D01*
X017236Y024367D02*
X013072Y024367D01*
X013072Y024209D02*
X020854Y024209D01*
X020870Y024367D02*
X017668Y024367D01*
X017785Y024526D02*
X020974Y024526D01*
X020913Y024050D02*
X013072Y024050D01*
X013072Y023892D02*
X026932Y023892D01*
X026932Y023733D02*
X013072Y023733D01*
X013072Y023575D02*
X023530Y023575D01*
X023540Y023584D02*
X023405Y023449D01*
X023332Y023273D01*
X023332Y023082D01*
X023405Y022906D01*
X023540Y022771D01*
X023717Y022698D01*
X023908Y022698D01*
X024084Y022771D01*
X024219Y022906D01*
X024292Y023082D01*
X024292Y023273D01*
X024219Y023449D01*
X024084Y023584D01*
X023908Y023658D01*
X023717Y023658D01*
X023540Y023584D01*
X023391Y023416D02*
X013072Y023416D01*
X013072Y023258D02*
X023332Y023258D01*
X023332Y023099D02*
X013072Y023099D01*
X013072Y022941D02*
X023391Y022941D01*
X023529Y022782D02*
X017594Y022782D01*
X017596Y022780D02*
X017495Y022881D01*
X017363Y022936D01*
X017221Y022936D01*
X017089Y022881D01*
X016989Y022780D01*
X016934Y022649D01*
X016934Y022506D01*
X016989Y022375D01*
X017089Y022274D01*
X017221Y022219D01*
X017363Y022219D01*
X017495Y022274D01*
X017596Y022375D01*
X017650Y022506D01*
X017650Y022649D01*
X017596Y022780D01*
X017650Y022624D02*
X026854Y022624D01*
X026876Y022782D02*
X026096Y022782D01*
X026084Y022771D02*
X026219Y022906D01*
X026292Y023082D01*
X026292Y023273D01*
X026219Y023449D01*
X026084Y023584D01*
X025908Y023658D01*
X025717Y023658D01*
X025540Y023584D01*
X025405Y023449D01*
X025332Y023273D01*
X025332Y023082D01*
X025405Y022906D01*
X025540Y022771D01*
X025717Y022698D01*
X025908Y022698D01*
X026084Y022771D01*
X026234Y022941D02*
X026932Y022941D01*
X026932Y023099D02*
X026292Y023099D01*
X026292Y023258D02*
X026932Y023258D01*
X026932Y023416D02*
X026233Y023416D01*
X026094Y023575D02*
X026932Y023575D01*
X026904Y022465D02*
X017633Y022465D01*
X017528Y022307D02*
X027124Y022307D01*
X027301Y022307D02*
X028934Y022307D01*
X028957Y022465D02*
X027520Y022465D01*
X028983Y022148D02*
X016186Y022148D01*
X016210Y022089D02*
X016156Y022220D01*
X016055Y022321D01*
X015923Y022376D01*
X015781Y022376D01*
X015649Y022321D01*
X015549Y022220D01*
X015494Y022089D01*
X015494Y021946D01*
X015549Y021815D01*
X015649Y021714D01*
X015781Y021659D01*
X015923Y021659D01*
X016055Y021714D01*
X016156Y021815D01*
X016210Y021946D01*
X016210Y022089D01*
X016210Y021990D02*
X029012Y021990D01*
X029012Y021831D02*
X016163Y021831D01*
X015955Y021673D02*
X029012Y021673D01*
X029012Y021514D02*
X016062Y021514D01*
X016076Y021500D02*
X015975Y021601D01*
X015843Y021656D01*
X015701Y021656D01*
X015569Y021601D01*
X015469Y021500D01*
X015414Y021369D01*
X015414Y021226D01*
X015468Y021096D01*
X015461Y021096D01*
X015329Y021041D01*
X015229Y020940D01*
X015174Y020809D01*
X015174Y020666D01*
X015229Y020535D01*
X015329Y020434D01*
X015461Y020379D01*
X015603Y020379D01*
X015735Y020434D01*
X015836Y020535D01*
X015890Y020666D01*
X015890Y020809D01*
X015836Y020939D01*
X015843Y020939D01*
X015975Y020994D01*
X016076Y021095D01*
X016130Y021226D01*
X016130Y021369D01*
X016076Y021500D01*
X016130Y021356D02*
X029012Y021356D01*
X029012Y021197D02*
X016118Y021197D01*
X016020Y021039D02*
X025247Y021039D01*
X025249Y021041D02*
X025149Y020940D01*
X025094Y020809D01*
X025094Y020666D01*
X025149Y020535D01*
X025249Y020434D01*
X025381Y020379D01*
X025523Y020379D01*
X025655Y020434D01*
X025756Y020535D01*
X025810Y020666D01*
X025810Y020809D01*
X025756Y020940D01*
X025655Y021041D01*
X025523Y021096D01*
X025381Y021096D01*
X025249Y021041D01*
X025124Y020880D02*
X015861Y020880D01*
X015890Y020722D02*
X021570Y020722D01*
X021569Y020721D02*
X021469Y020620D01*
X021436Y020541D01*
X021335Y020641D01*
X021203Y020696D01*
X021061Y020696D01*
X020929Y020641D01*
X020829Y020540D01*
X020774Y020409D01*
X020774Y020266D01*
X020829Y020135D01*
X020929Y020034D01*
X021061Y019979D01*
X021203Y019979D01*
X021335Y020034D01*
X021436Y020135D01*
X021469Y020214D01*
X021569Y020114D01*
X021701Y020059D01*
X021843Y020059D01*
X021975Y020114D01*
X022076Y020215D01*
X022130Y020346D01*
X022130Y020489D01*
X022076Y020620D01*
X021975Y020721D01*
X021843Y020776D01*
X021701Y020776D01*
X021569Y020721D01*
X021445Y020563D02*
X021413Y020563D01*
X021389Y020088D02*
X021633Y020088D01*
X021911Y020088D02*
X026872Y020088D01*
X026872Y020082D02*
X026945Y019906D01*
X027080Y019771D01*
X027257Y019698D01*
X027448Y019698D01*
X027624Y019771D01*
X027759Y019906D01*
X027832Y020082D01*
X027832Y020273D01*
X027759Y020449D01*
X027624Y020584D01*
X027448Y020658D01*
X027257Y020658D01*
X027080Y020584D01*
X026945Y020449D01*
X026872Y020273D01*
X026872Y020082D01*
X026872Y020246D02*
X022089Y020246D01*
X022130Y020405D02*
X025320Y020405D01*
X025137Y020563D02*
X022100Y020563D01*
X021974Y020722D02*
X025094Y020722D01*
X025584Y020405D02*
X026927Y020405D01*
X027059Y020563D02*
X025768Y020563D01*
X025810Y020722D02*
X029012Y020722D01*
X029012Y020880D02*
X025781Y020880D01*
X025658Y021039D02*
X029012Y021039D01*
X029012Y020563D02*
X028645Y020563D01*
X028624Y020584D02*
X028448Y020658D01*
X028257Y020658D01*
X028080Y020584D01*
X027945Y020449D01*
X027872Y020273D01*
X027872Y020082D01*
X027945Y019906D01*
X028080Y019771D01*
X028257Y019698D01*
X028448Y019698D01*
X028624Y019771D01*
X028759Y019906D01*
X028832Y020082D01*
X028832Y020273D01*
X028759Y020449D01*
X028624Y020584D01*
X028778Y020405D02*
X029012Y020405D01*
X029012Y020246D02*
X028832Y020246D01*
X028832Y020088D02*
X029012Y020088D01*
X029012Y019929D02*
X028769Y019929D01*
X028624Y019771D02*
X029012Y019771D01*
X029012Y019612D02*
X013072Y019612D01*
X013072Y019454D02*
X029012Y019454D01*
X029059Y019295D02*
X028921Y019295D01*
X028956Y019260D02*
X028855Y019361D01*
X028723Y019416D01*
X028581Y019416D01*
X028449Y019361D01*
X028349Y019260D01*
X028294Y019129D01*
X028294Y018986D01*
X028349Y018855D01*
X028449Y018754D01*
X028581Y018699D01*
X028723Y018699D01*
X028855Y018754D01*
X028956Y018855D01*
X029010Y018986D01*
X029010Y019129D01*
X028956Y019260D01*
X029007Y019137D02*
X029217Y019137D01*
X029376Y018978D02*
X029007Y018978D01*
X028921Y018820D02*
X029534Y018820D01*
X029693Y018661D02*
X013072Y018661D01*
X013072Y018503D02*
X029851Y018503D01*
X030010Y018344D02*
X013872Y018344D01*
X013916Y018300D02*
X013815Y018401D01*
X013683Y018456D01*
X013541Y018456D01*
X013409Y018401D01*
X013309Y018300D01*
X013254Y018169D01*
X013254Y018026D01*
X013309Y017895D01*
X013409Y017794D01*
X013541Y017739D01*
X013683Y017739D01*
X013815Y017794D01*
X013916Y017895D01*
X013970Y018026D01*
X013970Y018169D01*
X013916Y018300D01*
X013963Y018186D02*
X030168Y018186D01*
X030327Y018027D02*
X013970Y018027D01*
X013890Y017869D02*
X030485Y017869D01*
X030644Y017710D02*
X013072Y017710D01*
X013072Y017552D02*
X030802Y017552D01*
X030901Y016456D02*
X030769Y016401D01*
X030669Y016300D01*
X030614Y016169D01*
X030614Y016026D01*
X030669Y015895D01*
X030769Y015794D01*
X030901Y015739D01*
X031043Y015739D01*
X031175Y015794D01*
X031276Y015895D01*
X031330Y016026D01*
X031330Y016169D01*
X031276Y016300D01*
X031175Y016401D01*
X031043Y016456D01*
X030901Y016456D01*
X030868Y016442D02*
X026850Y016442D01*
X026850Y016426D02*
X026796Y016295D01*
X026695Y016194D01*
X026563Y016139D01*
X026421Y016139D01*
X026289Y016194D01*
X026189Y016295D01*
X026134Y016426D01*
X026134Y016569D01*
X026189Y016700D01*
X026289Y016801D01*
X026421Y016856D01*
X026563Y016856D01*
X026695Y016801D01*
X026796Y016700D01*
X026850Y016569D01*
X026850Y016426D01*
X026785Y016284D02*
X030662Y016284D01*
X030614Y016125D02*
X023065Y016125D01*
X023090Y016186D02*
X023036Y016055D01*
X022935Y015954D01*
X022803Y015899D01*
X022661Y015899D01*
X022529Y015954D01*
X022429Y016055D01*
X022374Y016186D01*
X022374Y016329D01*
X022429Y016460D01*
X022529Y016561D01*
X022661Y016616D01*
X022803Y016616D01*
X022935Y016561D01*
X023036Y016460D01*
X023090Y016329D01*
X023090Y016186D01*
X023090Y016284D02*
X026200Y016284D01*
X026134Y016442D02*
X023043Y016442D01*
X022840Y016601D02*
X026147Y016601D01*
X026247Y016759D02*
X013072Y016759D01*
X013072Y016601D02*
X022625Y016601D01*
X022421Y016442D02*
X013072Y016442D01*
X013072Y016284D02*
X022374Y016284D01*
X022399Y016125D02*
X013072Y016125D01*
X013072Y015967D02*
X022517Y015967D01*
X022948Y015967D02*
X030639Y015967D01*
X030755Y015808D02*
X013072Y015808D01*
X013072Y015650D02*
X052082Y015650D01*
X052082Y015808D02*
X031189Y015808D01*
X031306Y015967D02*
X052082Y015967D01*
X052082Y016125D02*
X031330Y016125D01*
X031283Y016284D02*
X045720Y016284D01*
X045601Y016442D02*
X031076Y016442D01*
X030879Y014565D02*
X030705Y014565D01*
X030544Y014498D01*
X030421Y014375D01*
X030355Y014215D01*
X030355Y014041D01*
X030421Y013880D01*
X030544Y013757D01*
X030705Y013690D01*
X030879Y013690D01*
X031040Y013757D01*
X031163Y013880D01*
X031230Y014041D01*
X031230Y014215D01*
X031163Y014375D01*
X031040Y014498D01*
X030879Y014565D01*
X030940Y014540D02*
X031645Y014540D01*
X031705Y014565D02*
X031544Y014498D01*
X031421Y014375D01*
X031355Y014215D01*
X031355Y014041D01*
X031421Y013880D01*
X031544Y013757D01*
X031705Y013690D01*
X031879Y013690D01*
X032040Y013757D01*
X032163Y013880D01*
X032230Y014041D01*
X032230Y014215D01*
X032163Y014375D01*
X032040Y014498D01*
X031879Y014565D01*
X031705Y014565D01*
X031940Y014540D02*
X032645Y014540D01*
X032705Y014565D02*
X032544Y014498D01*
X032421Y014375D01*
X032355Y014215D01*
X032355Y014041D01*
X032421Y013880D01*
X032544Y013757D01*
X032705Y013690D01*
X032879Y013690D01*
X033040Y013757D01*
X033163Y013880D01*
X033230Y014041D01*
X033230Y014215D01*
X033163Y014375D01*
X033040Y014498D01*
X032879Y014565D01*
X032705Y014565D01*
X032940Y014540D02*
X033645Y014540D01*
X033705Y014565D02*
X033544Y014498D01*
X033421Y014375D01*
X033355Y014215D01*
X033355Y014041D01*
X033421Y013880D01*
X033544Y013757D01*
X033705Y013690D01*
X033879Y013690D01*
X034040Y013757D01*
X034163Y013880D01*
X034230Y014041D01*
X034230Y014215D01*
X034163Y014375D01*
X034040Y014498D01*
X033879Y014565D01*
X033705Y014565D01*
X033940Y014540D02*
X034645Y014540D01*
X034705Y014565D02*
X034544Y014498D01*
X034421Y014375D01*
X034355Y014215D01*
X034355Y014041D01*
X034421Y013880D01*
X034544Y013757D01*
X034705Y013690D01*
X034879Y013690D01*
X035040Y013757D01*
X035163Y013880D01*
X035230Y014041D01*
X035230Y014215D01*
X035163Y014375D01*
X035040Y014498D01*
X034879Y014565D01*
X034705Y014565D01*
X034940Y014540D02*
X035645Y014540D01*
X035705Y014565D02*
X035544Y014498D01*
X035421Y014375D01*
X035355Y014215D01*
X035355Y014041D01*
X035421Y013880D01*
X035544Y013757D01*
X035705Y013690D01*
X035879Y013690D01*
X036040Y013757D01*
X036163Y013880D01*
X036230Y014041D01*
X036230Y014215D01*
X036163Y014375D01*
X036040Y014498D01*
X035879Y014565D01*
X035705Y014565D01*
X035940Y014540D02*
X036645Y014540D01*
X036705Y014565D02*
X036544Y014498D01*
X036421Y014375D01*
X036355Y014215D01*
X036355Y014041D01*
X036421Y013880D01*
X036544Y013757D01*
X036705Y013690D01*
X036879Y013690D01*
X037040Y013757D01*
X037163Y013880D01*
X037230Y014041D01*
X037230Y014215D01*
X037163Y014375D01*
X037040Y014498D01*
X036879Y014565D01*
X036705Y014565D01*
X036940Y014540D02*
X037645Y014540D01*
X037705Y014565D02*
X037544Y014498D01*
X037421Y014375D01*
X037355Y014215D01*
X037355Y014041D01*
X037421Y013880D01*
X037544Y013757D01*
X037705Y013690D01*
X037879Y013690D01*
X038040Y013757D01*
X038163Y013880D01*
X038230Y014041D01*
X038230Y014215D01*
X038163Y014375D01*
X038040Y014498D01*
X037879Y014565D01*
X037705Y014565D01*
X037940Y014540D02*
X038645Y014540D01*
X038705Y014565D02*
X038544Y014498D01*
X038421Y014375D01*
X038355Y014215D01*
X038355Y014041D01*
X038421Y013880D01*
X038544Y013757D01*
X038705Y013690D01*
X038879Y013690D01*
X039040Y013757D01*
X039163Y013880D01*
X039230Y014041D01*
X039230Y014215D01*
X039163Y014375D01*
X039040Y014498D01*
X038879Y014565D01*
X038705Y014565D01*
X038940Y014540D02*
X039645Y014540D01*
X039705Y014565D02*
X039544Y014498D01*
X039421Y014375D01*
X039355Y014215D01*
X039355Y014041D01*
X039421Y013880D01*
X039544Y013757D01*
X039705Y013690D01*
X039879Y013690D01*
X040040Y013757D01*
X040163Y013880D01*
X040230Y014041D01*
X040230Y014215D01*
X040163Y014375D01*
X040040Y014498D01*
X039879Y014565D01*
X039705Y014565D01*
X039940Y014540D02*
X040645Y014540D01*
X040705Y014565D02*
X040544Y014498D01*
X040421Y014375D01*
X040355Y014215D01*
X040355Y014041D01*
X040421Y013880D01*
X040544Y013757D01*
X040705Y013690D01*
X040879Y013690D01*
X041040Y013757D01*
X041163Y013880D01*
X041230Y014041D01*
X041230Y014215D01*
X041163Y014375D01*
X041040Y014498D01*
X040879Y014565D01*
X040705Y014565D01*
X040940Y014540D02*
X041645Y014540D01*
X041705Y014565D02*
X041544Y014498D01*
X041421Y014375D01*
X041355Y014215D01*
X041355Y014041D01*
X041421Y013880D01*
X041544Y013757D01*
X041705Y013690D01*
X041879Y013690D01*
X042040Y013757D01*
X042163Y013880D01*
X042230Y014041D01*
X042230Y014215D01*
X042163Y014375D01*
X042040Y014498D01*
X041879Y014565D01*
X041705Y014565D01*
X041940Y014540D02*
X042645Y014540D01*
X042705Y014565D02*
X042544Y014498D01*
X042421Y014375D01*
X042355Y014215D01*
X042355Y014041D01*
X042421Y013880D01*
X042544Y013757D01*
X042705Y013690D01*
X042879Y013690D01*
X043040Y013757D01*
X043163Y013880D01*
X043230Y014041D01*
X043230Y014215D01*
X043163Y014375D01*
X043040Y014498D01*
X042879Y014565D01*
X042705Y014565D01*
X042940Y014540D02*
X043645Y014540D01*
X043705Y014565D02*
X043544Y014498D01*
X043421Y014375D01*
X043355Y014215D01*
X043355Y014041D01*
X043421Y013880D01*
X043544Y013757D01*
X043705Y013690D01*
X043879Y013690D01*
X044040Y013757D01*
X044163Y013880D01*
X044230Y014041D01*
X044230Y014215D01*
X044163Y014375D01*
X044040Y014498D01*
X043879Y014565D01*
X043705Y014565D01*
X043940Y014540D02*
X044645Y014540D01*
X044705Y014565D02*
X044544Y014498D01*
X044421Y014375D01*
X044355Y014215D01*
X044355Y014041D01*
X044421Y013880D01*
X044544Y013757D01*
X044705Y013690D01*
X044879Y013690D01*
X045040Y013757D01*
X045163Y013880D01*
X045230Y014041D01*
X045230Y014215D01*
X045163Y014375D01*
X045040Y014498D01*
X044879Y014565D01*
X044705Y014565D01*
X044940Y014540D02*
X045645Y014540D01*
X045705Y014565D02*
X045544Y014498D01*
X045421Y014375D01*
X045355Y014215D01*
X045355Y014041D01*
X045421Y013880D01*
X045544Y013757D01*
X045705Y013690D01*
X045879Y013690D01*
X046040Y013757D01*
X046163Y013880D01*
X046230Y014041D01*
X046230Y014215D01*
X046163Y014375D01*
X046040Y014498D01*
X045879Y014565D01*
X045705Y014565D01*
X045940Y014540D02*
X046645Y014540D01*
X046705Y014565D02*
X046544Y014498D01*
X046421Y014375D01*
X046355Y014215D01*
X046355Y014041D01*
X046421Y013880D01*
X046544Y013757D01*
X046705Y013690D01*
X046879Y013690D01*
X047040Y013757D01*
X047163Y013880D01*
X047230Y014041D01*
X047230Y014215D01*
X047163Y014375D01*
X047040Y014498D01*
X046879Y014565D01*
X046705Y014565D01*
X046940Y014540D02*
X047645Y014540D01*
X047705Y014565D02*
X047544Y014498D01*
X047421Y014375D01*
X047355Y014215D01*
X047355Y014041D01*
X047421Y013880D01*
X047544Y013757D01*
X047705Y013690D01*
X047879Y013690D01*
X048040Y013757D01*
X048163Y013880D01*
X048230Y014041D01*
X048230Y014215D01*
X048163Y014375D01*
X048040Y014498D01*
X047879Y014565D01*
X047705Y014565D01*
X047940Y014540D02*
X048645Y014540D01*
X048705Y014565D02*
X048544Y014498D01*
X048421Y014375D01*
X048355Y014215D01*
X048355Y014041D01*
X048421Y013880D01*
X048544Y013757D01*
X048705Y013690D01*
X048879Y013690D01*
X049040Y013757D01*
X049163Y013880D01*
X049230Y014041D01*
X049230Y014215D01*
X049163Y014375D01*
X049040Y014498D01*
X048879Y014565D01*
X048705Y014565D01*
X048940Y014540D02*
X049645Y014540D01*
X049705Y014565D02*
X049544Y014498D01*
X049421Y014375D01*
X049355Y014215D01*
X049355Y014041D01*
X049421Y013880D01*
X049544Y013757D01*
X049705Y013690D01*
X049879Y013690D01*
X050040Y013757D01*
X050163Y013880D01*
X050230Y014041D01*
X050230Y014215D01*
X050163Y014375D01*
X050040Y014498D01*
X049879Y014565D01*
X049705Y014565D01*
X049940Y014540D02*
X052082Y014540D01*
X052082Y014382D02*
X050157Y014382D01*
X050226Y014223D02*
X052082Y014223D01*
X052082Y014065D02*
X050230Y014065D01*
X050174Y013906D02*
X052082Y013906D01*
X052082Y013748D02*
X050018Y013748D01*
X049678Y013589D02*
X052082Y013589D01*
X052082Y013431D02*
X049730Y013431D01*
X049730Y013465D02*
X049663Y013625D01*
X049540Y013748D01*
X049379Y013815D01*
X049205Y013815D01*
X049044Y013748D01*
X048921Y013625D01*
X048855Y013465D01*
X048855Y013291D01*
X048921Y013130D01*
X049044Y013007D01*
X049205Y012940D01*
X049379Y012940D01*
X049540Y013007D01*
X049663Y013130D01*
X049730Y013291D01*
X049730Y013465D01*
X049722Y013272D02*
X052082Y013272D01*
X052082Y013114D02*
X051504Y013114D01*
X051454Y013164D02*
X051221Y013260D01*
X050969Y013260D01*
X050737Y013164D01*
X050559Y012986D01*
X050463Y012753D01*
X050463Y012502D01*
X050559Y012269D01*
X050737Y012091D01*
X050969Y011995D01*
X051221Y011995D01*
X051454Y012091D01*
X051632Y012269D01*
X051728Y012502D01*
X051728Y012753D01*
X051632Y012986D01*
X051454Y013164D01*
X051645Y012955D02*
X052082Y012955D01*
X052082Y012797D02*
X051710Y012797D01*
X051728Y012638D02*
X052082Y012638D01*
X052082Y012480D02*
X051719Y012480D01*
X051653Y012321D02*
X052082Y012321D01*
X052082Y012163D02*
X051525Y012163D01*
X051244Y012004D02*
X052082Y012004D01*
X052082Y011846D02*
X049730Y011846D01*
X049730Y011794D02*
X049663Y011634D01*
X049540Y011511D01*
X049379Y011444D01*
X049205Y011444D01*
X049044Y011511D01*
X048921Y011634D01*
X048855Y011794D01*
X048855Y011969D01*
X048921Y012129D01*
X049044Y012252D01*
X049205Y012319D01*
X049379Y012319D01*
X049540Y012252D01*
X049663Y012129D01*
X049730Y011969D01*
X049730Y011794D01*
X049685Y011687D02*
X052082Y011687D01*
X052082Y011529D02*
X049558Y011529D01*
X049715Y012004D02*
X050947Y012004D01*
X050665Y012163D02*
X049630Y012163D01*
X049705Y012194D02*
X049879Y012194D01*
X050040Y012261D01*
X050163Y012384D01*
X050230Y012544D01*
X050230Y012719D01*
X050163Y012879D01*
X050040Y013002D01*
X049879Y013069D01*
X049705Y013069D01*
X049544Y013002D01*
X049421Y012879D01*
X049355Y012719D01*
X049355Y012544D01*
X049421Y012384D01*
X049544Y012261D01*
X049705Y012194D01*
X049484Y012321D02*
X049100Y012321D01*
X049040Y012261D02*
X049163Y012384D01*
X049230Y012544D01*
X049230Y012719D01*
X049163Y012879D01*
X049040Y013002D01*
X048879Y013069D01*
X048705Y013069D01*
X048544Y013002D01*
X048421Y012879D01*
X048355Y012719D01*
X048355Y012544D01*
X048421Y012384D01*
X048544Y012261D01*
X048705Y012194D01*
X048879Y012194D01*
X049040Y012261D01*
X048955Y012163D02*
X026630Y012163D01*
X026663Y012129D02*
X026540Y012252D01*
X026379Y012319D01*
X026205Y012319D01*
X026044Y012252D01*
X025921Y012129D01*
X025855Y011969D01*
X025855Y011794D01*
X025921Y011634D01*
X026044Y011511D01*
X026205Y011444D01*
X026379Y011444D01*
X026540Y011511D01*
X026663Y011634D01*
X026730Y011794D01*
X026730Y011969D01*
X026663Y012129D01*
X026705Y012194D02*
X026879Y012194D01*
X027040Y012261D01*
X027163Y012384D01*
X027230Y012544D01*
X027230Y012719D01*
X027163Y012879D01*
X027040Y013002D01*
X026879Y013069D01*
X026705Y013069D01*
X026544Y013002D01*
X026421Y012879D01*
X026355Y012719D01*
X026355Y012544D01*
X026421Y012384D01*
X026544Y012261D01*
X026705Y012194D01*
X026715Y012004D02*
X048869Y012004D01*
X048855Y011846D02*
X026730Y011846D01*
X026685Y011687D02*
X048899Y011687D01*
X049026Y011529D02*
X026558Y011529D01*
X026026Y011529D02*
X025558Y011529D01*
X025540Y011511D02*
X025663Y011634D01*
X025730Y011794D01*
X025730Y011969D01*
X025663Y012129D01*
X025540Y012252D01*
X025379Y012319D01*
X025205Y012319D01*
X025044Y012252D01*
X024921Y012129D01*
X024855Y011969D01*
X024855Y011794D01*
X024921Y011634D01*
X025044Y011511D01*
X025205Y011444D01*
X025379Y011444D01*
X025540Y011511D01*
X025685Y011687D02*
X025899Y011687D01*
X025855Y011846D02*
X025730Y011846D01*
X025715Y012004D02*
X025869Y012004D01*
X025955Y012163D02*
X025630Y012163D01*
X024955Y012163D02*
X024419Y012163D01*
X024347Y012091D02*
X024525Y012269D01*
X024622Y012502D01*
X024622Y012753D01*
X024525Y012986D01*
X024347Y013164D01*
X024115Y013260D01*
X023863Y013260D01*
X023631Y013164D01*
X023453Y012986D01*
X023356Y012753D01*
X023356Y012502D01*
X023453Y012269D01*
X023631Y012091D01*
X023863Y011995D01*
X024115Y011995D01*
X024347Y012091D01*
X024137Y012004D02*
X024869Y012004D01*
X024855Y011846D02*
X014902Y011846D01*
X014902Y011939D02*
X014779Y012236D01*
X014551Y012464D01*
X014253Y012587D01*
X013931Y012587D01*
X013633Y012464D01*
X013406Y012236D01*
X013282Y011939D01*
X013282Y011616D01*
X013406Y011319D01*
X013633Y011091D01*
X013931Y010968D01*
X014253Y010968D01*
X014551Y011091D01*
X014779Y011319D01*
X014902Y011616D01*
X014902Y011939D01*
X014875Y012004D02*
X023841Y012004D01*
X023559Y012163D02*
X014809Y012163D01*
X014694Y012321D02*
X023431Y012321D01*
X023365Y012480D02*
X014514Y012480D01*
X013671Y012480D02*
X013072Y012480D01*
X013072Y012638D02*
X023356Y012638D01*
X023374Y012797D02*
X013072Y012797D01*
X013072Y012955D02*
X023440Y012955D01*
X023580Y013114D02*
X013072Y013114D01*
X013072Y013272D02*
X024862Y013272D01*
X024855Y013291D02*
X024921Y013130D01*
X025044Y013007D01*
X025205Y012940D01*
X025379Y012940D01*
X025540Y013007D01*
X025663Y013130D01*
X025730Y013291D01*
X025730Y013465D01*
X025663Y013625D01*
X025540Y013748D01*
X025379Y013815D01*
X025205Y013815D01*
X025044Y013748D01*
X024921Y013625D01*
X024855Y013465D01*
X024855Y013291D01*
X024855Y013431D02*
X013072Y013431D01*
X013072Y013589D02*
X024906Y013589D01*
X025044Y013748D02*
X014649Y013748D01*
X014615Y013714D02*
X014716Y013815D01*
X014770Y013946D01*
X014770Y014089D01*
X014716Y014220D01*
X014615Y014321D01*
X014483Y014376D01*
X014341Y014376D01*
X014209Y014321D01*
X014109Y014220D01*
X014054Y014089D01*
X014054Y013946D01*
X014109Y013815D01*
X014209Y013714D01*
X014341Y013659D01*
X014483Y013659D01*
X014615Y013714D01*
X014754Y013906D02*
X025410Y013906D01*
X025421Y013880D02*
X025544Y013757D01*
X025705Y013690D01*
X025879Y013690D01*
X026040Y013757D01*
X026163Y013880D01*
X026230Y014041D01*
X026230Y014215D01*
X026163Y014375D01*
X026040Y014498D01*
X025879Y014565D01*
X025705Y014565D01*
X025544Y014498D01*
X025421Y014375D01*
X025355Y014215D01*
X025355Y014041D01*
X025421Y013880D01*
X025541Y013748D02*
X025566Y013748D01*
X025678Y013589D02*
X025906Y013589D01*
X025921Y013625D02*
X025855Y013465D01*
X025855Y013291D01*
X025921Y013130D01*
X026044Y013007D01*
X026205Y012940D01*
X026379Y012940D01*
X026540Y013007D01*
X026663Y013130D01*
X026730Y013291D01*
X026730Y013465D01*
X026663Y013625D01*
X026540Y013748D01*
X026379Y013815D01*
X026205Y013815D01*
X026044Y013748D01*
X025921Y013625D01*
X026018Y013748D02*
X026044Y013748D01*
X026174Y013906D02*
X026410Y013906D01*
X026421Y013880D02*
X026544Y013757D01*
X026705Y013690D01*
X026879Y013690D01*
X027040Y013757D01*
X027163Y013880D01*
X027230Y014041D01*
X027230Y014215D01*
X027163Y014375D01*
X027040Y014498D01*
X026879Y014565D01*
X026705Y014565D01*
X026544Y014498D01*
X026421Y014375D01*
X026355Y014215D01*
X026355Y014041D01*
X026421Y013880D01*
X026541Y013748D02*
X026566Y013748D01*
X026678Y013589D02*
X026906Y013589D01*
X026921Y013625D02*
X026855Y013465D01*
X026855Y013291D01*
X026921Y013130D01*
X027044Y013007D01*
X027205Y012940D01*
X027379Y012940D01*
X027540Y013007D01*
X027663Y013130D01*
X027730Y013291D01*
X027730Y013465D01*
X027663Y013625D01*
X027540Y013748D01*
X027379Y013815D01*
X027205Y013815D01*
X027044Y013748D01*
X026921Y013625D01*
X027018Y013748D02*
X027044Y013748D01*
X027174Y013906D02*
X027410Y013906D01*
X027421Y013880D02*
X027544Y013757D01*
X027705Y013690D01*
X027879Y013690D01*
X028040Y013757D01*
X028163Y013880D01*
X028230Y014041D01*
X028230Y014215D01*
X028163Y014375D01*
X028040Y014498D01*
X027879Y014565D01*
X027705Y014565D01*
X027544Y014498D01*
X027421Y014375D01*
X027355Y014215D01*
X027355Y014041D01*
X027421Y013880D01*
X027541Y013748D02*
X027566Y013748D01*
X027678Y013589D02*
X027906Y013589D01*
X027921Y013625D02*
X027855Y013465D01*
X027855Y013291D01*
X027921Y013130D01*
X028044Y013007D01*
X028205Y012940D01*
X028379Y012940D01*
X028540Y013007D01*
X028663Y013130D01*
X028730Y013291D01*
X028730Y013465D01*
X028663Y013625D01*
X028540Y013748D01*
X028379Y013815D01*
X028205Y013815D01*
X028044Y013748D01*
X027921Y013625D01*
X028018Y013748D02*
X028044Y013748D01*
X028174Y013906D02*
X028410Y013906D01*
X028421Y013880D02*
X028544Y013757D01*
X028705Y013690D01*
X028879Y013690D01*
X029040Y013757D01*
X029163Y013880D01*
X029230Y014041D01*
X029230Y014215D01*
X029163Y014375D01*
X029040Y014498D01*
X028879Y014565D01*
X028705Y014565D01*
X028544Y014498D01*
X028421Y014375D01*
X028355Y014215D01*
X028355Y014041D01*
X028421Y013880D01*
X028541Y013748D02*
X028566Y013748D01*
X028678Y013589D02*
X028906Y013589D01*
X028921Y013625D02*
X028855Y013465D01*
X028855Y013291D01*
X028921Y013130D01*
X029044Y013007D01*
X029205Y012940D01*
X029379Y012940D01*
X029540Y013007D01*
X029663Y013130D01*
X029730Y013291D01*
X029730Y013465D01*
X029663Y013625D01*
X029540Y013748D01*
X029379Y013815D01*
X029205Y013815D01*
X029044Y013748D01*
X028921Y013625D01*
X029018Y013748D02*
X029044Y013748D01*
X029174Y013906D02*
X029410Y013906D01*
X029421Y013880D02*
X029544Y013757D01*
X029705Y013690D01*
X029879Y013690D01*
X030040Y013757D01*
X030163Y013880D01*
X030230Y014041D01*
X030230Y014215D01*
X030163Y014375D01*
X030040Y014498D01*
X029879Y014565D01*
X029705Y014565D01*
X029544Y014498D01*
X029421Y014375D01*
X029355Y014215D01*
X029355Y014041D01*
X029421Y013880D01*
X029541Y013748D02*
X029566Y013748D01*
X029678Y013589D02*
X029906Y013589D01*
X029921Y013625D02*
X029855Y013465D01*
X029855Y013291D01*
X029921Y013130D01*
X030044Y013007D01*
X030205Y012940D01*
X030379Y012940D01*
X030540Y013007D01*
X030663Y013130D01*
X030730Y013291D01*
X030730Y013465D01*
X030663Y013625D01*
X030540Y013748D01*
X030379Y013815D01*
X030205Y013815D01*
X030044Y013748D01*
X029921Y013625D01*
X030018Y013748D02*
X030044Y013748D01*
X030174Y013906D02*
X030410Y013906D01*
X030355Y014065D02*
X030230Y014065D01*
X030226Y014223D02*
X030358Y014223D01*
X030428Y014382D02*
X030157Y014382D01*
X029940Y014540D02*
X030645Y014540D01*
X031157Y014382D02*
X031428Y014382D01*
X031358Y014223D02*
X031226Y014223D01*
X031230Y014065D02*
X031355Y014065D01*
X031410Y013906D02*
X031174Y013906D01*
X031205Y013815D02*
X031044Y013748D01*
X030921Y013625D01*
X030855Y013465D01*
X030855Y013291D01*
X030921Y013130D01*
X031044Y013007D01*
X031205Y012940D01*
X031379Y012940D01*
X031540Y013007D01*
X031663Y013130D01*
X031730Y013291D01*
X031730Y013465D01*
X031663Y013625D01*
X031540Y013748D01*
X031379Y013815D01*
X031205Y013815D01*
X031044Y013748D02*
X031018Y013748D01*
X030906Y013589D02*
X030678Y013589D01*
X030730Y013431D02*
X030855Y013431D01*
X030862Y013272D02*
X030722Y013272D01*
X030647Y013114D02*
X030937Y013114D01*
X031169Y012955D02*
X030415Y012955D01*
X030169Y012955D02*
X029415Y012955D01*
X029169Y012955D02*
X028415Y012955D01*
X028169Y012955D02*
X027415Y012955D01*
X027169Y012955D02*
X027087Y012955D01*
X027197Y012797D02*
X047387Y012797D01*
X047355Y012719D02*
X047355Y012544D01*
X047421Y012384D01*
X047544Y012261D01*
X047705Y012194D01*
X047879Y012194D01*
X048040Y012261D01*
X048163Y012384D01*
X048230Y012544D01*
X048230Y012719D01*
X048163Y012879D01*
X048040Y013002D01*
X047879Y013069D01*
X047705Y013069D01*
X047544Y013002D01*
X047421Y012879D01*
X047355Y012719D01*
X047355Y012638D02*
X027230Y012638D01*
X027203Y012480D02*
X047382Y012480D01*
X047484Y012321D02*
X027100Y012321D01*
X026484Y012321D02*
X024547Y012321D01*
X024613Y012480D02*
X026382Y012480D01*
X026355Y012638D02*
X024622Y012638D01*
X024604Y012797D02*
X026387Y012797D01*
X026415Y012955D02*
X026497Y012955D01*
X026647Y013114D02*
X026937Y013114D01*
X026862Y013272D02*
X026722Y013272D01*
X026730Y013431D02*
X026855Y013431D01*
X027230Y014065D02*
X027355Y014065D01*
X027358Y014223D02*
X027226Y014223D01*
X027157Y014382D02*
X027428Y014382D01*
X027645Y014540D02*
X026940Y014540D01*
X026645Y014540D02*
X025940Y014540D01*
X026157Y014382D02*
X026428Y014382D01*
X026358Y014223D02*
X026226Y014223D01*
X026230Y014065D02*
X026355Y014065D01*
X025855Y013431D02*
X025730Y013431D01*
X025722Y013272D02*
X025862Y013272D01*
X025937Y013114D02*
X025647Y013114D01*
X025415Y012955D02*
X026169Y012955D01*
X025169Y012955D02*
X024538Y012955D01*
X024398Y013114D02*
X024937Y013114D01*
X025355Y014065D02*
X014770Y014065D01*
X014713Y014223D02*
X025358Y014223D01*
X025428Y014382D02*
X013072Y014382D01*
X013072Y014540D02*
X025645Y014540D01*
X027940Y014540D02*
X028645Y014540D01*
X028428Y014382D02*
X028157Y014382D01*
X028226Y014223D02*
X028358Y014223D01*
X028355Y014065D02*
X028230Y014065D01*
X027855Y013431D02*
X027730Y013431D01*
X027722Y013272D02*
X027862Y013272D01*
X027937Y013114D02*
X027647Y013114D01*
X028647Y013114D02*
X028937Y013114D01*
X028862Y013272D02*
X028722Y013272D01*
X028730Y013431D02*
X028855Y013431D01*
X029230Y014065D02*
X029355Y014065D01*
X029358Y014223D02*
X029226Y014223D01*
X029157Y014382D02*
X029428Y014382D01*
X029645Y014540D02*
X028940Y014540D01*
X029730Y013431D02*
X029855Y013431D01*
X029862Y013272D02*
X029722Y013272D01*
X029647Y013114D02*
X029937Y013114D01*
X030541Y013748D02*
X030566Y013748D01*
X031541Y013748D02*
X031566Y013748D01*
X031678Y013589D02*
X031906Y013589D01*
X031921Y013625D02*
X031855Y013465D01*
X031855Y013291D01*
X031921Y013130D01*
X032044Y013007D01*
X032205Y012940D01*
X032379Y012940D01*
X032540Y013007D01*
X032663Y013130D01*
X032730Y013291D01*
X032730Y013465D01*
X032663Y013625D01*
X032540Y013748D01*
X032379Y013815D01*
X032205Y013815D01*
X032044Y013748D01*
X031921Y013625D01*
X032018Y013748D02*
X032044Y013748D01*
X032174Y013906D02*
X032410Y013906D01*
X032355Y014065D02*
X032230Y014065D01*
X032226Y014223D02*
X032358Y014223D01*
X032428Y014382D02*
X032157Y014382D01*
X032541Y013748D02*
X032566Y013748D01*
X032678Y013589D02*
X032906Y013589D01*
X032921Y013625D02*
X032855Y013465D01*
X032855Y013291D01*
X032921Y013130D01*
X033044Y013007D01*
X033205Y012940D01*
X033379Y012940D01*
X033540Y013007D01*
X033663Y013130D01*
X033730Y013291D01*
X033730Y013465D01*
X033663Y013625D01*
X033540Y013748D01*
X033379Y013815D01*
X033205Y013815D01*
X033044Y013748D01*
X032921Y013625D01*
X033018Y013748D02*
X033044Y013748D01*
X033174Y013906D02*
X033410Y013906D01*
X033355Y014065D02*
X033230Y014065D01*
X033226Y014223D02*
X033358Y014223D01*
X033428Y014382D02*
X033157Y014382D01*
X033541Y013748D02*
X033566Y013748D01*
X033678Y013589D02*
X033906Y013589D01*
X033921Y013625D02*
X033855Y013465D01*
X033855Y013291D01*
X033921Y013130D01*
X034044Y013007D01*
X034205Y012940D01*
X034379Y012940D01*
X034540Y013007D01*
X034663Y013130D01*
X034730Y013291D01*
X034730Y013465D01*
X034663Y013625D01*
X034540Y013748D01*
X034379Y013815D01*
X034205Y013815D01*
X034044Y013748D01*
X033921Y013625D01*
X034018Y013748D02*
X034044Y013748D01*
X034174Y013906D02*
X034410Y013906D01*
X034355Y014065D02*
X034230Y014065D01*
X034226Y014223D02*
X034358Y014223D01*
X034428Y014382D02*
X034157Y014382D01*
X034541Y013748D02*
X034566Y013748D01*
X034678Y013589D02*
X034906Y013589D01*
X034921Y013625D02*
X034855Y013465D01*
X034855Y013291D01*
X034921Y013130D01*
X035044Y013007D01*
X035205Y012940D01*
X035379Y012940D01*
X035540Y013007D01*
X035663Y013130D01*
X035730Y013291D01*
X035730Y013465D01*
X035663Y013625D01*
X035540Y013748D01*
X035379Y013815D01*
X035205Y013815D01*
X035044Y013748D01*
X034921Y013625D01*
X035018Y013748D02*
X035044Y013748D01*
X035174Y013906D02*
X035410Y013906D01*
X035355Y014065D02*
X035230Y014065D01*
X035226Y014223D02*
X035358Y014223D01*
X035428Y014382D02*
X035157Y014382D01*
X035541Y013748D02*
X035566Y013748D01*
X035678Y013589D02*
X035906Y013589D01*
X035921Y013625D02*
X035855Y013465D01*
X035855Y013291D01*
X035921Y013130D01*
X036044Y013007D01*
X036205Y012940D01*
X036379Y012940D01*
X036540Y013007D01*
X036663Y013130D01*
X036730Y013291D01*
X036730Y013465D01*
X036663Y013625D01*
X036540Y013748D01*
X036379Y013815D01*
X036205Y013815D01*
X036044Y013748D01*
X035921Y013625D01*
X036018Y013748D02*
X036044Y013748D01*
X036174Y013906D02*
X036410Y013906D01*
X036355Y014065D02*
X036230Y014065D01*
X036226Y014223D02*
X036358Y014223D01*
X036428Y014382D02*
X036157Y014382D01*
X036541Y013748D02*
X036566Y013748D01*
X036678Y013589D02*
X036906Y013589D01*
X036921Y013625D02*
X036855Y013465D01*
X036855Y013291D01*
X036921Y013130D01*
X037044Y013007D01*
X037205Y012940D01*
X037379Y012940D01*
X037540Y013007D01*
X037663Y013130D01*
X037730Y013291D01*
X037730Y013465D01*
X037663Y013625D01*
X037540Y013748D01*
X037379Y013815D01*
X037205Y013815D01*
X037044Y013748D01*
X036921Y013625D01*
X037018Y013748D02*
X037044Y013748D01*
X037174Y013906D02*
X037410Y013906D01*
X037355Y014065D02*
X037230Y014065D01*
X037226Y014223D02*
X037358Y014223D01*
X037428Y014382D02*
X037157Y014382D01*
X037541Y013748D02*
X037566Y013748D01*
X037678Y013589D02*
X037906Y013589D01*
X037921Y013625D02*
X037855Y013465D01*
X037855Y013291D01*
X037921Y013130D01*
X038044Y013007D01*
X038205Y012940D01*
X038379Y012940D01*
X038540Y013007D01*
X038663Y013130D01*
X038730Y013291D01*
X038730Y013465D01*
X038663Y013625D01*
X038540Y013748D01*
X038379Y013815D01*
X038205Y013815D01*
X038044Y013748D01*
X037921Y013625D01*
X038018Y013748D02*
X038044Y013748D01*
X038174Y013906D02*
X038410Y013906D01*
X038355Y014065D02*
X038230Y014065D01*
X038226Y014223D02*
X038358Y014223D01*
X038428Y014382D02*
X038157Y014382D01*
X038541Y013748D02*
X038566Y013748D01*
X038678Y013589D02*
X038906Y013589D01*
X038921Y013625D02*
X038855Y013465D01*
X038855Y013291D01*
X038921Y013130D01*
X039044Y013007D01*
X039205Y012940D01*
X039379Y012940D01*
X039540Y013007D01*
X039663Y013130D01*
X039730Y013291D01*
X039730Y013465D01*
X039663Y013625D01*
X039540Y013748D01*
X039379Y013815D01*
X039205Y013815D01*
X039044Y013748D01*
X038921Y013625D01*
X039018Y013748D02*
X039044Y013748D01*
X039174Y013906D02*
X039410Y013906D01*
X039355Y014065D02*
X039230Y014065D01*
X039226Y014223D02*
X039358Y014223D01*
X039428Y014382D02*
X039157Y014382D01*
X039541Y013748D02*
X039566Y013748D01*
X039678Y013589D02*
X039906Y013589D01*
X039921Y013625D02*
X039855Y013465D01*
X039855Y013291D01*
X039921Y013130D01*
X040044Y013007D01*
X040205Y012940D01*
X040379Y012940D01*
X040540Y013007D01*
X040663Y013130D01*
X040730Y013291D01*
X040730Y013465D01*
X040663Y013625D01*
X040540Y013748D01*
X040379Y013815D01*
X040205Y013815D01*
X040044Y013748D01*
X039921Y013625D01*
X040018Y013748D02*
X040044Y013748D01*
X040174Y013906D02*
X040410Y013906D01*
X040355Y014065D02*
X040230Y014065D01*
X040226Y014223D02*
X040358Y014223D01*
X040428Y014382D02*
X040157Y014382D01*
X040541Y013748D02*
X040566Y013748D01*
X040678Y013589D02*
X040906Y013589D01*
X040921Y013625D02*
X040855Y013465D01*
X040855Y013291D01*
X040921Y013130D01*
X041044Y013007D01*
X041205Y012940D01*
X041379Y012940D01*
X041540Y013007D01*
X041663Y013130D01*
X041730Y013291D01*
X041730Y013465D01*
X041663Y013625D01*
X041540Y013748D01*
X041379Y013815D01*
X041205Y013815D01*
X041044Y013748D01*
X040921Y013625D01*
X041018Y013748D02*
X041044Y013748D01*
X041174Y013906D02*
X041410Y013906D01*
X041355Y014065D02*
X041230Y014065D01*
X041226Y014223D02*
X041358Y014223D01*
X041428Y014382D02*
X041157Y014382D01*
X041541Y013748D02*
X041566Y013748D01*
X041678Y013589D02*
X041906Y013589D01*
X041921Y013625D02*
X041855Y013465D01*
X041855Y013291D01*
X041921Y013130D01*
X042044Y013007D01*
X042205Y012940D01*
X042379Y012940D01*
X042540Y013007D01*
X042663Y013130D01*
X042730Y013291D01*
X042730Y013465D01*
X042663Y013625D01*
X042540Y013748D01*
X042379Y013815D01*
X042205Y013815D01*
X042044Y013748D01*
X041921Y013625D01*
X042018Y013748D02*
X042044Y013748D01*
X042174Y013906D02*
X042410Y013906D01*
X042355Y014065D02*
X042230Y014065D01*
X042226Y014223D02*
X042358Y014223D01*
X042428Y014382D02*
X042157Y014382D01*
X042541Y013748D02*
X042566Y013748D01*
X042678Y013589D02*
X042906Y013589D01*
X042921Y013625D02*
X042855Y013465D01*
X042855Y013291D01*
X042921Y013130D01*
X043044Y013007D01*
X043205Y012940D01*
X043379Y012940D01*
X043540Y013007D01*
X043663Y013130D01*
X043730Y013291D01*
X043730Y013465D01*
X043663Y013625D01*
X043540Y013748D01*
X043379Y013815D01*
X043205Y013815D01*
X043044Y013748D01*
X042921Y013625D01*
X043018Y013748D02*
X043044Y013748D01*
X043174Y013906D02*
X043410Y013906D01*
X043355Y014065D02*
X043230Y014065D01*
X043226Y014223D02*
X043358Y014223D01*
X043428Y014382D02*
X043157Y014382D01*
X043541Y013748D02*
X043566Y013748D01*
X043678Y013589D02*
X043906Y013589D01*
X043921Y013625D02*
X043855Y013465D01*
X043855Y013291D01*
X043921Y013130D01*
X044044Y013007D01*
X044205Y012940D01*
X044379Y012940D01*
X044540Y013007D01*
X044663Y013130D01*
X044730Y013291D01*
X044730Y013465D01*
X044663Y013625D01*
X044540Y013748D01*
X044379Y013815D01*
X044205Y013815D01*
X044044Y013748D01*
X043921Y013625D01*
X044018Y013748D02*
X044044Y013748D01*
X044174Y013906D02*
X044410Y013906D01*
X044355Y014065D02*
X044230Y014065D01*
X044226Y014223D02*
X044358Y014223D01*
X044428Y014382D02*
X044157Y014382D01*
X044541Y013748D02*
X044566Y013748D01*
X044678Y013589D02*
X044906Y013589D01*
X044921Y013625D02*
X044855Y013465D01*
X044855Y013291D01*
X044921Y013130D01*
X045044Y013007D01*
X045205Y012940D01*
X045379Y012940D01*
X045540Y013007D01*
X045663Y013130D01*
X045730Y013291D01*
X045730Y013465D01*
X045663Y013625D01*
X045540Y013748D01*
X045379Y013815D01*
X045205Y013815D01*
X045044Y013748D01*
X044921Y013625D01*
X045018Y013748D02*
X045044Y013748D01*
X045174Y013906D02*
X045410Y013906D01*
X045355Y014065D02*
X045230Y014065D01*
X045226Y014223D02*
X045358Y014223D01*
X045428Y014382D02*
X045157Y014382D01*
X045541Y013748D02*
X045566Y013748D01*
X045678Y013589D02*
X045906Y013589D01*
X045921Y013625D02*
X045855Y013465D01*
X045855Y013291D01*
X045921Y013130D01*
X046044Y013007D01*
X046205Y012940D01*
X046379Y012940D01*
X046540Y013007D01*
X046663Y013130D01*
X046730Y013291D01*
X046730Y013465D01*
X046663Y013625D01*
X046540Y013748D01*
X046379Y013815D01*
X046205Y013815D01*
X046044Y013748D01*
X045921Y013625D01*
X046018Y013748D02*
X046044Y013748D01*
X046174Y013906D02*
X046410Y013906D01*
X046355Y014065D02*
X046230Y014065D01*
X046226Y014223D02*
X046358Y014223D01*
X046428Y014382D02*
X046157Y014382D01*
X046541Y013748D02*
X046566Y013748D01*
X046678Y013589D02*
X046906Y013589D01*
X046921Y013625D02*
X046855Y013465D01*
X046855Y013291D01*
X046921Y013130D01*
X047044Y013007D01*
X047205Y012940D01*
X047379Y012940D01*
X047540Y013007D01*
X047663Y013130D01*
X047730Y013291D01*
X047730Y013465D01*
X047663Y013625D01*
X047540Y013748D01*
X047379Y013815D01*
X047205Y013815D01*
X047044Y013748D01*
X046921Y013625D01*
X047018Y013748D02*
X047044Y013748D01*
X047174Y013906D02*
X047410Y013906D01*
X047355Y014065D02*
X047230Y014065D01*
X047226Y014223D02*
X047358Y014223D01*
X047428Y014382D02*
X047157Y014382D01*
X047541Y013748D02*
X047566Y013748D01*
X047678Y013589D02*
X047906Y013589D01*
X047921Y013625D02*
X047855Y013465D01*
X047855Y013291D01*
X047921Y013130D01*
X048044Y013007D01*
X048205Y012940D01*
X048379Y012940D01*
X048540Y013007D01*
X048663Y013130D01*
X048730Y013291D01*
X048730Y013465D01*
X048663Y013625D01*
X048540Y013748D01*
X048379Y013815D01*
X048205Y013815D01*
X048044Y013748D01*
X047921Y013625D01*
X048018Y013748D02*
X048044Y013748D01*
X048174Y013906D02*
X048410Y013906D01*
X048355Y014065D02*
X048230Y014065D01*
X048226Y014223D02*
X048358Y014223D01*
X048428Y014382D02*
X048157Y014382D01*
X048541Y013748D02*
X048566Y013748D01*
X048678Y013589D02*
X048906Y013589D01*
X048855Y013431D02*
X048730Y013431D01*
X048722Y013272D02*
X048862Y013272D01*
X048937Y013114D02*
X048647Y013114D01*
X048497Y012955D02*
X048415Y012955D01*
X048387Y012797D02*
X048197Y012797D01*
X048169Y012955D02*
X048087Y012955D01*
X047937Y013114D02*
X047647Y013114D01*
X047722Y013272D02*
X047862Y013272D01*
X047855Y013431D02*
X047730Y013431D01*
X047497Y012955D02*
X047415Y012955D01*
X047169Y012955D02*
X046415Y012955D01*
X046169Y012955D02*
X045415Y012955D01*
X045169Y012955D02*
X044415Y012955D01*
X044169Y012955D02*
X043415Y012955D01*
X043169Y012955D02*
X042415Y012955D01*
X042169Y012955D02*
X041415Y012955D01*
X041169Y012955D02*
X040415Y012955D01*
X040169Y012955D02*
X039415Y012955D01*
X039169Y012955D02*
X038415Y012955D01*
X038169Y012955D02*
X037415Y012955D01*
X037169Y012955D02*
X036415Y012955D01*
X036169Y012955D02*
X035415Y012955D01*
X035169Y012955D02*
X034415Y012955D01*
X034169Y012955D02*
X033415Y012955D01*
X033169Y012955D02*
X032415Y012955D01*
X032169Y012955D02*
X031415Y012955D01*
X031647Y013114D02*
X031937Y013114D01*
X031862Y013272D02*
X031722Y013272D01*
X031730Y013431D02*
X031855Y013431D01*
X032647Y013114D02*
X032937Y013114D01*
X032862Y013272D02*
X032722Y013272D01*
X032730Y013431D02*
X032855Y013431D01*
X033647Y013114D02*
X033937Y013114D01*
X033862Y013272D02*
X033722Y013272D01*
X033730Y013431D02*
X033855Y013431D01*
X034647Y013114D02*
X034937Y013114D01*
X034862Y013272D02*
X034722Y013272D01*
X034730Y013431D02*
X034855Y013431D01*
X035647Y013114D02*
X035937Y013114D01*
X035862Y013272D02*
X035722Y013272D01*
X035730Y013431D02*
X035855Y013431D01*
X036647Y013114D02*
X036937Y013114D01*
X036862Y013272D02*
X036722Y013272D01*
X036730Y013431D02*
X036855Y013431D01*
X037647Y013114D02*
X037937Y013114D01*
X037862Y013272D02*
X037722Y013272D01*
X037730Y013431D02*
X037855Y013431D01*
X038647Y013114D02*
X038937Y013114D01*
X038862Y013272D02*
X038722Y013272D01*
X038730Y013431D02*
X038855Y013431D01*
X039647Y013114D02*
X039937Y013114D01*
X039862Y013272D02*
X039722Y013272D01*
X039730Y013431D02*
X039855Y013431D01*
X040647Y013114D02*
X040937Y013114D01*
X040862Y013272D02*
X040722Y013272D01*
X040730Y013431D02*
X040855Y013431D01*
X041647Y013114D02*
X041937Y013114D01*
X041862Y013272D02*
X041722Y013272D01*
X041730Y013431D02*
X041855Y013431D01*
X042647Y013114D02*
X042937Y013114D01*
X042862Y013272D02*
X042722Y013272D01*
X042730Y013431D02*
X042855Y013431D01*
X043647Y013114D02*
X043937Y013114D01*
X043862Y013272D02*
X043722Y013272D01*
X043730Y013431D02*
X043855Y013431D01*
X044647Y013114D02*
X044937Y013114D01*
X044862Y013272D02*
X044722Y013272D01*
X044730Y013431D02*
X044855Y013431D01*
X045647Y013114D02*
X045937Y013114D01*
X045862Y013272D02*
X045722Y013272D01*
X045730Y013431D02*
X045855Y013431D01*
X046647Y013114D02*
X046937Y013114D01*
X046862Y013272D02*
X046722Y013272D01*
X046730Y013431D02*
X046855Y013431D01*
X048230Y012638D02*
X048355Y012638D01*
X048382Y012480D02*
X048203Y012480D01*
X048100Y012321D02*
X048484Y012321D01*
X049203Y012480D02*
X049382Y012480D01*
X049355Y012638D02*
X049230Y012638D01*
X049197Y012797D02*
X049387Y012797D01*
X049415Y012955D02*
X049497Y012955D01*
X049647Y013114D02*
X050686Y013114D01*
X050546Y012955D02*
X050087Y012955D01*
X050197Y012797D02*
X050480Y012797D01*
X050463Y012638D02*
X050230Y012638D01*
X050203Y012480D02*
X050472Y012480D01*
X050537Y012321D02*
X050100Y012321D01*
X049169Y012955D02*
X049087Y012955D01*
X049044Y013748D02*
X049018Y013748D01*
X049174Y013906D02*
X049410Y013906D01*
X049355Y014065D02*
X049230Y014065D01*
X049226Y014223D02*
X049358Y014223D01*
X049428Y014382D02*
X049157Y014382D01*
X049541Y013748D02*
X049566Y013748D01*
X052082Y014699D02*
X013072Y014699D01*
X013072Y014857D02*
X052082Y014857D01*
X052082Y015016D02*
X013072Y015016D01*
X013072Y015174D02*
X052082Y015174D01*
X052082Y015333D02*
X013072Y015333D01*
X013072Y015491D02*
X052082Y015491D01*
X052082Y016284D02*
X051533Y016284D01*
X051702Y016442D02*
X052082Y016442D01*
X052082Y016601D02*
X051813Y016601D01*
X051878Y016759D02*
X052082Y016759D01*
X052082Y016918D02*
X051902Y016918D01*
X051902Y017076D02*
X052082Y017076D01*
X052082Y017235D02*
X051862Y017235D01*
X051797Y017393D02*
X052082Y017393D01*
X052082Y017552D02*
X051664Y017552D01*
X051440Y017710D02*
X052082Y017710D01*
X047984Y018661D02*
X035292Y018661D01*
X028384Y018820D02*
X013072Y018820D01*
X013072Y018978D02*
X028297Y018978D01*
X028297Y019137D02*
X013072Y019137D01*
X013072Y019295D02*
X028383Y019295D01*
X028080Y019771D02*
X027624Y019771D01*
X027769Y019929D02*
X027936Y019929D01*
X027872Y020088D02*
X027832Y020088D01*
X027832Y020246D02*
X027872Y020246D01*
X027927Y020405D02*
X027778Y020405D01*
X027645Y020563D02*
X028059Y020563D01*
X027080Y019771D02*
X013072Y019771D01*
X013072Y019929D02*
X026936Y019929D01*
X026737Y016759D02*
X045620Y016759D01*
X045574Y016601D02*
X026837Y016601D01*
X024899Y011687D02*
X014902Y011687D01*
X014866Y011529D02*
X025026Y011529D01*
X020876Y020088D02*
X013072Y020088D01*
X013072Y020246D02*
X020782Y020246D01*
X020774Y020405D02*
X015664Y020405D01*
X015848Y020563D02*
X020851Y020563D01*
X024096Y022782D02*
X024529Y022782D01*
X024540Y022771D02*
X024717Y022698D01*
X024908Y022698D01*
X025084Y022771D01*
X025219Y022906D01*
X025292Y023082D01*
X025292Y023273D01*
X025219Y023449D01*
X025084Y023584D01*
X024908Y023658D01*
X024717Y023658D01*
X024540Y023584D01*
X024405Y023449D01*
X024332Y023273D01*
X024332Y023082D01*
X024405Y022906D01*
X024540Y022771D01*
X024391Y022941D02*
X024234Y022941D01*
X024292Y023099D02*
X024332Y023099D01*
X024332Y023258D02*
X024292Y023258D01*
X024233Y023416D02*
X024391Y023416D01*
X024530Y023575D02*
X024094Y023575D01*
X024102Y024209D02*
X024482Y024209D01*
X024520Y024171D02*
X024697Y024098D01*
X024888Y024098D01*
X025064Y024171D01*
X025199Y024306D01*
X025272Y024482D01*
X025272Y024673D01*
X025199Y024849D01*
X025064Y024984D01*
X024888Y025058D01*
X024697Y025058D01*
X024520Y024984D01*
X024385Y024849D01*
X024312Y024673D01*
X024312Y024482D01*
X024385Y024306D01*
X024520Y024171D01*
X024360Y024367D02*
X024225Y024367D01*
X024272Y024526D02*
X024312Y024526D01*
X024317Y024684D02*
X024268Y024684D01*
X024202Y024843D02*
X024382Y024843D01*
X024560Y025001D02*
X024024Y025001D01*
X025024Y025001D02*
X025560Y025001D01*
X025382Y024843D02*
X025202Y024843D01*
X025268Y024684D02*
X025317Y024684D01*
X025312Y024526D02*
X025272Y024526D01*
X025225Y024367D02*
X025360Y024367D01*
X025482Y024209D02*
X025102Y024209D01*
X025094Y023575D02*
X025530Y023575D01*
X025391Y023416D02*
X025233Y023416D01*
X025292Y023258D02*
X025332Y023258D01*
X025332Y023099D02*
X025292Y023099D01*
X025234Y022941D02*
X025391Y022941D01*
X025529Y022782D02*
X025096Y022782D01*
X026202Y024843D02*
X026932Y024843D01*
X026932Y025001D02*
X026024Y025001D01*
X026932Y025160D02*
X013072Y025160D01*
X013072Y025318D02*
X026932Y025318D01*
X026932Y025477D02*
X013072Y025477D01*
X013072Y025635D02*
X026932Y025635D01*
X026932Y025794D02*
X013072Y025794D01*
X013072Y025952D02*
X026932Y025952D01*
X026932Y026111D02*
X013072Y026111D01*
X013072Y026269D02*
X026932Y026269D01*
X026932Y026428D02*
X013072Y026428D01*
X013072Y026586D02*
X026932Y026586D01*
X026932Y026745D02*
X013072Y026745D01*
X013072Y026903D02*
X026932Y026903D01*
X026932Y027062D02*
X013072Y027062D01*
X013072Y027220D02*
X015819Y027220D01*
X015821Y027219D02*
X015963Y027219D01*
X016095Y027274D01*
X016196Y027375D01*
X016250Y027506D01*
X016250Y027649D01*
X016196Y027780D01*
X016095Y027881D01*
X015963Y027936D01*
X015821Y027936D01*
X015689Y027881D01*
X015589Y027780D01*
X015534Y027649D01*
X015534Y027506D01*
X015589Y027375D01*
X015689Y027274D01*
X015821Y027219D01*
X015965Y027220D02*
X026932Y027220D01*
X026932Y027379D02*
X016197Y027379D01*
X016250Y027537D02*
X026932Y027537D01*
X026932Y027696D02*
X016231Y027696D01*
X016122Y027854D02*
X026932Y027854D01*
X026932Y028013D02*
X013072Y028013D01*
X013072Y028171D02*
X022152Y028171D01*
X022109Y028215D02*
X022209Y028114D01*
X022341Y028059D01*
X022483Y028059D01*
X022615Y028114D01*
X022716Y028215D01*
X022770Y028346D01*
X022770Y028489D01*
X022716Y028620D01*
X022615Y028721D01*
X022483Y028776D01*
X022341Y028776D01*
X022209Y028721D01*
X022109Y028620D01*
X022054Y028489D01*
X022054Y028346D01*
X022109Y028215D01*
X022061Y028330D02*
X013072Y028330D01*
X013072Y028488D02*
X022054Y028488D01*
X022135Y028647D02*
X013072Y028647D01*
X013072Y027854D02*
X015662Y027854D01*
X015553Y027696D02*
X013072Y027696D01*
X013072Y027537D02*
X015534Y027537D01*
X015587Y027379D02*
X013072Y027379D01*
X016210Y030866D02*
X017338Y030866D01*
X017255Y031024D02*
X016152Y031024D01*
X022690Y028647D02*
X026547Y028647D01*
X026666Y028488D02*
X022770Y028488D01*
X022763Y028330D02*
X026824Y028330D01*
X026932Y028171D02*
X022672Y028171D01*
X027092Y028964D02*
X028614Y028964D01*
X028623Y028805D02*
X027141Y028805D01*
X027299Y028647D02*
X028717Y028647D01*
X028690Y029122D02*
X027092Y029122D01*
X027092Y029281D02*
X027923Y029281D01*
X027969Y029234D02*
X028101Y029179D01*
X028243Y029179D01*
X028375Y029234D01*
X028476Y029335D01*
X028530Y029466D01*
X028530Y029609D01*
X028476Y029740D01*
X028375Y029841D01*
X028243Y029896D01*
X028101Y029896D01*
X027969Y029841D01*
X027869Y029740D01*
X027814Y029609D01*
X027814Y029466D01*
X027869Y029335D01*
X027969Y029234D01*
X027825Y029439D02*
X027092Y029439D01*
X027092Y029598D02*
X027814Y029598D01*
X027884Y029756D02*
X027092Y029756D01*
X027092Y029915D02*
X036630Y029915D01*
X036637Y029958D02*
X036828Y029958D01*
X037004Y030031D01*
X037139Y030166D01*
X037212Y030342D01*
X037212Y030533D01*
X037139Y030709D01*
X037004Y030844D01*
X036828Y030918D01*
X036637Y030918D01*
X036460Y030844D01*
X036325Y030709D01*
X036252Y030533D01*
X036252Y030342D01*
X036325Y030166D01*
X036460Y030031D01*
X036637Y029958D01*
X036835Y029915D02*
X037750Y029915D01*
X037757Y029958D02*
X037948Y029958D01*
X038124Y030031D01*
X038259Y030166D01*
X038332Y030342D01*
X038332Y030533D01*
X038259Y030709D01*
X038124Y030844D01*
X037948Y030918D01*
X037757Y030918D01*
X037580Y030844D01*
X037445Y030709D01*
X037372Y030533D01*
X037372Y030342D01*
X037445Y030166D01*
X037580Y030031D01*
X037757Y029958D01*
X037955Y029915D02*
X039432Y029915D01*
X039432Y030073D02*
X039387Y030073D01*
X039392Y029756D02*
X039432Y029756D01*
X038712Y029756D02*
X038212Y029756D01*
X038305Y029598D02*
X038607Y029598D01*
X038572Y029439D02*
X038332Y029439D01*
X038167Y030073D02*
X038718Y030073D01*
X038610Y030232D02*
X038286Y030232D01*
X038332Y030390D02*
X038572Y030390D01*
X038587Y030549D02*
X038326Y030549D01*
X038260Y030707D02*
X038663Y030707D01*
X038880Y030866D02*
X038073Y030866D01*
X037631Y030866D02*
X036953Y030866D01*
X037140Y030707D02*
X037444Y030707D01*
X037379Y030549D02*
X037206Y030549D01*
X037212Y030390D02*
X037372Y030390D01*
X037418Y030232D02*
X037166Y030232D01*
X037047Y030073D02*
X037538Y030073D01*
X037492Y029756D02*
X037092Y029756D01*
X037185Y029598D02*
X037399Y029598D01*
X037372Y029439D02*
X037212Y029439D01*
X036372Y029756D02*
X028460Y029756D01*
X028530Y029598D02*
X036279Y029598D01*
X036252Y029439D02*
X028519Y029439D01*
X028422Y029281D02*
X035631Y029281D01*
X036418Y030073D02*
X027092Y030073D01*
X027092Y030232D02*
X036298Y030232D01*
X036252Y030390D02*
X027092Y030390D01*
X027092Y030549D02*
X029359Y030549D01*
X029381Y030539D02*
X029523Y030539D01*
X029655Y030594D01*
X029756Y030695D01*
X029810Y030826D01*
X029810Y030969D01*
X029756Y031100D01*
X029655Y031201D01*
X029523Y031256D01*
X029381Y031256D01*
X029249Y031201D01*
X029149Y031100D01*
X029094Y030969D01*
X029094Y030826D01*
X029149Y030695D01*
X029249Y030594D01*
X029381Y030539D01*
X029545Y030549D02*
X036259Y030549D01*
X036324Y030707D02*
X029761Y030707D01*
X029810Y030866D02*
X036511Y030866D01*
X038630Y031183D02*
X029674Y031183D01*
X029787Y031024D02*
X038767Y031024D01*
X039225Y030866D02*
X039432Y030866D01*
X039432Y031024D02*
X039338Y031024D01*
X041154Y031658D02*
X041671Y031658D01*
X041501Y031817D02*
X041324Y031817D01*
X041389Y031975D02*
X041435Y031975D01*
X041432Y032134D02*
X041392Y032134D01*
X041343Y032292D02*
X041482Y032292D01*
X041606Y032451D02*
X041218Y032451D01*
X033190Y028330D02*
X032995Y028330D01*
X029143Y030707D02*
X027092Y030707D01*
X027092Y030866D02*
X029094Y030866D01*
X029117Y031024D02*
X027092Y031024D01*
X027092Y031183D02*
X028893Y031183D01*
X029051Y031183D02*
X029231Y031183D01*
X028666Y031341D02*
X027092Y031341D01*
X027092Y031500D02*
X028614Y031500D01*
X028635Y031658D02*
X027092Y031658D01*
X027092Y031817D02*
X028745Y031817D01*
X027092Y032134D02*
X031230Y032134D01*
X031174Y032292D02*
X027092Y032292D01*
X027092Y032451D02*
X031191Y032451D01*
X031297Y032609D02*
X027092Y032609D01*
X026532Y034670D02*
X026123Y034670D01*
X026257Y034828D02*
X026532Y034828D01*
X026532Y034987D02*
X026312Y034987D01*
X026312Y035145D02*
X026532Y035145D01*
X026532Y035304D02*
X026250Y035304D01*
X026106Y035462D02*
X026532Y035462D01*
X026342Y040376D02*
X044172Y040376D01*
X044134Y040534D02*
X029955Y040534D01*
X030045Y040693D02*
X036871Y040693D01*
X036889Y040674D02*
X037021Y040619D01*
X037163Y040619D01*
X037295Y040674D01*
X037396Y040775D01*
X037450Y040906D01*
X037450Y041049D01*
X037396Y041180D01*
X037295Y041281D01*
X037163Y041336D01*
X037021Y041336D01*
X036889Y041281D01*
X036789Y041180D01*
X036734Y041049D01*
X036734Y040906D01*
X036789Y040775D01*
X036889Y040674D01*
X036757Y040851D02*
X030049Y040851D01*
X029967Y041010D02*
X036734Y041010D01*
X036784Y041168D02*
X029989Y041168D01*
X030050Y041327D02*
X036999Y041327D01*
X037185Y041327D02*
X044215Y041327D01*
X044134Y041168D02*
X037401Y041168D01*
X037450Y041010D02*
X044141Y041010D01*
X044232Y040851D02*
X037427Y040851D01*
X037314Y040693D02*
X044169Y040693D01*
X044752Y040851D02*
X052082Y040851D01*
X052082Y040693D02*
X044816Y040693D01*
X044850Y040534D02*
X052082Y040534D01*
X052082Y040376D02*
X044813Y040376D01*
X044843Y041010D02*
X052082Y041010D01*
X052082Y041168D02*
X044850Y041168D01*
X044770Y041327D02*
X052082Y041327D01*
X052082Y041485D02*
X031906Y041485D01*
X032024Y041644D02*
X052082Y041644D01*
X052082Y041802D02*
X032050Y041802D01*
X032004Y041961D02*
X052082Y041961D01*
X052082Y040217D02*
X051140Y040217D01*
X051299Y040059D02*
X052082Y040059D01*
X052082Y039900D02*
X051457Y039900D01*
X051616Y039742D02*
X052082Y039742D01*
X052082Y039583D02*
X051774Y039583D01*
X051933Y039425D02*
X052082Y039425D01*
X031478Y041485D02*
X031306Y041485D01*
X030878Y041485D02*
X030035Y041485D01*
X029933Y041644D02*
X030760Y041644D01*
X029418Y041010D02*
X025708Y041010D01*
X025866Y040851D02*
X029335Y040851D01*
X029340Y040693D02*
X026025Y040693D01*
X026183Y040534D02*
X029429Y040534D01*
X016990Y022782D02*
X013072Y022782D01*
X013072Y022624D02*
X016934Y022624D01*
X016951Y022465D02*
X013072Y022465D01*
X013072Y022307D02*
X015635Y022307D01*
X015519Y022148D02*
X013072Y022148D01*
X013072Y021990D02*
X015494Y021990D01*
X015542Y021831D02*
X013072Y021831D01*
X013072Y021673D02*
X015749Y021673D01*
X015482Y021514D02*
X013072Y021514D01*
X013072Y021356D02*
X015414Y021356D01*
X015426Y021197D02*
X013072Y021197D01*
X013072Y021039D02*
X015327Y021039D01*
X015204Y020880D02*
X013072Y020880D01*
X013072Y020722D02*
X015174Y020722D01*
X015217Y020563D02*
X013072Y020563D01*
X013072Y020405D02*
X015400Y020405D01*
X016070Y022307D02*
X017057Y022307D01*
X013352Y018344D02*
X013072Y018344D01*
X013072Y018186D02*
X013261Y018186D01*
X013254Y018027D02*
X013072Y018027D01*
X013072Y017869D02*
X013335Y017869D01*
X013072Y014223D02*
X014111Y014223D01*
X014054Y014065D02*
X013072Y014065D01*
X013072Y013906D02*
X014071Y013906D01*
X014176Y013748D02*
X013072Y013748D01*
X013072Y012321D02*
X013490Y012321D01*
X013375Y012163D02*
X013072Y012163D01*
X013072Y012004D02*
X013309Y012004D01*
X013282Y011846D02*
X013072Y011846D01*
X013072Y011687D02*
X013282Y011687D01*
X013319Y011529D02*
X013072Y011529D01*
X013072Y011370D02*
X013384Y011370D01*
X013513Y011212D02*
X013072Y011212D01*
X013072Y011053D02*
X013725Y011053D01*
X013072Y010895D02*
X052082Y010895D01*
X052082Y011053D02*
X014460Y011053D01*
X014672Y011212D02*
X052082Y011212D01*
X052082Y011370D02*
X014800Y011370D01*
D14*
X027212Y022658D02*
X027212Y028338D01*
X026812Y028738D01*
X026812Y036658D01*
X024732Y038738D01*
X021232Y038738D01*
X021192Y038778D01*
X037532Y023058D02*
X038092Y022498D01*
X038092Y021858D01*
X033532Y017298D01*
X031452Y017298D01*
X029292Y019458D01*
X029292Y022338D01*
M02*
