%
M48
M72
T01C0.0236
T02C0.0315
T03C0.0400
T04C0.0906
T05C0.1260
%
T01
X14412Y14018
X15612Y17338
X15292Y18218
X13612Y18098
X13332Y20058
X13492Y20938
X15532Y20738
X15772Y21298
X15852Y22018
X16332Y22738
X17292Y22578
X17452Y24658
X15892Y27578
X13732Y26738
X13572Y27538
X13492Y29298
X14652Y29938
X15932Y30098
X15852Y30818
X17612Y31098
X16292Y32578
X13692Y32778
X13492Y33978
X13532Y35018
X14972Y35778
X15932Y36338
X15852Y37218
X16892Y37378
X17892Y35658
X18852Y35338
X20012Y35938
X21052Y35378
X21692Y36018
X24152Y33838
X23852Y31778
X22292Y31578
X20532Y32298
X21292Y29218
X22412Y28418
X23252Y29658
X24712Y28238
X24532Y26138
X22212Y23518
X22212Y22638
X21212Y24258
X21292Y26898
X18372Y28018
X17892Y29378
X25392Y30778
X25672Y31638
X27468Y30123
X28172Y29538
X28972Y28898
X28172Y28578
X30657Y29500
X29452Y30898
X28972Y31538
X29972Y32778
X28812Y33218
X29332Y34858
X32092Y33058
X31532Y32338
X32812Y31858
X33932Y32418
X35132Y31378
X33932Y30018
X34572Y28818
X33372Y28018
X32812Y28018
X32092Y27858
X30972Y27778
X32292Y26578
X32732Y24978
X30732Y25298
X29292Y22338
X27212Y22658
X26172Y22098
X25452Y20738
X28652Y19058
X29532Y17938
X30972Y16098
X30732Y20018
X33612Y19938
X34412Y19698
X35132Y17698
X37292Y17938
X39052Y17938
X40812Y17938
X42652Y17938
X44372Y17838
X44832Y18278
X45612Y20018
X46692Y19698
X47572Y20878
X45612Y20818
X44972Y20818
X47732Y23538
X48292Y22818
X50252Y25298
X47052Y26658
X47132Y28418
X48572Y30818
X50012Y32098
X47132Y34418
X45532Y32738
X44892Y32258
X44172Y30898
X43132Y29618
X41852Y28658
X41372Y30098
X40092Y28418
X39612Y26738
X40172Y26098
X38892Y26098
X38412Y26738
X37692Y25458
X35932Y25858
X35852Y26658
X35932Y28338
X37212Y32418
X38532Y32778
X37052Y35658
X38412Y37458
X40332Y37618
X42812Y39378
X44492Y40538
X44492Y41098
X45772Y43018
X46892Y44698
X44092Y44218
X41292Y43578
X38572Y42418
X37092Y40978
X35772Y42258
X33892Y43378
X32132Y42858
X31692Y41778
X31092Y41778
X29692Y41378
X29692Y40778
X30972Y39378
X32412Y37498
X34972Y39538
X40452Y40858
X37452Y44938
X29412Y43658
X26292Y43578
X26092Y41178
X28092Y39138
X26572Y38498
X27252Y37498
X32212Y34698
X41692Y25938
X43372Y27858
X37532Y23618
X37532Y23058
X37532Y22338
X38572Y22018
X39772Y21938
X45932Y16578
X48572Y16498
X50932Y18178
X51572Y18738
X51972Y19058
X45932Y37058
X46572Y38738
X47292Y41178
X21772Y20418
X21132Y20338
X20532Y20658
X17892Y20178
X21292Y16778
X22212Y15818
X22732Y16258
X23812Y15578
X23892Y16858
X23972Y17738
X25532Y16098
X26492Y16498
X27052Y15858
X20492Y12458
X18412Y13018
X19852Y15218
X13492Y22978
X13532Y37418
X15852Y45178
T02
X25792Y14128
X25292Y13378
X25792Y12631
X26292Y13378
X26792Y12631
X27292Y13378
X27792Y12631
X28292Y13378
X28792Y12631
X29292Y13378
X29792Y12631
X30292Y13378
X30792Y12631
X31292Y13378
X31792Y12631
X32292Y13378
X32792Y12631
X33292Y13378
X33792Y12631
X34292Y13378
X34792Y12631
X35292Y13378
X35792Y12631
X36292Y13378
X36792Y12631
X37292Y13378
X37792Y12631
X38292Y13378
X38792Y12631
X39292Y13378
X39792Y12631
X40292Y13378
X40792Y12631
X41292Y13378
X41792Y12631
X42292Y13378
X42792Y12631
X43292Y13378
X43792Y12631
X44292Y13378
X44792Y12631
X45292Y13378
X45792Y12631
X46292Y13378
X46792Y12631
X47292Y13378
X47792Y12631
X48292Y13378
X48792Y12631
X49292Y13378
X49792Y12631
X49292Y11881
X48292Y11881
X47292Y11881
X46292Y11881
X45292Y11881
X44292Y11881
X43292Y11881
X42292Y11881
X41292Y11881
X40292Y11881
X39292Y11881
X38292Y11881
X37292Y11881
X36292Y11881
X35292Y11881
X34292Y11881
X33292Y11881
X32292Y11881
X31292Y11881
X30292Y11881
X29292Y11881
X28292Y11881
X27292Y11881
X26292Y11881
X25292Y11881
X26792Y14128
X27792Y14128
X28792Y14128
X29792Y14128
X30792Y14128
X31792Y14128
X32792Y14128
X33792Y14128
X34792Y14128
X35792Y14128
X36792Y14128
X37792Y14128
X38792Y14128
X39792Y14128
X40792Y14128
X41792Y14128
X42792Y14128
X43792Y14128
X44792Y14128
X45792Y14128
X46792Y14128
X47792Y14128
X48792Y14128
X49792Y14128
T03
X49772Y19758
X49772Y20758
X46632Y22078
X45632Y22078
X44632Y22078
X44632Y23158
X45632Y23158
X46632Y23158
X47072Y29618
X46072Y29618
X42912Y32078
X41912Y32078
X40912Y32078
X39052Y31418
X39052Y30418
X39052Y29418
X37852Y29438
X37852Y30438
X36732Y30438
X36732Y29438
X34672Y26178
X33672Y26178
X33672Y25138
X34672Y25138
X33372Y23978
X33372Y22978
X32252Y22738
X33372Y21978
X32252Y21738
X32252Y23738
X29112Y25058
X28112Y25058
X25792Y24578
X24792Y24578
X23792Y24578
X23812Y23178
X24812Y23178
X25812Y23178
X27352Y20178
X28352Y20178
X25832Y33058
X25832Y34058
X25832Y35058
X21192Y37578
X20192Y37578
X20192Y38778
X21192Y38778
X21192Y39978
X20192Y39978
X20212Y41218
X21212Y41218
X21192Y42418
X20192Y42418
X20192Y43618
X21192Y43618
X14392Y42178
X14392Y41178
X14392Y40178
X14392Y39178
T04
X23989Y12628
X51095Y12628
T05
X14092Y11778
X51092Y16978
X51092Y44778
X14092Y44778
M30
