G75*
G70*
%OFA0B0*%
%FSLAX24Y24*%
%IPPOS*%
%LPD*%
%AMOC8*
5,1,8,0,0,1.08239X$1,22.5*
%
%ADD10R,0.0394X0.0433*%
%ADD11C,0.0740*%
%ADD12C,0.0515*%
%ADD13R,0.0433X0.0394*%
%ADD14R,0.0740X0.0740*%
%ADD15C,0.0100*%
%ADD16C,0.0356*%
%ADD17C,0.0160*%
%ADD18C,0.0200*%
%ADD19C,0.0240*%
D10*
X040478Y019138D03*
X040478Y019778D03*
X041147Y019778D03*
X041147Y019138D03*
X042318Y019138D03*
X042318Y019778D03*
X042987Y019778D03*
X042987Y019138D03*
X043998Y019138D03*
X043998Y019778D03*
X044667Y019778D03*
X044667Y019138D03*
X044747Y016418D03*
X044747Y015778D03*
X044078Y015778D03*
X044078Y016418D03*
X042987Y016418D03*
X042987Y015778D03*
X042318Y015778D03*
X042318Y016418D03*
D11*
X044632Y022078D03*
X045632Y022078D03*
X046632Y022078D03*
X046632Y023158D03*
X045632Y023158D03*
X044632Y023158D03*
X049772Y020758D03*
X049772Y019758D03*
X047072Y029618D03*
X046072Y029618D03*
X042912Y032078D03*
X041912Y032078D03*
X040912Y032078D03*
X039052Y031418D03*
X039052Y030418D03*
X039052Y029418D03*
X037852Y029438D03*
X037852Y030438D03*
X036732Y030438D03*
X036732Y029438D03*
X034672Y026178D03*
X033672Y026178D03*
X033672Y025138D03*
X034672Y025138D03*
X033372Y023978D03*
X033372Y022978D03*
X032252Y022738D03*
X033372Y021978D03*
X032252Y021738D03*
X032252Y023738D03*
X029112Y025058D03*
X028112Y025058D03*
X025792Y024578D03*
X024792Y024578D03*
X023792Y024578D03*
X023812Y023178D03*
X024812Y023178D03*
X025812Y023178D03*
X027352Y020178D03*
X028352Y020178D03*
X025832Y033058D03*
X025832Y034058D03*
X025832Y035058D03*
X021192Y037578D03*
X020192Y037578D03*
X020192Y038778D03*
X021192Y038778D03*
X021192Y039978D03*
X020192Y039978D03*
X020212Y041218D03*
X021212Y041218D03*
X021192Y042418D03*
X020192Y042418D03*
X020192Y043618D03*
X021192Y043618D03*
X014392Y041178D03*
X014392Y040178D03*
X014392Y039178D03*
D12*
X025792Y014128D03*
X025292Y013378D03*
X025792Y012631D03*
X026292Y013378D03*
X026792Y012631D03*
X027292Y013378D03*
X027792Y012631D03*
X028292Y013378D03*
X028792Y012631D03*
X029292Y013378D03*
X029792Y012631D03*
X030292Y013378D03*
X030792Y012631D03*
X031292Y013378D03*
X031792Y012631D03*
X032292Y013378D03*
X032792Y012631D03*
X033292Y013378D03*
X033792Y012631D03*
X034292Y013378D03*
X034792Y012631D03*
X035292Y013378D03*
X035792Y012631D03*
X036292Y013378D03*
X036792Y012631D03*
X037292Y013378D03*
X037792Y012631D03*
X038292Y013378D03*
X038792Y012631D03*
X039292Y013378D03*
X039792Y012631D03*
X040292Y013378D03*
X040792Y012631D03*
X041292Y013378D03*
X041792Y012631D03*
X042292Y013378D03*
X042792Y012631D03*
X043292Y013378D03*
X043792Y012631D03*
X044292Y013378D03*
X044792Y012631D03*
X045292Y013378D03*
X045792Y012631D03*
X046292Y013378D03*
X046792Y012631D03*
X047292Y013378D03*
X047792Y012631D03*
X048292Y013378D03*
X048792Y012631D03*
X049292Y013378D03*
X049792Y012631D03*
X049292Y011881D03*
X048292Y011881D03*
X047292Y011881D03*
X046292Y011881D03*
X045292Y011881D03*
X044292Y011881D03*
X043292Y011881D03*
X042292Y011881D03*
X041292Y011881D03*
X040292Y011881D03*
X039292Y011881D03*
X038292Y011881D03*
X037292Y011881D03*
X036292Y011881D03*
X035292Y011881D03*
X034292Y011881D03*
X033292Y011881D03*
X032292Y011881D03*
X031292Y011881D03*
X030292Y011881D03*
X029292Y011881D03*
X028292Y011881D03*
X027292Y011881D03*
X026292Y011881D03*
X025292Y011881D03*
X026792Y014128D03*
X027792Y014128D03*
X028792Y014128D03*
X029792Y014128D03*
X030792Y014128D03*
X031792Y014128D03*
X032792Y014128D03*
X033792Y014128D03*
X034792Y014128D03*
X035792Y014128D03*
X036792Y014128D03*
X037792Y014128D03*
X038792Y014128D03*
X039792Y014128D03*
X040792Y014128D03*
X041792Y014128D03*
X042792Y014128D03*
X043792Y014128D03*
X044792Y014128D03*
X045792Y014128D03*
X046792Y014128D03*
X047792Y014128D03*
X048792Y014128D03*
X049792Y014128D03*
D13*
X033147Y027298D03*
X032478Y027298D03*
D14*
X014392Y042178D03*
D15*
X015852Y037218D02*
X015452Y036818D01*
X015452Y030978D01*
X015612Y030818D01*
X015852Y030818D01*
X015452Y030978D02*
X015452Y022258D01*
X015692Y022018D01*
X015852Y022018D01*
X016492Y021378D01*
X016492Y019218D01*
X016732Y018978D01*
X025612Y018978D01*
X028812Y015778D01*
X028812Y014148D01*
X028792Y014128D01*
X028292Y013378D02*
X028292Y015978D01*
X025532Y018738D01*
X016572Y018738D01*
X016252Y019058D01*
X016252Y021058D01*
X016012Y021298D01*
X015772Y021298D01*
X015532Y020738D02*
X015212Y020418D01*
X015212Y019538D01*
X016252Y018498D01*
X025452Y018498D01*
X027852Y016098D01*
X027852Y014188D01*
X027792Y014128D01*
X029292Y013378D02*
X029292Y015618D01*
X025772Y019138D01*
X025692Y019218D01*
X022572Y019218D01*
X022092Y019698D01*
X021772Y020018D01*
X021772Y020418D01*
X023532Y020338D02*
X023692Y020178D01*
X023772Y020178D01*
X026012Y020178D01*
X026092Y020098D01*
X031292Y014898D01*
X031292Y013378D01*
X030792Y014128D02*
X030792Y015078D01*
X025932Y019938D01*
X023612Y019938D01*
X019932Y023618D01*
X019932Y035858D01*
X020012Y035938D01*
X016812Y035538D02*
X016012Y036338D01*
X015932Y036338D01*
X015212Y035538D02*
X014972Y035778D01*
X015212Y035538D02*
X015212Y029698D01*
X014972Y029938D01*
X014652Y029938D01*
X015212Y029698D02*
X015212Y029298D01*
X015212Y020418D01*
X020732Y023138D02*
X023532Y020338D01*
X023532Y019698D02*
X016812Y026418D01*
X016812Y035538D01*
X015932Y030098D02*
X016572Y029458D01*
X016572Y026338D01*
X023452Y019458D01*
X025772Y019458D01*
X029792Y015438D01*
X029792Y014128D01*
X030292Y013378D02*
X030292Y015258D01*
X025852Y019698D01*
X023532Y019698D01*
X020732Y023138D02*
X020732Y028658D01*
X021292Y029218D01*
X028972Y028898D02*
X029292Y028898D01*
X029772Y028418D01*
X029772Y018418D01*
X031852Y016338D01*
X031852Y014188D01*
X031792Y014128D01*
X032332Y013418D02*
X032292Y013378D01*
X032332Y013418D02*
X032332Y016178D01*
X030012Y018498D01*
X030012Y030018D01*
X029452Y030018D01*
X028892Y030578D01*
X028892Y031458D01*
X028972Y031538D01*
X029452Y030898D02*
X030172Y030178D01*
X030252Y030098D01*
X030252Y018578D01*
X032812Y016018D01*
X032812Y014148D01*
X032792Y014128D01*
X035292Y013378D02*
X035292Y015218D01*
X035532Y015458D01*
X035532Y018658D01*
X035052Y019138D01*
X033372Y019138D01*
X031292Y021218D01*
X031292Y027138D01*
X030972Y027458D01*
X030972Y027778D01*
X031532Y028898D02*
X031532Y021298D01*
X033452Y019378D01*
X035132Y019378D01*
X035792Y018718D01*
X035792Y014128D01*
X041292Y013378D02*
X041292Y016098D01*
X041692Y016498D01*
X041692Y019538D01*
X041452Y019778D01*
X041147Y019778D01*
X040478Y019778D02*
X040478Y019138D01*
X040478Y019778D02*
X040092Y019778D01*
X038092Y021778D01*
X038092Y025058D01*
X037692Y025458D01*
X037532Y026098D02*
X037532Y027298D01*
X036972Y027858D01*
X034412Y027858D01*
X034252Y028018D01*
X033372Y028018D01*
X033147Y027683D02*
X032812Y028018D01*
X033147Y027683D02*
X033147Y027298D01*
X033672Y026772D01*
X033672Y026178D01*
X031532Y028898D02*
X031692Y029058D01*
X031852Y029218D01*
X032012Y029378D01*
X032812Y030178D01*
X032812Y031858D01*
X037852Y029438D02*
X037872Y029418D01*
X039052Y029418D01*
X039612Y026738D02*
X039612Y025058D01*
X042932Y021738D01*
X043212Y021458D01*
X043212Y020178D01*
X043452Y019938D01*
X043612Y019778D01*
X043612Y016883D01*
X044078Y016418D01*
X044078Y015778D01*
X044747Y015778D02*
X044792Y015732D01*
X044792Y014128D01*
X045212Y014708D02*
X045792Y014128D01*
X045212Y014708D02*
X045212Y019538D01*
X044972Y019778D01*
X044667Y019778D01*
X043998Y019778D02*
X043998Y020992D01*
X043892Y021098D01*
X040172Y024818D01*
X040172Y026098D01*
X038892Y026098D02*
X038892Y025458D01*
X042252Y022098D01*
X042252Y019843D01*
X042318Y019778D01*
X042318Y019138D01*
X042987Y019778D02*
X043212Y019778D01*
X043372Y019618D01*
X043372Y015378D01*
X043332Y015338D01*
X043292Y015298D01*
X043292Y013378D01*
X042292Y013378D02*
X042292Y014858D01*
X042332Y014898D01*
X042987Y015552D01*
X042987Y015778D01*
X042318Y015778D02*
X042318Y016418D01*
X041932Y016803D01*
X041932Y022098D01*
X041852Y022178D01*
X041692Y022338D01*
X038412Y025618D01*
X038412Y026738D01*
X037532Y026098D02*
X039772Y023858D01*
X039772Y021938D01*
X043932Y019778D02*
X043932Y019203D01*
X043998Y019138D01*
X043998Y019778D02*
X043932Y019778D01*
D16*
X044972Y020818D03*
X045612Y020818D03*
X045612Y020018D03*
X046692Y019698D03*
X047572Y020878D03*
X048292Y022818D03*
X047732Y023538D03*
X050252Y025298D03*
X047052Y026658D03*
X047132Y028418D03*
X048572Y030818D03*
X050012Y032098D03*
X047132Y034418D03*
X045532Y032738D03*
X044892Y032258D03*
X044172Y030898D03*
X043132Y029618D03*
X041852Y028658D03*
X041372Y030098D03*
X040092Y028418D03*
X039612Y026738D03*
X040172Y026098D03*
X038892Y026098D03*
X038412Y026738D03*
X037692Y025458D03*
X035932Y025858D03*
X035852Y026658D03*
X035932Y028338D03*
X034572Y028818D03*
X033932Y030018D03*
X035132Y031378D03*
X033932Y032418D03*
X032812Y031858D03*
X031532Y032338D03*
X032092Y033058D03*
X032212Y034698D03*
X029972Y032778D03*
X028812Y033218D03*
X029332Y034858D03*
X028972Y031538D03*
X029452Y030898D03*
X030657Y029500D03*
X028972Y028898D03*
X028172Y028578D03*
X028172Y029538D03*
X027468Y030123D03*
X025392Y030778D03*
X025672Y031638D03*
X023852Y031778D03*
X022292Y031578D03*
X020532Y032298D03*
X017612Y031098D03*
X016292Y032578D03*
X015852Y030818D03*
X015932Y030098D03*
X014652Y029938D03*
X013492Y029298D03*
X013572Y027538D03*
X013732Y026738D03*
X015892Y027578D03*
X017892Y029378D03*
X018372Y028018D03*
X021292Y026898D03*
X022412Y028418D03*
X021292Y029218D03*
X023252Y029658D03*
X024712Y028238D03*
X024532Y026138D03*
X022212Y023518D03*
X022212Y022638D03*
X021212Y024258D03*
X017452Y024658D03*
X017292Y022578D03*
X016332Y022738D03*
X015852Y022018D03*
X015772Y021298D03*
X015532Y020738D03*
X013492Y020938D03*
X013332Y020058D03*
X013612Y018098D03*
X015292Y018218D03*
X015612Y017338D03*
X017892Y020178D03*
X020532Y020658D03*
X021132Y020338D03*
X021772Y020418D03*
X023972Y017738D03*
X023892Y016858D03*
X023812Y015578D03*
X022732Y016258D03*
X022212Y015818D03*
X021292Y016778D03*
X019852Y015218D03*
X018412Y013018D03*
X020492Y012458D03*
X025532Y016098D03*
X026492Y016498D03*
X027052Y015858D03*
X029532Y017938D03*
X028652Y019058D03*
X030732Y020018D03*
X029292Y022338D03*
X027212Y022658D03*
X026172Y022098D03*
X025452Y020738D03*
X030732Y025298D03*
X032292Y026578D03*
X032092Y027858D03*
X032812Y028018D03*
X033372Y028018D03*
X030972Y027778D03*
X032732Y024978D03*
X037532Y023618D03*
X037532Y023058D03*
X037532Y022338D03*
X038572Y022018D03*
X039772Y021938D03*
X039052Y017938D03*
X040812Y017938D03*
X042652Y017938D03*
X044372Y017838D03*
X044832Y018278D03*
X045932Y016578D03*
X048572Y016498D03*
X050932Y018178D03*
X051572Y018738D03*
X051972Y019058D03*
X043372Y027858D03*
X041692Y025938D03*
X037212Y032418D03*
X038532Y032778D03*
X037052Y035658D03*
X038412Y037458D03*
X040332Y037618D03*
X042812Y039378D03*
X044492Y040538D03*
X044492Y041098D03*
X045772Y043018D03*
X046892Y044698D03*
X044092Y044218D03*
X041292Y043578D03*
X038572Y042418D03*
X037092Y040978D03*
X035772Y042258D03*
X033892Y043378D03*
X032132Y042858D03*
X031692Y041778D03*
X031092Y041778D03*
X029692Y041378D03*
X029692Y040778D03*
X030972Y039378D03*
X032412Y037498D03*
X034972Y039538D03*
X040452Y040858D03*
X037452Y044938D03*
X029412Y043658D03*
X026292Y043578D03*
X026092Y041178D03*
X028092Y039138D03*
X026572Y038498D03*
X027252Y037498D03*
X024152Y033838D03*
X021692Y036018D03*
X021052Y035378D03*
X020012Y035938D03*
X018852Y035338D03*
X017892Y035658D03*
X016892Y037378D03*
X015852Y037218D03*
X015932Y036338D03*
X014972Y035778D03*
X013532Y035018D03*
X013492Y033978D03*
X013692Y032778D03*
X013532Y037418D03*
X015852Y045178D03*
X013492Y022978D03*
X014412Y014018D03*
X030972Y016098D03*
X035132Y017698D03*
X037292Y017938D03*
X034412Y019698D03*
X033612Y019938D03*
X045932Y037058D03*
X046572Y038738D03*
X047292Y041178D03*
D17*
X013132Y033754D02*
X013132Y010818D01*
X052022Y010818D01*
X052022Y020535D01*
X050113Y018626D01*
X049996Y018578D01*
X048029Y018578D01*
X047911Y018626D01*
X047821Y018716D01*
X047501Y019036D01*
X047452Y019154D01*
X047452Y019965D01*
X046760Y020658D01*
X044349Y020658D01*
X044288Y020683D01*
X044288Y020215D01*
X044330Y020198D01*
X044332Y020196D01*
X044334Y020198D01*
X044422Y020234D01*
X044911Y020234D01*
X045000Y020198D01*
X045067Y020130D01*
X045104Y020042D01*
X045104Y020037D01*
X045136Y020023D01*
X045194Y019966D01*
X045194Y020101D01*
X045258Y020254D01*
X045375Y020372D01*
X045529Y020436D01*
X045695Y020436D01*
X045849Y020372D01*
X045967Y020254D01*
X046030Y020101D01*
X046030Y019934D01*
X045967Y019781D01*
X045849Y019663D01*
X045695Y019599D01*
X045529Y019599D01*
X045495Y019614D01*
X045502Y019595D01*
X045502Y014828D01*
X045705Y014625D01*
X045891Y014625D01*
X046074Y014549D01*
X046214Y014409D01*
X046290Y014227D01*
X046290Y014029D01*
X046226Y013875D01*
X046358Y013875D01*
X046295Y014029D01*
X046295Y014227D01*
X046370Y014409D01*
X046510Y014549D01*
X046693Y014625D01*
X046891Y014625D01*
X047074Y014549D01*
X047214Y014409D01*
X047290Y014227D01*
X047290Y014029D01*
X047226Y013875D01*
X047358Y013875D01*
X047295Y014029D01*
X047295Y014227D01*
X047370Y014409D01*
X047510Y014549D01*
X047693Y014625D01*
X047891Y014625D01*
X048074Y014549D01*
X048214Y014409D01*
X048290Y014227D01*
X048290Y014029D01*
X048226Y013875D01*
X048358Y013875D01*
X048295Y014029D01*
X048295Y014227D01*
X048370Y014409D01*
X048510Y014549D01*
X048693Y014625D01*
X048891Y014625D01*
X049074Y014549D01*
X049214Y014409D01*
X049290Y014227D01*
X049290Y014029D01*
X049226Y013875D01*
X049358Y013875D01*
X049295Y014029D01*
X049295Y014227D01*
X049370Y014409D01*
X049510Y014549D01*
X049693Y014625D01*
X049891Y014625D01*
X050074Y014549D01*
X050214Y014409D01*
X050290Y014227D01*
X050290Y014029D01*
X050214Y013846D01*
X050074Y013706D01*
X049891Y013630D01*
X049726Y013630D01*
X049790Y013477D01*
X049790Y013279D01*
X049728Y013129D01*
X049891Y013129D01*
X050074Y013053D01*
X050214Y012913D01*
X050290Y012730D01*
X050290Y012533D01*
X050214Y012350D01*
X050074Y012210D01*
X049891Y012134D01*
X049726Y012134D01*
X049790Y011980D01*
X049790Y011783D01*
X049714Y011600D01*
X049574Y011460D01*
X049391Y011384D01*
X049193Y011384D01*
X049010Y011460D01*
X048870Y011600D01*
X048795Y011783D01*
X048795Y011980D01*
X048858Y012134D01*
X048693Y012134D01*
X048631Y012160D01*
X048666Y012111D01*
X048698Y012049D01*
X048719Y011984D01*
X048730Y011916D01*
X048730Y011882D01*
X048292Y011882D01*
X048292Y012319D01*
X048258Y012319D01*
X048190Y012308D01*
X048164Y012300D01*
X048214Y012350D01*
X048290Y012533D01*
X048290Y012730D01*
X048228Y012880D01*
X048357Y012880D01*
X048295Y012730D01*
X048295Y012533D01*
X048370Y012350D01*
X048420Y012300D01*
X048395Y012308D01*
X048327Y012319D01*
X048292Y012319D01*
X048292Y011882D01*
X048292Y011882D01*
X048292Y011881D01*
X048292Y011881D01*
X048292Y011444D01*
X048258Y011444D01*
X048190Y011455D01*
X048124Y011476D01*
X048063Y011507D01*
X048007Y011548D01*
X047958Y011596D01*
X047918Y011652D01*
X047887Y011714D01*
X047865Y011779D01*
X047855Y011847D01*
X047855Y011881D01*
X048292Y011881D01*
X048292Y011444D01*
X048327Y011444D01*
X048395Y011455D01*
X048460Y011476D01*
X048521Y011507D01*
X048577Y011548D01*
X048626Y011596D01*
X048666Y011652D01*
X048698Y011714D01*
X048719Y011779D01*
X048730Y011847D01*
X048730Y011881D01*
X048292Y011881D01*
X048292Y011882D01*
X047855Y011882D01*
X047855Y011916D01*
X047865Y011984D01*
X047887Y012049D01*
X047918Y012111D01*
X047954Y012160D01*
X047891Y012134D01*
X047693Y012134D01*
X047631Y012160D01*
X047666Y012111D01*
X047698Y012049D01*
X047719Y011984D01*
X047730Y011916D01*
X047730Y011882D01*
X047292Y011882D01*
X047292Y012319D01*
X047258Y012319D01*
X047190Y012308D01*
X047124Y012287D01*
X047063Y012256D01*
X047007Y012215D01*
X046958Y012166D01*
X046918Y012111D01*
X046887Y012049D01*
X046865Y011984D01*
X046855Y011916D01*
X046855Y011882D01*
X047292Y011882D01*
X047292Y011882D01*
X047292Y011881D01*
X047292Y011881D01*
X047292Y011444D01*
X047258Y011444D01*
X047190Y011455D01*
X047124Y011476D01*
X047063Y011507D01*
X047007Y011548D01*
X046958Y011596D01*
X046918Y011652D01*
X046887Y011714D01*
X046865Y011779D01*
X046855Y011847D01*
X046855Y011881D01*
X047292Y011881D01*
X047292Y011444D01*
X047327Y011444D01*
X047395Y011455D01*
X047460Y011476D01*
X047521Y011507D01*
X047577Y011548D01*
X047626Y011596D01*
X047666Y011652D01*
X047698Y011714D01*
X047719Y011779D01*
X047730Y011847D01*
X047730Y011881D01*
X047292Y011881D01*
X047292Y011882D01*
X047292Y012319D01*
X047327Y012319D01*
X047395Y012308D01*
X047420Y012300D01*
X047370Y012350D01*
X047295Y012533D01*
X047295Y012730D01*
X047357Y012880D01*
X047193Y012880D01*
X047135Y012904D01*
X047166Y012861D01*
X047198Y012799D01*
X047219Y012734D01*
X047230Y012666D01*
X047230Y012632D01*
X046792Y012632D01*
X046792Y013069D01*
X046758Y013069D01*
X046690Y013058D01*
X046670Y013052D01*
X046714Y013096D01*
X046790Y013279D01*
X046790Y013477D01*
X046726Y013630D01*
X046858Y013630D01*
X046795Y013477D01*
X046795Y013279D01*
X046870Y013096D01*
X046914Y013052D01*
X046895Y013058D01*
X046827Y013069D01*
X046792Y013069D01*
X046792Y012632D01*
X046792Y012632D01*
X046792Y012631D01*
X046792Y012631D01*
X046792Y012194D01*
X046758Y012194D01*
X046690Y012205D01*
X046624Y012226D01*
X046563Y012257D01*
X046507Y012298D01*
X046458Y012346D01*
X046418Y012402D01*
X046387Y012464D01*
X046365Y012529D01*
X046355Y012597D01*
X046355Y012631D01*
X046792Y012631D01*
X046792Y012194D01*
X046827Y012194D01*
X046895Y012205D01*
X046960Y012226D01*
X047021Y012257D01*
X047077Y012298D01*
X047126Y012346D01*
X047166Y012402D01*
X047198Y012464D01*
X047219Y012529D01*
X047230Y012597D01*
X047230Y012631D01*
X046792Y012631D01*
X046792Y012632D01*
X046355Y012632D01*
X046355Y012666D01*
X046365Y012734D01*
X046387Y012799D01*
X046418Y012861D01*
X046450Y012904D01*
X046391Y012880D01*
X046193Y012880D01*
X046135Y012904D01*
X046166Y012861D01*
X046198Y012799D01*
X046219Y012734D01*
X046230Y012666D01*
X046230Y012632D01*
X045792Y012632D01*
X045792Y013069D01*
X045758Y013069D01*
X045690Y013058D01*
X045670Y013052D01*
X045714Y013096D01*
X045790Y013279D01*
X045790Y013477D01*
X045726Y013630D01*
X045858Y013630D01*
X045795Y013477D01*
X045795Y013279D01*
X045870Y013096D01*
X045914Y013052D01*
X045895Y013058D01*
X045827Y013069D01*
X045792Y013069D01*
X045792Y012632D01*
X045792Y012632D01*
X045792Y012631D01*
X045792Y012631D01*
X045792Y012194D01*
X045758Y012194D01*
X045690Y012205D01*
X045624Y012226D01*
X045563Y012257D01*
X045507Y012298D01*
X045458Y012346D01*
X045418Y012402D01*
X045387Y012464D01*
X045365Y012529D01*
X045355Y012597D01*
X045355Y012631D01*
X045792Y012631D01*
X045792Y012194D01*
X045827Y012194D01*
X045895Y012205D01*
X045960Y012226D01*
X046021Y012257D01*
X046077Y012298D01*
X046126Y012346D01*
X046166Y012402D01*
X046198Y012464D01*
X046219Y012529D01*
X046230Y012597D01*
X046230Y012631D01*
X045792Y012631D01*
X045792Y012632D01*
X045355Y012632D01*
X045355Y012666D01*
X045365Y012734D01*
X045387Y012799D01*
X045418Y012861D01*
X045450Y012904D01*
X045391Y012880D01*
X045193Y012880D01*
X045135Y012904D01*
X045166Y012861D01*
X045198Y012799D01*
X045219Y012734D01*
X045230Y012666D01*
X045230Y012632D01*
X044792Y012632D01*
X044792Y013069D01*
X044758Y013069D01*
X044690Y013058D01*
X044670Y013052D01*
X044714Y013096D01*
X044790Y013279D01*
X044790Y013477D01*
X044726Y013630D01*
X044858Y013630D01*
X044795Y013477D01*
X044795Y013279D01*
X044870Y013096D01*
X044914Y013052D01*
X044895Y013058D01*
X044827Y013069D01*
X044792Y013069D01*
X044792Y012632D01*
X044792Y012632D01*
X044792Y012631D01*
X044792Y012631D01*
X044792Y012194D01*
X044758Y012194D01*
X044690Y012205D01*
X044624Y012226D01*
X044563Y012257D01*
X044507Y012298D01*
X044458Y012346D01*
X044418Y012402D01*
X044387Y012464D01*
X044365Y012529D01*
X044355Y012597D01*
X044355Y012631D01*
X044792Y012631D01*
X044792Y012194D01*
X044827Y012194D01*
X044895Y012205D01*
X044960Y012226D01*
X045021Y012257D01*
X045077Y012298D01*
X045126Y012346D01*
X045166Y012402D01*
X045198Y012464D01*
X045219Y012529D01*
X045230Y012597D01*
X045230Y012631D01*
X044792Y012631D01*
X044792Y012632D01*
X044355Y012632D01*
X044355Y012666D01*
X044365Y012734D01*
X044387Y012799D01*
X044418Y012861D01*
X044450Y012904D01*
X044391Y012880D01*
X044193Y012880D01*
X044135Y012904D01*
X044166Y012861D01*
X044198Y012799D01*
X044219Y012734D01*
X044230Y012666D01*
X044230Y012632D01*
X043792Y012632D01*
X043792Y013069D01*
X043758Y013069D01*
X043690Y013058D01*
X043670Y013052D01*
X043714Y013096D01*
X043790Y013279D01*
X043790Y013477D01*
X043726Y013630D01*
X043858Y013630D01*
X043795Y013477D01*
X043795Y013279D01*
X043870Y013096D01*
X043914Y013052D01*
X043895Y013058D01*
X043827Y013069D01*
X043792Y013069D01*
X043792Y012632D01*
X043792Y012632D01*
X043792Y012631D01*
X043792Y012631D01*
X043792Y012194D01*
X043758Y012194D01*
X043690Y012205D01*
X043624Y012226D01*
X043563Y012257D01*
X043507Y012298D01*
X043458Y012346D01*
X043418Y012402D01*
X043387Y012464D01*
X043365Y012529D01*
X043355Y012597D01*
X043355Y012631D01*
X043792Y012631D01*
X043792Y012194D01*
X043827Y012194D01*
X043895Y012205D01*
X043960Y012226D01*
X044021Y012257D01*
X044077Y012298D01*
X044126Y012346D01*
X044166Y012402D01*
X044198Y012464D01*
X044219Y012529D01*
X044230Y012597D01*
X044230Y012631D01*
X043792Y012631D01*
X043792Y012632D01*
X043355Y012632D01*
X043355Y012666D01*
X043365Y012734D01*
X043387Y012799D01*
X043418Y012861D01*
X043450Y012904D01*
X043391Y012880D01*
X043193Y012880D01*
X043135Y012904D01*
X043166Y012861D01*
X043198Y012799D01*
X043219Y012734D01*
X043230Y012666D01*
X043230Y012632D01*
X042792Y012632D01*
X042792Y013069D01*
X042758Y013069D01*
X042690Y013058D01*
X042670Y013052D01*
X042714Y013096D01*
X042790Y013279D01*
X042790Y013477D01*
X042726Y013630D01*
X042858Y013630D01*
X042795Y013477D01*
X042795Y013279D01*
X042870Y013096D01*
X042914Y013052D01*
X042895Y013058D01*
X042827Y013069D01*
X042792Y013069D01*
X042792Y012632D01*
X042792Y012632D01*
X042792Y012631D01*
X042792Y012631D01*
X042792Y012194D01*
X042758Y012194D01*
X042690Y012205D01*
X042624Y012226D01*
X042563Y012257D01*
X042507Y012298D01*
X042458Y012346D01*
X042418Y012402D01*
X042387Y012464D01*
X042365Y012529D01*
X042355Y012597D01*
X042355Y012631D01*
X042792Y012631D01*
X042792Y012194D01*
X042827Y012194D01*
X042895Y012205D01*
X042960Y012226D01*
X043021Y012257D01*
X043077Y012298D01*
X043126Y012346D01*
X043166Y012402D01*
X043198Y012464D01*
X043219Y012529D01*
X043230Y012597D01*
X043230Y012631D01*
X042792Y012631D01*
X042792Y012632D01*
X042355Y012632D01*
X042355Y012666D01*
X042365Y012734D01*
X042387Y012799D01*
X042418Y012861D01*
X042450Y012904D01*
X042391Y012880D01*
X042193Y012880D01*
X042135Y012904D01*
X042166Y012861D01*
X042198Y012799D01*
X042219Y012734D01*
X042230Y012666D01*
X042230Y012632D01*
X041792Y012632D01*
X041792Y013069D01*
X041758Y013069D01*
X041690Y013058D01*
X041670Y013052D01*
X041714Y013096D01*
X041790Y013279D01*
X041790Y013477D01*
X041726Y013630D01*
X041858Y013630D01*
X041795Y013477D01*
X041795Y013279D01*
X041870Y013096D01*
X041914Y013052D01*
X041895Y013058D01*
X041827Y013069D01*
X041792Y013069D01*
X041792Y012632D01*
X041792Y012632D01*
X041792Y012631D01*
X041792Y012631D01*
X041792Y012194D01*
X041758Y012194D01*
X041690Y012205D01*
X041624Y012226D01*
X041563Y012257D01*
X041507Y012298D01*
X041458Y012346D01*
X041418Y012402D01*
X041387Y012464D01*
X041365Y012529D01*
X041355Y012597D01*
X041355Y012631D01*
X041792Y012631D01*
X041792Y012194D01*
X041827Y012194D01*
X041895Y012205D01*
X041960Y012226D01*
X042021Y012257D01*
X042077Y012298D01*
X042126Y012346D01*
X042166Y012402D01*
X042198Y012464D01*
X042219Y012529D01*
X042230Y012597D01*
X042230Y012631D01*
X041792Y012631D01*
X041792Y012632D01*
X041355Y012632D01*
X041355Y012666D01*
X041365Y012734D01*
X041387Y012799D01*
X041418Y012861D01*
X041450Y012904D01*
X041391Y012880D01*
X041193Y012880D01*
X041135Y012904D01*
X041166Y012861D01*
X041198Y012799D01*
X041219Y012734D01*
X041230Y012666D01*
X041230Y012632D01*
X040792Y012632D01*
X040792Y013069D01*
X040758Y013069D01*
X040690Y013058D01*
X040670Y013052D01*
X040714Y013096D01*
X040790Y013279D01*
X040790Y013477D01*
X040726Y013630D01*
X040858Y013630D01*
X040795Y013477D01*
X040795Y013279D01*
X040870Y013096D01*
X040914Y013052D01*
X040895Y013058D01*
X040827Y013069D01*
X040792Y013069D01*
X040792Y012632D01*
X040792Y012632D01*
X040792Y012631D01*
X040792Y012631D01*
X040792Y012194D01*
X040758Y012194D01*
X040690Y012205D01*
X040624Y012226D01*
X040563Y012257D01*
X040507Y012298D01*
X040458Y012346D01*
X040418Y012402D01*
X040387Y012464D01*
X040365Y012529D01*
X040355Y012597D01*
X040355Y012631D01*
X040792Y012631D01*
X040792Y012194D01*
X040827Y012194D01*
X040895Y012205D01*
X040960Y012226D01*
X041021Y012257D01*
X041077Y012298D01*
X041126Y012346D01*
X041166Y012402D01*
X041198Y012464D01*
X041219Y012529D01*
X041230Y012597D01*
X041230Y012631D01*
X040792Y012631D01*
X040792Y012632D01*
X040355Y012632D01*
X040355Y012666D01*
X040365Y012734D01*
X040387Y012799D01*
X040418Y012861D01*
X040450Y012904D01*
X040391Y012880D01*
X040193Y012880D01*
X040135Y012904D01*
X040166Y012861D01*
X040198Y012799D01*
X040219Y012734D01*
X040230Y012666D01*
X040230Y012632D01*
X039792Y012632D01*
X039792Y013069D01*
X039758Y013069D01*
X039690Y013058D01*
X039670Y013052D01*
X039714Y013096D01*
X039790Y013279D01*
X039790Y013477D01*
X039726Y013630D01*
X039858Y013630D01*
X039795Y013477D01*
X039795Y013279D01*
X039870Y013096D01*
X039914Y013052D01*
X039895Y013058D01*
X039827Y013069D01*
X039792Y013069D01*
X039792Y012632D01*
X039792Y012632D01*
X039792Y012631D01*
X039792Y012631D01*
X039792Y012194D01*
X039758Y012194D01*
X039690Y012205D01*
X039624Y012226D01*
X039563Y012257D01*
X039507Y012298D01*
X039458Y012346D01*
X039418Y012402D01*
X039387Y012464D01*
X039365Y012529D01*
X039355Y012597D01*
X039355Y012631D01*
X039792Y012631D01*
X039792Y012194D01*
X039827Y012194D01*
X039895Y012205D01*
X039960Y012226D01*
X040021Y012257D01*
X040077Y012298D01*
X040126Y012346D01*
X040166Y012402D01*
X040198Y012464D01*
X040219Y012529D01*
X040230Y012597D01*
X040230Y012631D01*
X039792Y012631D01*
X039792Y012632D01*
X039355Y012632D01*
X039355Y012666D01*
X039365Y012734D01*
X039387Y012799D01*
X039418Y012861D01*
X039450Y012904D01*
X039391Y012880D01*
X039193Y012880D01*
X039135Y012904D01*
X039166Y012861D01*
X039198Y012799D01*
X039219Y012734D01*
X039230Y012666D01*
X039230Y012632D01*
X038792Y012632D01*
X038792Y013069D01*
X038758Y013069D01*
X038690Y013058D01*
X038670Y013052D01*
X038714Y013096D01*
X038790Y013279D01*
X038790Y013477D01*
X038726Y013630D01*
X038858Y013630D01*
X038795Y013477D01*
X038795Y013279D01*
X038870Y013096D01*
X038914Y013052D01*
X038895Y013058D01*
X038827Y013069D01*
X038792Y013069D01*
X038792Y012632D01*
X038792Y012632D01*
X038792Y012631D01*
X038792Y012631D01*
X038792Y012194D01*
X038758Y012194D01*
X038690Y012205D01*
X038624Y012226D01*
X038563Y012257D01*
X038507Y012298D01*
X038458Y012346D01*
X038418Y012402D01*
X038387Y012464D01*
X038365Y012529D01*
X038355Y012597D01*
X038355Y012631D01*
X038792Y012631D01*
X038792Y012194D01*
X038827Y012194D01*
X038895Y012205D01*
X038960Y012226D01*
X039021Y012257D01*
X039077Y012298D01*
X039126Y012346D01*
X039166Y012402D01*
X039198Y012464D01*
X039219Y012529D01*
X039230Y012597D01*
X039230Y012631D01*
X038792Y012631D01*
X038792Y012632D01*
X038355Y012632D01*
X038355Y012666D01*
X038365Y012734D01*
X038387Y012799D01*
X038418Y012861D01*
X038450Y012904D01*
X038391Y012880D01*
X038193Y012880D01*
X038135Y012904D01*
X038166Y012861D01*
X038198Y012799D01*
X038219Y012734D01*
X038230Y012666D01*
X038230Y012632D01*
X037792Y012632D01*
X037792Y013069D01*
X037758Y013069D01*
X037690Y013058D01*
X037670Y013052D01*
X037714Y013096D01*
X037790Y013279D01*
X037790Y013477D01*
X037726Y013630D01*
X037858Y013630D01*
X037795Y013477D01*
X037795Y013279D01*
X037870Y013096D01*
X037914Y013052D01*
X037895Y013058D01*
X037827Y013069D01*
X037792Y013069D01*
X037792Y012632D01*
X037792Y012632D01*
X037792Y012631D01*
X037792Y012631D01*
X037792Y012194D01*
X037758Y012194D01*
X037690Y012205D01*
X037624Y012226D01*
X037563Y012257D01*
X037507Y012298D01*
X037458Y012346D01*
X037418Y012402D01*
X037387Y012464D01*
X037365Y012529D01*
X037355Y012597D01*
X037355Y012631D01*
X037792Y012631D01*
X037792Y012194D01*
X037827Y012194D01*
X037895Y012205D01*
X037960Y012226D01*
X038021Y012257D01*
X038077Y012298D01*
X038126Y012346D01*
X038166Y012402D01*
X038198Y012464D01*
X038219Y012529D01*
X038230Y012597D01*
X038230Y012631D01*
X037792Y012631D01*
X037792Y012632D01*
X037355Y012632D01*
X037355Y012666D01*
X037365Y012734D01*
X037387Y012799D01*
X037418Y012861D01*
X037450Y012904D01*
X037391Y012880D01*
X037193Y012880D01*
X037135Y012904D01*
X037166Y012861D01*
X037198Y012799D01*
X037219Y012734D01*
X037230Y012666D01*
X037230Y012632D01*
X036792Y012632D01*
X036792Y013069D01*
X036758Y013069D01*
X036690Y013058D01*
X036670Y013052D01*
X036714Y013096D01*
X036790Y013279D01*
X036790Y013477D01*
X036726Y013630D01*
X036858Y013630D01*
X036795Y013477D01*
X036795Y013279D01*
X036870Y013096D01*
X036914Y013052D01*
X036895Y013058D01*
X036827Y013069D01*
X036792Y013069D01*
X036792Y012632D01*
X036792Y012632D01*
X036792Y012631D01*
X036792Y012631D01*
X036792Y012194D01*
X036758Y012194D01*
X036690Y012205D01*
X036624Y012226D01*
X036563Y012257D01*
X036507Y012298D01*
X036458Y012346D01*
X036418Y012402D01*
X036387Y012464D01*
X036365Y012529D01*
X036355Y012597D01*
X036355Y012631D01*
X036792Y012631D01*
X036792Y012194D01*
X036827Y012194D01*
X036895Y012205D01*
X036960Y012226D01*
X037021Y012257D01*
X037077Y012298D01*
X037126Y012346D01*
X037166Y012402D01*
X037198Y012464D01*
X037219Y012529D01*
X037230Y012597D01*
X037230Y012631D01*
X036792Y012631D01*
X036792Y012632D01*
X036355Y012632D01*
X036355Y012666D01*
X036365Y012734D01*
X036387Y012799D01*
X036418Y012861D01*
X036450Y012904D01*
X036391Y012880D01*
X036193Y012880D01*
X036135Y012904D01*
X036166Y012861D01*
X036198Y012799D01*
X036219Y012734D01*
X036230Y012666D01*
X036230Y012632D01*
X035792Y012632D01*
X035792Y013069D01*
X035758Y013069D01*
X035690Y013058D01*
X035670Y013052D01*
X035714Y013096D01*
X035790Y013279D01*
X035790Y013477D01*
X035726Y013630D01*
X035858Y013630D01*
X035795Y013477D01*
X035795Y013279D01*
X035870Y013096D01*
X035914Y013052D01*
X035895Y013058D01*
X035827Y013069D01*
X035792Y013069D01*
X035792Y012632D01*
X035792Y012632D01*
X035792Y012631D01*
X035792Y012631D01*
X035792Y012194D01*
X035758Y012194D01*
X035690Y012205D01*
X035624Y012226D01*
X035563Y012257D01*
X035507Y012298D01*
X035458Y012346D01*
X035418Y012402D01*
X035387Y012464D01*
X035365Y012529D01*
X035355Y012597D01*
X035355Y012631D01*
X035792Y012631D01*
X035792Y012194D01*
X035827Y012194D01*
X035895Y012205D01*
X035960Y012226D01*
X036021Y012257D01*
X036077Y012298D01*
X036126Y012346D01*
X036166Y012402D01*
X036198Y012464D01*
X036219Y012529D01*
X036230Y012597D01*
X036230Y012631D01*
X035792Y012631D01*
X035792Y012632D01*
X035355Y012632D01*
X035355Y012666D01*
X035365Y012734D01*
X035387Y012799D01*
X035418Y012861D01*
X035450Y012904D01*
X035391Y012880D01*
X035193Y012880D01*
X035135Y012904D01*
X035166Y012861D01*
X035198Y012799D01*
X035219Y012734D01*
X035230Y012666D01*
X035230Y012632D01*
X034792Y012632D01*
X034792Y013069D01*
X034758Y013069D01*
X034690Y013058D01*
X034670Y013052D01*
X034714Y013096D01*
X034790Y013279D01*
X034790Y013477D01*
X034726Y013630D01*
X034858Y013630D01*
X034795Y013477D01*
X034795Y013279D01*
X034870Y013096D01*
X034914Y013052D01*
X034895Y013058D01*
X034827Y013069D01*
X034792Y013069D01*
X034792Y012632D01*
X034792Y012632D01*
X034792Y012631D01*
X034792Y012631D01*
X034792Y012194D01*
X034758Y012194D01*
X034690Y012205D01*
X034624Y012226D01*
X034563Y012257D01*
X034507Y012298D01*
X034458Y012346D01*
X034418Y012402D01*
X034387Y012464D01*
X034365Y012529D01*
X034355Y012597D01*
X034355Y012631D01*
X034792Y012631D01*
X034792Y012194D01*
X034827Y012194D01*
X034895Y012205D01*
X034960Y012226D01*
X035021Y012257D01*
X035077Y012298D01*
X035126Y012346D01*
X035166Y012402D01*
X035198Y012464D01*
X035219Y012529D01*
X035230Y012597D01*
X035230Y012631D01*
X034792Y012631D01*
X034792Y012632D01*
X034355Y012632D01*
X034355Y012666D01*
X034365Y012734D01*
X034387Y012799D01*
X034418Y012861D01*
X034450Y012904D01*
X034391Y012880D01*
X034193Y012880D01*
X034135Y012904D01*
X034166Y012861D01*
X034198Y012799D01*
X034219Y012734D01*
X034230Y012666D01*
X034230Y012632D01*
X033792Y012632D01*
X033792Y013069D01*
X033758Y013069D01*
X033690Y013058D01*
X033670Y013052D01*
X033714Y013096D01*
X033790Y013279D01*
X033790Y013477D01*
X033726Y013630D01*
X033858Y013630D01*
X033795Y013477D01*
X033795Y013279D01*
X033870Y013096D01*
X033914Y013052D01*
X033895Y013058D01*
X033827Y013069D01*
X033792Y013069D01*
X033792Y012632D01*
X033792Y012632D01*
X033792Y012631D01*
X033792Y012631D01*
X033792Y012194D01*
X033758Y012194D01*
X033690Y012205D01*
X033624Y012226D01*
X033563Y012257D01*
X033507Y012298D01*
X033458Y012346D01*
X033418Y012402D01*
X033387Y012464D01*
X033365Y012529D01*
X033355Y012597D01*
X033355Y012631D01*
X033792Y012631D01*
X033792Y012194D01*
X033827Y012194D01*
X033895Y012205D01*
X033960Y012226D01*
X034021Y012257D01*
X034077Y012298D01*
X034126Y012346D01*
X034166Y012402D01*
X034198Y012464D01*
X034219Y012529D01*
X034230Y012597D01*
X034230Y012631D01*
X033792Y012631D01*
X033792Y012632D01*
X033355Y012632D01*
X033355Y012666D01*
X033365Y012734D01*
X033387Y012799D01*
X033418Y012861D01*
X033450Y012904D01*
X033391Y012880D01*
X033193Y012880D01*
X033135Y012904D01*
X033166Y012861D01*
X033198Y012799D01*
X033219Y012734D01*
X033230Y012666D01*
X033230Y012632D01*
X032792Y012632D01*
X032792Y013069D01*
X032758Y013069D01*
X032690Y013058D01*
X032670Y013052D01*
X032714Y013096D01*
X032790Y013279D01*
X032790Y013477D01*
X032726Y013630D01*
X032858Y013630D01*
X032795Y013477D01*
X032795Y013279D01*
X032870Y013096D01*
X032914Y013052D01*
X032895Y013058D01*
X032827Y013069D01*
X032792Y013069D01*
X032792Y012632D01*
X032792Y012632D01*
X032792Y012631D01*
X032792Y012631D01*
X032792Y012194D01*
X032758Y012194D01*
X032690Y012205D01*
X032624Y012226D01*
X032563Y012257D01*
X032507Y012298D01*
X032458Y012346D01*
X032418Y012402D01*
X032387Y012464D01*
X032365Y012529D01*
X032355Y012597D01*
X032355Y012631D01*
X032792Y012631D01*
X032792Y012194D01*
X032827Y012194D01*
X032895Y012205D01*
X032960Y012226D01*
X033021Y012257D01*
X033077Y012298D01*
X033126Y012346D01*
X033166Y012402D01*
X033198Y012464D01*
X033219Y012529D01*
X033230Y012597D01*
X033230Y012631D01*
X032792Y012631D01*
X032792Y012632D01*
X032355Y012632D01*
X032355Y012666D01*
X032365Y012734D01*
X032387Y012799D01*
X032418Y012861D01*
X032450Y012904D01*
X032391Y012880D01*
X032193Y012880D01*
X032135Y012904D01*
X032166Y012861D01*
X032198Y012799D01*
X032219Y012734D01*
X032230Y012666D01*
X032230Y012632D01*
X031792Y012632D01*
X031792Y013069D01*
X031758Y013069D01*
X031690Y013058D01*
X031670Y013052D01*
X031714Y013096D01*
X031790Y013279D01*
X031790Y013477D01*
X031726Y013630D01*
X031858Y013630D01*
X031795Y013477D01*
X031795Y013279D01*
X031870Y013096D01*
X031914Y013052D01*
X031895Y013058D01*
X031827Y013069D01*
X031792Y013069D01*
X031792Y012632D01*
X031792Y012632D01*
X031792Y012631D01*
X031792Y012631D01*
X031792Y012194D01*
X031758Y012194D01*
X031690Y012205D01*
X031624Y012226D01*
X031563Y012257D01*
X031507Y012298D01*
X031458Y012346D01*
X031418Y012402D01*
X031387Y012464D01*
X031365Y012529D01*
X031355Y012597D01*
X031355Y012631D01*
X031792Y012631D01*
X031792Y012194D01*
X031827Y012194D01*
X031895Y012205D01*
X031960Y012226D01*
X032021Y012257D01*
X032077Y012298D01*
X032126Y012346D01*
X032166Y012402D01*
X032198Y012464D01*
X032219Y012529D01*
X032230Y012597D01*
X032230Y012631D01*
X031792Y012631D01*
X031792Y012632D01*
X031355Y012632D01*
X031355Y012666D01*
X031365Y012734D01*
X031387Y012799D01*
X031418Y012861D01*
X031450Y012904D01*
X031391Y012880D01*
X031193Y012880D01*
X031135Y012904D01*
X031166Y012861D01*
X031198Y012799D01*
X031219Y012734D01*
X031230Y012666D01*
X031230Y012632D01*
X030792Y012632D01*
X030792Y013069D01*
X030758Y013069D01*
X030690Y013058D01*
X030670Y013052D01*
X030714Y013096D01*
X030790Y013279D01*
X030790Y013477D01*
X030726Y013630D01*
X030858Y013630D01*
X030795Y013477D01*
X030795Y013279D01*
X030870Y013096D01*
X030914Y013052D01*
X030895Y013058D01*
X030827Y013069D01*
X030792Y013069D01*
X030792Y012632D01*
X030792Y012632D01*
X030792Y012631D01*
X030792Y012631D01*
X030792Y012194D01*
X030758Y012194D01*
X030690Y012205D01*
X030624Y012226D01*
X030563Y012257D01*
X030507Y012298D01*
X030458Y012346D01*
X030418Y012402D01*
X030387Y012464D01*
X030365Y012529D01*
X030355Y012597D01*
X030355Y012631D01*
X030792Y012631D01*
X030792Y012194D01*
X030827Y012194D01*
X030895Y012205D01*
X030960Y012226D01*
X031021Y012257D01*
X031077Y012298D01*
X031126Y012346D01*
X031166Y012402D01*
X031198Y012464D01*
X031219Y012529D01*
X031230Y012597D01*
X031230Y012631D01*
X030792Y012631D01*
X030792Y012632D01*
X030355Y012632D01*
X030355Y012666D01*
X030365Y012734D01*
X030387Y012799D01*
X030418Y012861D01*
X030450Y012904D01*
X030391Y012880D01*
X030193Y012880D01*
X030135Y012904D01*
X030166Y012861D01*
X030198Y012799D01*
X030219Y012734D01*
X030230Y012666D01*
X030230Y012632D01*
X029792Y012632D01*
X029792Y013069D01*
X029758Y013069D01*
X029690Y013058D01*
X029670Y013052D01*
X029714Y013096D01*
X029790Y013279D01*
X029790Y013477D01*
X029726Y013630D01*
X029858Y013630D01*
X029795Y013477D01*
X029795Y013279D01*
X029870Y013096D01*
X029914Y013052D01*
X029895Y013058D01*
X029827Y013069D01*
X029792Y013069D01*
X029792Y012632D01*
X029792Y012632D01*
X029792Y012631D01*
X029792Y012631D01*
X029792Y012194D01*
X029758Y012194D01*
X029690Y012205D01*
X029624Y012226D01*
X029563Y012257D01*
X029507Y012298D01*
X029458Y012346D01*
X029418Y012402D01*
X029387Y012464D01*
X029365Y012529D01*
X029355Y012597D01*
X029355Y012631D01*
X029792Y012631D01*
X029792Y012194D01*
X029827Y012194D01*
X029895Y012205D01*
X029960Y012226D01*
X030021Y012257D01*
X030077Y012298D01*
X030126Y012346D01*
X030166Y012402D01*
X030198Y012464D01*
X030219Y012529D01*
X030230Y012597D01*
X030230Y012631D01*
X029792Y012631D01*
X029792Y012632D01*
X029355Y012632D01*
X029355Y012666D01*
X029365Y012734D01*
X029387Y012799D01*
X029418Y012861D01*
X029450Y012904D01*
X029391Y012880D01*
X029193Y012880D01*
X029135Y012904D01*
X029166Y012861D01*
X029198Y012799D01*
X029219Y012734D01*
X029230Y012666D01*
X029230Y012632D01*
X028792Y012632D01*
X028792Y013069D01*
X028758Y013069D01*
X028690Y013058D01*
X028670Y013052D01*
X028714Y013096D01*
X028790Y013279D01*
X028790Y013477D01*
X028726Y013630D01*
X028858Y013630D01*
X028795Y013477D01*
X028795Y013279D01*
X028870Y013096D01*
X028914Y013052D01*
X028895Y013058D01*
X028827Y013069D01*
X028792Y013069D01*
X028792Y012632D01*
X028792Y012632D01*
X028792Y012631D01*
X028792Y012631D01*
X028792Y012194D01*
X028758Y012194D01*
X028690Y012205D01*
X028624Y012226D01*
X028563Y012257D01*
X028507Y012298D01*
X028458Y012346D01*
X028418Y012402D01*
X028387Y012464D01*
X028365Y012529D01*
X028355Y012597D01*
X028355Y012631D01*
X028792Y012631D01*
X028792Y012194D01*
X028827Y012194D01*
X028895Y012205D01*
X028960Y012226D01*
X029021Y012257D01*
X029077Y012298D01*
X029126Y012346D01*
X029166Y012402D01*
X029198Y012464D01*
X029219Y012529D01*
X029230Y012597D01*
X029230Y012631D01*
X028792Y012631D01*
X028792Y012632D01*
X028355Y012632D01*
X028355Y012666D01*
X028365Y012734D01*
X028387Y012799D01*
X028418Y012861D01*
X028450Y012904D01*
X028391Y012880D01*
X028193Y012880D01*
X028135Y012904D01*
X028166Y012861D01*
X028198Y012799D01*
X028219Y012734D01*
X028230Y012666D01*
X028230Y012632D01*
X027792Y012632D01*
X027792Y013069D01*
X027758Y013069D01*
X027690Y013058D01*
X027670Y013052D01*
X027714Y013096D01*
X027790Y013279D01*
X027790Y013477D01*
X027726Y013630D01*
X027858Y013630D01*
X027795Y013477D01*
X027795Y013279D01*
X027870Y013096D01*
X027914Y013052D01*
X027895Y013058D01*
X027827Y013069D01*
X027792Y013069D01*
X027792Y012632D01*
X027792Y012632D01*
X027792Y012631D01*
X027792Y012631D01*
X027792Y012194D01*
X027758Y012194D01*
X027690Y012205D01*
X027624Y012226D01*
X027563Y012257D01*
X027507Y012298D01*
X027458Y012346D01*
X027418Y012402D01*
X027387Y012464D01*
X027365Y012529D01*
X027355Y012597D01*
X027355Y012631D01*
X027792Y012631D01*
X027792Y012194D01*
X027827Y012194D01*
X027895Y012205D01*
X027960Y012226D01*
X028021Y012257D01*
X028077Y012298D01*
X028126Y012346D01*
X028166Y012402D01*
X028198Y012464D01*
X028219Y012529D01*
X028230Y012597D01*
X028230Y012631D01*
X027792Y012631D01*
X027792Y012632D01*
X027355Y012632D01*
X027355Y012666D01*
X027365Y012734D01*
X027387Y012799D01*
X027418Y012861D01*
X027450Y012904D01*
X027391Y012880D01*
X027228Y012880D01*
X027290Y012730D01*
X027290Y012533D01*
X027214Y012350D01*
X027164Y012300D01*
X027190Y012308D01*
X027258Y012319D01*
X027292Y012319D01*
X027292Y011882D01*
X027292Y011882D01*
X027292Y012319D01*
X027327Y012319D01*
X027395Y012308D01*
X027460Y012287D01*
X027521Y012256D01*
X027577Y012215D01*
X027626Y012166D01*
X027666Y012111D01*
X027698Y012049D01*
X027719Y011984D01*
X027730Y011916D01*
X027730Y011882D01*
X027292Y011882D01*
X027292Y011881D01*
X027292Y011881D01*
X027292Y011444D01*
X027258Y011444D01*
X027190Y011455D01*
X027124Y011476D01*
X027063Y011507D01*
X027007Y011548D01*
X026958Y011596D01*
X026918Y011652D01*
X026887Y011714D01*
X026865Y011779D01*
X026855Y011847D01*
X026855Y011881D01*
X027292Y011881D01*
X027292Y011444D01*
X027327Y011444D01*
X027395Y011455D01*
X027460Y011476D01*
X027521Y011507D01*
X027577Y011548D01*
X027626Y011596D01*
X027666Y011652D01*
X027698Y011714D01*
X027719Y011779D01*
X027730Y011847D01*
X027730Y011881D01*
X027292Y011881D01*
X027292Y011882D01*
X026855Y011882D01*
X026855Y011916D01*
X026865Y011984D01*
X026887Y012049D01*
X026918Y012111D01*
X026954Y012160D01*
X026891Y012134D01*
X026726Y012134D01*
X026790Y011980D01*
X026790Y011783D01*
X026714Y011600D01*
X026574Y011460D01*
X026391Y011384D01*
X026193Y011384D01*
X026010Y011460D01*
X025870Y011600D01*
X025795Y011783D01*
X025795Y011980D01*
X025870Y012163D01*
X025714Y012163D01*
X025664Y012213D01*
X025690Y012205D01*
X025758Y012194D01*
X025792Y012194D01*
X025792Y012631D01*
X025792Y012631D01*
X025355Y012631D01*
X025355Y012597D01*
X025365Y012529D01*
X025387Y012464D01*
X025418Y012402D01*
X025454Y012353D01*
X025391Y012379D01*
X025193Y012379D01*
X025010Y012303D01*
X024870Y012163D01*
X024504Y012163D01*
X024576Y012235D02*
X024682Y012490D01*
X024682Y012765D01*
X024576Y013020D01*
X024381Y013215D01*
X024127Y013320D01*
X023851Y013320D01*
X023597Y013215D01*
X023402Y013020D01*
X023296Y012765D01*
X023296Y012490D01*
X023402Y012235D01*
X023597Y012040D01*
X023851Y011935D01*
X024127Y011935D01*
X024381Y012040D01*
X024576Y012235D01*
X024612Y012321D02*
X025053Y012321D01*
X024870Y012163D02*
X024795Y011980D01*
X024795Y011783D01*
X024870Y011600D01*
X025010Y011460D01*
X025193Y011384D01*
X025391Y011384D01*
X025574Y011460D01*
X025714Y011600D01*
X025790Y011783D01*
X025790Y011980D01*
X025714Y012163D01*
X025792Y012194D02*
X025827Y012194D01*
X025895Y012205D01*
X025920Y012213D01*
X025870Y012163D01*
X025792Y012194D02*
X025792Y012631D01*
X025792Y012632D01*
X025792Y013069D01*
X025758Y013069D01*
X025690Y013058D01*
X025670Y013052D01*
X025714Y013096D01*
X025790Y013279D01*
X025790Y013477D01*
X025726Y013630D01*
X025858Y013630D01*
X025795Y013477D01*
X025795Y013279D01*
X025870Y013096D01*
X025914Y013052D01*
X025895Y013058D01*
X025827Y013069D01*
X025792Y013069D01*
X025792Y012632D01*
X025792Y012632D01*
X025355Y012632D01*
X025355Y012666D01*
X025365Y012734D01*
X025387Y012799D01*
X025418Y012861D01*
X025450Y012904D01*
X025391Y012880D01*
X025193Y012880D01*
X025010Y012956D01*
X024870Y013096D01*
X024795Y013279D01*
X024795Y013477D01*
X024870Y013659D01*
X025010Y013799D01*
X025193Y013875D01*
X025358Y013875D01*
X025295Y014029D01*
X025295Y014227D01*
X025370Y014409D01*
X025510Y014549D01*
X025693Y014625D01*
X025891Y014625D01*
X026074Y014549D01*
X026214Y014409D01*
X026290Y014227D01*
X026290Y014029D01*
X026226Y013875D01*
X026358Y013875D01*
X026295Y014029D01*
X026295Y014227D01*
X026370Y014409D01*
X026510Y014549D01*
X026693Y014625D01*
X026891Y014625D01*
X027074Y014549D01*
X027214Y014409D01*
X027290Y014227D01*
X027290Y014029D01*
X027226Y013875D01*
X027358Y013875D01*
X027295Y014029D01*
X027295Y014227D01*
X027370Y014409D01*
X027510Y014549D01*
X027562Y014571D01*
X027562Y015977D01*
X026876Y016664D01*
X026910Y016581D01*
X026910Y016414D01*
X026847Y016261D01*
X026729Y016143D01*
X026575Y016079D01*
X026409Y016079D01*
X026255Y016143D01*
X026138Y016261D01*
X026074Y016414D01*
X026074Y016581D01*
X026138Y016734D01*
X026255Y016852D01*
X026409Y016916D01*
X026575Y016916D01*
X026658Y016881D01*
X025332Y018208D01*
X016195Y018208D01*
X016088Y018252D01*
X016006Y018333D01*
X014966Y019373D01*
X014922Y019480D01*
X014922Y029577D01*
X014903Y029597D01*
X014889Y029583D01*
X014735Y029519D01*
X014569Y029519D01*
X014415Y029583D01*
X014298Y029701D01*
X014234Y029854D01*
X014234Y030021D01*
X014298Y030174D01*
X014415Y030292D01*
X014569Y030356D01*
X014735Y030356D01*
X014889Y030292D01*
X014922Y030259D01*
X014922Y035359D01*
X014889Y035359D01*
X014735Y035423D01*
X014618Y035541D01*
X014554Y035694D01*
X014554Y035861D01*
X014618Y036014D01*
X014735Y036132D01*
X014889Y036196D01*
X015055Y036196D01*
X015162Y036151D01*
X015162Y036875D01*
X015206Y036982D01*
X015288Y037063D01*
X015288Y037063D01*
X015434Y037210D01*
X015434Y037301D01*
X015498Y037454D01*
X015615Y037572D01*
X015769Y037636D01*
X015935Y037636D01*
X016089Y037572D01*
X016207Y037454D01*
X016270Y037301D01*
X016270Y037134D01*
X016207Y036981D01*
X016089Y036863D01*
X015935Y036799D01*
X015844Y036799D01*
X015766Y036721D01*
X015849Y036756D01*
X016015Y036756D01*
X016169Y036692D01*
X016287Y036574D01*
X016350Y036421D01*
X016350Y036410D01*
X017058Y035702D01*
X017102Y035595D01*
X017102Y026538D01*
X019642Y023998D01*
X019642Y035738D01*
X019594Y035854D01*
X019594Y036021D01*
X019658Y036174D01*
X019775Y036292D01*
X019929Y036356D01*
X020095Y036356D01*
X020249Y036292D01*
X020367Y036174D01*
X020430Y036021D01*
X020430Y035854D01*
X020367Y035701D01*
X020249Y035583D01*
X020222Y035572D01*
X020222Y023738D01*
X020442Y023518D01*
X020442Y028715D01*
X020486Y028822D01*
X020874Y029210D01*
X020874Y029301D01*
X020938Y029454D01*
X021055Y029572D01*
X021209Y029636D01*
X021375Y029636D01*
X021529Y029572D01*
X021647Y029454D01*
X021710Y029301D01*
X021710Y029134D01*
X021647Y028981D01*
X021529Y028863D01*
X021375Y028799D01*
X021284Y028799D01*
X021022Y028537D01*
X021022Y024631D01*
X021129Y024676D01*
X021295Y024676D01*
X021449Y024612D01*
X021567Y024494D01*
X021630Y024341D01*
X021630Y024174D01*
X021567Y024021D01*
X021449Y023903D01*
X021295Y023839D01*
X021129Y023839D01*
X021022Y023884D01*
X021022Y023258D01*
X023696Y020583D01*
X023812Y020468D01*
X025131Y020468D01*
X025098Y020501D01*
X025034Y020654D01*
X025034Y020821D01*
X025098Y020974D01*
X025215Y021092D01*
X025369Y021156D01*
X025535Y021156D01*
X025689Y021092D01*
X025807Y020974D01*
X025870Y020821D01*
X025870Y020654D01*
X025807Y020501D01*
X025773Y020468D01*
X026070Y020468D01*
X026176Y020423D01*
X026258Y020342D01*
X026338Y020262D01*
X026338Y020262D01*
X030554Y016046D01*
X030554Y016181D01*
X030618Y016334D01*
X030735Y016452D01*
X030889Y016516D01*
X031055Y016516D01*
X031209Y016452D01*
X031327Y016334D01*
X031390Y016181D01*
X031390Y016014D01*
X031327Y015861D01*
X031209Y015743D01*
X031055Y015679D01*
X030920Y015679D01*
X031538Y015062D01*
X031562Y015004D01*
X031562Y016217D01*
X029526Y018253D01*
X029482Y018360D01*
X029482Y021964D01*
X029375Y021919D01*
X029209Y021919D01*
X029055Y021983D01*
X028938Y022101D01*
X028874Y022254D01*
X028874Y022421D01*
X028938Y022574D01*
X029055Y022692D01*
X029209Y022756D01*
X029375Y022756D01*
X029482Y022711D01*
X029482Y024565D01*
X029458Y024540D01*
X029234Y024448D01*
X028991Y024448D01*
X028767Y024540D01*
X028612Y024695D01*
X028458Y024540D01*
X028234Y024448D01*
X027991Y024448D01*
X027767Y024540D01*
X027595Y024712D01*
X027502Y024936D01*
X027502Y025179D01*
X027595Y025403D01*
X027767Y025575D01*
X027991Y025668D01*
X028234Y025668D01*
X028458Y025575D01*
X028612Y025420D01*
X028767Y025575D01*
X028991Y025668D01*
X029234Y025668D01*
X029458Y025575D01*
X029482Y025550D01*
X029482Y028297D01*
X029223Y028557D01*
X029209Y028543D01*
X029055Y028479D01*
X028889Y028479D01*
X028735Y028543D01*
X028618Y028661D01*
X028554Y028814D01*
X028554Y028981D01*
X028618Y029134D01*
X028735Y029252D01*
X028889Y029316D01*
X029055Y029316D01*
X029209Y029252D01*
X029273Y029188D01*
X029350Y029188D01*
X029456Y029143D01*
X029722Y028878D01*
X029722Y029728D01*
X029395Y029728D01*
X029288Y029772D01*
X028728Y030332D01*
X028728Y030332D01*
X028646Y030413D01*
X028602Y030520D01*
X028602Y031338D01*
X028554Y031454D01*
X028554Y031621D01*
X028618Y031774D01*
X028735Y031892D01*
X028889Y031956D01*
X029055Y031956D01*
X029209Y031892D01*
X029327Y031774D01*
X029390Y031621D01*
X029390Y031454D01*
X029327Y031301D01*
X029322Y031296D01*
X029369Y031316D01*
X029535Y031316D01*
X029689Y031252D01*
X029807Y031134D01*
X029870Y030981D01*
X029870Y030890D01*
X030336Y030423D01*
X030416Y030343D01*
X030498Y030262D01*
X030542Y030155D01*
X030542Y025671D01*
X030649Y025716D01*
X030815Y025716D01*
X030969Y025652D01*
X031002Y025619D01*
X031002Y027017D01*
X030726Y027293D01*
X030682Y027400D01*
X030682Y027476D01*
X030618Y027541D01*
X030554Y027694D01*
X030554Y027861D01*
X030618Y028014D01*
X030735Y028132D01*
X030889Y028196D01*
X031055Y028196D01*
X031209Y028132D01*
X031242Y028099D01*
X031242Y028955D01*
X031286Y029062D01*
X031368Y029143D01*
X031528Y029303D01*
X031688Y029463D01*
X031848Y029623D01*
X032522Y030298D01*
X032522Y031556D01*
X032458Y031621D01*
X032394Y031774D01*
X032394Y031941D01*
X032458Y032094D01*
X032575Y032212D01*
X032729Y032276D01*
X032895Y032276D01*
X033049Y032212D01*
X033167Y032094D01*
X033230Y031941D01*
X033230Y031774D01*
X033167Y031621D01*
X033102Y031556D01*
X033102Y030120D01*
X033058Y030013D01*
X032258Y029213D01*
X032098Y029053D01*
X031938Y028893D01*
X031822Y028777D01*
X031822Y028179D01*
X031855Y028212D01*
X032009Y028276D01*
X032175Y028276D01*
X032329Y028212D01*
X032408Y028133D01*
X032458Y028254D01*
X032575Y028372D01*
X032729Y028436D01*
X032895Y028436D01*
X033049Y028372D01*
X033092Y028329D01*
X033135Y028372D01*
X033289Y028436D01*
X033455Y028436D01*
X033609Y028372D01*
X033673Y028308D01*
X034310Y028308D01*
X034416Y028263D01*
X034471Y028209D01*
X035591Y029329D01*
X035709Y029378D01*
X036122Y029378D01*
X036122Y029559D01*
X036215Y029783D01*
X036370Y029938D01*
X036215Y030092D01*
X036122Y030316D01*
X036122Y030559D01*
X036215Y030783D01*
X036387Y030955D01*
X036611Y031048D01*
X036854Y031048D01*
X037078Y030955D01*
X037249Y030783D01*
X037292Y030680D01*
X037335Y030783D01*
X037507Y030955D01*
X037731Y031048D01*
X037974Y031048D01*
X038198Y030955D01*
X038369Y030783D01*
X038456Y030573D01*
X038535Y030763D01*
X038690Y030918D01*
X038535Y031072D01*
X038442Y031296D01*
X038442Y031539D01*
X038535Y031763D01*
X038707Y031935D01*
X038931Y032028D01*
X039174Y032028D01*
X039372Y031945D01*
X039372Y032045D01*
X038621Y032796D01*
X038572Y032914D01*
X038572Y033485D01*
X038360Y033698D01*
X026335Y033698D01*
X026195Y033558D01*
X026349Y033403D01*
X026442Y033179D01*
X026442Y032936D01*
X026349Y032712D01*
X026178Y032540D01*
X025954Y032448D01*
X025711Y032448D01*
X025487Y032540D01*
X025315Y032712D01*
X025222Y032936D01*
X025222Y033179D01*
X025315Y033403D01*
X025470Y033558D01*
X025315Y033712D01*
X025222Y033936D01*
X025222Y034179D01*
X025315Y034403D01*
X025470Y034558D01*
X025315Y034712D01*
X025222Y034936D01*
X025222Y035179D01*
X025315Y035403D01*
X025487Y035575D01*
X025711Y035668D01*
X025954Y035668D01*
X026178Y035575D01*
X026349Y035403D01*
X026442Y035179D01*
X026442Y034936D01*
X026349Y034712D01*
X026195Y034558D01*
X026349Y034403D01*
X026376Y034338D01*
X038556Y034338D01*
X038572Y034331D01*
X038572Y036205D01*
X037000Y037778D01*
X026189Y037778D01*
X026071Y037826D01*
X025981Y037916D01*
X025981Y037916D01*
X025160Y038738D01*
X022029Y038738D01*
X021911Y038786D01*
X021821Y038876D01*
X021821Y038876D01*
X021802Y038895D01*
X021802Y038656D01*
X021709Y038432D01*
X021538Y038260D01*
X021338Y038178D01*
X021538Y038095D01*
X021709Y037923D01*
X021802Y037699D01*
X021802Y037456D01*
X021709Y037232D01*
X021538Y037060D01*
X021314Y036968D01*
X021071Y036968D01*
X020847Y037060D01*
X020692Y037215D01*
X020538Y037060D01*
X020314Y036968D01*
X020071Y036968D01*
X019847Y037060D01*
X019675Y037232D01*
X019582Y037456D01*
X019582Y037699D01*
X019675Y037923D01*
X019847Y038095D01*
X020047Y038178D01*
X019847Y038260D01*
X019675Y038432D01*
X019582Y038656D01*
X019582Y038899D01*
X019675Y039123D01*
X019847Y039295D01*
X020071Y039388D01*
X020314Y039388D01*
X020538Y039295D01*
X020692Y039140D01*
X020847Y039295D01*
X021047Y039378D01*
X020847Y039460D01*
X020675Y039632D01*
X020655Y039679D01*
X020612Y039619D01*
X020550Y039558D01*
X020480Y039507D01*
X020403Y039468D01*
X020321Y039441D01*
X020235Y039428D01*
X020212Y039428D01*
X020212Y039958D01*
X020172Y039958D01*
X019642Y039958D01*
X019642Y039934D01*
X019656Y039849D01*
X019682Y039766D01*
X019722Y039689D01*
X019773Y039619D01*
X019834Y039558D01*
X019904Y039507D01*
X019981Y039468D01*
X020063Y039441D01*
X020149Y039428D01*
X020172Y039428D01*
X020172Y039958D01*
X020172Y039998D01*
X020172Y040528D01*
X020149Y040528D01*
X020063Y040514D01*
X019981Y040487D01*
X019904Y040448D01*
X019834Y040397D01*
X019773Y040336D01*
X019722Y040266D01*
X019682Y040189D01*
X019656Y040106D01*
X019642Y040021D01*
X019642Y039998D01*
X020172Y039998D01*
X020212Y039998D01*
X020212Y040528D01*
X020235Y040528D01*
X020321Y040514D01*
X020403Y040487D01*
X020480Y040448D01*
X020550Y040397D01*
X020612Y040336D01*
X020655Y040276D01*
X020675Y040323D01*
X020847Y040495D01*
X021071Y040588D01*
X021170Y040588D01*
X021190Y040608D01*
X021091Y040608D01*
X020867Y040700D01*
X020712Y040855D01*
X020558Y040700D01*
X020334Y040608D01*
X020091Y040608D01*
X019867Y040700D01*
X019695Y040872D01*
X019602Y041096D01*
X019602Y041339D01*
X019695Y041563D01*
X019867Y041735D01*
X020057Y041813D01*
X019847Y041900D01*
X019675Y042072D01*
X019582Y042296D01*
X019582Y042539D01*
X019675Y042763D01*
X019847Y042935D01*
X020047Y043018D01*
X019847Y043100D01*
X019675Y043272D01*
X019582Y043496D01*
X019582Y043739D01*
X019675Y043963D01*
X019847Y044135D01*
X020071Y044228D01*
X020314Y044228D01*
X020538Y044135D01*
X020692Y043980D01*
X020847Y044135D01*
X021071Y044228D01*
X021314Y044228D01*
X021538Y044135D01*
X021709Y043963D01*
X021802Y043739D01*
X021802Y043496D01*
X021709Y043272D01*
X021538Y043100D01*
X021338Y043018D01*
X021538Y042935D01*
X021709Y042763D01*
X021802Y042539D01*
X021802Y042296D01*
X021709Y042072D01*
X021538Y041900D01*
X021348Y041822D01*
X021558Y041735D01*
X021729Y041563D01*
X021822Y041339D01*
X021822Y041198D01*
X021869Y041218D01*
X025516Y041218D01*
X025633Y041169D01*
X025723Y041079D01*
X026303Y040499D01*
X026465Y040338D01*
X044122Y040338D01*
X044074Y040454D01*
X044074Y040621D01*
X044138Y040774D01*
X044181Y040818D01*
X044138Y040861D01*
X044074Y041014D01*
X044074Y041181D01*
X044138Y041334D01*
X044255Y041452D01*
X044409Y041516D01*
X044575Y041516D01*
X044729Y041452D01*
X044847Y041334D01*
X044910Y041181D01*
X044910Y041014D01*
X044847Y040861D01*
X044803Y040818D01*
X044847Y040774D01*
X044910Y040621D01*
X044910Y040454D01*
X044862Y040338D01*
X051036Y040338D01*
X051153Y040289D01*
X051243Y040199D01*
X052022Y039420D01*
X052022Y045770D01*
X013132Y045771D01*
X013132Y034201D01*
X013138Y034214D01*
X013255Y034332D01*
X013409Y034396D01*
X013575Y034396D01*
X013729Y034332D01*
X013847Y034214D01*
X013910Y034061D01*
X013910Y033894D01*
X013847Y033741D01*
X013729Y033623D01*
X013575Y033559D01*
X013409Y033559D01*
X013255Y033623D01*
X013138Y033741D01*
X013132Y033754D01*
X013132Y033719D02*
X013160Y033719D01*
X013132Y033560D02*
X013407Y033560D01*
X013577Y033560D02*
X014922Y033560D01*
X014922Y033402D02*
X013132Y033402D01*
X013132Y033243D02*
X014922Y033243D01*
X014922Y033085D02*
X013132Y033085D01*
X013132Y032926D02*
X014922Y032926D01*
X014922Y032768D02*
X013132Y032768D01*
X013132Y032609D02*
X014922Y032609D01*
X014922Y032451D02*
X013132Y032451D01*
X013132Y032292D02*
X014922Y032292D01*
X014922Y032134D02*
X013132Y032134D01*
X013132Y031975D02*
X014922Y031975D01*
X014922Y031817D02*
X013132Y031817D01*
X013132Y031658D02*
X014922Y031658D01*
X014922Y031500D02*
X013132Y031500D01*
X013132Y031341D02*
X014922Y031341D01*
X014922Y031183D02*
X013132Y031183D01*
X013132Y031024D02*
X014922Y031024D01*
X014922Y030866D02*
X013132Y030866D01*
X013132Y030707D02*
X014922Y030707D01*
X014922Y030549D02*
X013132Y030549D01*
X013132Y030390D02*
X014922Y030390D01*
X014355Y030232D02*
X013132Y030232D01*
X013132Y030073D02*
X014256Y030073D01*
X014234Y029915D02*
X013132Y029915D01*
X013132Y029756D02*
X014275Y029756D01*
X014401Y029598D02*
X013132Y029598D01*
X013132Y029439D02*
X014922Y029439D01*
X014922Y029281D02*
X013132Y029281D01*
X013132Y029122D02*
X014922Y029122D01*
X014922Y028964D02*
X013132Y028964D01*
X013132Y028805D02*
X014922Y028805D01*
X014922Y028647D02*
X013132Y028647D01*
X013132Y028488D02*
X014922Y028488D01*
X014922Y028330D02*
X013132Y028330D01*
X013132Y028171D02*
X014922Y028171D01*
X014922Y028013D02*
X013132Y028013D01*
X013132Y027854D02*
X014922Y027854D01*
X014922Y027696D02*
X013132Y027696D01*
X013132Y027537D02*
X014922Y027537D01*
X014922Y027379D02*
X013132Y027379D01*
X013132Y027220D02*
X014922Y027220D01*
X014922Y027062D02*
X013132Y027062D01*
X013132Y026903D02*
X014922Y026903D01*
X014922Y026745D02*
X013132Y026745D01*
X013132Y026586D02*
X014922Y026586D01*
X014922Y026428D02*
X013132Y026428D01*
X013132Y026269D02*
X014922Y026269D01*
X014922Y026111D02*
X013132Y026111D01*
X013132Y025952D02*
X014922Y025952D01*
X014922Y025794D02*
X013132Y025794D01*
X013132Y025635D02*
X014922Y025635D01*
X014922Y025477D02*
X013132Y025477D01*
X013132Y025318D02*
X014922Y025318D01*
X014922Y025160D02*
X013132Y025160D01*
X013132Y025001D02*
X014922Y025001D01*
X014922Y024843D02*
X013132Y024843D01*
X013132Y024684D02*
X014922Y024684D01*
X014922Y024526D02*
X013132Y024526D01*
X013132Y024367D02*
X014922Y024367D01*
X014922Y024209D02*
X013132Y024209D01*
X013132Y024050D02*
X014922Y024050D01*
X014922Y023892D02*
X013132Y023892D01*
X013132Y023733D02*
X014922Y023733D01*
X014922Y023575D02*
X013132Y023575D01*
X013132Y023416D02*
X014922Y023416D01*
X014922Y023258D02*
X013132Y023258D01*
X013132Y023099D02*
X014922Y023099D01*
X014922Y022941D02*
X013132Y022941D01*
X013132Y022782D02*
X014922Y022782D01*
X014922Y022624D02*
X013132Y022624D01*
X013132Y022465D02*
X014922Y022465D01*
X014922Y022307D02*
X013132Y022307D01*
X013132Y022148D02*
X014922Y022148D01*
X014922Y021990D02*
X013132Y021990D01*
X013132Y021831D02*
X014922Y021831D01*
X014922Y021673D02*
X013132Y021673D01*
X013132Y021514D02*
X014922Y021514D01*
X014922Y021356D02*
X013132Y021356D01*
X013132Y021197D02*
X014922Y021197D01*
X014922Y021039D02*
X013132Y021039D01*
X013132Y020880D02*
X014922Y020880D01*
X014922Y020722D02*
X013132Y020722D01*
X013132Y020563D02*
X014922Y020563D01*
X014922Y020405D02*
X013132Y020405D01*
X013132Y020246D02*
X014922Y020246D01*
X014922Y020088D02*
X013132Y020088D01*
X013132Y019929D02*
X014922Y019929D01*
X014922Y019771D02*
X013132Y019771D01*
X013132Y019612D02*
X014922Y019612D01*
X014933Y019454D02*
X013132Y019454D01*
X013132Y019295D02*
X015045Y019295D01*
X015203Y019137D02*
X013132Y019137D01*
X013132Y018978D02*
X015362Y018978D01*
X015520Y018820D02*
X013132Y018820D01*
X013132Y018661D02*
X015679Y018661D01*
X015837Y018503D02*
X013727Y018503D01*
X013695Y018516D02*
X013529Y018516D01*
X013375Y018452D01*
X013258Y018334D01*
X013194Y018181D01*
X013194Y018014D01*
X013258Y017861D01*
X013375Y017743D01*
X013529Y017679D01*
X013695Y017679D01*
X013849Y017743D01*
X013967Y017861D01*
X014030Y018014D01*
X014030Y018181D01*
X013967Y018334D01*
X013849Y018452D01*
X013695Y018516D01*
X013497Y018503D02*
X013132Y018503D01*
X013132Y018344D02*
X013267Y018344D01*
X013196Y018186D02*
X013132Y018186D01*
X013132Y018027D02*
X013194Y018027D01*
X013132Y017869D02*
X013254Y017869D01*
X013132Y017710D02*
X013455Y017710D01*
X013769Y017710D02*
X025830Y017710D01*
X025988Y017552D02*
X013132Y017552D01*
X013132Y017393D02*
X026147Y017393D01*
X026305Y017235D02*
X013132Y017235D01*
X013132Y017076D02*
X026464Y017076D01*
X026622Y016918D02*
X013132Y016918D01*
X013132Y016759D02*
X026162Y016759D01*
X026082Y016601D02*
X022980Y016601D01*
X022969Y016612D02*
X023087Y016494D01*
X023150Y016341D01*
X023150Y016174D01*
X023087Y016021D01*
X022969Y015903D01*
X022815Y015839D01*
X022649Y015839D01*
X022495Y015903D01*
X022378Y016021D01*
X022314Y016174D01*
X022314Y016341D01*
X022378Y016494D01*
X022495Y016612D01*
X022649Y016676D01*
X022815Y016676D01*
X022969Y016612D01*
X023108Y016442D02*
X026074Y016442D01*
X026128Y016284D02*
X023150Y016284D01*
X023130Y016125D02*
X026299Y016125D01*
X026685Y016125D02*
X027415Y016125D01*
X027562Y015967D02*
X023032Y015967D01*
X022432Y015967D02*
X013132Y015967D01*
X013132Y016125D02*
X022335Y016125D01*
X022314Y016284D02*
X013132Y016284D01*
X013132Y016442D02*
X022356Y016442D01*
X022484Y016601D02*
X013132Y016601D01*
X013132Y015808D02*
X027562Y015808D01*
X027562Y015650D02*
X013132Y015650D01*
X013132Y015491D02*
X027562Y015491D01*
X027562Y015333D02*
X013132Y015333D01*
X013132Y015174D02*
X027562Y015174D01*
X027562Y015016D02*
X013132Y015016D01*
X013132Y014857D02*
X027562Y014857D01*
X027562Y014699D02*
X013132Y014699D01*
X013132Y014540D02*
X025501Y014540D01*
X025359Y014382D02*
X014626Y014382D01*
X014649Y014372D02*
X014495Y014436D01*
X014329Y014436D01*
X014175Y014372D01*
X014058Y014254D01*
X013994Y014101D01*
X013994Y013934D01*
X014058Y013781D01*
X014175Y013663D01*
X014329Y013599D01*
X014495Y013599D01*
X014649Y013663D01*
X014767Y013781D01*
X014830Y013934D01*
X014830Y014101D01*
X014767Y014254D01*
X014649Y014372D01*
X014780Y014223D02*
X025295Y014223D01*
X025295Y014065D02*
X014830Y014065D01*
X014819Y013906D02*
X025345Y013906D01*
X024959Y013748D02*
X014733Y013748D01*
X014091Y013748D02*
X013132Y013748D01*
X013132Y013906D02*
X014006Y013906D01*
X013994Y014065D02*
X013132Y014065D01*
X013132Y014223D02*
X014045Y014223D01*
X014198Y014382D02*
X013132Y014382D01*
X013132Y013589D02*
X024841Y013589D01*
X024795Y013431D02*
X013132Y013431D01*
X013132Y013272D02*
X023735Y013272D01*
X023495Y013114D02*
X013132Y013114D01*
X013132Y012955D02*
X023375Y012955D01*
X023309Y012797D02*
X013132Y012797D01*
X013132Y012638D02*
X013896Y012638D01*
X013919Y012647D02*
X013599Y012515D01*
X013355Y012270D01*
X013222Y011951D01*
X013222Y011605D01*
X013355Y011285D01*
X013599Y011040D01*
X013919Y010908D01*
X014265Y010908D01*
X014585Y011040D01*
X014830Y011285D01*
X014962Y011605D01*
X014962Y011951D01*
X014830Y012270D01*
X014585Y012515D01*
X014265Y012647D01*
X013919Y012647D01*
X014288Y012638D02*
X023296Y012638D01*
X023301Y012480D02*
X014620Y012480D01*
X014779Y012321D02*
X023366Y012321D01*
X023474Y012163D02*
X014874Y012163D01*
X014940Y012004D02*
X023684Y012004D01*
X024294Y012004D02*
X024804Y012004D01*
X024795Y011846D02*
X014962Y011846D01*
X014962Y011687D02*
X024834Y011687D01*
X024942Y011529D02*
X014931Y011529D01*
X014865Y011370D02*
X052022Y011370D01*
X052022Y011212D02*
X014756Y011212D01*
X014598Y011053D02*
X052022Y011053D01*
X052022Y010895D02*
X013132Y010895D01*
X013132Y011053D02*
X013586Y011053D01*
X013428Y011212D02*
X013132Y011212D01*
X013132Y011370D02*
X013319Y011370D01*
X013254Y011529D02*
X013132Y011529D01*
X013132Y011687D02*
X013222Y011687D01*
X013222Y011846D02*
X013132Y011846D01*
X013132Y012004D02*
X013244Y012004D01*
X013310Y012163D02*
X013132Y012163D01*
X013132Y012321D02*
X013405Y012321D01*
X013564Y012480D02*
X013132Y012480D01*
X013970Y017869D02*
X025671Y017869D01*
X025513Y018027D02*
X014030Y018027D01*
X014028Y018186D02*
X025354Y018186D01*
X026829Y019771D02*
X026897Y019771D01*
X026835Y019832D02*
X027007Y019660D01*
X027231Y019568D01*
X027474Y019568D01*
X027698Y019660D01*
X027852Y019815D01*
X028007Y019660D01*
X028231Y019568D01*
X028474Y019568D01*
X028698Y019660D01*
X028869Y019832D01*
X028962Y020056D01*
X028962Y020299D01*
X028869Y020523D01*
X028698Y020695D01*
X028474Y020788D01*
X028231Y020788D01*
X028007Y020695D01*
X027852Y020540D01*
X027698Y020695D01*
X027474Y020788D01*
X027231Y020788D01*
X027007Y020695D01*
X026835Y020523D01*
X026742Y020299D01*
X026742Y020056D01*
X026835Y019832D01*
X026795Y019929D02*
X026671Y019929D01*
X026742Y020088D02*
X026512Y020088D01*
X026354Y020246D02*
X026742Y020246D01*
X026786Y020405D02*
X026195Y020405D01*
X025832Y020563D02*
X026875Y020563D01*
X027072Y020722D02*
X025870Y020722D01*
X025846Y020880D02*
X029482Y020880D01*
X029482Y020722D02*
X028633Y020722D01*
X028829Y020563D02*
X029482Y020563D01*
X029482Y020405D02*
X028918Y020405D01*
X028962Y020246D02*
X029482Y020246D01*
X029482Y020088D02*
X028962Y020088D01*
X028910Y019929D02*
X029482Y019929D01*
X029482Y019771D02*
X028808Y019771D01*
X028581Y019612D02*
X029482Y019612D01*
X029482Y019454D02*
X028789Y019454D01*
X028735Y019476D02*
X028569Y019476D01*
X028415Y019412D01*
X028298Y019294D01*
X028234Y019141D01*
X028234Y018974D01*
X028298Y018821D01*
X028415Y018703D01*
X028569Y018639D01*
X028735Y018639D01*
X028889Y018703D01*
X029007Y018821D01*
X029070Y018974D01*
X029070Y019141D01*
X029007Y019294D01*
X028889Y019412D01*
X028735Y019476D01*
X028516Y019454D02*
X027146Y019454D01*
X027123Y019612D02*
X026988Y019612D01*
X027305Y019295D02*
X028298Y019295D01*
X028234Y019137D02*
X027463Y019137D01*
X027622Y018978D02*
X028234Y018978D01*
X028299Y018820D02*
X027780Y018820D01*
X027939Y018661D02*
X028517Y018661D01*
X028788Y018661D02*
X029482Y018661D01*
X029482Y018503D02*
X028097Y018503D01*
X028256Y018344D02*
X029489Y018344D01*
X029594Y018186D02*
X028414Y018186D01*
X028573Y018027D02*
X029753Y018027D01*
X029911Y017869D02*
X028731Y017869D01*
X028890Y017710D02*
X030070Y017710D01*
X030228Y017552D02*
X029048Y017552D01*
X029207Y017393D02*
X030387Y017393D01*
X030545Y017235D02*
X029365Y017235D01*
X029524Y017076D02*
X030704Y017076D01*
X030862Y016918D02*
X029682Y016918D01*
X029841Y016759D02*
X031021Y016759D01*
X031179Y016601D02*
X029999Y016601D01*
X030158Y016442D02*
X030725Y016442D01*
X030597Y016284D02*
X030316Y016284D01*
X030475Y016125D02*
X030554Y016125D01*
X030950Y015650D02*
X031562Y015650D01*
X031562Y015808D02*
X031274Y015808D01*
X031370Y015967D02*
X031562Y015967D01*
X031562Y016125D02*
X031390Y016125D01*
X031348Y016284D02*
X031496Y016284D01*
X031338Y016442D02*
X031219Y016442D01*
X031109Y015491D02*
X031562Y015491D01*
X031562Y015333D02*
X031267Y015333D01*
X031426Y015174D02*
X031562Y015174D01*
X031557Y015016D02*
X031562Y015016D01*
X033102Y015016D02*
X035002Y015016D01*
X035002Y015174D02*
X033102Y015174D01*
X033102Y015333D02*
X035026Y015333D01*
X035046Y015382D02*
X035002Y015275D01*
X035002Y014579D01*
X034891Y014625D01*
X034693Y014625D01*
X034510Y014549D01*
X034370Y014409D01*
X034295Y014227D01*
X034295Y014029D01*
X034358Y013875D01*
X034226Y013875D01*
X034290Y014029D01*
X034290Y014227D01*
X034214Y014409D01*
X034074Y014549D01*
X033891Y014625D01*
X033693Y014625D01*
X033510Y014549D01*
X033370Y014409D01*
X033295Y014227D01*
X033295Y014029D01*
X033358Y013875D01*
X033226Y013875D01*
X033290Y014029D01*
X033290Y014227D01*
X033214Y014409D01*
X033102Y014521D01*
X033102Y016075D01*
X033058Y016182D01*
X032976Y016263D01*
X030542Y018698D01*
X030542Y024924D01*
X030649Y024879D01*
X030815Y024879D01*
X030969Y024943D01*
X031002Y024976D01*
X031002Y024714D01*
X030972Y024641D01*
X030972Y020194D01*
X031021Y020076D01*
X032621Y018476D01*
X032711Y018386D01*
X032829Y018338D01*
X033816Y018338D01*
X033933Y018386D01*
X033939Y018392D01*
X033973Y018406D01*
X034415Y018848D01*
X034932Y018848D01*
X035242Y018537D01*
X035242Y015578D01*
X035128Y015463D01*
X035046Y015382D01*
X035156Y015491D02*
X033102Y015491D01*
X033102Y015650D02*
X035242Y015650D01*
X035242Y015808D02*
X033102Y015808D01*
X033102Y015967D02*
X035242Y015967D01*
X035242Y016125D02*
X033082Y016125D01*
X032956Y016284D02*
X035242Y016284D01*
X035242Y016442D02*
X032798Y016442D01*
X032639Y016601D02*
X035242Y016601D01*
X035242Y016759D02*
X032481Y016759D01*
X032322Y016918D02*
X035242Y016918D01*
X035242Y017076D02*
X032164Y017076D01*
X032005Y017235D02*
X035242Y017235D01*
X035242Y017393D02*
X031847Y017393D01*
X031688Y017552D02*
X035242Y017552D01*
X035242Y017710D02*
X031530Y017710D01*
X031371Y017869D02*
X035242Y017869D01*
X035242Y018027D02*
X031213Y018027D01*
X031054Y018186D02*
X035242Y018186D01*
X035242Y018344D02*
X033832Y018344D01*
X034070Y018503D02*
X035242Y018503D01*
X035119Y018661D02*
X034228Y018661D01*
X034387Y018820D02*
X034960Y018820D01*
X035466Y019454D02*
X040062Y019454D01*
X040064Y019458D02*
X040041Y019402D01*
X040041Y018873D01*
X040077Y018785D01*
X040145Y018718D01*
X040233Y018681D01*
X040722Y018681D01*
X040810Y018718D01*
X040859Y018766D01*
X040881Y018753D01*
X040926Y018741D01*
X041128Y018741D01*
X041128Y019119D01*
X041165Y019119D01*
X041165Y018741D01*
X041367Y018741D01*
X041402Y018750D01*
X041402Y016618D01*
X041128Y016343D01*
X041046Y016262D01*
X041002Y016155D01*
X041002Y014579D01*
X040891Y014625D01*
X040693Y014625D01*
X040510Y014549D01*
X040370Y014409D01*
X040295Y014227D01*
X040295Y014029D01*
X040358Y013875D01*
X040226Y013875D01*
X040290Y014029D01*
X040290Y014227D01*
X040214Y014409D01*
X040074Y014549D01*
X039891Y014625D01*
X039693Y014625D01*
X039510Y014549D01*
X039370Y014409D01*
X039295Y014227D01*
X039295Y014029D01*
X039358Y013875D01*
X039226Y013875D01*
X039290Y014029D01*
X039290Y014227D01*
X039214Y014409D01*
X039074Y014549D01*
X038891Y014625D01*
X038693Y014625D01*
X038510Y014549D01*
X038370Y014409D01*
X038295Y014227D01*
X038295Y014029D01*
X038358Y013875D01*
X038226Y013875D01*
X038290Y014029D01*
X038290Y014227D01*
X038214Y014409D01*
X038074Y014549D01*
X037891Y014625D01*
X037693Y014625D01*
X037510Y014549D01*
X037370Y014409D01*
X037295Y014227D01*
X037295Y014029D01*
X037358Y013875D01*
X037226Y013875D01*
X037290Y014029D01*
X037290Y014227D01*
X037214Y014409D01*
X037074Y014549D01*
X036891Y014625D01*
X036693Y014625D01*
X036510Y014549D01*
X036370Y014409D01*
X036295Y014227D01*
X036295Y014029D01*
X036358Y013875D01*
X036226Y013875D01*
X036290Y014029D01*
X036290Y014227D01*
X036214Y014409D01*
X036082Y014541D01*
X036082Y018775D01*
X036038Y018882D01*
X035296Y019623D01*
X035222Y019654D01*
X037313Y021746D01*
X037403Y021836D01*
X037440Y021923D01*
X037449Y021919D01*
X037615Y021919D01*
X037769Y021983D01*
X037802Y022016D01*
X037802Y021720D01*
X037846Y021613D01*
X037928Y021532D01*
X039846Y019613D01*
X039928Y019532D01*
X040035Y019488D01*
X040051Y019488D01*
X040064Y019458D01*
X040041Y019295D02*
X035625Y019295D01*
X035783Y019137D02*
X040041Y019137D01*
X040041Y018978D02*
X035942Y018978D01*
X036064Y018820D02*
X040063Y018820D01*
X040812Y017938D02*
X041147Y018192D01*
X041147Y019138D01*
X041128Y018978D02*
X041165Y018978D01*
X041165Y018820D02*
X041128Y018820D01*
X041402Y018661D02*
X036082Y018661D01*
X036082Y018503D02*
X041402Y018503D01*
X041402Y018344D02*
X036082Y018344D01*
X036082Y018186D02*
X041402Y018186D01*
X041402Y018027D02*
X036082Y018027D01*
X036082Y017869D02*
X041402Y017869D01*
X041402Y017710D02*
X036082Y017710D01*
X036082Y017552D02*
X041402Y017552D01*
X041402Y017393D02*
X036082Y017393D01*
X036082Y017235D02*
X041402Y017235D01*
X041402Y017076D02*
X036082Y017076D01*
X036082Y016918D02*
X041402Y016918D01*
X041402Y016759D02*
X036082Y016759D01*
X036082Y016601D02*
X041385Y016601D01*
X041227Y016442D02*
X036082Y016442D01*
X036082Y016284D02*
X041068Y016284D01*
X041128Y016343D02*
X041128Y016343D01*
X041002Y016125D02*
X036082Y016125D01*
X036082Y015967D02*
X041002Y015967D01*
X041002Y015808D02*
X036082Y015808D01*
X036082Y015650D02*
X041002Y015650D01*
X041002Y015491D02*
X036082Y015491D01*
X036082Y015333D02*
X041002Y015333D01*
X041002Y015174D02*
X036082Y015174D01*
X036082Y015016D02*
X041002Y015016D01*
X041002Y014857D02*
X036082Y014857D01*
X036082Y014699D02*
X041002Y014699D01*
X040501Y014540D02*
X040083Y014540D01*
X040225Y014382D02*
X040359Y014382D01*
X040295Y014223D02*
X040290Y014223D01*
X040290Y014065D02*
X040295Y014065D01*
X040345Y013906D02*
X040239Y013906D01*
X039841Y013589D02*
X039743Y013589D01*
X039790Y013431D02*
X039795Y013431D01*
X039787Y013272D02*
X039797Y013272D01*
X039863Y013114D02*
X039721Y013114D01*
X039792Y012955D02*
X039792Y012955D01*
X039792Y012797D02*
X039792Y012797D01*
X039792Y012638D02*
X039792Y012638D01*
X039792Y012480D02*
X039792Y012480D01*
X039792Y012321D02*
X039792Y012321D01*
X039626Y012166D02*
X039577Y012215D01*
X039521Y012256D01*
X039460Y012287D01*
X039395Y012308D01*
X039327Y012319D01*
X039292Y012319D01*
X039258Y012319D01*
X039190Y012308D01*
X039124Y012287D01*
X039063Y012256D01*
X039007Y012215D01*
X038958Y012166D01*
X038918Y012111D01*
X038887Y012049D01*
X038865Y011984D01*
X038855Y011916D01*
X038855Y011882D01*
X039292Y011882D01*
X039292Y012319D01*
X039292Y011882D01*
X039292Y011882D01*
X039292Y011881D01*
X039292Y011881D01*
X039292Y011444D01*
X039258Y011444D01*
X039190Y011455D01*
X039124Y011476D01*
X039063Y011507D01*
X039007Y011548D01*
X038958Y011596D01*
X038918Y011652D01*
X038887Y011714D01*
X038865Y011779D01*
X038855Y011847D01*
X038855Y011881D01*
X039292Y011881D01*
X039292Y011444D01*
X039327Y011444D01*
X039395Y011455D01*
X039460Y011476D01*
X039521Y011507D01*
X039577Y011548D01*
X039626Y011596D01*
X039666Y011652D01*
X039698Y011714D01*
X039719Y011779D01*
X039730Y011847D01*
X039730Y011881D01*
X039292Y011881D01*
X039292Y011882D01*
X039730Y011882D01*
X039730Y011916D01*
X039719Y011984D01*
X039698Y012049D01*
X039666Y012111D01*
X039626Y012166D01*
X039629Y012163D02*
X039956Y012163D01*
X039958Y012166D02*
X039918Y012111D01*
X039887Y012049D01*
X039865Y011984D01*
X039855Y011916D01*
X039855Y011882D01*
X040292Y011882D01*
X040292Y012319D01*
X040258Y012319D01*
X040190Y012308D01*
X040124Y012287D01*
X040063Y012256D01*
X040007Y012215D01*
X039958Y012166D01*
X039872Y012004D02*
X039712Y012004D01*
X039729Y011846D02*
X039855Y011846D01*
X039855Y011847D02*
X039865Y011779D01*
X039887Y011714D01*
X039918Y011652D01*
X039958Y011596D01*
X040007Y011548D01*
X040063Y011507D01*
X040124Y011476D01*
X040190Y011455D01*
X040258Y011444D01*
X040292Y011444D01*
X040292Y011881D01*
X040292Y011881D01*
X039855Y011881D01*
X039855Y011847D01*
X039900Y011687D02*
X039684Y011687D01*
X039551Y011529D02*
X040034Y011529D01*
X040292Y011529D02*
X040292Y011529D01*
X040292Y011444D02*
X040292Y011881D01*
X040292Y011882D01*
X040292Y011882D01*
X040292Y012319D01*
X040327Y012319D01*
X040395Y012308D01*
X040460Y012287D01*
X040521Y012256D01*
X040577Y012215D01*
X040626Y012166D01*
X040666Y012111D01*
X040698Y012049D01*
X040719Y011984D01*
X040730Y011916D01*
X040730Y011882D01*
X040292Y011882D01*
X040292Y011881D01*
X040730Y011881D01*
X040730Y011847D01*
X040719Y011779D01*
X040698Y011714D01*
X040666Y011652D01*
X040626Y011596D01*
X040577Y011548D01*
X040521Y011507D01*
X040460Y011476D01*
X040395Y011455D01*
X040327Y011444D01*
X040292Y011444D01*
X040292Y011687D02*
X040292Y011687D01*
X040292Y011846D02*
X040292Y011846D01*
X040292Y012004D02*
X040292Y012004D01*
X040292Y012163D02*
X040292Y012163D01*
X040100Y012321D02*
X040484Y012321D01*
X040382Y012480D02*
X040203Y012480D01*
X040230Y012638D02*
X040355Y012638D01*
X040386Y012797D02*
X040199Y012797D01*
X040792Y012797D02*
X040792Y012797D01*
X040792Y012955D02*
X040792Y012955D01*
X040721Y013114D02*
X040863Y013114D01*
X040797Y013272D02*
X040787Y013272D01*
X040790Y013431D02*
X040795Y013431D01*
X040841Y013589D02*
X040743Y013589D01*
X041199Y012797D02*
X041386Y012797D01*
X041355Y012638D02*
X041230Y012638D01*
X041203Y012480D02*
X041382Y012480D01*
X041327Y012319D02*
X041292Y012319D01*
X041258Y012319D01*
X041190Y012308D01*
X041124Y012287D01*
X041063Y012256D01*
X041007Y012215D01*
X040958Y012166D01*
X040918Y012111D01*
X040887Y012049D01*
X040865Y011984D01*
X040855Y011916D01*
X040855Y011882D01*
X041292Y011882D01*
X041292Y012319D01*
X041292Y011882D01*
X041292Y011882D01*
X041292Y011881D01*
X041292Y011881D01*
X041292Y011444D01*
X041258Y011444D01*
X041190Y011455D01*
X041124Y011476D01*
X041063Y011507D01*
X041007Y011548D01*
X040958Y011596D01*
X040918Y011652D01*
X040887Y011714D01*
X040865Y011779D01*
X040855Y011847D01*
X040855Y011881D01*
X041292Y011881D01*
X041292Y011444D01*
X041327Y011444D01*
X041395Y011455D01*
X041460Y011476D01*
X041521Y011507D01*
X041577Y011548D01*
X041626Y011596D01*
X041666Y011652D01*
X041698Y011714D01*
X041719Y011779D01*
X041730Y011847D01*
X041730Y011881D01*
X041292Y011881D01*
X041292Y011882D01*
X041730Y011882D01*
X041730Y011916D01*
X041719Y011984D01*
X041698Y012049D01*
X041666Y012111D01*
X041626Y012166D01*
X041577Y012215D01*
X041521Y012256D01*
X041460Y012287D01*
X041395Y012308D01*
X041327Y012319D01*
X041484Y012321D02*
X041100Y012321D01*
X040956Y012163D02*
X040629Y012163D01*
X040712Y012004D02*
X040872Y012004D01*
X040855Y011846D02*
X040729Y011846D01*
X040684Y011687D02*
X040900Y011687D01*
X041034Y011529D02*
X040551Y011529D01*
X041292Y011529D02*
X041292Y011529D01*
X041292Y011687D02*
X041292Y011687D01*
X041292Y011846D02*
X041292Y011846D01*
X041292Y012004D02*
X041292Y012004D01*
X041292Y012163D02*
X041292Y012163D01*
X041629Y012163D02*
X041956Y012163D01*
X041958Y012166D02*
X041918Y012111D01*
X041887Y012049D01*
X041865Y011984D01*
X041855Y011916D01*
X041855Y011882D01*
X042292Y011882D01*
X042292Y012319D01*
X042258Y012319D01*
X042190Y012308D01*
X042124Y012287D01*
X042063Y012256D01*
X042007Y012215D01*
X041958Y012166D01*
X041872Y012004D02*
X041712Y012004D01*
X041729Y011846D02*
X041855Y011846D01*
X041855Y011847D02*
X041865Y011779D01*
X041887Y011714D01*
X041918Y011652D01*
X041958Y011596D01*
X042007Y011548D01*
X042063Y011507D01*
X042124Y011476D01*
X042190Y011455D01*
X042258Y011444D01*
X042292Y011444D01*
X042292Y011881D01*
X042292Y011881D01*
X041855Y011881D01*
X041855Y011847D01*
X041900Y011687D02*
X041684Y011687D01*
X041551Y011529D02*
X042034Y011529D01*
X042292Y011529D02*
X042292Y011529D01*
X042292Y011444D02*
X042292Y011881D01*
X042292Y011882D01*
X042292Y011882D01*
X042292Y012319D01*
X042327Y012319D01*
X042395Y012308D01*
X042460Y012287D01*
X042521Y012256D01*
X042577Y012215D01*
X042626Y012166D01*
X042666Y012111D01*
X042698Y012049D01*
X042719Y011984D01*
X042730Y011916D01*
X042730Y011882D01*
X042292Y011882D01*
X042292Y011881D01*
X042730Y011881D01*
X042730Y011847D01*
X042719Y011779D01*
X042698Y011714D01*
X042666Y011652D01*
X042626Y011596D01*
X042577Y011548D01*
X042521Y011507D01*
X042460Y011476D01*
X042395Y011455D01*
X042327Y011444D01*
X042292Y011444D01*
X042292Y011687D02*
X042292Y011687D01*
X042292Y011846D02*
X042292Y011846D01*
X042292Y012004D02*
X042292Y012004D01*
X042292Y012163D02*
X042292Y012163D01*
X042100Y012321D02*
X042484Y012321D01*
X042382Y012480D02*
X042203Y012480D01*
X042230Y012638D02*
X042355Y012638D01*
X042386Y012797D02*
X042199Y012797D01*
X041792Y012797D02*
X041792Y012797D01*
X041792Y012955D02*
X041792Y012955D01*
X041721Y013114D02*
X041863Y013114D01*
X041797Y013272D02*
X041787Y013272D01*
X041790Y013431D02*
X041795Y013431D01*
X041841Y013589D02*
X041743Y013589D01*
X041792Y012638D02*
X041792Y012638D01*
X041792Y012480D02*
X041792Y012480D01*
X041792Y012321D02*
X041792Y012321D01*
X042629Y012163D02*
X042956Y012163D01*
X042958Y012166D02*
X042918Y012111D01*
X042887Y012049D01*
X042865Y011984D01*
X042855Y011916D01*
X042855Y011882D01*
X043292Y011882D01*
X043292Y012319D01*
X043258Y012319D01*
X043190Y012308D01*
X043124Y012287D01*
X043063Y012256D01*
X043007Y012215D01*
X042958Y012166D01*
X042872Y012004D02*
X042712Y012004D01*
X042729Y011846D02*
X042855Y011846D01*
X042855Y011847D02*
X042865Y011779D01*
X042887Y011714D01*
X042918Y011652D01*
X042958Y011596D01*
X043007Y011548D01*
X043063Y011507D01*
X043124Y011476D01*
X043190Y011455D01*
X043258Y011444D01*
X043292Y011444D01*
X043292Y011881D01*
X043292Y011881D01*
X042855Y011881D01*
X042855Y011847D01*
X042900Y011687D02*
X042684Y011687D01*
X042551Y011529D02*
X043034Y011529D01*
X043292Y011529D02*
X043292Y011529D01*
X043292Y011444D02*
X043292Y011881D01*
X043292Y011882D01*
X043292Y011882D01*
X043292Y012319D01*
X043327Y012319D01*
X043395Y012308D01*
X043460Y012287D01*
X043521Y012256D01*
X043577Y012215D01*
X043626Y012166D01*
X043666Y012111D01*
X043698Y012049D01*
X043719Y011984D01*
X043730Y011916D01*
X043730Y011882D01*
X043292Y011882D01*
X043292Y011881D01*
X043730Y011881D01*
X043730Y011847D01*
X043719Y011779D01*
X043698Y011714D01*
X043666Y011652D01*
X043626Y011596D01*
X043577Y011548D01*
X043521Y011507D01*
X043460Y011476D01*
X043395Y011455D01*
X043327Y011444D01*
X043292Y011444D01*
X043292Y011687D02*
X043292Y011687D01*
X043292Y011846D02*
X043292Y011846D01*
X043292Y012004D02*
X043292Y012004D01*
X043292Y012163D02*
X043292Y012163D01*
X043100Y012321D02*
X043484Y012321D01*
X043382Y012480D02*
X043203Y012480D01*
X043230Y012638D02*
X043355Y012638D01*
X043386Y012797D02*
X043199Y012797D01*
X042792Y012797D02*
X042792Y012797D01*
X042792Y012955D02*
X042792Y012955D01*
X042721Y013114D02*
X042863Y013114D01*
X042797Y013272D02*
X042787Y013272D01*
X042790Y013431D02*
X042795Y013431D01*
X042841Y013589D02*
X042743Y013589D01*
X042792Y012638D02*
X042792Y012638D01*
X042792Y012480D02*
X042792Y012480D01*
X042792Y012321D02*
X042792Y012321D01*
X043551Y011529D02*
X044034Y011529D01*
X044007Y011548D02*
X044063Y011507D01*
X044124Y011476D01*
X044190Y011455D01*
X044258Y011444D01*
X044292Y011444D01*
X044292Y011881D01*
X044292Y011881D01*
X043855Y011881D01*
X043855Y011847D01*
X043865Y011779D01*
X043887Y011714D01*
X043918Y011652D01*
X043958Y011596D01*
X044007Y011548D01*
X043900Y011687D02*
X043684Y011687D01*
X043729Y011846D02*
X043855Y011846D01*
X043855Y011882D02*
X044292Y011882D01*
X044292Y012319D01*
X044258Y012319D01*
X044190Y012308D01*
X044124Y012287D01*
X044063Y012256D01*
X044007Y012215D01*
X043958Y012166D01*
X043918Y012111D01*
X043887Y012049D01*
X043865Y011984D01*
X043855Y011916D01*
X043855Y011882D01*
X043872Y012004D02*
X043712Y012004D01*
X043629Y012163D02*
X043956Y012163D01*
X044100Y012321D02*
X044484Y012321D01*
X044460Y012287D02*
X044395Y012308D01*
X044327Y012319D01*
X044292Y012319D01*
X044292Y011882D01*
X044292Y011882D01*
X044292Y011881D01*
X044292Y011444D01*
X044327Y011444D01*
X044395Y011455D01*
X044460Y011476D01*
X044521Y011507D01*
X044577Y011548D01*
X044626Y011596D01*
X044666Y011652D01*
X044698Y011714D01*
X044719Y011779D01*
X044730Y011847D01*
X044730Y011881D01*
X044292Y011881D01*
X044292Y011882D01*
X044730Y011882D01*
X044730Y011916D01*
X044719Y011984D01*
X044698Y012049D01*
X044666Y012111D01*
X044626Y012166D01*
X044577Y012215D01*
X044521Y012256D01*
X044460Y012287D01*
X044382Y012480D02*
X044203Y012480D01*
X044230Y012638D02*
X044355Y012638D01*
X044386Y012797D02*
X044199Y012797D01*
X043792Y012797D02*
X043792Y012797D01*
X043792Y012955D02*
X043792Y012955D01*
X043721Y013114D02*
X043863Y013114D01*
X043797Y013272D02*
X043787Y013272D01*
X043790Y013431D02*
X043795Y013431D01*
X043841Y013589D02*
X043743Y013589D01*
X043792Y012638D02*
X043792Y012638D01*
X043792Y012480D02*
X043792Y012480D01*
X043792Y012321D02*
X043792Y012321D01*
X044292Y012163D02*
X044292Y012163D01*
X044292Y012004D02*
X044292Y012004D01*
X044292Y011846D02*
X044292Y011846D01*
X044292Y011687D02*
X044292Y011687D01*
X044292Y011529D02*
X044292Y011529D01*
X044551Y011529D02*
X045034Y011529D01*
X045007Y011548D02*
X045063Y011507D01*
X045124Y011476D01*
X045190Y011455D01*
X045258Y011444D01*
X045292Y011444D01*
X045292Y011881D01*
X045292Y011881D01*
X044855Y011881D01*
X044855Y011847D01*
X044865Y011779D01*
X044887Y011714D01*
X044918Y011652D01*
X044958Y011596D01*
X045007Y011548D01*
X044900Y011687D02*
X044684Y011687D01*
X044729Y011846D02*
X044855Y011846D01*
X044855Y011882D02*
X045292Y011882D01*
X045292Y012319D01*
X045258Y012319D01*
X045190Y012308D01*
X045124Y012287D01*
X045063Y012256D01*
X045007Y012215D01*
X044958Y012166D01*
X044918Y012111D01*
X044887Y012049D01*
X044865Y011984D01*
X044855Y011916D01*
X044855Y011882D01*
X044872Y012004D02*
X044712Y012004D01*
X044629Y012163D02*
X044956Y012163D01*
X045100Y012321D02*
X045484Y012321D01*
X045460Y012287D02*
X045395Y012308D01*
X045327Y012319D01*
X045292Y012319D01*
X045292Y011882D01*
X045292Y011882D01*
X045292Y011881D01*
X045292Y011444D01*
X045327Y011444D01*
X045395Y011455D01*
X045460Y011476D01*
X045521Y011507D01*
X045577Y011548D01*
X045626Y011596D01*
X045666Y011652D01*
X045698Y011714D01*
X045719Y011779D01*
X045730Y011847D01*
X045730Y011881D01*
X045292Y011881D01*
X045292Y011882D01*
X045730Y011882D01*
X045730Y011916D01*
X045719Y011984D01*
X045698Y012049D01*
X045666Y012111D01*
X045626Y012166D01*
X045577Y012215D01*
X045521Y012256D01*
X045460Y012287D01*
X045382Y012480D02*
X045203Y012480D01*
X045230Y012638D02*
X045355Y012638D01*
X045386Y012797D02*
X045199Y012797D01*
X044792Y012797D02*
X044792Y012797D01*
X044792Y012955D02*
X044792Y012955D01*
X044721Y013114D02*
X044863Y013114D01*
X044797Y013272D02*
X044787Y013272D01*
X044790Y013431D02*
X044795Y013431D01*
X044841Y013589D02*
X044743Y013589D01*
X044792Y012638D02*
X044792Y012638D01*
X044792Y012480D02*
X044792Y012480D01*
X044792Y012321D02*
X044792Y012321D01*
X045292Y012163D02*
X045292Y012163D01*
X045292Y012004D02*
X045292Y012004D01*
X045292Y011846D02*
X045292Y011846D01*
X045292Y011687D02*
X045292Y011687D01*
X045292Y011529D02*
X045292Y011529D01*
X045551Y011529D02*
X046034Y011529D01*
X046007Y011548D02*
X046063Y011507D01*
X046124Y011476D01*
X046190Y011455D01*
X046258Y011444D01*
X046292Y011444D01*
X046292Y011881D01*
X046292Y011881D01*
X045855Y011881D01*
X045855Y011847D01*
X045865Y011779D01*
X045887Y011714D01*
X045918Y011652D01*
X045958Y011596D01*
X046007Y011548D01*
X045900Y011687D02*
X045684Y011687D01*
X045729Y011846D02*
X045855Y011846D01*
X045855Y011882D02*
X046292Y011882D01*
X046292Y012319D01*
X046258Y012319D01*
X046190Y012308D01*
X046124Y012287D01*
X046063Y012256D01*
X046007Y012215D01*
X045958Y012166D01*
X045918Y012111D01*
X045887Y012049D01*
X045865Y011984D01*
X045855Y011916D01*
X045855Y011882D01*
X045872Y012004D02*
X045712Y012004D01*
X045629Y012163D02*
X045956Y012163D01*
X046100Y012321D02*
X046484Y012321D01*
X046460Y012287D02*
X046395Y012308D01*
X046327Y012319D01*
X046292Y012319D01*
X046292Y011882D01*
X046292Y011882D01*
X046292Y011881D01*
X046292Y011444D01*
X046327Y011444D01*
X046395Y011455D01*
X046460Y011476D01*
X046521Y011507D01*
X046577Y011548D01*
X046626Y011596D01*
X046666Y011652D01*
X046698Y011714D01*
X046719Y011779D01*
X046730Y011847D01*
X046730Y011881D01*
X046292Y011881D01*
X046292Y011882D01*
X046730Y011882D01*
X046730Y011916D01*
X046719Y011984D01*
X046698Y012049D01*
X046666Y012111D01*
X046626Y012166D01*
X046577Y012215D01*
X046521Y012256D01*
X046460Y012287D01*
X046382Y012480D02*
X046203Y012480D01*
X046230Y012638D02*
X046355Y012638D01*
X046386Y012797D02*
X046199Y012797D01*
X045792Y012797D02*
X045792Y012797D01*
X045792Y012955D02*
X045792Y012955D01*
X045721Y013114D02*
X045863Y013114D01*
X045797Y013272D02*
X045787Y013272D01*
X045790Y013431D02*
X045795Y013431D01*
X045841Y013589D02*
X045743Y013589D01*
X046239Y013906D02*
X046345Y013906D01*
X046295Y014065D02*
X046290Y014065D01*
X046290Y014223D02*
X046295Y014223D01*
X046359Y014382D02*
X046225Y014382D01*
X046083Y014540D02*
X046501Y014540D01*
X047083Y014540D02*
X047501Y014540D01*
X047359Y014382D02*
X047225Y014382D01*
X047290Y014223D02*
X047295Y014223D01*
X047290Y014065D02*
X047295Y014065D01*
X047345Y013906D02*
X047239Y013906D01*
X046841Y013589D02*
X046743Y013589D01*
X046790Y013431D02*
X046795Y013431D01*
X046787Y013272D02*
X046797Y013272D01*
X046863Y013114D02*
X046721Y013114D01*
X046792Y012955D02*
X046792Y012955D01*
X046792Y012797D02*
X046792Y012797D01*
X046792Y012638D02*
X046792Y012638D01*
X046792Y012480D02*
X046792Y012480D01*
X046792Y012321D02*
X046792Y012321D01*
X046629Y012163D02*
X046956Y012163D01*
X046872Y012004D02*
X046712Y012004D01*
X046729Y011846D02*
X046855Y011846D01*
X046900Y011687D02*
X046684Y011687D01*
X046551Y011529D02*
X047034Y011529D01*
X047292Y011529D02*
X047292Y011529D01*
X047292Y011687D02*
X047292Y011687D01*
X047292Y011846D02*
X047292Y011846D01*
X047292Y012004D02*
X047292Y012004D01*
X047292Y012163D02*
X047292Y012163D01*
X047399Y012321D02*
X047100Y012321D01*
X047203Y012480D02*
X047317Y012480D01*
X047295Y012638D02*
X047230Y012638D01*
X047199Y012797D02*
X047322Y012797D01*
X048185Y012321D02*
X048399Y012321D01*
X048317Y012480D02*
X048268Y012480D01*
X048290Y012638D02*
X048295Y012638D01*
X048322Y012797D02*
X048262Y012797D01*
X048292Y012163D02*
X048292Y012163D01*
X048292Y012004D02*
X048292Y012004D01*
X048292Y011846D02*
X048292Y011846D01*
X048292Y011687D02*
X048292Y011687D01*
X048292Y011529D02*
X048292Y011529D01*
X048034Y011529D02*
X047551Y011529D01*
X047684Y011687D02*
X047900Y011687D01*
X047855Y011846D02*
X047729Y011846D01*
X047712Y012004D02*
X047872Y012004D01*
X048551Y011529D02*
X048942Y011529D01*
X048834Y011687D02*
X048684Y011687D01*
X048729Y011846D02*
X048795Y011846D01*
X048804Y012004D02*
X048712Y012004D01*
X049643Y011529D02*
X052022Y011529D01*
X052022Y011687D02*
X049750Y011687D01*
X049790Y011846D02*
X052022Y011846D01*
X052022Y012004D02*
X051400Y012004D01*
X051488Y012040D02*
X051233Y011935D01*
X050958Y011935D01*
X050703Y012040D01*
X050508Y012235D01*
X050403Y012490D01*
X050403Y012765D01*
X050508Y013020D01*
X050703Y013215D01*
X050958Y013320D01*
X051233Y013320D01*
X051488Y013215D01*
X051683Y013020D01*
X051788Y012765D01*
X051788Y012490D01*
X051683Y012235D01*
X051488Y012040D01*
X051610Y012163D02*
X052022Y012163D01*
X052022Y012321D02*
X051718Y012321D01*
X051784Y012480D02*
X052022Y012480D01*
X052022Y012638D02*
X051788Y012638D01*
X051775Y012797D02*
X052022Y012797D01*
X052022Y012955D02*
X051710Y012955D01*
X051589Y013114D02*
X052022Y013114D01*
X052022Y013272D02*
X051350Y013272D01*
X050841Y013272D02*
X049787Y013272D01*
X049790Y013431D02*
X052022Y013431D01*
X052022Y013589D02*
X049743Y013589D01*
X050116Y013748D02*
X052022Y013748D01*
X052022Y013906D02*
X050239Y013906D01*
X050290Y014065D02*
X052022Y014065D01*
X052022Y014223D02*
X050290Y014223D01*
X050225Y014382D02*
X052022Y014382D01*
X052022Y014540D02*
X050083Y014540D01*
X049501Y014540D02*
X049083Y014540D01*
X049225Y014382D02*
X049359Y014382D01*
X049295Y014223D02*
X049290Y014223D01*
X049290Y014065D02*
X049295Y014065D01*
X049345Y013906D02*
X049239Y013906D01*
X048345Y013906D02*
X048239Y013906D01*
X048290Y014065D02*
X048295Y014065D01*
X048290Y014223D02*
X048295Y014223D01*
X048359Y014382D02*
X048225Y014382D01*
X048083Y014540D02*
X048501Y014540D01*
X049928Y013114D02*
X050602Y013114D01*
X050481Y012955D02*
X050172Y012955D01*
X050262Y012797D02*
X050416Y012797D01*
X050403Y012638D02*
X050290Y012638D01*
X050268Y012480D02*
X050407Y012480D01*
X050472Y012321D02*
X050185Y012321D01*
X049960Y012163D02*
X050581Y012163D01*
X050790Y012004D02*
X049780Y012004D01*
X046292Y012004D02*
X046292Y012004D01*
X046292Y011846D02*
X046292Y011846D01*
X046292Y011687D02*
X046292Y011687D01*
X046292Y011529D02*
X046292Y011529D01*
X046292Y012163D02*
X046292Y012163D01*
X045792Y012321D02*
X045792Y012321D01*
X045792Y012480D02*
X045792Y012480D01*
X045792Y012638D02*
X045792Y012638D01*
X045631Y014699D02*
X052022Y014699D01*
X052022Y014857D02*
X045502Y014857D01*
X045502Y015016D02*
X052022Y015016D01*
X052022Y015174D02*
X045502Y015174D01*
X045502Y015333D02*
X052022Y015333D01*
X052022Y015491D02*
X045502Y015491D01*
X045502Y015650D02*
X052022Y015650D01*
X052022Y015808D02*
X045502Y015808D01*
X045502Y015967D02*
X052022Y015967D01*
X052022Y016125D02*
X051307Y016125D01*
X051265Y016108D02*
X051585Y016240D01*
X051830Y016485D01*
X051962Y016805D01*
X051962Y017151D01*
X051830Y017470D01*
X051585Y017715D01*
X051265Y017847D01*
X050919Y017847D01*
X050599Y017715D01*
X050355Y017470D01*
X050222Y017151D01*
X050222Y016805D01*
X050355Y016485D01*
X050599Y016240D01*
X050919Y016108D01*
X051265Y016108D01*
X050877Y016125D02*
X045502Y016125D01*
X045502Y016284D02*
X045635Y016284D01*
X045578Y016341D02*
X045695Y016223D01*
X045849Y016159D01*
X046015Y016159D01*
X046169Y016223D01*
X046287Y016341D01*
X046350Y016494D01*
X046350Y016661D01*
X046287Y016814D01*
X046169Y016932D01*
X046015Y016996D01*
X045849Y016996D01*
X045695Y016932D01*
X045578Y016814D01*
X045514Y016661D01*
X045514Y016494D01*
X045578Y016341D01*
X045536Y016442D02*
X045502Y016442D01*
X045502Y016601D02*
X045514Y016601D01*
X045502Y016759D02*
X045555Y016759D01*
X045502Y016918D02*
X045681Y016918D01*
X045502Y017076D02*
X050222Y017076D01*
X050222Y016918D02*
X046183Y016918D01*
X046310Y016759D02*
X050241Y016759D01*
X050307Y016601D02*
X046350Y016601D01*
X046329Y016442D02*
X050397Y016442D01*
X050556Y016284D02*
X046229Y016284D01*
X044922Y016814D02*
X044765Y016814D01*
X044765Y016436D01*
X044728Y016436D01*
X044728Y016814D01*
X044526Y016814D01*
X044481Y016802D01*
X044459Y016789D01*
X044410Y016838D01*
X044322Y016874D01*
X044031Y016874D01*
X043902Y017003D01*
X043902Y018681D01*
X044242Y018681D01*
X044330Y018718D01*
X044379Y018766D01*
X044401Y018753D01*
X044446Y018741D01*
X044648Y018741D01*
X044648Y019119D01*
X044685Y019119D01*
X044685Y018741D01*
X044887Y018741D01*
X044922Y018750D01*
X044922Y016814D01*
X044922Y016918D02*
X043988Y016918D01*
X043902Y017076D02*
X044922Y017076D01*
X044922Y017235D02*
X043902Y017235D01*
X043902Y017393D02*
X044922Y017393D01*
X044922Y017552D02*
X043902Y017552D01*
X043902Y017710D02*
X044922Y017710D01*
X044922Y017869D02*
X043902Y017869D01*
X043902Y018027D02*
X044922Y018027D01*
X044922Y018186D02*
X043902Y018186D01*
X043902Y018344D02*
X044922Y018344D01*
X044832Y018278D02*
X044667Y018443D01*
X044667Y019138D01*
X044648Y018978D02*
X044685Y018978D01*
X044685Y018820D02*
X044648Y018820D01*
X044922Y018661D02*
X043902Y018661D01*
X043902Y018503D02*
X044922Y018503D01*
X045502Y018503D02*
X052022Y018503D01*
X052022Y018661D02*
X050148Y018661D01*
X050307Y018820D02*
X052022Y018820D01*
X052022Y018978D02*
X050465Y018978D01*
X050624Y019137D02*
X052022Y019137D01*
X052022Y019295D02*
X050782Y019295D01*
X050941Y019454D02*
X052022Y019454D01*
X052022Y019612D02*
X051099Y019612D01*
X051258Y019771D02*
X052022Y019771D01*
X052022Y019929D02*
X051416Y019929D01*
X051575Y020088D02*
X052022Y020088D01*
X052022Y020246D02*
X051733Y020246D01*
X051892Y020405D02*
X052022Y020405D01*
X051756Y020722D02*
X051572Y020722D01*
X051572Y020880D02*
X051915Y020880D01*
X052073Y021039D02*
X051572Y021039D01*
X051572Y021197D02*
X052082Y021197D01*
X052082Y021048D02*
X051572Y020538D01*
X051572Y022313D01*
X051530Y022416D01*
X051451Y022495D01*
X050551Y023395D01*
X050448Y023438D01*
X048078Y023438D01*
X048090Y023466D01*
X048090Y023609D01*
X048036Y023740D01*
X047935Y023841D01*
X047803Y023896D01*
X047661Y023896D01*
X047529Y023841D01*
X047429Y023740D01*
X047374Y023609D01*
X047374Y023475D01*
X047336Y023438D01*
X047112Y023438D01*
X047098Y023469D01*
X046944Y023624D01*
X046742Y023708D01*
X046523Y023708D01*
X046321Y023624D01*
X046166Y023469D01*
X046132Y023388D01*
X046098Y023469D01*
X045944Y023624D01*
X045742Y023708D01*
X045523Y023708D01*
X045321Y023624D01*
X045166Y023469D01*
X045132Y023388D01*
X045098Y023469D01*
X044944Y023624D01*
X044742Y023708D01*
X044523Y023708D01*
X044321Y023624D01*
X044166Y023469D01*
X044082Y023267D01*
X044082Y023048D01*
X044166Y022846D01*
X044321Y022691D01*
X044499Y022618D01*
X044321Y022544D01*
X044166Y022389D01*
X044082Y022187D01*
X044082Y021968D01*
X044166Y021766D01*
X044321Y021611D01*
X044523Y021528D01*
X044742Y021528D01*
X044944Y021611D01*
X045098Y021766D01*
X045132Y021847D01*
X045166Y021766D01*
X045321Y021611D01*
X045523Y021528D01*
X045742Y021528D01*
X045944Y021611D01*
X046098Y021766D01*
X046132Y021847D01*
X046166Y021766D01*
X046321Y021611D01*
X046523Y021528D01*
X046742Y021528D01*
X046944Y021611D01*
X047098Y021766D01*
X047182Y021968D01*
X047182Y022187D01*
X047098Y022389D01*
X046944Y022544D01*
X046766Y022618D01*
X046944Y022691D01*
X047098Y022846D01*
X047112Y022878D01*
X047836Y022878D01*
X047934Y022780D01*
X047934Y022746D01*
X047989Y022615D01*
X048089Y022514D01*
X048221Y022459D01*
X048363Y022459D01*
X048495Y022514D01*
X048596Y022615D01*
X048650Y022746D01*
X048650Y022878D01*
X050276Y022878D01*
X051012Y022142D01*
X051012Y019978D01*
X049932Y018898D01*
X048092Y018898D01*
X047772Y019218D01*
X047772Y020098D01*
X046892Y020978D01*
X045934Y020978D01*
X045916Y021020D01*
X045815Y021121D01*
X045683Y021176D01*
X045541Y021176D01*
X045409Y021121D01*
X045309Y021020D01*
X045292Y020981D01*
X045276Y021020D01*
X045175Y021121D01*
X045043Y021176D01*
X044901Y021176D01*
X044769Y021121D01*
X044669Y021020D01*
X044651Y020978D01*
X044412Y020978D01*
X040492Y024898D01*
X040492Y025934D01*
X040530Y026026D01*
X040530Y026169D01*
X040492Y026261D01*
X040492Y027218D01*
X039932Y027778D01*
X037932Y027778D01*
X037655Y027500D01*
X037067Y028088D01*
X034802Y028088D01*
X035772Y029058D01*
X036334Y029058D01*
X036421Y028971D01*
X036623Y028888D01*
X036842Y028888D01*
X037044Y028971D01*
X037130Y029058D01*
X037454Y029058D01*
X037541Y028971D01*
X037743Y028888D01*
X037962Y028888D01*
X038164Y028971D01*
X038250Y029058D01*
X038634Y029058D01*
X038741Y028951D01*
X038943Y028868D01*
X039162Y028868D01*
X039364Y028951D01*
X039518Y029106D01*
X039602Y029308D01*
X039602Y029527D01*
X039602Y029527D01*
X039692Y029618D01*
X039692Y032178D01*
X038892Y032978D01*
X038892Y033250D01*
X039832Y032310D01*
X039832Y028664D01*
X039789Y028620D01*
X039734Y028489D01*
X039734Y028346D01*
X039789Y028215D01*
X039889Y028114D01*
X040021Y028059D01*
X040163Y028059D01*
X040295Y028114D01*
X040396Y028215D01*
X040450Y028346D01*
X040450Y028489D01*
X040396Y028620D01*
X040352Y028664D01*
X040352Y032469D01*
X040313Y032565D01*
X038892Y033985D01*
X038892Y036338D01*
X037132Y038098D01*
X026252Y038098D01*
X025292Y039058D01*
X022092Y039058D01*
X021571Y039579D01*
X021612Y039619D01*
X021663Y039689D01*
X021702Y039766D01*
X021729Y039849D01*
X021742Y039934D01*
X021742Y039958D01*
X021372Y039958D01*
X021372Y039998D01*
X021742Y039998D01*
X021742Y040021D01*
X021729Y040106D01*
X021702Y040189D01*
X021663Y040266D01*
X021612Y040336D01*
X021550Y040397D01*
X021482Y040447D01*
X021932Y040898D01*
X025452Y040898D01*
X026332Y040018D01*
X050972Y040018D01*
X052082Y038907D01*
X052082Y021048D01*
X052082Y021356D02*
X051572Y021356D01*
X051572Y021514D02*
X052082Y021514D01*
X052082Y021673D02*
X051572Y021673D01*
X051572Y021831D02*
X052082Y021831D01*
X052082Y021990D02*
X051572Y021990D01*
X051572Y022148D02*
X052082Y022148D01*
X052082Y022307D02*
X051572Y022307D01*
X051481Y022465D02*
X052082Y022465D01*
X052082Y022624D02*
X051322Y022624D01*
X051164Y022782D02*
X052082Y022782D01*
X052082Y022941D02*
X051005Y022941D01*
X050847Y023099D02*
X052082Y023099D01*
X052082Y023258D02*
X050688Y023258D01*
X050500Y023416D02*
X052082Y023416D01*
X052082Y023575D02*
X048090Y023575D01*
X048039Y023733D02*
X052082Y023733D01*
X052082Y023892D02*
X047813Y023892D01*
X047651Y023892D02*
X041498Y023892D01*
X041340Y024050D02*
X052082Y024050D01*
X052082Y024209D02*
X041181Y024209D01*
X041023Y024367D02*
X052082Y024367D01*
X052082Y024526D02*
X040864Y024526D01*
X040706Y024684D02*
X052082Y024684D01*
X052082Y024843D02*
X040547Y024843D01*
X040492Y025001D02*
X052082Y025001D01*
X052082Y025160D02*
X040492Y025160D01*
X040492Y025318D02*
X052082Y025318D01*
X052082Y025477D02*
X040492Y025477D01*
X040492Y025635D02*
X052082Y025635D01*
X052082Y025794D02*
X040492Y025794D01*
X040500Y025952D02*
X052082Y025952D01*
X052082Y026111D02*
X040530Y026111D01*
X040492Y026269D02*
X052082Y026269D01*
X052082Y026428D02*
X040492Y026428D01*
X040492Y026586D02*
X052082Y026586D01*
X052082Y026745D02*
X040492Y026745D01*
X040492Y026903D02*
X052082Y026903D01*
X052082Y027062D02*
X040492Y027062D01*
X040490Y027220D02*
X052082Y027220D01*
X052082Y027379D02*
X040331Y027379D01*
X040173Y027537D02*
X052082Y027537D01*
X052082Y027696D02*
X040014Y027696D01*
X039832Y028171D02*
X034886Y028171D01*
X035044Y028330D02*
X039741Y028330D01*
X039734Y028488D02*
X035203Y028488D01*
X035361Y028647D02*
X039815Y028647D01*
X039832Y028805D02*
X035520Y028805D01*
X035678Y028964D02*
X036439Y028964D01*
X036122Y029439D02*
X032484Y029439D01*
X032642Y029598D02*
X036138Y029598D01*
X036204Y029756D02*
X032801Y029756D01*
X032959Y029915D02*
X036347Y029915D01*
X036234Y030073D02*
X033083Y030073D01*
X033102Y030232D02*
X036157Y030232D01*
X036122Y030390D02*
X033102Y030390D01*
X033102Y030549D02*
X036122Y030549D01*
X036184Y030707D02*
X033102Y030707D01*
X033102Y030866D02*
X036298Y030866D01*
X036554Y031024D02*
X033102Y031024D01*
X033102Y031183D02*
X038489Y031183D01*
X038442Y031341D02*
X033102Y031341D01*
X033102Y031500D02*
X038442Y031500D01*
X038492Y031658D02*
X033182Y031658D01*
X033230Y031817D02*
X038589Y031817D01*
X038804Y031975D02*
X033216Y031975D01*
X033127Y032134D02*
X039284Y032134D01*
X039300Y031975D02*
X039372Y031975D01*
X039692Y031975D02*
X039832Y031975D01*
X039832Y031817D02*
X039692Y031817D01*
X039692Y031658D02*
X039832Y031658D01*
X039832Y031500D02*
X039692Y031500D01*
X039692Y031341D02*
X039832Y031341D01*
X039832Y031183D02*
X039692Y031183D01*
X039692Y031024D02*
X039832Y031024D01*
X039832Y030866D02*
X039692Y030866D01*
X039692Y030707D02*
X039832Y030707D01*
X039832Y030549D02*
X039692Y030549D01*
X039692Y030390D02*
X039832Y030390D01*
X039832Y030232D02*
X039692Y030232D01*
X039692Y030073D02*
X039832Y030073D01*
X039832Y029915D02*
X039692Y029915D01*
X039692Y029756D02*
X039832Y029756D01*
X039832Y029598D02*
X039672Y029598D01*
X039602Y029439D02*
X039832Y029439D01*
X039832Y029281D02*
X039591Y029281D01*
X039525Y029122D02*
X039832Y029122D01*
X039832Y028964D02*
X039376Y028964D01*
X038728Y028964D02*
X038145Y028964D01*
X037559Y028964D02*
X037025Y028964D01*
X037142Y028013D02*
X052082Y028013D01*
X052082Y028171D02*
X040352Y028171D01*
X040443Y028330D02*
X052082Y028330D01*
X052082Y028488D02*
X040450Y028488D01*
X040370Y028647D02*
X052082Y028647D01*
X052082Y028805D02*
X040352Y028805D01*
X040352Y028964D02*
X052082Y028964D01*
X052082Y029122D02*
X047313Y029122D01*
X047384Y029151D02*
X047538Y029306D01*
X047622Y029508D01*
X047622Y029727D01*
X047538Y029929D01*
X047384Y030084D01*
X047182Y030168D01*
X046963Y030168D01*
X046761Y030084D01*
X046606Y029929D01*
X046572Y029848D01*
X046538Y029929D01*
X046384Y030084D01*
X046182Y030168D01*
X045963Y030168D01*
X045761Y030084D01*
X045606Y029929D01*
X045522Y029727D01*
X045522Y029508D01*
X045606Y029306D01*
X045761Y029151D01*
X045963Y029068D01*
X046182Y029068D01*
X046384Y029151D01*
X046538Y029306D01*
X046572Y029387D01*
X046606Y029306D01*
X046761Y029151D01*
X046963Y029068D01*
X047182Y029068D01*
X047384Y029151D01*
X047513Y029281D02*
X052082Y029281D01*
X052082Y029439D02*
X047594Y029439D01*
X047622Y029598D02*
X052082Y029598D01*
X052082Y029756D02*
X047610Y029756D01*
X047544Y029915D02*
X052082Y029915D01*
X052082Y030073D02*
X047394Y030073D01*
X046750Y030073D02*
X046394Y030073D01*
X046544Y029915D02*
X046600Y029915D01*
X046631Y029281D02*
X046513Y029281D01*
X046313Y029122D02*
X046831Y029122D01*
X045831Y029122D02*
X040352Y029122D01*
X040352Y029281D02*
X045631Y029281D01*
X045551Y029439D02*
X040352Y029439D01*
X040352Y029598D02*
X045522Y029598D01*
X045534Y029756D02*
X040352Y029756D01*
X040352Y029915D02*
X045600Y029915D01*
X045750Y030073D02*
X040352Y030073D01*
X040352Y030232D02*
X052082Y030232D01*
X052082Y030390D02*
X040352Y030390D01*
X040352Y030549D02*
X052082Y030549D01*
X052082Y030707D02*
X040352Y030707D01*
X040352Y030866D02*
X052082Y030866D01*
X052082Y031024D02*
X040352Y031024D01*
X040352Y031183D02*
X052082Y031183D01*
X052082Y031341D02*
X040352Y031341D01*
X040352Y031500D02*
X052082Y031500D01*
X052082Y031658D02*
X043271Y031658D01*
X043224Y031611D02*
X043378Y031766D01*
X043462Y031968D01*
X043462Y032187D01*
X043378Y032389D01*
X043224Y032544D01*
X043022Y032628D01*
X042803Y032628D01*
X042601Y032544D01*
X042446Y032389D01*
X042412Y032308D01*
X042378Y032389D01*
X042224Y032544D01*
X042022Y032628D01*
X041803Y032628D01*
X041601Y032544D01*
X041446Y032389D01*
X041412Y032308D01*
X041378Y032389D01*
X041224Y032544D01*
X041022Y032628D01*
X040803Y032628D01*
X040601Y032544D01*
X040446Y032389D01*
X040362Y032187D01*
X040362Y031968D01*
X040446Y031766D01*
X040601Y031611D01*
X040803Y031528D01*
X041022Y031528D01*
X041224Y031611D01*
X041378Y031766D01*
X041412Y031847D01*
X041446Y031766D01*
X041601Y031611D01*
X041803Y031528D01*
X042022Y031528D01*
X042224Y031611D01*
X042378Y031766D01*
X042412Y031847D01*
X042446Y031766D01*
X042601Y031611D01*
X042803Y031528D01*
X043022Y031528D01*
X043224Y031611D01*
X043399Y031817D02*
X052082Y031817D01*
X052082Y031975D02*
X045116Y031975D01*
X045095Y031954D02*
X045196Y032055D01*
X045250Y032186D01*
X045250Y032329D01*
X045196Y032460D01*
X045095Y032561D01*
X044963Y032616D01*
X044821Y032616D01*
X044689Y032561D01*
X044589Y032460D01*
X044534Y032329D01*
X044534Y032186D01*
X044589Y032055D01*
X044689Y031954D01*
X044821Y031899D01*
X044963Y031899D01*
X045095Y031954D01*
X045228Y032134D02*
X052082Y032134D01*
X052082Y032292D02*
X045250Y032292D01*
X045200Y032451D02*
X052082Y032451D01*
X052082Y032609D02*
X044979Y032609D01*
X044805Y032609D02*
X043066Y032609D01*
X043317Y032451D02*
X044585Y032451D01*
X044534Y032292D02*
X043419Y032292D01*
X043462Y032134D02*
X044556Y032134D01*
X044668Y031975D02*
X043462Y031975D01*
X042758Y032609D02*
X042066Y032609D01*
X042317Y032451D02*
X042507Y032451D01*
X042425Y031817D02*
X042399Y031817D01*
X042271Y031658D02*
X042554Y031658D01*
X041554Y031658D02*
X041271Y031658D01*
X041399Y031817D02*
X041425Y031817D01*
X041507Y032451D02*
X041317Y032451D01*
X041066Y032609D02*
X041758Y032609D01*
X040758Y032609D02*
X040268Y032609D01*
X040352Y032451D02*
X040507Y032451D01*
X040406Y032292D02*
X040352Y032292D01*
X040352Y032134D02*
X040362Y032134D01*
X040352Y031975D02*
X040362Y031975D01*
X040352Y031817D02*
X040425Y031817D01*
X040352Y031658D02*
X040554Y031658D01*
X039832Y032134D02*
X039692Y032134D01*
X039578Y032292D02*
X039832Y032292D01*
X039691Y032451D02*
X039419Y032451D01*
X039533Y032609D02*
X039261Y032609D01*
X039374Y032768D02*
X039102Y032768D01*
X039216Y032926D02*
X038944Y032926D01*
X038892Y033085D02*
X039057Y033085D01*
X038899Y033243D02*
X038892Y033243D01*
X038572Y033243D02*
X029230Y033243D01*
X029230Y033301D02*
X029167Y033454D01*
X029049Y033572D01*
X028895Y033636D01*
X028729Y033636D01*
X028575Y033572D01*
X028458Y033454D01*
X028394Y033301D01*
X028394Y033134D01*
X028458Y032981D01*
X028575Y032863D01*
X028729Y032799D01*
X028895Y032799D01*
X029049Y032863D01*
X029167Y032981D01*
X029230Y033134D01*
X029230Y033301D01*
X029189Y033402D02*
X038572Y033402D01*
X038497Y033560D02*
X029061Y033560D01*
X028563Y033560D02*
X026197Y033560D01*
X026350Y033402D02*
X028436Y033402D01*
X028394Y033243D02*
X026416Y033243D01*
X026442Y033085D02*
X028415Y033085D01*
X028512Y032926D02*
X026438Y032926D01*
X026372Y032768D02*
X038650Y032768D01*
X038572Y032926D02*
X029112Y032926D01*
X029210Y033085D02*
X038572Y033085D01*
X038808Y032609D02*
X031852Y032609D01*
X031887Y032574D02*
X031769Y032692D01*
X031615Y032756D01*
X031449Y032756D01*
X031295Y032692D01*
X031178Y032574D01*
X031114Y032421D01*
X031114Y032254D01*
X031178Y032101D01*
X031295Y031983D01*
X031449Y031919D01*
X031615Y031919D01*
X031769Y031983D01*
X031887Y032101D01*
X031950Y032254D01*
X031950Y032421D01*
X031887Y032574D01*
X031938Y032451D02*
X038967Y032451D01*
X039125Y032292D02*
X031950Y032292D01*
X031900Y032134D02*
X032497Y032134D01*
X032408Y031975D02*
X031750Y031975D01*
X031315Y031975D02*
X024223Y031975D01*
X024207Y032014D02*
X024089Y032132D01*
X023935Y032196D01*
X023769Y032196D01*
X023615Y032132D01*
X023498Y032014D01*
X023434Y031861D01*
X023434Y031694D01*
X023498Y031541D01*
X023615Y031423D01*
X023769Y031359D01*
X023935Y031359D01*
X024089Y031423D01*
X024207Y031541D01*
X024270Y031694D01*
X024270Y031861D01*
X024207Y032014D01*
X024085Y032134D02*
X031164Y032134D01*
X031114Y032292D02*
X020222Y032292D01*
X020222Y032134D02*
X023619Y032134D01*
X023481Y031975D02*
X020222Y031975D01*
X020222Y031817D02*
X023434Y031817D01*
X023449Y031658D02*
X020222Y031658D01*
X020222Y031500D02*
X023539Y031500D01*
X024166Y031500D02*
X028554Y031500D01*
X028570Y031658D02*
X024255Y031658D01*
X024270Y031817D02*
X028660Y031817D01*
X028601Y031341D02*
X020222Y031341D01*
X020222Y031183D02*
X028602Y031183D01*
X028602Y031024D02*
X020222Y031024D01*
X020222Y030866D02*
X028602Y030866D01*
X028602Y030707D02*
X020222Y030707D01*
X020222Y030549D02*
X028602Y030549D01*
X028670Y030390D02*
X020222Y030390D01*
X020222Y030232D02*
X028828Y030232D01*
X028987Y030073D02*
X020222Y030073D01*
X020222Y029915D02*
X027990Y029915D01*
X027935Y029892D02*
X027818Y029774D01*
X027754Y029621D01*
X027754Y029454D01*
X027818Y029301D01*
X027935Y029183D01*
X028089Y029119D01*
X028255Y029119D01*
X028409Y029183D01*
X028527Y029301D01*
X028590Y029454D01*
X028590Y029621D01*
X028527Y029774D01*
X028409Y029892D01*
X028255Y029956D01*
X028089Y029956D01*
X027935Y029892D01*
X027810Y029756D02*
X020222Y029756D01*
X020222Y029598D02*
X021117Y029598D01*
X020931Y029439D02*
X020222Y029439D01*
X020222Y029281D02*
X020874Y029281D01*
X020787Y029122D02*
X020222Y029122D01*
X020222Y028964D02*
X020628Y028964D01*
X020479Y028805D02*
X020222Y028805D01*
X020222Y028647D02*
X020442Y028647D01*
X020442Y028488D02*
X020222Y028488D01*
X020222Y028330D02*
X020442Y028330D01*
X020442Y028171D02*
X020222Y028171D01*
X020222Y028013D02*
X020442Y028013D01*
X020442Y027854D02*
X020222Y027854D01*
X020222Y027696D02*
X020442Y027696D01*
X020442Y027537D02*
X020222Y027537D01*
X020222Y027379D02*
X020442Y027379D01*
X020442Y027220D02*
X020222Y027220D01*
X020222Y027062D02*
X020442Y027062D01*
X020442Y026903D02*
X020222Y026903D01*
X020222Y026745D02*
X020442Y026745D01*
X020442Y026586D02*
X020222Y026586D01*
X020222Y026428D02*
X020442Y026428D01*
X020442Y026269D02*
X020222Y026269D01*
X020222Y026111D02*
X020442Y026111D01*
X020442Y025952D02*
X020222Y025952D01*
X020222Y025794D02*
X020442Y025794D01*
X020442Y025635D02*
X020222Y025635D01*
X020222Y025477D02*
X020442Y025477D01*
X020442Y025318D02*
X020222Y025318D01*
X020222Y025160D02*
X020442Y025160D01*
X020442Y025001D02*
X020222Y025001D01*
X020222Y024843D02*
X020442Y024843D01*
X020442Y024684D02*
X020222Y024684D01*
X020222Y024526D02*
X020442Y024526D01*
X020442Y024367D02*
X020222Y024367D01*
X020222Y024209D02*
X020442Y024209D01*
X020442Y024050D02*
X020222Y024050D01*
X020222Y023892D02*
X020442Y023892D01*
X020442Y023733D02*
X020227Y023733D01*
X020385Y023575D02*
X020442Y023575D01*
X021022Y023575D02*
X023347Y023575D01*
X023295Y023523D02*
X023202Y023299D01*
X023202Y023056D01*
X023295Y022832D01*
X023467Y022660D01*
X023691Y022568D01*
X023934Y022568D01*
X024158Y022660D01*
X024312Y022815D01*
X024467Y022660D01*
X024691Y022568D01*
X024934Y022568D01*
X025158Y022660D01*
X025312Y022815D01*
X025467Y022660D01*
X025691Y022568D01*
X025934Y022568D01*
X026158Y022660D01*
X026329Y022832D01*
X026422Y023056D01*
X026422Y023299D01*
X026329Y023523D01*
X026158Y023695D01*
X025934Y023788D01*
X025691Y023788D01*
X025467Y023695D01*
X025312Y023540D01*
X025158Y023695D01*
X024934Y023788D01*
X024691Y023788D01*
X024467Y023695D01*
X024312Y023540D01*
X024158Y023695D01*
X023934Y023788D01*
X023691Y023788D01*
X023467Y023695D01*
X023295Y023523D01*
X023251Y023416D02*
X021022Y023416D01*
X021022Y023258D02*
X023202Y023258D01*
X023202Y023099D02*
X021181Y023099D01*
X021339Y022941D02*
X023250Y022941D01*
X023345Y022782D02*
X021498Y022782D01*
X021656Y022624D02*
X023556Y022624D01*
X024069Y022624D02*
X024556Y022624D01*
X024345Y022782D02*
X024279Y022782D01*
X025069Y022624D02*
X025556Y022624D01*
X025345Y022782D02*
X025279Y022782D01*
X026069Y022624D02*
X026794Y022624D01*
X026794Y022574D02*
X026858Y022421D01*
X026975Y022303D01*
X027129Y022239D01*
X027295Y022239D01*
X027449Y022303D01*
X027567Y022421D01*
X027630Y022574D01*
X027630Y022741D01*
X027567Y022894D01*
X027449Y023012D01*
X027295Y023076D01*
X027129Y023076D01*
X026975Y023012D01*
X026858Y022894D01*
X026794Y022741D01*
X026794Y022574D01*
X026839Y022465D02*
X021815Y022465D01*
X021973Y022307D02*
X026972Y022307D01*
X027453Y022307D02*
X028874Y022307D01*
X028892Y022465D02*
X027585Y022465D01*
X027630Y022624D02*
X028987Y022624D01*
X028918Y022148D02*
X022132Y022148D01*
X022290Y021990D02*
X029049Y021990D01*
X029482Y021831D02*
X022449Y021831D01*
X022607Y021673D02*
X029482Y021673D01*
X029482Y021514D02*
X022766Y021514D01*
X022924Y021356D02*
X029482Y021356D01*
X029482Y021197D02*
X023083Y021197D01*
X023241Y021039D02*
X025162Y021039D01*
X025059Y020880D02*
X023400Y020880D01*
X023558Y020722D02*
X025034Y020722D01*
X025072Y020563D02*
X023717Y020563D01*
X022112Y019268D02*
X016852Y019268D01*
X016782Y019338D01*
X016782Y021435D01*
X016738Y021542D01*
X016656Y021623D01*
X016270Y022010D01*
X016270Y022101D01*
X016207Y022254D01*
X016089Y022372D01*
X015935Y022436D01*
X015769Y022436D01*
X015742Y022425D01*
X015742Y027187D01*
X015809Y027159D01*
X015975Y027159D01*
X016129Y027223D01*
X016247Y027341D01*
X016282Y027427D01*
X016282Y026280D01*
X016326Y026173D01*
X017424Y025076D01*
X017369Y025076D01*
X017215Y025012D01*
X017098Y024894D01*
X017034Y024741D01*
X017034Y024574D01*
X017098Y024421D01*
X017215Y024303D01*
X017369Y024239D01*
X017535Y024239D01*
X017689Y024303D01*
X017807Y024421D01*
X017870Y024574D01*
X017870Y024629D01*
X021671Y020828D01*
X021535Y020772D01*
X021418Y020654D01*
X021414Y020647D01*
X021369Y020692D01*
X021215Y020756D01*
X021049Y020756D01*
X020895Y020692D01*
X020778Y020574D01*
X020714Y020421D01*
X020714Y020254D01*
X020778Y020101D01*
X020895Y019983D01*
X021049Y019919D01*
X021215Y019919D01*
X021369Y019983D01*
X021482Y020096D01*
X021482Y019960D01*
X021526Y019853D01*
X021608Y019772D01*
X021928Y019452D01*
X022112Y019268D01*
X022085Y019295D02*
X016825Y019295D01*
X016782Y019454D02*
X021926Y019454D01*
X021768Y019612D02*
X016782Y019612D01*
X016782Y019771D02*
X021609Y019771D01*
X021495Y019929D02*
X021239Y019929D01*
X021026Y019929D02*
X016782Y019929D01*
X016782Y020088D02*
X020791Y020088D01*
X020718Y020246D02*
X016782Y020246D01*
X016782Y020405D02*
X020714Y020405D01*
X020773Y020563D02*
X016782Y020563D01*
X016782Y020722D02*
X020967Y020722D01*
X021298Y020722D02*
X021485Y020722D01*
X021620Y020880D02*
X016782Y020880D01*
X016782Y021039D02*
X021461Y021039D01*
X021303Y021197D02*
X016782Y021197D01*
X016782Y021356D02*
X021144Y021356D01*
X020986Y021514D02*
X016750Y021514D01*
X016656Y021623D02*
X016656Y021623D01*
X016607Y021673D02*
X020827Y021673D01*
X020669Y021831D02*
X016449Y021831D01*
X016290Y021990D02*
X020510Y021990D01*
X020352Y022148D02*
X016251Y022148D01*
X016154Y022307D02*
X016972Y022307D01*
X016938Y022341D02*
X017055Y022223D01*
X017209Y022159D01*
X017375Y022159D01*
X017529Y022223D01*
X017647Y022341D01*
X017710Y022494D01*
X017710Y022661D01*
X017647Y022814D01*
X017529Y022932D01*
X017375Y022996D01*
X017209Y022996D01*
X017055Y022932D01*
X016938Y022814D01*
X016874Y022661D01*
X016874Y022494D01*
X016938Y022341D01*
X016886Y022465D02*
X015742Y022465D01*
X015742Y022624D02*
X016874Y022624D01*
X016924Y022782D02*
X015742Y022782D01*
X015742Y022941D02*
X017076Y022941D01*
X017508Y022941D02*
X019559Y022941D01*
X019401Y023099D02*
X015742Y023099D01*
X015742Y023258D02*
X019242Y023258D01*
X019084Y023416D02*
X015742Y023416D01*
X015742Y023575D02*
X018925Y023575D01*
X018767Y023733D02*
X015742Y023733D01*
X015742Y023892D02*
X018608Y023892D01*
X018450Y024050D02*
X015742Y024050D01*
X015742Y024209D02*
X018291Y024209D01*
X018133Y024367D02*
X017753Y024367D01*
X017850Y024526D02*
X017974Y024526D01*
X018480Y025160D02*
X019642Y025160D01*
X019642Y025318D02*
X018322Y025318D01*
X018163Y025477D02*
X019642Y025477D01*
X019642Y025635D02*
X018005Y025635D01*
X017846Y025794D02*
X019642Y025794D01*
X019642Y025952D02*
X017688Y025952D01*
X017529Y026111D02*
X019642Y026111D01*
X019642Y026269D02*
X017371Y026269D01*
X017212Y026428D02*
X019642Y026428D01*
X019642Y026586D02*
X017102Y026586D01*
X017102Y026745D02*
X019642Y026745D01*
X019642Y026903D02*
X017102Y026903D01*
X017102Y027062D02*
X019642Y027062D01*
X019642Y027220D02*
X017102Y027220D01*
X017102Y027379D02*
X019642Y027379D01*
X019642Y027537D02*
X017102Y027537D01*
X017102Y027696D02*
X019642Y027696D01*
X019642Y027854D02*
X017102Y027854D01*
X017102Y028013D02*
X019642Y028013D01*
X019642Y028171D02*
X017102Y028171D01*
X017102Y028330D02*
X019642Y028330D01*
X019642Y028488D02*
X017102Y028488D01*
X017102Y028647D02*
X019642Y028647D01*
X019642Y028805D02*
X017102Y028805D01*
X017102Y028964D02*
X019642Y028964D01*
X019642Y029122D02*
X017102Y029122D01*
X017102Y029281D02*
X019642Y029281D01*
X019642Y029439D02*
X017102Y029439D01*
X017102Y029598D02*
X019642Y029598D01*
X019642Y029756D02*
X017102Y029756D01*
X017102Y029915D02*
X019642Y029915D01*
X019642Y030073D02*
X017102Y030073D01*
X017102Y030232D02*
X019642Y030232D01*
X019642Y030390D02*
X017102Y030390D01*
X017102Y030549D02*
X019642Y030549D01*
X019642Y030707D02*
X017762Y030707D01*
X017695Y030679D02*
X017849Y030743D01*
X017967Y030861D01*
X018030Y031014D01*
X018030Y031181D01*
X017967Y031334D01*
X017849Y031452D01*
X017695Y031516D01*
X017529Y031516D01*
X017375Y031452D01*
X017258Y031334D01*
X017194Y031181D01*
X017194Y031014D01*
X017258Y030861D01*
X017375Y030743D01*
X017529Y030679D01*
X017695Y030679D01*
X017462Y030707D02*
X017102Y030707D01*
X017102Y030866D02*
X017256Y030866D01*
X017194Y031024D02*
X017102Y031024D01*
X017102Y031183D02*
X017195Y031183D01*
X017264Y031341D02*
X017102Y031341D01*
X017102Y031500D02*
X017490Y031500D01*
X017734Y031500D02*
X019642Y031500D01*
X019642Y031658D02*
X017102Y031658D01*
X017102Y031817D02*
X019642Y031817D01*
X019642Y031975D02*
X017102Y031975D01*
X017102Y032134D02*
X019642Y032134D01*
X019642Y032292D02*
X017102Y032292D01*
X017102Y032451D02*
X019642Y032451D01*
X019642Y032609D02*
X017102Y032609D01*
X017102Y032768D02*
X019642Y032768D01*
X019642Y032926D02*
X017102Y032926D01*
X017102Y033085D02*
X019642Y033085D01*
X019642Y033243D02*
X017102Y033243D01*
X017102Y033402D02*
X019642Y033402D01*
X019642Y033560D02*
X017102Y033560D01*
X017102Y033719D02*
X019642Y033719D01*
X019642Y033877D02*
X017102Y033877D01*
X017102Y034036D02*
X019642Y034036D01*
X019642Y034194D02*
X017102Y034194D01*
X017102Y034353D02*
X019642Y034353D01*
X019642Y034511D02*
X017102Y034511D01*
X017102Y034670D02*
X019642Y034670D01*
X019642Y034828D02*
X017102Y034828D01*
X017102Y034987D02*
X019642Y034987D01*
X019642Y035145D02*
X017102Y035145D01*
X017102Y035304D02*
X019642Y035304D01*
X019642Y035462D02*
X017102Y035462D01*
X017092Y035621D02*
X019642Y035621D01*
X019625Y035779D02*
X016981Y035779D01*
X016822Y035938D02*
X019594Y035938D01*
X019625Y036096D02*
X016664Y036096D01*
X016505Y036255D02*
X019738Y036255D01*
X020286Y036255D02*
X021338Y036255D01*
X021338Y036254D02*
X021274Y036101D01*
X021274Y035934D01*
X021338Y035781D01*
X021455Y035663D01*
X021609Y035599D01*
X021775Y035599D01*
X021929Y035663D01*
X022047Y035781D01*
X022110Y035934D01*
X022110Y036101D01*
X022047Y036254D01*
X021929Y036372D01*
X021775Y036436D01*
X021609Y036436D01*
X021455Y036372D01*
X021338Y036254D01*
X021274Y036096D02*
X020399Y036096D01*
X020430Y035938D02*
X021274Y035938D01*
X021339Y035779D02*
X021175Y035779D01*
X021135Y035796D02*
X020969Y035796D01*
X020815Y035732D01*
X020698Y035614D01*
X020634Y035461D01*
X020634Y035294D01*
X020698Y035141D01*
X020815Y035023D01*
X020969Y034959D01*
X021135Y034959D01*
X021289Y035023D01*
X021407Y035141D01*
X021470Y035294D01*
X021470Y035461D01*
X021407Y035614D01*
X021289Y035732D01*
X021135Y035796D01*
X020929Y035779D02*
X020399Y035779D01*
X020287Y035621D02*
X020704Y035621D01*
X020635Y035462D02*
X020222Y035462D01*
X020222Y035304D02*
X020634Y035304D01*
X020696Y035145D02*
X020222Y035145D01*
X020222Y034987D02*
X020903Y034987D01*
X021201Y034987D02*
X025222Y034987D01*
X025222Y035145D02*
X021408Y035145D01*
X021470Y035304D02*
X025274Y035304D01*
X025374Y035462D02*
X021470Y035462D01*
X021400Y035621D02*
X021558Y035621D01*
X021826Y035621D02*
X025597Y035621D01*
X026067Y035621D02*
X038572Y035621D01*
X038572Y035779D02*
X022045Y035779D01*
X022110Y035938D02*
X038572Y035938D01*
X038572Y036096D02*
X022110Y036096D01*
X022046Y036255D02*
X038523Y036255D01*
X038364Y036413D02*
X021830Y036413D01*
X021555Y036413D02*
X016350Y036413D01*
X016288Y036572D02*
X038206Y036572D01*
X038047Y036730D02*
X016077Y036730D01*
X016115Y036889D02*
X037889Y036889D01*
X037730Y037047D02*
X021506Y037047D01*
X021683Y037206D02*
X037572Y037206D01*
X037413Y037364D02*
X021764Y037364D01*
X021802Y037523D02*
X037255Y037523D01*
X037096Y037681D02*
X021802Y037681D01*
X021744Y037840D02*
X026058Y037840D01*
X025899Y037998D02*
X021634Y037998D01*
X021388Y038157D02*
X025741Y038157D01*
X025582Y038315D02*
X021592Y038315D01*
X021727Y038474D02*
X025424Y038474D01*
X025265Y038632D02*
X021792Y038632D01*
X021802Y038791D02*
X021907Y038791D01*
X022042Y039108D02*
X051882Y039108D01*
X051724Y039266D02*
X021884Y039266D01*
X021725Y039425D02*
X051565Y039425D01*
X051407Y039583D02*
X021576Y039583D01*
X021689Y039742D02*
X051248Y039742D01*
X051090Y039900D02*
X021737Y039900D01*
X021736Y040059D02*
X026291Y040059D01*
X026133Y040217D02*
X021687Y040217D01*
X021572Y040376D02*
X025974Y040376D01*
X025816Y040534D02*
X021569Y040534D01*
X021727Y040693D02*
X025657Y040693D01*
X025499Y040851D02*
X021886Y040851D01*
X021822Y041327D02*
X029274Y041327D01*
X029274Y041294D02*
X029338Y041141D01*
X029401Y041078D01*
X029338Y041014D01*
X029274Y040861D01*
X029274Y040694D01*
X029338Y040541D01*
X029455Y040423D01*
X029609Y040359D01*
X029775Y040359D01*
X029929Y040423D01*
X030047Y040541D01*
X030110Y040694D01*
X030110Y040861D01*
X030047Y041014D01*
X029983Y041078D01*
X030047Y041141D01*
X030110Y041294D01*
X030110Y041461D01*
X030047Y041614D01*
X029929Y041732D01*
X029775Y041796D01*
X029609Y041796D01*
X029455Y041732D01*
X029338Y041614D01*
X029274Y041461D01*
X029274Y041294D01*
X029326Y041168D02*
X025634Y041168D01*
X025793Y041010D02*
X029336Y041010D01*
X029274Y040851D02*
X025951Y040851D01*
X026110Y040693D02*
X029275Y040693D01*
X029344Y040534D02*
X026268Y040534D01*
X026427Y040376D02*
X029570Y040376D01*
X029814Y040376D02*
X044107Y040376D01*
X044074Y040534D02*
X030040Y040534D01*
X030110Y040693D02*
X036786Y040693D01*
X036738Y040741D02*
X036855Y040623D01*
X037009Y040559D01*
X037175Y040559D01*
X037329Y040623D01*
X037447Y040741D01*
X037510Y040894D01*
X037510Y041061D01*
X037447Y041214D01*
X037329Y041332D01*
X037175Y041396D01*
X037009Y041396D01*
X036855Y041332D01*
X036738Y041214D01*
X036674Y041061D01*
X036674Y040894D01*
X036738Y040741D01*
X036692Y040851D02*
X030110Y040851D01*
X030049Y041010D02*
X036674Y041010D01*
X036719Y041168D02*
X030058Y041168D01*
X030110Y041327D02*
X036850Y041327D01*
X037334Y041327D02*
X044135Y041327D01*
X044074Y041168D02*
X037466Y041168D01*
X037510Y041010D02*
X044076Y041010D01*
X044147Y040851D02*
X037492Y040851D01*
X037399Y040693D02*
X044104Y040693D01*
X044837Y040851D02*
X052022Y040851D01*
X052022Y040693D02*
X044881Y040693D01*
X044910Y040534D02*
X052022Y040534D01*
X052022Y040376D02*
X044878Y040376D01*
X044908Y041010D02*
X052022Y041010D01*
X052022Y041168D02*
X044910Y041168D01*
X044850Y041327D02*
X052022Y041327D01*
X052022Y041485D02*
X044649Y041485D01*
X044335Y041485D02*
X031991Y041485D01*
X032047Y041541D02*
X032110Y041694D01*
X032110Y041861D01*
X032047Y042014D01*
X031929Y042132D01*
X031775Y042196D01*
X031609Y042196D01*
X031455Y042132D01*
X031392Y042069D01*
X031329Y042132D01*
X031175Y042196D01*
X031009Y042196D01*
X030855Y042132D01*
X030738Y042014D01*
X030674Y041861D01*
X030674Y041694D01*
X030738Y041541D01*
X030855Y041423D01*
X031009Y041359D01*
X031175Y041359D01*
X031329Y041423D01*
X031392Y041486D01*
X031455Y041423D01*
X031609Y041359D01*
X031775Y041359D01*
X031929Y041423D01*
X032047Y041541D01*
X032089Y041644D02*
X052022Y041644D01*
X052022Y041802D02*
X032110Y041802D01*
X032069Y041961D02*
X052022Y041961D01*
X052022Y042119D02*
X031942Y042119D01*
X031442Y042119D02*
X031342Y042119D01*
X030842Y042119D02*
X021729Y042119D01*
X021794Y042278D02*
X052022Y042278D01*
X052022Y042436D02*
X021802Y042436D01*
X021779Y042595D02*
X052022Y042595D01*
X052022Y042753D02*
X021713Y042753D01*
X021561Y042912D02*
X052022Y042912D01*
X052022Y043070D02*
X021465Y043070D01*
X021666Y043229D02*
X052022Y043229D01*
X052022Y043387D02*
X021757Y043387D01*
X021802Y043546D02*
X052022Y043546D01*
X052022Y043704D02*
X021802Y043704D01*
X021751Y043863D02*
X052022Y043863D01*
X052022Y044021D02*
X051539Y044021D01*
X051585Y044040D02*
X051830Y044285D01*
X051962Y044605D01*
X051962Y044951D01*
X051830Y045270D01*
X051585Y045515D01*
X051265Y045647D01*
X050919Y045647D01*
X050599Y045515D01*
X050355Y045270D01*
X050222Y044951D01*
X050222Y044605D01*
X050355Y044285D01*
X050599Y044040D01*
X050919Y043908D01*
X051265Y043908D01*
X051585Y044040D01*
X051724Y044180D02*
X052022Y044180D01*
X052022Y044338D02*
X051852Y044338D01*
X051917Y044497D02*
X052022Y044497D01*
X052022Y044655D02*
X051962Y044655D01*
X051962Y044814D02*
X052022Y044814D01*
X052022Y044972D02*
X051953Y044972D01*
X051888Y045131D02*
X052022Y045131D01*
X052022Y045289D02*
X051811Y045289D01*
X051652Y045448D02*
X052022Y045448D01*
X052022Y045606D02*
X051365Y045606D01*
X050819Y045606D02*
X014365Y045606D01*
X014265Y045647D02*
X013919Y045647D01*
X013599Y045515D01*
X013355Y045270D01*
X013222Y044951D01*
X013222Y044605D01*
X013355Y044285D01*
X013599Y044040D01*
X013919Y043908D01*
X014265Y043908D01*
X014585Y044040D01*
X014830Y044285D01*
X014962Y044605D01*
X014962Y044951D01*
X014830Y045270D01*
X014585Y045515D01*
X014265Y045647D01*
X014652Y045448D02*
X050532Y045448D01*
X050373Y045289D02*
X014811Y045289D01*
X014888Y045131D02*
X050297Y045131D01*
X050231Y044972D02*
X014953Y044972D01*
X014962Y044814D02*
X050222Y044814D01*
X050222Y044655D02*
X014962Y044655D01*
X014917Y044497D02*
X050267Y044497D01*
X050333Y044338D02*
X014852Y044338D01*
X014724Y044180D02*
X019955Y044180D01*
X019733Y044021D02*
X014539Y044021D01*
X013645Y044021D02*
X013132Y044021D01*
X013132Y043863D02*
X019633Y043863D01*
X019582Y043704D02*
X013132Y043704D01*
X013132Y043546D02*
X019582Y043546D01*
X019627Y043387D02*
X013132Y043387D01*
X013132Y043229D02*
X019718Y043229D01*
X019920Y043070D02*
X013132Y043070D01*
X013132Y042912D02*
X019824Y042912D01*
X019671Y042753D02*
X014893Y042753D01*
X014898Y042751D02*
X014810Y042788D01*
X013974Y042788D01*
X013886Y042751D01*
X013819Y042684D01*
X013782Y042595D01*
X013782Y041760D01*
X013819Y041672D01*
X013886Y041604D01*
X013936Y041584D01*
X013875Y041523D01*
X013782Y041299D01*
X013782Y041056D01*
X013875Y040832D01*
X014047Y040660D01*
X014094Y040641D01*
X014034Y040597D01*
X013973Y040536D01*
X013922Y040466D01*
X013882Y040389D01*
X013856Y040306D01*
X013842Y040221D01*
X013842Y040198D01*
X014372Y040198D01*
X014372Y040158D01*
X013842Y040158D01*
X013842Y040134D01*
X013856Y040049D01*
X013882Y039966D01*
X013922Y039889D01*
X013973Y039819D01*
X014034Y039758D01*
X014094Y039714D01*
X014047Y039695D01*
X013875Y039523D01*
X013782Y039299D01*
X013782Y039056D01*
X013875Y038832D01*
X014047Y038660D01*
X014271Y038568D01*
X014514Y038568D01*
X014738Y038660D01*
X014909Y038832D01*
X015002Y039056D01*
X015002Y039299D01*
X014909Y039523D01*
X014738Y039695D01*
X014690Y039714D01*
X014750Y039758D01*
X014812Y039819D01*
X014863Y039889D01*
X014902Y039966D01*
X014929Y040049D01*
X014942Y040134D01*
X014942Y040158D01*
X014412Y040158D01*
X014412Y040198D01*
X014942Y040198D01*
X014942Y040221D01*
X014929Y040306D01*
X014902Y040389D01*
X014863Y040466D01*
X014812Y040536D01*
X014750Y040597D01*
X014690Y040641D01*
X014738Y040660D01*
X014909Y040832D01*
X015002Y041056D01*
X015002Y041299D01*
X014909Y041523D01*
X014849Y041584D01*
X014898Y041604D01*
X014966Y041672D01*
X015002Y041760D01*
X015002Y042595D01*
X014966Y042684D01*
X014898Y042751D01*
X015002Y042595D02*
X019605Y042595D01*
X019582Y042436D02*
X015002Y042436D01*
X015002Y042278D02*
X019590Y042278D01*
X019656Y042119D02*
X015002Y042119D01*
X015002Y041961D02*
X019786Y041961D01*
X020029Y041802D02*
X015002Y041802D01*
X014938Y041644D02*
X019776Y041644D01*
X019663Y041485D02*
X014925Y041485D01*
X014991Y041327D02*
X019602Y041327D01*
X019602Y041168D02*
X015002Y041168D01*
X014983Y041010D02*
X019638Y041010D01*
X019716Y040851D02*
X014917Y040851D01*
X014770Y040693D02*
X019886Y040693D01*
X019812Y040376D02*
X014906Y040376D01*
X014942Y040217D02*
X019697Y040217D01*
X019648Y040059D02*
X014930Y040059D01*
X014868Y039900D02*
X019648Y039900D01*
X019695Y039742D02*
X014728Y039742D01*
X014849Y039583D02*
X019809Y039583D01*
X019818Y039266D02*
X015002Y039266D01*
X015002Y039108D02*
X019669Y039108D01*
X019603Y038949D02*
X014958Y038949D01*
X014868Y038791D02*
X019582Y038791D01*
X019592Y038632D02*
X014669Y038632D01*
X014115Y038632D02*
X013132Y038632D01*
X013132Y038474D02*
X019658Y038474D01*
X019792Y038315D02*
X013132Y038315D01*
X013132Y038157D02*
X019996Y038157D01*
X019750Y037998D02*
X013132Y037998D01*
X013132Y037840D02*
X019640Y037840D01*
X019582Y037681D02*
X017180Y037681D01*
X017129Y037732D02*
X016975Y037796D01*
X016809Y037796D01*
X016655Y037732D01*
X016538Y037614D01*
X016474Y037461D01*
X016474Y037294D01*
X016538Y037141D01*
X016655Y037023D01*
X016809Y036959D01*
X016975Y036959D01*
X017129Y037023D01*
X017247Y037141D01*
X017310Y037294D01*
X017310Y037461D01*
X017247Y037614D01*
X017129Y037732D01*
X017285Y037523D02*
X019582Y037523D01*
X019620Y037364D02*
X017310Y037364D01*
X017274Y037206D02*
X019701Y037206D01*
X019879Y037047D02*
X017153Y037047D01*
X016631Y037047D02*
X016234Y037047D01*
X016270Y037206D02*
X016511Y037206D01*
X016474Y037364D02*
X016244Y037364D01*
X016138Y037523D02*
X016500Y037523D01*
X016604Y037681D02*
X013132Y037681D01*
X013132Y037523D02*
X015566Y037523D01*
X015460Y037364D02*
X013132Y037364D01*
X013132Y037206D02*
X015430Y037206D01*
X015272Y037047D02*
X013132Y037047D01*
X013132Y036889D02*
X015168Y036889D01*
X015162Y036730D02*
X013132Y036730D01*
X013132Y036572D02*
X015162Y036572D01*
X015162Y036413D02*
X013132Y036413D01*
X013132Y036255D02*
X015162Y036255D01*
X014699Y036096D02*
X013132Y036096D01*
X013132Y035938D02*
X014586Y035938D01*
X014554Y035779D02*
X013132Y035779D01*
X013132Y035621D02*
X014585Y035621D01*
X014696Y035462D02*
X013132Y035462D01*
X013132Y035304D02*
X014922Y035304D01*
X014922Y035145D02*
X013132Y035145D01*
X013132Y034987D02*
X014922Y034987D01*
X014922Y034828D02*
X013132Y034828D01*
X013132Y034670D02*
X014922Y034670D01*
X014922Y034511D02*
X013132Y034511D01*
X013132Y034353D02*
X013305Y034353D01*
X013679Y034353D02*
X014922Y034353D01*
X014922Y034194D02*
X013855Y034194D01*
X013910Y034036D02*
X014922Y034036D01*
X014922Y033877D02*
X013903Y033877D01*
X013825Y033719D02*
X014922Y033719D01*
X015742Y033719D02*
X016522Y033719D01*
X016522Y033877D02*
X015742Y033877D01*
X015742Y034036D02*
X016522Y034036D01*
X016522Y034194D02*
X015742Y034194D01*
X015742Y034353D02*
X016522Y034353D01*
X016522Y034511D02*
X015742Y034511D01*
X015742Y034670D02*
X016522Y034670D01*
X016522Y034828D02*
X015742Y034828D01*
X015742Y034987D02*
X016522Y034987D01*
X016522Y035145D02*
X015742Y035145D01*
X015742Y035304D02*
X016522Y035304D01*
X016522Y035417D02*
X016522Y029918D01*
X016350Y030090D01*
X016350Y030181D01*
X016287Y030334D01*
X016169Y030452D01*
X016105Y030479D01*
X016207Y030581D01*
X016270Y030734D01*
X016270Y030901D01*
X016207Y031054D01*
X016089Y031172D01*
X015935Y031236D01*
X015769Y031236D01*
X015742Y031225D01*
X015742Y035964D01*
X015849Y035919D01*
X016015Y035919D01*
X016019Y035921D01*
X016522Y035417D01*
X016478Y035462D02*
X015742Y035462D01*
X015742Y035621D02*
X016319Y035621D01*
X016161Y035779D02*
X015742Y035779D01*
X015742Y035938D02*
X015805Y035938D01*
X015775Y036730D02*
X015787Y036730D01*
X013916Y038791D02*
X013132Y038791D01*
X013132Y038949D02*
X013827Y038949D01*
X013782Y039108D02*
X013132Y039108D01*
X013132Y039266D02*
X013782Y039266D01*
X013834Y039425D02*
X013132Y039425D01*
X013132Y039583D02*
X013935Y039583D01*
X014057Y039742D02*
X013132Y039742D01*
X013132Y039900D02*
X013916Y039900D01*
X013854Y040059D02*
X013132Y040059D01*
X013132Y040217D02*
X013842Y040217D01*
X013878Y040376D02*
X013132Y040376D01*
X013132Y040534D02*
X013971Y040534D01*
X014014Y040693D02*
X013132Y040693D01*
X013132Y040851D02*
X013867Y040851D01*
X013801Y041010D02*
X013132Y041010D01*
X013132Y041168D02*
X013782Y041168D01*
X013794Y041327D02*
X013132Y041327D01*
X013132Y041485D02*
X013859Y041485D01*
X013847Y041644D02*
X013132Y041644D01*
X013132Y041802D02*
X013782Y041802D01*
X013782Y041961D02*
X013132Y041961D01*
X013132Y042119D02*
X013782Y042119D01*
X013782Y042278D02*
X013132Y042278D01*
X013132Y042436D02*
X013782Y042436D01*
X013782Y042595D02*
X013132Y042595D01*
X013132Y042753D02*
X013891Y042753D01*
X013460Y044180D02*
X013132Y044180D01*
X013132Y044338D02*
X013333Y044338D01*
X013267Y044497D02*
X013132Y044497D01*
X013132Y044655D02*
X013222Y044655D01*
X013222Y044814D02*
X013132Y044814D01*
X013132Y044972D02*
X013231Y044972D01*
X013297Y045131D02*
X013132Y045131D01*
X013132Y045289D02*
X013373Y045289D01*
X013532Y045448D02*
X013132Y045448D01*
X013132Y045606D02*
X013819Y045606D01*
X013132Y045765D02*
X052022Y045765D01*
X050460Y044180D02*
X021429Y044180D01*
X021651Y044021D02*
X050645Y044021D01*
X051225Y040217D02*
X052022Y040217D01*
X052022Y040059D02*
X051384Y040059D01*
X051542Y039900D02*
X052022Y039900D01*
X052022Y039742D02*
X051701Y039742D01*
X051859Y039583D02*
X052022Y039583D01*
X052018Y039425D02*
X052022Y039425D01*
X052041Y038949D02*
X025401Y038949D01*
X025559Y038791D02*
X052082Y038791D01*
X052082Y038632D02*
X025718Y038632D01*
X025876Y038474D02*
X052082Y038474D01*
X052082Y038315D02*
X026035Y038315D01*
X026193Y038157D02*
X052082Y038157D01*
X052082Y037998D02*
X037232Y037998D01*
X037390Y037840D02*
X052082Y037840D01*
X052082Y037681D02*
X037549Y037681D01*
X037707Y037523D02*
X052082Y037523D01*
X052082Y037364D02*
X037866Y037364D01*
X038024Y037206D02*
X052082Y037206D01*
X052082Y037047D02*
X038183Y037047D01*
X038341Y036889D02*
X052082Y036889D01*
X052082Y036730D02*
X038500Y036730D01*
X038658Y036572D02*
X052082Y036572D01*
X052082Y036413D02*
X038817Y036413D01*
X038892Y036255D02*
X052082Y036255D01*
X052082Y036096D02*
X038892Y036096D01*
X038892Y035938D02*
X052082Y035938D01*
X052082Y035779D02*
X038892Y035779D01*
X038892Y035621D02*
X052082Y035621D01*
X052082Y035462D02*
X038892Y035462D01*
X038892Y035304D02*
X052082Y035304D01*
X052082Y035145D02*
X038892Y035145D01*
X038892Y034987D02*
X052082Y034987D01*
X052082Y034828D02*
X038892Y034828D01*
X038892Y034670D02*
X052082Y034670D01*
X052082Y034511D02*
X038892Y034511D01*
X038892Y034353D02*
X052082Y034353D01*
X052082Y034194D02*
X038892Y034194D01*
X038892Y034036D02*
X052082Y034036D01*
X052082Y033877D02*
X039000Y033877D01*
X039159Y033719D02*
X052082Y033719D01*
X052082Y033560D02*
X039317Y033560D01*
X039476Y033402D02*
X052082Y033402D01*
X052082Y033243D02*
X039634Y033243D01*
X039793Y033085D02*
X052082Y033085D01*
X052082Y032926D02*
X039951Y032926D01*
X040110Y032768D02*
X052082Y032768D01*
X052082Y027854D02*
X037301Y027854D01*
X037459Y027696D02*
X037850Y027696D01*
X037692Y027537D02*
X037618Y027537D01*
X037284Y027220D02*
X033935Y027220D01*
X034093Y027379D02*
X037126Y027379D01*
X036967Y027537D02*
X034252Y027537D01*
X034342Y027628D02*
X036877Y027628D01*
X037302Y027202D01*
X037302Y027148D01*
X037132Y026978D01*
X037132Y022018D01*
X034722Y019608D01*
X033547Y019608D01*
X031762Y021393D01*
X031762Y021483D01*
X031786Y021426D01*
X031941Y021271D01*
X032143Y021188D01*
X032362Y021188D01*
X032564Y021271D01*
X032718Y021426D01*
X032802Y021628D01*
X032802Y021847D01*
X032718Y022049D01*
X032564Y022204D01*
X032482Y022238D01*
X032564Y022271D01*
X032718Y022426D01*
X032802Y022628D01*
X032802Y022847D01*
X032718Y023049D01*
X032564Y023204D01*
X032482Y023238D01*
X032564Y023271D01*
X032718Y023426D01*
X032802Y023628D01*
X032802Y023847D01*
X032718Y024049D01*
X032564Y024204D01*
X032362Y024288D01*
X032143Y024288D01*
X031941Y024204D01*
X031786Y024049D01*
X031762Y023992D01*
X031762Y025048D01*
X033417Y026702D01*
X033442Y026677D01*
X033361Y026644D01*
X033206Y026489D01*
X033122Y026287D01*
X033122Y026068D01*
X033206Y025866D01*
X033361Y025711D01*
X033490Y025658D01*
X033361Y025604D01*
X033206Y025449D01*
X033122Y025247D01*
X033122Y025028D01*
X033206Y024826D01*
X033361Y024671D01*
X033563Y024588D01*
X033782Y024588D01*
X033984Y024671D01*
X034138Y024826D01*
X034172Y024907D01*
X034206Y024826D01*
X034361Y024671D01*
X034563Y024588D01*
X034782Y024588D01*
X034984Y024671D01*
X035138Y024826D01*
X035222Y025028D01*
X035222Y025247D01*
X035138Y025449D01*
X034984Y025604D01*
X034854Y025658D01*
X034984Y025711D01*
X035138Y025866D01*
X035222Y026068D01*
X035222Y026287D01*
X035138Y026489D01*
X034984Y026644D01*
X034782Y026728D01*
X034563Y026728D01*
X034361Y026644D01*
X034206Y026489D01*
X034172Y026408D01*
X034138Y026489D01*
X033984Y026644D01*
X033902Y026678D01*
X033902Y026867D01*
X033742Y027028D01*
X034342Y027628D01*
X034592Y028330D02*
X033651Y028330D01*
X033093Y028330D02*
X033091Y028330D01*
X032533Y028330D02*
X031822Y028330D01*
X031822Y028488D02*
X034750Y028488D01*
X034909Y028647D02*
X031822Y028647D01*
X031850Y028805D02*
X035067Y028805D01*
X035226Y028964D02*
X032008Y028964D01*
X032167Y029122D02*
X035384Y029122D01*
X035543Y029281D02*
X032325Y029281D01*
X031981Y029756D02*
X030542Y029756D01*
X030542Y029598D02*
X031822Y029598D01*
X031664Y029439D02*
X030542Y029439D01*
X030542Y029281D02*
X031505Y029281D01*
X031347Y029122D02*
X030542Y029122D01*
X030542Y028964D02*
X031246Y028964D01*
X031242Y028805D02*
X030542Y028805D01*
X030542Y028647D02*
X031242Y028647D01*
X031242Y028488D02*
X030542Y028488D01*
X030542Y028330D02*
X031242Y028330D01*
X031242Y028171D02*
X031115Y028171D01*
X030830Y028171D02*
X030542Y028171D01*
X030542Y028013D02*
X030617Y028013D01*
X030554Y027854D02*
X030542Y027854D01*
X030542Y027696D02*
X030554Y027696D01*
X030542Y027537D02*
X030621Y027537D01*
X030691Y027379D02*
X030542Y027379D01*
X030542Y027220D02*
X030800Y027220D01*
X030958Y027062D02*
X030542Y027062D01*
X030542Y026903D02*
X031002Y026903D01*
X031002Y026745D02*
X030542Y026745D01*
X030542Y026586D02*
X031002Y026586D01*
X031002Y026428D02*
X030542Y026428D01*
X030542Y026269D02*
X031002Y026269D01*
X031002Y026111D02*
X030542Y026111D01*
X030542Y025952D02*
X031002Y025952D01*
X031002Y025794D02*
X030542Y025794D01*
X030986Y025635D02*
X031002Y025635D01*
X031002Y024843D02*
X030542Y024843D01*
X030542Y024684D02*
X030990Y024684D01*
X030972Y024526D02*
X030542Y024526D01*
X030542Y024367D02*
X030972Y024367D01*
X030972Y024209D02*
X030542Y024209D01*
X030542Y024050D02*
X030972Y024050D01*
X030972Y023892D02*
X030542Y023892D01*
X030542Y023733D02*
X030972Y023733D01*
X030972Y023575D02*
X030542Y023575D01*
X030542Y023416D02*
X030972Y023416D01*
X030972Y023258D02*
X030542Y023258D01*
X030542Y023099D02*
X030972Y023099D01*
X030972Y022941D02*
X030542Y022941D01*
X030542Y022782D02*
X030972Y022782D01*
X030972Y022624D02*
X030542Y022624D01*
X030542Y022465D02*
X030972Y022465D01*
X030972Y022307D02*
X030542Y022307D01*
X030542Y022148D02*
X030972Y022148D01*
X030972Y021990D02*
X030542Y021990D01*
X030542Y021831D02*
X030972Y021831D01*
X030972Y021673D02*
X030542Y021673D01*
X030542Y021514D02*
X030972Y021514D01*
X030972Y021356D02*
X030542Y021356D01*
X030542Y021197D02*
X030972Y021197D01*
X030972Y021039D02*
X030542Y021039D01*
X030542Y020880D02*
X030972Y020880D01*
X030972Y020722D02*
X030542Y020722D01*
X030542Y020563D02*
X030972Y020563D01*
X030972Y020405D02*
X030542Y020405D01*
X030542Y020246D02*
X030972Y020246D01*
X031016Y020088D02*
X030542Y020088D01*
X030542Y019929D02*
X031168Y019929D01*
X031327Y019771D02*
X030542Y019771D01*
X030542Y019612D02*
X031485Y019612D01*
X031644Y019454D02*
X030542Y019454D01*
X030542Y019295D02*
X031802Y019295D01*
X031961Y019137D02*
X030542Y019137D01*
X030542Y018978D02*
X032119Y018978D01*
X032278Y018820D02*
X030542Y018820D01*
X030579Y018661D02*
X032436Y018661D01*
X032595Y018503D02*
X030737Y018503D01*
X030896Y018344D02*
X032813Y018344D01*
X033543Y019612D02*
X034727Y019612D01*
X034885Y019771D02*
X033384Y019771D01*
X033226Y019929D02*
X035044Y019929D01*
X035202Y020088D02*
X033067Y020088D01*
X032909Y020246D02*
X035361Y020246D01*
X035519Y020405D02*
X032750Y020405D01*
X032592Y020563D02*
X035678Y020563D01*
X035836Y020722D02*
X032433Y020722D01*
X032275Y020880D02*
X035995Y020880D01*
X036153Y021039D02*
X032116Y021039D01*
X032120Y021197D02*
X031958Y021197D01*
X031856Y021356D02*
X031799Y021356D01*
X032385Y021197D02*
X036312Y021197D01*
X036470Y021356D02*
X032648Y021356D01*
X032755Y021514D02*
X033058Y021514D01*
X033061Y021511D02*
X033263Y021428D01*
X033482Y021428D01*
X033684Y021511D01*
X033838Y021666D01*
X033922Y021868D01*
X033922Y022087D01*
X033838Y022289D01*
X033684Y022444D01*
X033602Y022478D01*
X033684Y022511D01*
X033838Y022666D01*
X033922Y022868D01*
X033922Y023087D01*
X033838Y023289D01*
X033684Y023444D01*
X033602Y023478D01*
X033684Y023511D01*
X033838Y023666D01*
X033922Y023868D01*
X033922Y024087D01*
X033838Y024289D01*
X033684Y024444D01*
X033482Y024528D01*
X033263Y024528D01*
X033061Y024444D01*
X032906Y024289D01*
X032822Y024087D01*
X032822Y023868D01*
X032906Y023666D01*
X033061Y023511D01*
X033142Y023478D01*
X033061Y023444D01*
X032906Y023289D01*
X032822Y023087D01*
X032822Y022868D01*
X032906Y022666D01*
X033061Y022511D01*
X033142Y022478D01*
X033061Y022444D01*
X032906Y022289D01*
X032822Y022087D01*
X032822Y021868D01*
X032906Y021666D01*
X033061Y021511D01*
X032903Y021673D02*
X032802Y021673D01*
X032802Y021831D02*
X032838Y021831D01*
X032822Y021990D02*
X032743Y021990D01*
X032848Y022148D02*
X032619Y022148D01*
X032599Y022307D02*
X032923Y022307D01*
X032735Y022465D02*
X033112Y022465D01*
X032948Y022624D02*
X032800Y022624D01*
X032802Y022782D02*
X032858Y022782D01*
X032822Y022941D02*
X032763Y022941D01*
X032827Y023099D02*
X032668Y023099D01*
X032531Y023258D02*
X032893Y023258D01*
X033033Y023416D02*
X032709Y023416D01*
X032780Y023575D02*
X032997Y023575D01*
X032878Y023733D02*
X032802Y023733D01*
X032784Y023892D02*
X032822Y023892D01*
X032822Y024050D02*
X032717Y024050D01*
X032873Y024209D02*
X032552Y024209D01*
X032984Y024367D02*
X031762Y024367D01*
X031762Y024209D02*
X031952Y024209D01*
X031787Y024050D02*
X031762Y024050D01*
X031762Y024526D02*
X033258Y024526D01*
X033348Y024684D02*
X031762Y024684D01*
X031762Y024843D02*
X033199Y024843D01*
X033133Y025001D02*
X031762Y025001D01*
X031874Y025160D02*
X033122Y025160D01*
X033152Y025318D02*
X032033Y025318D01*
X032191Y025477D02*
X033233Y025477D01*
X033436Y025635D02*
X032350Y025635D01*
X032508Y025794D02*
X033278Y025794D01*
X033170Y025952D02*
X032667Y025952D01*
X032825Y026111D02*
X033122Y026111D01*
X033122Y026269D02*
X032984Y026269D01*
X033142Y026428D02*
X033180Y026428D01*
X033301Y026586D02*
X033303Y026586D01*
X033123Y026861D02*
X031822Y025560D01*
X031822Y027536D01*
X031855Y027503D01*
X032009Y027439D01*
X032081Y027439D01*
X032081Y027316D01*
X032459Y027316D01*
X032459Y027279D01*
X032496Y027279D01*
X032496Y026921D01*
X032718Y026921D01*
X032760Y026932D01*
X032794Y026897D01*
X032883Y026861D01*
X033123Y026861D01*
X033007Y026745D02*
X031822Y026745D01*
X031822Y026903D02*
X032789Y026903D01*
X032848Y026586D02*
X031822Y026586D01*
X031822Y026428D02*
X032690Y026428D01*
X032531Y026269D02*
X031822Y026269D01*
X031822Y026111D02*
X032373Y026111D01*
X032214Y025952D02*
X031822Y025952D01*
X031822Y025794D02*
X032056Y025794D01*
X031897Y025635D02*
X031822Y025635D01*
X032292Y026578D02*
X032478Y026763D01*
X032478Y027298D01*
X032496Y027316D02*
X032459Y027316D01*
X032459Y027651D01*
X032497Y027742D01*
X032564Y027674D01*
X032496Y027674D01*
X032496Y027316D01*
X032459Y027279D02*
X032459Y026921D01*
X032237Y026921D01*
X032192Y026933D01*
X032150Y026957D01*
X032117Y026990D01*
X032093Y027031D01*
X032081Y027077D01*
X032081Y027279D01*
X032459Y027279D01*
X032459Y027220D02*
X032496Y027220D01*
X032496Y027062D02*
X032459Y027062D01*
X032459Y027379D02*
X032496Y027379D01*
X032496Y027537D02*
X032459Y027537D01*
X032478Y027696D02*
X032543Y027696D01*
X032423Y028171D02*
X032370Y028171D01*
X032081Y027379D02*
X031822Y027379D01*
X031822Y027220D02*
X032081Y027220D01*
X032085Y027062D02*
X031822Y027062D01*
X033776Y027062D02*
X037216Y027062D01*
X037132Y026903D02*
X033867Y026903D01*
X033902Y026745D02*
X037132Y026745D01*
X037132Y026586D02*
X035041Y026586D01*
X035164Y026428D02*
X037132Y026428D01*
X037132Y026269D02*
X035222Y026269D01*
X035222Y026111D02*
X037132Y026111D01*
X037132Y025952D02*
X035174Y025952D01*
X035066Y025794D02*
X037132Y025794D01*
X037132Y025635D02*
X034908Y025635D01*
X035111Y025477D02*
X037132Y025477D01*
X037132Y025318D02*
X035193Y025318D01*
X035222Y025160D02*
X037132Y025160D01*
X037132Y025001D02*
X035211Y025001D01*
X035145Y024843D02*
X037132Y024843D01*
X037132Y024684D02*
X034997Y024684D01*
X034348Y024684D02*
X033997Y024684D01*
X034145Y024843D02*
X034199Y024843D01*
X033760Y024367D02*
X037132Y024367D01*
X037132Y024209D02*
X033872Y024209D01*
X033922Y024050D02*
X037132Y024050D01*
X037132Y023892D02*
X033922Y023892D01*
X033866Y023733D02*
X037132Y023733D01*
X037132Y023575D02*
X033747Y023575D01*
X033711Y023416D02*
X037132Y023416D01*
X037132Y023258D02*
X033852Y023258D01*
X033917Y023099D02*
X037132Y023099D01*
X037132Y022941D02*
X033922Y022941D01*
X033887Y022782D02*
X037132Y022782D01*
X037132Y022624D02*
X033796Y022624D01*
X033632Y022465D02*
X037132Y022465D01*
X037132Y022307D02*
X033821Y022307D01*
X033897Y022148D02*
X037132Y022148D01*
X037104Y021990D02*
X033922Y021990D01*
X033907Y021831D02*
X036946Y021831D01*
X036787Y021673D02*
X033841Y021673D01*
X033687Y021514D02*
X036629Y021514D01*
X036923Y021356D02*
X038104Y021356D01*
X037946Y021514D02*
X037081Y021514D01*
X037240Y021673D02*
X037822Y021673D01*
X037802Y021831D02*
X037398Y021831D01*
X037776Y021990D02*
X037802Y021990D01*
X037928Y021532D02*
X037928Y021532D01*
X038263Y021197D02*
X036764Y021197D01*
X036606Y021039D02*
X038421Y021039D01*
X038580Y020880D02*
X036447Y020880D01*
X036289Y020722D02*
X038738Y020722D01*
X038897Y020563D02*
X036130Y020563D01*
X035972Y020405D02*
X039055Y020405D01*
X039214Y020246D02*
X035813Y020246D01*
X035655Y020088D02*
X039372Y020088D01*
X039531Y019929D02*
X035496Y019929D01*
X035338Y019771D02*
X039689Y019771D01*
X039846Y019613D02*
X039846Y019613D01*
X039848Y019612D02*
X035308Y019612D01*
X033486Y024526D02*
X037132Y024526D01*
X034303Y026586D02*
X034041Y026586D01*
X034164Y026428D02*
X034180Y026428D01*
X032139Y029915D02*
X030542Y029915D01*
X030542Y030073D02*
X032298Y030073D01*
X032456Y030232D02*
X030511Y030232D01*
X030370Y030390D02*
X032522Y030390D01*
X032522Y030549D02*
X030211Y030549D01*
X030053Y030707D02*
X032522Y030707D01*
X032522Y030866D02*
X029894Y030866D01*
X029852Y031024D02*
X032522Y031024D01*
X032522Y031183D02*
X029758Y031183D01*
X029343Y031341D02*
X032522Y031341D01*
X032522Y031500D02*
X029390Y031500D01*
X029375Y031658D02*
X032442Y031658D01*
X032394Y031817D02*
X029284Y031817D01*
X029145Y029915D02*
X028355Y029915D01*
X028534Y029756D02*
X029326Y029756D01*
X029722Y029598D02*
X028590Y029598D01*
X028584Y029439D02*
X029722Y029439D01*
X029722Y029281D02*
X029140Y029281D01*
X028804Y029281D02*
X028507Y029281D01*
X028613Y029122D02*
X028262Y029122D01*
X028083Y029122D02*
X021705Y029122D01*
X021710Y029281D02*
X027838Y029281D01*
X027760Y029439D02*
X021653Y029439D01*
X021467Y029598D02*
X027754Y029598D01*
X028554Y028964D02*
X021630Y028964D01*
X021389Y028805D02*
X022255Y028805D01*
X022329Y028836D02*
X022175Y028772D01*
X022058Y028654D01*
X021994Y028501D01*
X021994Y028334D01*
X022058Y028181D01*
X022175Y028063D01*
X022329Y027999D01*
X022495Y027999D01*
X022649Y028063D01*
X022767Y028181D01*
X022830Y028334D01*
X022830Y028501D01*
X022767Y028654D01*
X022649Y028772D01*
X022495Y028836D01*
X022329Y028836D01*
X022569Y028805D02*
X028558Y028805D01*
X028632Y028647D02*
X022770Y028647D01*
X022830Y028488D02*
X028868Y028488D01*
X029076Y028488D02*
X029292Y028488D01*
X029450Y028330D02*
X022828Y028330D01*
X022757Y028171D02*
X029482Y028171D01*
X029482Y028013D02*
X022527Y028013D01*
X022297Y028013D02*
X021022Y028013D01*
X021022Y028171D02*
X022067Y028171D01*
X021996Y028330D02*
X021022Y028330D01*
X021022Y028488D02*
X021994Y028488D01*
X022054Y028647D02*
X021131Y028647D01*
X021022Y027854D02*
X029482Y027854D01*
X029482Y027696D02*
X021022Y027696D01*
X021022Y027537D02*
X029482Y027537D01*
X029482Y027379D02*
X021022Y027379D01*
X021022Y027220D02*
X029482Y027220D01*
X029482Y027062D02*
X021022Y027062D01*
X021022Y026903D02*
X029482Y026903D01*
X029482Y026745D02*
X021022Y026745D01*
X021022Y026586D02*
X029482Y026586D01*
X029482Y026428D02*
X021022Y026428D01*
X021022Y026269D02*
X029482Y026269D01*
X029482Y026111D02*
X021022Y026111D01*
X021022Y025952D02*
X029482Y025952D01*
X029482Y025794D02*
X021022Y025794D01*
X021022Y025635D02*
X027912Y025635D01*
X027669Y025477D02*
X021022Y025477D01*
X021022Y025318D02*
X027560Y025318D01*
X027502Y025160D02*
X025981Y025160D01*
X025914Y025188D02*
X025671Y025188D01*
X025447Y025095D01*
X025292Y024940D01*
X025138Y025095D01*
X024914Y025188D01*
X024671Y025188D01*
X024447Y025095D01*
X024292Y024940D01*
X024138Y025095D01*
X023914Y025188D01*
X023671Y025188D01*
X023447Y025095D01*
X023275Y024923D01*
X023182Y024699D01*
X023182Y024456D01*
X023275Y024232D01*
X023447Y024060D01*
X023671Y023968D01*
X023914Y023968D01*
X024138Y024060D01*
X024292Y024215D01*
X024447Y024060D01*
X024671Y023968D01*
X024914Y023968D01*
X025138Y024060D01*
X025292Y024215D01*
X025447Y024060D01*
X025671Y023968D01*
X025914Y023968D01*
X026138Y024060D01*
X026309Y024232D01*
X026402Y024456D01*
X026402Y024699D01*
X026309Y024923D01*
X026138Y025095D01*
X025914Y025188D01*
X025603Y025160D02*
X024981Y025160D01*
X025231Y025001D02*
X025353Y025001D01*
X024603Y025160D02*
X023981Y025160D01*
X024231Y025001D02*
X024353Y025001D01*
X023603Y025160D02*
X021022Y025160D01*
X021022Y025001D02*
X023353Y025001D01*
X023242Y024843D02*
X021022Y024843D01*
X021022Y024684D02*
X023182Y024684D01*
X023182Y024526D02*
X021535Y024526D01*
X021619Y024367D02*
X023219Y024367D01*
X023298Y024209D02*
X021630Y024209D01*
X021579Y024050D02*
X023472Y024050D01*
X023559Y023733D02*
X021022Y023733D01*
X021421Y023892D02*
X029482Y023892D01*
X029482Y024050D02*
X026113Y024050D01*
X026286Y024209D02*
X029482Y024209D01*
X029482Y024367D02*
X026365Y024367D01*
X026402Y024526D02*
X027802Y024526D01*
X027623Y024684D02*
X026402Y024684D01*
X026343Y024843D02*
X027541Y024843D01*
X027502Y025001D02*
X026231Y025001D01*
X025472Y024050D02*
X025113Y024050D01*
X025286Y024209D02*
X025298Y024209D01*
X025065Y023733D02*
X025559Y023733D01*
X025347Y023575D02*
X025278Y023575D01*
X024559Y023733D02*
X024065Y023733D01*
X024278Y023575D02*
X024347Y023575D01*
X024472Y024050D02*
X024113Y024050D01*
X024286Y024209D02*
X024298Y024209D01*
X026065Y023733D02*
X029482Y023733D01*
X029482Y023575D02*
X026278Y023575D01*
X026374Y023416D02*
X029482Y023416D01*
X029482Y023258D02*
X026422Y023258D01*
X026422Y023099D02*
X029482Y023099D01*
X029482Y022941D02*
X027520Y022941D01*
X027613Y022782D02*
X029482Y022782D01*
X029482Y021039D02*
X025742Y021039D01*
X026279Y022782D02*
X026811Y022782D01*
X026904Y022941D02*
X026374Y022941D01*
X028422Y024526D02*
X028802Y024526D01*
X028623Y024684D02*
X028601Y024684D01*
X028556Y025477D02*
X028669Y025477D01*
X028912Y025635D02*
X028312Y025635D01*
X029312Y025635D02*
X029482Y025635D01*
X029482Y024526D02*
X029422Y024526D01*
X028072Y020722D02*
X027633Y020722D01*
X027829Y020563D02*
X027875Y020563D01*
X027897Y019771D02*
X027808Y019771D01*
X027581Y019612D02*
X028123Y019612D01*
X029006Y019295D02*
X029482Y019295D01*
X029482Y019137D02*
X029070Y019137D01*
X029070Y018978D02*
X029482Y018978D01*
X029482Y018820D02*
X029006Y018820D01*
X026939Y016601D02*
X026902Y016601D01*
X026910Y016442D02*
X027098Y016442D01*
X027256Y016284D02*
X026856Y016284D01*
X027083Y014540D02*
X027501Y014540D01*
X027359Y014382D02*
X027225Y014382D01*
X027290Y014223D02*
X027295Y014223D01*
X027290Y014065D02*
X027295Y014065D01*
X027345Y013906D02*
X027239Y013906D01*
X027743Y013589D02*
X027841Y013589D01*
X027795Y013431D02*
X027790Y013431D01*
X027787Y013272D02*
X027797Y013272D01*
X027863Y013114D02*
X027721Y013114D01*
X027792Y012955D02*
X027792Y012955D01*
X027792Y012797D02*
X027792Y012797D01*
X027792Y012638D02*
X027792Y012638D01*
X027792Y012480D02*
X027792Y012480D01*
X027792Y012321D02*
X027792Y012321D01*
X027958Y012166D02*
X027918Y012111D01*
X027887Y012049D01*
X027865Y011984D01*
X027855Y011916D01*
X027855Y011882D01*
X028292Y011882D01*
X028292Y012319D01*
X028258Y012319D01*
X028190Y012308D01*
X028124Y012287D01*
X028063Y012256D01*
X028007Y012215D01*
X027958Y012166D01*
X027956Y012163D02*
X027629Y012163D01*
X027712Y012004D02*
X027872Y012004D01*
X027855Y011881D02*
X027855Y011847D01*
X027865Y011779D01*
X027887Y011714D01*
X027918Y011652D01*
X027958Y011596D01*
X028007Y011548D01*
X028063Y011507D01*
X028124Y011476D01*
X028190Y011455D01*
X028258Y011444D01*
X028292Y011444D01*
X028292Y011881D01*
X028292Y011881D01*
X027855Y011881D01*
X027855Y011846D02*
X027729Y011846D01*
X027684Y011687D02*
X027900Y011687D01*
X028034Y011529D02*
X027551Y011529D01*
X027292Y011529D02*
X027292Y011529D01*
X027292Y011687D02*
X027292Y011687D01*
X027292Y011846D02*
X027292Y011846D01*
X027292Y012004D02*
X027292Y012004D01*
X027292Y012163D02*
X027292Y012163D01*
X027185Y012321D02*
X027484Y012321D01*
X027382Y012480D02*
X027268Y012480D01*
X027290Y012638D02*
X027355Y012638D01*
X027386Y012797D02*
X027262Y012797D01*
X026357Y012880D02*
X026295Y012730D01*
X026295Y012533D01*
X026358Y012379D01*
X026193Y012379D01*
X026131Y012353D01*
X026166Y012402D01*
X026198Y012464D01*
X026219Y012529D01*
X026230Y012597D01*
X026230Y012631D01*
X025792Y012631D01*
X025792Y012632D01*
X026230Y012632D01*
X026230Y012666D01*
X026219Y012734D01*
X026198Y012799D01*
X026166Y012861D01*
X026135Y012904D01*
X026193Y012880D01*
X026357Y012880D01*
X026322Y012797D02*
X026199Y012797D01*
X026230Y012638D02*
X026295Y012638D01*
X026317Y012480D02*
X026203Y012480D01*
X025792Y012480D02*
X025792Y012480D01*
X025792Y012638D02*
X025792Y012638D01*
X025792Y012797D02*
X025792Y012797D01*
X025792Y012955D02*
X025792Y012955D01*
X025721Y013114D02*
X025863Y013114D01*
X025797Y013272D02*
X025787Y013272D01*
X025790Y013431D02*
X025795Y013431D01*
X025841Y013589D02*
X025743Y013589D01*
X026239Y013906D02*
X026345Y013906D01*
X026295Y014065D02*
X026290Y014065D01*
X026290Y014223D02*
X026295Y014223D01*
X026359Y014382D02*
X026225Y014382D01*
X026083Y014540D02*
X026501Y014540D01*
X024797Y013272D02*
X024243Y013272D01*
X024483Y013114D02*
X024863Y013114D01*
X025012Y012955D02*
X024603Y012955D01*
X024669Y012797D02*
X025386Y012797D01*
X025355Y012638D02*
X024682Y012638D01*
X024678Y012480D02*
X025382Y012480D01*
X025792Y012321D02*
X025792Y012321D01*
X025780Y012004D02*
X025804Y012004D01*
X025790Y011846D02*
X025795Y011846D01*
X025834Y011687D02*
X025750Y011687D01*
X025643Y011529D02*
X025942Y011529D01*
X026643Y011529D02*
X027034Y011529D01*
X026900Y011687D02*
X026750Y011687D01*
X026790Y011846D02*
X026855Y011846D01*
X026872Y012004D02*
X026780Y012004D01*
X028100Y012321D02*
X028484Y012321D01*
X028460Y012287D02*
X028395Y012308D01*
X028327Y012319D01*
X028292Y012319D01*
X028292Y011882D01*
X028292Y011882D01*
X028292Y011881D01*
X028292Y011444D01*
X028327Y011444D01*
X028395Y011455D01*
X028460Y011476D01*
X028521Y011507D01*
X028577Y011548D01*
X028626Y011596D01*
X028666Y011652D01*
X028698Y011714D01*
X028719Y011779D01*
X028730Y011847D01*
X028730Y011881D01*
X028292Y011881D01*
X028292Y011882D01*
X028730Y011882D01*
X028730Y011916D01*
X028719Y011984D01*
X028698Y012049D01*
X028666Y012111D01*
X028626Y012166D01*
X028577Y012215D01*
X028521Y012256D01*
X028460Y012287D01*
X028382Y012480D02*
X028203Y012480D01*
X028230Y012638D02*
X028355Y012638D01*
X028386Y012797D02*
X028199Y012797D01*
X028792Y012797D02*
X028792Y012797D01*
X028792Y012955D02*
X028792Y012955D01*
X028721Y013114D02*
X028863Y013114D01*
X028797Y013272D02*
X028787Y013272D01*
X028790Y013431D02*
X028795Y013431D01*
X028841Y013589D02*
X028743Y013589D01*
X029199Y012797D02*
X029386Y012797D01*
X029355Y012638D02*
X029230Y012638D01*
X029203Y012480D02*
X029382Y012480D01*
X029327Y012319D02*
X029292Y012319D01*
X029258Y012319D01*
X029190Y012308D01*
X029124Y012287D01*
X029063Y012256D01*
X029007Y012215D01*
X028958Y012166D01*
X028918Y012111D01*
X028887Y012049D01*
X028865Y011984D01*
X028855Y011916D01*
X028855Y011882D01*
X029292Y011882D01*
X029292Y012319D01*
X029292Y011882D01*
X029292Y011882D01*
X029292Y011881D01*
X029292Y011881D01*
X029292Y011444D01*
X029258Y011444D01*
X029190Y011455D01*
X029124Y011476D01*
X029063Y011507D01*
X029007Y011548D01*
X028958Y011596D01*
X028918Y011652D01*
X028887Y011714D01*
X028865Y011779D01*
X028855Y011847D01*
X028855Y011881D01*
X029292Y011881D01*
X029292Y011444D01*
X029327Y011444D01*
X029395Y011455D01*
X029460Y011476D01*
X029521Y011507D01*
X029577Y011548D01*
X029626Y011596D01*
X029666Y011652D01*
X029698Y011714D01*
X029719Y011779D01*
X029730Y011847D01*
X029730Y011881D01*
X029292Y011881D01*
X029292Y011882D01*
X029730Y011882D01*
X029730Y011916D01*
X029719Y011984D01*
X029698Y012049D01*
X029666Y012111D01*
X029626Y012166D01*
X029577Y012215D01*
X029521Y012256D01*
X029460Y012287D01*
X029395Y012308D01*
X029327Y012319D01*
X029484Y012321D02*
X029100Y012321D01*
X028956Y012163D02*
X028629Y012163D01*
X028712Y012004D02*
X028872Y012004D01*
X028855Y011846D02*
X028729Y011846D01*
X028684Y011687D02*
X028900Y011687D01*
X029034Y011529D02*
X028551Y011529D01*
X028292Y011529D02*
X028292Y011529D01*
X028292Y011687D02*
X028292Y011687D01*
X028292Y011846D02*
X028292Y011846D01*
X028292Y012004D02*
X028292Y012004D01*
X028292Y012163D02*
X028292Y012163D01*
X028792Y012321D02*
X028792Y012321D01*
X028792Y012480D02*
X028792Y012480D01*
X028792Y012638D02*
X028792Y012638D01*
X029292Y012163D02*
X029292Y012163D01*
X029292Y012004D02*
X029292Y012004D01*
X029292Y011846D02*
X029292Y011846D01*
X029292Y011687D02*
X029292Y011687D01*
X029292Y011529D02*
X029292Y011529D01*
X029551Y011529D02*
X030034Y011529D01*
X030007Y011548D02*
X030063Y011507D01*
X030124Y011476D01*
X030190Y011455D01*
X030258Y011444D01*
X030292Y011444D01*
X030292Y011881D01*
X030292Y011881D01*
X029855Y011881D01*
X029855Y011847D01*
X029865Y011779D01*
X029887Y011714D01*
X029918Y011652D01*
X029958Y011596D01*
X030007Y011548D01*
X029900Y011687D02*
X029684Y011687D01*
X029729Y011846D02*
X029855Y011846D01*
X029855Y011882D02*
X030292Y011882D01*
X030292Y012319D01*
X030258Y012319D01*
X030190Y012308D01*
X030124Y012287D01*
X030063Y012256D01*
X030007Y012215D01*
X029958Y012166D01*
X029918Y012111D01*
X029887Y012049D01*
X029865Y011984D01*
X029855Y011916D01*
X029855Y011882D01*
X029872Y012004D02*
X029712Y012004D01*
X029629Y012163D02*
X029956Y012163D01*
X030100Y012321D02*
X030484Y012321D01*
X030460Y012287D02*
X030395Y012308D01*
X030327Y012319D01*
X030292Y012319D01*
X030292Y011882D01*
X030292Y011882D01*
X030292Y011881D01*
X030292Y011444D01*
X030327Y011444D01*
X030395Y011455D01*
X030460Y011476D01*
X030521Y011507D01*
X030577Y011548D01*
X030626Y011596D01*
X030666Y011652D01*
X030698Y011714D01*
X030719Y011779D01*
X030730Y011847D01*
X030730Y011881D01*
X030292Y011881D01*
X030292Y011882D01*
X030730Y011882D01*
X030730Y011916D01*
X030719Y011984D01*
X030698Y012049D01*
X030666Y012111D01*
X030626Y012166D01*
X030577Y012215D01*
X030521Y012256D01*
X030460Y012287D01*
X030382Y012480D02*
X030203Y012480D01*
X030230Y012638D02*
X030355Y012638D01*
X030386Y012797D02*
X030199Y012797D01*
X029792Y012797D02*
X029792Y012797D01*
X029792Y012955D02*
X029792Y012955D01*
X029721Y013114D02*
X029863Y013114D01*
X029797Y013272D02*
X029787Y013272D01*
X029790Y013431D02*
X029795Y013431D01*
X029841Y013589D02*
X029743Y013589D01*
X029792Y012638D02*
X029792Y012638D01*
X029792Y012480D02*
X029792Y012480D01*
X029792Y012321D02*
X029792Y012321D01*
X030292Y012163D02*
X030292Y012163D01*
X030292Y012004D02*
X030292Y012004D01*
X030292Y011846D02*
X030292Y011846D01*
X030292Y011687D02*
X030292Y011687D01*
X030292Y011529D02*
X030292Y011529D01*
X030551Y011529D02*
X031034Y011529D01*
X031007Y011548D02*
X031063Y011507D01*
X031124Y011476D01*
X031190Y011455D01*
X031258Y011444D01*
X031292Y011444D01*
X031292Y011881D01*
X031292Y011881D01*
X030855Y011881D01*
X030855Y011847D01*
X030865Y011779D01*
X030887Y011714D01*
X030918Y011652D01*
X030958Y011596D01*
X031007Y011548D01*
X030900Y011687D02*
X030684Y011687D01*
X030729Y011846D02*
X030855Y011846D01*
X030855Y011882D02*
X031292Y011882D01*
X031292Y012319D01*
X031258Y012319D01*
X031190Y012308D01*
X031124Y012287D01*
X031063Y012256D01*
X031007Y012215D01*
X030958Y012166D01*
X030918Y012111D01*
X030887Y012049D01*
X030865Y011984D01*
X030855Y011916D01*
X030855Y011882D01*
X030872Y012004D02*
X030712Y012004D01*
X030629Y012163D02*
X030956Y012163D01*
X031100Y012321D02*
X031484Y012321D01*
X031460Y012287D02*
X031395Y012308D01*
X031327Y012319D01*
X031292Y012319D01*
X031292Y011882D01*
X031292Y011882D01*
X031292Y011881D01*
X031292Y011444D01*
X031327Y011444D01*
X031395Y011455D01*
X031460Y011476D01*
X031521Y011507D01*
X031577Y011548D01*
X031626Y011596D01*
X031666Y011652D01*
X031698Y011714D01*
X031719Y011779D01*
X031730Y011847D01*
X031730Y011881D01*
X031292Y011881D01*
X031292Y011882D01*
X031730Y011882D01*
X031730Y011916D01*
X031719Y011984D01*
X031698Y012049D01*
X031666Y012111D01*
X031626Y012166D01*
X031577Y012215D01*
X031521Y012256D01*
X031460Y012287D01*
X031382Y012480D02*
X031203Y012480D01*
X031230Y012638D02*
X031355Y012638D01*
X031386Y012797D02*
X031199Y012797D01*
X030792Y012797D02*
X030792Y012797D01*
X030792Y012955D02*
X030792Y012955D01*
X030721Y013114D02*
X030863Y013114D01*
X030797Y013272D02*
X030787Y013272D01*
X030790Y013431D02*
X030795Y013431D01*
X030841Y013589D02*
X030743Y013589D01*
X030792Y012638D02*
X030792Y012638D01*
X030792Y012480D02*
X030792Y012480D01*
X030792Y012321D02*
X030792Y012321D01*
X031292Y012163D02*
X031292Y012163D01*
X031292Y012004D02*
X031292Y012004D01*
X031292Y011846D02*
X031292Y011846D01*
X031292Y011687D02*
X031292Y011687D01*
X031292Y011529D02*
X031292Y011529D01*
X031551Y011529D02*
X032034Y011529D01*
X032007Y011548D02*
X032063Y011507D01*
X032124Y011476D01*
X032190Y011455D01*
X032258Y011444D01*
X032292Y011444D01*
X032292Y011881D01*
X032292Y011881D01*
X031855Y011881D01*
X031855Y011847D01*
X031865Y011779D01*
X031887Y011714D01*
X031918Y011652D01*
X031958Y011596D01*
X032007Y011548D01*
X031900Y011687D02*
X031684Y011687D01*
X031729Y011846D02*
X031855Y011846D01*
X031855Y011882D02*
X032292Y011882D01*
X032292Y012319D01*
X032258Y012319D01*
X032190Y012308D01*
X032124Y012287D01*
X032063Y012256D01*
X032007Y012215D01*
X031958Y012166D01*
X031918Y012111D01*
X031887Y012049D01*
X031865Y011984D01*
X031855Y011916D01*
X031855Y011882D01*
X031872Y012004D02*
X031712Y012004D01*
X031629Y012163D02*
X031956Y012163D01*
X032100Y012321D02*
X032484Y012321D01*
X032460Y012287D02*
X032395Y012308D01*
X032327Y012319D01*
X032292Y012319D01*
X032292Y011882D01*
X032292Y011882D01*
X032292Y011881D01*
X032292Y011444D01*
X032327Y011444D01*
X032395Y011455D01*
X032460Y011476D01*
X032521Y011507D01*
X032577Y011548D01*
X032626Y011596D01*
X032666Y011652D01*
X032698Y011714D01*
X032719Y011779D01*
X032730Y011847D01*
X032730Y011881D01*
X032292Y011881D01*
X032292Y011882D01*
X032730Y011882D01*
X032730Y011916D01*
X032719Y011984D01*
X032698Y012049D01*
X032666Y012111D01*
X032626Y012166D01*
X032577Y012215D01*
X032521Y012256D01*
X032460Y012287D01*
X032382Y012480D02*
X032203Y012480D01*
X032230Y012638D02*
X032355Y012638D01*
X032386Y012797D02*
X032199Y012797D01*
X031792Y012797D02*
X031792Y012797D01*
X031792Y012955D02*
X031792Y012955D01*
X031721Y013114D02*
X031863Y013114D01*
X031797Y013272D02*
X031787Y013272D01*
X031790Y013431D02*
X031795Y013431D01*
X031841Y013589D02*
X031743Y013589D01*
X031792Y012638D02*
X031792Y012638D01*
X031792Y012480D02*
X031792Y012480D01*
X031792Y012321D02*
X031792Y012321D01*
X032292Y012163D02*
X032292Y012163D01*
X032292Y012004D02*
X032292Y012004D01*
X032292Y011846D02*
X032292Y011846D01*
X032292Y011687D02*
X032292Y011687D01*
X032292Y011529D02*
X032292Y011529D01*
X032551Y011529D02*
X033034Y011529D01*
X033007Y011548D02*
X033063Y011507D01*
X033124Y011476D01*
X033190Y011455D01*
X033258Y011444D01*
X033292Y011444D01*
X033292Y011881D01*
X033292Y011881D01*
X032855Y011881D01*
X032855Y011847D01*
X032865Y011779D01*
X032887Y011714D01*
X032918Y011652D01*
X032958Y011596D01*
X033007Y011548D01*
X032900Y011687D02*
X032684Y011687D01*
X032729Y011846D02*
X032855Y011846D01*
X032855Y011882D02*
X033292Y011882D01*
X033292Y012319D01*
X033258Y012319D01*
X033190Y012308D01*
X033124Y012287D01*
X033063Y012256D01*
X033007Y012215D01*
X032958Y012166D01*
X032918Y012111D01*
X032887Y012049D01*
X032865Y011984D01*
X032855Y011916D01*
X032855Y011882D01*
X032872Y012004D02*
X032712Y012004D01*
X032629Y012163D02*
X032956Y012163D01*
X033100Y012321D02*
X033484Y012321D01*
X033460Y012287D02*
X033395Y012308D01*
X033327Y012319D01*
X033292Y012319D01*
X033292Y011882D01*
X033292Y011882D01*
X033292Y011881D01*
X033292Y011444D01*
X033327Y011444D01*
X033395Y011455D01*
X033460Y011476D01*
X033521Y011507D01*
X033577Y011548D01*
X033626Y011596D01*
X033666Y011652D01*
X033698Y011714D01*
X033719Y011779D01*
X033730Y011847D01*
X033730Y011881D01*
X033292Y011881D01*
X033292Y011882D01*
X033730Y011882D01*
X033730Y011916D01*
X033719Y011984D01*
X033698Y012049D01*
X033666Y012111D01*
X033626Y012166D01*
X033577Y012215D01*
X033521Y012256D01*
X033460Y012287D01*
X033382Y012480D02*
X033203Y012480D01*
X033230Y012638D02*
X033355Y012638D01*
X033386Y012797D02*
X033199Y012797D01*
X032792Y012797D02*
X032792Y012797D01*
X032792Y012955D02*
X032792Y012955D01*
X032721Y013114D02*
X032863Y013114D01*
X032797Y013272D02*
X032787Y013272D01*
X032790Y013431D02*
X032795Y013431D01*
X032841Y013589D02*
X032743Y013589D01*
X033239Y013906D02*
X033345Y013906D01*
X033295Y014065D02*
X033290Y014065D01*
X033290Y014223D02*
X033295Y014223D01*
X033359Y014382D02*
X033225Y014382D01*
X033102Y014540D02*
X033501Y014540D01*
X033102Y014699D02*
X035002Y014699D01*
X035002Y014857D02*
X033102Y014857D01*
X034083Y014540D02*
X034501Y014540D01*
X034359Y014382D02*
X034225Y014382D01*
X034290Y014223D02*
X034295Y014223D01*
X034290Y014065D02*
X034295Y014065D01*
X034345Y013906D02*
X034239Y013906D01*
X033841Y013589D02*
X033743Y013589D01*
X033790Y013431D02*
X033795Y013431D01*
X033787Y013272D02*
X033797Y013272D01*
X033863Y013114D02*
X033721Y013114D01*
X033792Y012955D02*
X033792Y012955D01*
X033792Y012797D02*
X033792Y012797D01*
X033792Y012638D02*
X033792Y012638D01*
X033792Y012480D02*
X033792Y012480D01*
X033792Y012321D02*
X033792Y012321D01*
X033958Y012166D02*
X033918Y012111D01*
X033887Y012049D01*
X033865Y011984D01*
X033855Y011916D01*
X033855Y011882D01*
X034292Y011882D01*
X034292Y012319D01*
X034258Y012319D01*
X034190Y012308D01*
X034124Y012287D01*
X034063Y012256D01*
X034007Y012215D01*
X033958Y012166D01*
X033956Y012163D02*
X033629Y012163D01*
X033712Y012004D02*
X033872Y012004D01*
X033855Y011881D02*
X033855Y011847D01*
X033865Y011779D01*
X033887Y011714D01*
X033918Y011652D01*
X033958Y011596D01*
X034007Y011548D01*
X034063Y011507D01*
X034124Y011476D01*
X034190Y011455D01*
X034258Y011444D01*
X034292Y011444D01*
X034292Y011881D01*
X034292Y011881D01*
X033855Y011881D01*
X033855Y011846D02*
X033729Y011846D01*
X033684Y011687D02*
X033900Y011687D01*
X034034Y011529D02*
X033551Y011529D01*
X033292Y011529D02*
X033292Y011529D01*
X033292Y011687D02*
X033292Y011687D01*
X033292Y011846D02*
X033292Y011846D01*
X033292Y012004D02*
X033292Y012004D01*
X033292Y012163D02*
X033292Y012163D01*
X032792Y012321D02*
X032792Y012321D01*
X032792Y012480D02*
X032792Y012480D01*
X032792Y012638D02*
X032792Y012638D01*
X034100Y012321D02*
X034484Y012321D01*
X034460Y012287D02*
X034395Y012308D01*
X034327Y012319D01*
X034292Y012319D01*
X034292Y011882D01*
X034292Y011882D01*
X034292Y011881D01*
X034292Y011444D01*
X034327Y011444D01*
X034395Y011455D01*
X034460Y011476D01*
X034521Y011507D01*
X034577Y011548D01*
X034626Y011596D01*
X034666Y011652D01*
X034698Y011714D01*
X034719Y011779D01*
X034730Y011847D01*
X034730Y011881D01*
X034292Y011881D01*
X034292Y011882D01*
X034730Y011882D01*
X034730Y011916D01*
X034719Y011984D01*
X034698Y012049D01*
X034666Y012111D01*
X034626Y012166D01*
X034577Y012215D01*
X034521Y012256D01*
X034460Y012287D01*
X034382Y012480D02*
X034203Y012480D01*
X034230Y012638D02*
X034355Y012638D01*
X034386Y012797D02*
X034199Y012797D01*
X034792Y012797D02*
X034792Y012797D01*
X034792Y012955D02*
X034792Y012955D01*
X034721Y013114D02*
X034863Y013114D01*
X034797Y013272D02*
X034787Y013272D01*
X034790Y013431D02*
X034795Y013431D01*
X034841Y013589D02*
X034743Y013589D01*
X035199Y012797D02*
X035386Y012797D01*
X035355Y012638D02*
X035230Y012638D01*
X035203Y012480D02*
X035382Y012480D01*
X035327Y012319D02*
X035292Y012319D01*
X035258Y012319D01*
X035190Y012308D01*
X035124Y012287D01*
X035063Y012256D01*
X035007Y012215D01*
X034958Y012166D01*
X034918Y012111D01*
X034887Y012049D01*
X034865Y011984D01*
X034855Y011916D01*
X034855Y011882D01*
X035292Y011882D01*
X035292Y012319D01*
X035292Y011882D01*
X035292Y011882D01*
X035292Y011881D01*
X035292Y011881D01*
X035292Y011444D01*
X035258Y011444D01*
X035190Y011455D01*
X035124Y011476D01*
X035063Y011507D01*
X035007Y011548D01*
X034958Y011596D01*
X034918Y011652D01*
X034887Y011714D01*
X034865Y011779D01*
X034855Y011847D01*
X034855Y011881D01*
X035292Y011881D01*
X035292Y011444D01*
X035327Y011444D01*
X035395Y011455D01*
X035460Y011476D01*
X035521Y011507D01*
X035577Y011548D01*
X035626Y011596D01*
X035666Y011652D01*
X035698Y011714D01*
X035719Y011779D01*
X035730Y011847D01*
X035730Y011881D01*
X035292Y011881D01*
X035292Y011882D01*
X035730Y011882D01*
X035730Y011916D01*
X035719Y011984D01*
X035698Y012049D01*
X035666Y012111D01*
X035626Y012166D01*
X035577Y012215D01*
X035521Y012256D01*
X035460Y012287D01*
X035395Y012308D01*
X035327Y012319D01*
X035484Y012321D02*
X035100Y012321D01*
X034956Y012163D02*
X034629Y012163D01*
X034712Y012004D02*
X034872Y012004D01*
X034855Y011846D02*
X034729Y011846D01*
X034684Y011687D02*
X034900Y011687D01*
X035034Y011529D02*
X034551Y011529D01*
X034292Y011529D02*
X034292Y011529D01*
X034292Y011687D02*
X034292Y011687D01*
X034292Y011846D02*
X034292Y011846D01*
X034292Y012004D02*
X034292Y012004D01*
X034292Y012163D02*
X034292Y012163D01*
X034792Y012321D02*
X034792Y012321D01*
X034792Y012480D02*
X034792Y012480D01*
X034792Y012638D02*
X034792Y012638D01*
X035292Y012163D02*
X035292Y012163D01*
X035292Y012004D02*
X035292Y012004D01*
X035292Y011846D02*
X035292Y011846D01*
X035292Y011687D02*
X035292Y011687D01*
X035292Y011529D02*
X035292Y011529D01*
X035551Y011529D02*
X036034Y011529D01*
X036007Y011548D02*
X036063Y011507D01*
X036124Y011476D01*
X036190Y011455D01*
X036258Y011444D01*
X036292Y011444D01*
X036292Y011881D01*
X036292Y011881D01*
X035855Y011881D01*
X035855Y011847D01*
X035865Y011779D01*
X035887Y011714D01*
X035918Y011652D01*
X035958Y011596D01*
X036007Y011548D01*
X035900Y011687D02*
X035684Y011687D01*
X035729Y011846D02*
X035855Y011846D01*
X035855Y011882D02*
X036292Y011882D01*
X036292Y012319D01*
X036258Y012319D01*
X036190Y012308D01*
X036124Y012287D01*
X036063Y012256D01*
X036007Y012215D01*
X035958Y012166D01*
X035918Y012111D01*
X035887Y012049D01*
X035865Y011984D01*
X035855Y011916D01*
X035855Y011882D01*
X035872Y012004D02*
X035712Y012004D01*
X035629Y012163D02*
X035956Y012163D01*
X036100Y012321D02*
X036484Y012321D01*
X036460Y012287D02*
X036395Y012308D01*
X036327Y012319D01*
X036292Y012319D01*
X036292Y011882D01*
X036292Y011882D01*
X036292Y011881D01*
X036292Y011444D01*
X036327Y011444D01*
X036395Y011455D01*
X036460Y011476D01*
X036521Y011507D01*
X036577Y011548D01*
X036626Y011596D01*
X036666Y011652D01*
X036698Y011714D01*
X036719Y011779D01*
X036730Y011847D01*
X036730Y011881D01*
X036292Y011881D01*
X036292Y011882D01*
X036730Y011882D01*
X036730Y011916D01*
X036719Y011984D01*
X036698Y012049D01*
X036666Y012111D01*
X036626Y012166D01*
X036577Y012215D01*
X036521Y012256D01*
X036460Y012287D01*
X036382Y012480D02*
X036203Y012480D01*
X036230Y012638D02*
X036355Y012638D01*
X036386Y012797D02*
X036199Y012797D01*
X035792Y012797D02*
X035792Y012797D01*
X035792Y012955D02*
X035792Y012955D01*
X035721Y013114D02*
X035863Y013114D01*
X035797Y013272D02*
X035787Y013272D01*
X035790Y013431D02*
X035795Y013431D01*
X035841Y013589D02*
X035743Y013589D01*
X036239Y013906D02*
X036345Y013906D01*
X036295Y014065D02*
X036290Y014065D01*
X036290Y014223D02*
X036295Y014223D01*
X036359Y014382D02*
X036225Y014382D01*
X036083Y014540D02*
X036501Y014540D01*
X037083Y014540D02*
X037501Y014540D01*
X037359Y014382D02*
X037225Y014382D01*
X037290Y014223D02*
X037295Y014223D01*
X037290Y014065D02*
X037295Y014065D01*
X037345Y013906D02*
X037239Y013906D01*
X036841Y013589D02*
X036743Y013589D01*
X036790Y013431D02*
X036795Y013431D01*
X036787Y013272D02*
X036797Y013272D01*
X036863Y013114D02*
X036721Y013114D01*
X036792Y012955D02*
X036792Y012955D01*
X036792Y012797D02*
X036792Y012797D01*
X036792Y012638D02*
X036792Y012638D01*
X036792Y012480D02*
X036792Y012480D01*
X036792Y012321D02*
X036792Y012321D01*
X036958Y012166D02*
X036918Y012111D01*
X036887Y012049D01*
X036865Y011984D01*
X036855Y011916D01*
X036855Y011882D01*
X037292Y011882D01*
X037292Y012319D01*
X037258Y012319D01*
X037190Y012308D01*
X037124Y012287D01*
X037063Y012256D01*
X037007Y012215D01*
X036958Y012166D01*
X036956Y012163D02*
X036629Y012163D01*
X036712Y012004D02*
X036872Y012004D01*
X036855Y011881D02*
X036855Y011847D01*
X036865Y011779D01*
X036887Y011714D01*
X036918Y011652D01*
X036958Y011596D01*
X037007Y011548D01*
X037063Y011507D01*
X037124Y011476D01*
X037190Y011455D01*
X037258Y011444D01*
X037292Y011444D01*
X037292Y011881D01*
X037292Y011881D01*
X036855Y011881D01*
X036855Y011846D02*
X036729Y011846D01*
X036684Y011687D02*
X036900Y011687D01*
X037034Y011529D02*
X036551Y011529D01*
X036292Y011529D02*
X036292Y011529D01*
X036292Y011687D02*
X036292Y011687D01*
X036292Y011846D02*
X036292Y011846D01*
X036292Y012004D02*
X036292Y012004D01*
X036292Y012163D02*
X036292Y012163D01*
X035792Y012321D02*
X035792Y012321D01*
X035792Y012480D02*
X035792Y012480D01*
X035792Y012638D02*
X035792Y012638D01*
X037100Y012321D02*
X037484Y012321D01*
X037460Y012287D02*
X037395Y012308D01*
X037327Y012319D01*
X037292Y012319D01*
X037292Y011882D01*
X037292Y011882D01*
X037292Y011881D01*
X037292Y011444D01*
X037327Y011444D01*
X037395Y011455D01*
X037460Y011476D01*
X037521Y011507D01*
X037577Y011548D01*
X037626Y011596D01*
X037666Y011652D01*
X037698Y011714D01*
X037719Y011779D01*
X037730Y011847D01*
X037730Y011881D01*
X037292Y011881D01*
X037292Y011882D01*
X037730Y011882D01*
X037730Y011916D01*
X037719Y011984D01*
X037698Y012049D01*
X037666Y012111D01*
X037626Y012166D01*
X037577Y012215D01*
X037521Y012256D01*
X037460Y012287D01*
X037382Y012480D02*
X037203Y012480D01*
X037230Y012638D02*
X037355Y012638D01*
X037386Y012797D02*
X037199Y012797D01*
X037792Y012797D02*
X037792Y012797D01*
X037792Y012955D02*
X037792Y012955D01*
X037721Y013114D02*
X037863Y013114D01*
X037797Y013272D02*
X037787Y013272D01*
X037790Y013431D02*
X037795Y013431D01*
X037841Y013589D02*
X037743Y013589D01*
X038239Y013906D02*
X038345Y013906D01*
X038295Y014065D02*
X038290Y014065D01*
X038290Y014223D02*
X038295Y014223D01*
X038359Y014382D02*
X038225Y014382D01*
X038083Y014540D02*
X038501Y014540D01*
X039083Y014540D02*
X039501Y014540D01*
X039359Y014382D02*
X039225Y014382D01*
X039290Y014223D02*
X039295Y014223D01*
X039290Y014065D02*
X039295Y014065D01*
X039345Y013906D02*
X039239Y013906D01*
X038841Y013589D02*
X038743Y013589D01*
X038790Y013431D02*
X038795Y013431D01*
X038787Y013272D02*
X038797Y013272D01*
X038863Y013114D02*
X038721Y013114D01*
X038792Y012955D02*
X038792Y012955D01*
X038792Y012797D02*
X038792Y012797D01*
X038792Y012638D02*
X038792Y012638D01*
X038792Y012480D02*
X038792Y012480D01*
X038792Y012321D02*
X038792Y012321D01*
X038626Y012166D02*
X038577Y012215D01*
X038521Y012256D01*
X038460Y012287D01*
X038395Y012308D01*
X038327Y012319D01*
X038292Y012319D01*
X038258Y012319D01*
X038190Y012308D01*
X038124Y012287D01*
X038063Y012256D01*
X038007Y012215D01*
X037958Y012166D01*
X037918Y012111D01*
X037887Y012049D01*
X037865Y011984D01*
X037855Y011916D01*
X037855Y011882D01*
X038292Y011882D01*
X038292Y012319D01*
X038292Y011882D01*
X038292Y011882D01*
X038292Y011881D01*
X038292Y011881D01*
X038292Y011444D01*
X038258Y011444D01*
X038190Y011455D01*
X038124Y011476D01*
X038063Y011507D01*
X038007Y011548D01*
X037958Y011596D01*
X037918Y011652D01*
X037887Y011714D01*
X037865Y011779D01*
X037855Y011847D01*
X037855Y011881D01*
X038292Y011881D01*
X038292Y011444D01*
X038327Y011444D01*
X038395Y011455D01*
X038460Y011476D01*
X038521Y011507D01*
X038577Y011548D01*
X038626Y011596D01*
X038666Y011652D01*
X038698Y011714D01*
X038719Y011779D01*
X038730Y011847D01*
X038730Y011881D01*
X038292Y011881D01*
X038292Y011882D01*
X038730Y011882D01*
X038730Y011916D01*
X038719Y011984D01*
X038698Y012049D01*
X038666Y012111D01*
X038626Y012166D01*
X038629Y012163D02*
X038956Y012163D01*
X038872Y012004D02*
X038712Y012004D01*
X038729Y011846D02*
X038855Y011846D01*
X038900Y011687D02*
X038684Y011687D01*
X038551Y011529D02*
X039034Y011529D01*
X039292Y011529D02*
X039292Y011529D01*
X039292Y011687D02*
X039292Y011687D01*
X039292Y011846D02*
X039292Y011846D01*
X039292Y012004D02*
X039292Y012004D01*
X039292Y012163D02*
X039292Y012163D01*
X039100Y012321D02*
X039484Y012321D01*
X039382Y012480D02*
X039203Y012480D01*
X039230Y012638D02*
X039355Y012638D01*
X039386Y012797D02*
X039199Y012797D01*
X038386Y012797D02*
X038199Y012797D01*
X038230Y012638D02*
X038355Y012638D01*
X038382Y012480D02*
X038203Y012480D01*
X038100Y012321D02*
X038484Y012321D01*
X038292Y012163D02*
X038292Y012163D01*
X038292Y012004D02*
X038292Y012004D01*
X038292Y011846D02*
X038292Y011846D01*
X038292Y011687D02*
X038292Y011687D01*
X038292Y011529D02*
X038292Y011529D01*
X038034Y011529D02*
X037551Y011529D01*
X037684Y011687D02*
X037900Y011687D01*
X037855Y011846D02*
X037729Y011846D01*
X037712Y012004D02*
X037872Y012004D01*
X037956Y012163D02*
X037629Y012163D01*
X037792Y012321D02*
X037792Y012321D01*
X037792Y012480D02*
X037792Y012480D01*
X037792Y012638D02*
X037792Y012638D01*
X037292Y012163D02*
X037292Y012163D01*
X037292Y012004D02*
X037292Y012004D01*
X037292Y011846D02*
X037292Y011846D01*
X037292Y011687D02*
X037292Y011687D01*
X037292Y011529D02*
X037292Y011529D01*
X040792Y012321D02*
X040792Y012321D01*
X040792Y012480D02*
X040792Y012480D01*
X040792Y012638D02*
X040792Y012638D01*
X042987Y016418D02*
X042987Y017603D01*
X042652Y017938D01*
X042987Y018272D01*
X042987Y019138D01*
X043005Y019119D02*
X043005Y018741D01*
X043082Y018741D01*
X043082Y016814D01*
X043005Y016814D01*
X043005Y016436D01*
X042968Y016436D01*
X042968Y016814D01*
X042766Y016814D01*
X042721Y016802D01*
X042699Y016789D01*
X042650Y016838D01*
X042562Y016874D01*
X042271Y016874D01*
X042222Y016923D01*
X042222Y018681D01*
X042562Y018681D01*
X042650Y018718D01*
X042699Y018766D01*
X042721Y018753D01*
X042766Y018741D01*
X042968Y018741D01*
X042968Y019119D01*
X043005Y019119D01*
X043005Y018978D02*
X042968Y018978D01*
X042968Y018820D02*
X043005Y018820D01*
X043082Y018661D02*
X042222Y018661D01*
X042222Y018503D02*
X043082Y018503D01*
X043082Y018344D02*
X042222Y018344D01*
X042222Y018186D02*
X043082Y018186D01*
X043082Y018027D02*
X042222Y018027D01*
X042222Y017869D02*
X043082Y017869D01*
X043082Y017710D02*
X042222Y017710D01*
X042222Y017552D02*
X043082Y017552D01*
X043082Y017393D02*
X042222Y017393D01*
X042222Y017235D02*
X043082Y017235D01*
X043082Y017076D02*
X042222Y017076D01*
X042228Y016918D02*
X043082Y016918D01*
X043005Y016759D02*
X042968Y016759D01*
X042968Y016601D02*
X043005Y016601D01*
X043005Y016442D02*
X042968Y016442D01*
X044728Y016442D02*
X044765Y016442D01*
X044747Y016418D02*
X044747Y017598D01*
X044507Y017838D01*
X044372Y017838D01*
X045502Y017869D02*
X052022Y017869D01*
X052022Y018027D02*
X045502Y018027D01*
X045502Y018186D02*
X052022Y018186D01*
X052022Y018344D02*
X045502Y018344D01*
X045502Y018661D02*
X047876Y018661D01*
X047718Y018820D02*
X045502Y018820D01*
X045502Y018978D02*
X047559Y018978D01*
X047459Y019137D02*
X045502Y019137D01*
X045502Y019295D02*
X047452Y019295D01*
X047452Y019454D02*
X045502Y019454D01*
X045495Y019612D02*
X045499Y019612D01*
X045726Y019612D02*
X047452Y019612D01*
X047452Y019771D02*
X045957Y019771D01*
X046028Y019929D02*
X047452Y019929D01*
X047330Y020088D02*
X046030Y020088D01*
X045970Y020246D02*
X047171Y020246D01*
X047013Y020405D02*
X045770Y020405D01*
X045454Y020405D02*
X044288Y020405D01*
X044288Y020563D02*
X046854Y020563D01*
X047148Y020722D02*
X047249Y020722D01*
X047269Y020675D02*
X047369Y020574D01*
X047501Y020519D01*
X047643Y020519D01*
X047775Y020574D01*
X047876Y020675D01*
X047930Y020806D01*
X047930Y020949D01*
X047876Y021080D01*
X047775Y021181D01*
X047643Y021236D01*
X047501Y021236D01*
X047369Y021181D01*
X047269Y021080D01*
X047214Y020949D01*
X047214Y020806D01*
X047269Y020675D01*
X047307Y020563D02*
X047396Y020563D01*
X047465Y020405D02*
X049347Y020405D01*
X049306Y020446D02*
X049461Y020291D01*
X049542Y020258D01*
X049461Y020224D01*
X049306Y020069D01*
X049222Y019867D01*
X049222Y019648D01*
X049306Y019446D01*
X049461Y019291D01*
X049663Y019208D01*
X049882Y019208D01*
X050084Y019291D01*
X050238Y019446D01*
X050322Y019648D01*
X050322Y019867D01*
X050238Y020069D01*
X050084Y020224D01*
X050002Y020258D01*
X050084Y020291D01*
X050238Y020446D01*
X050322Y020648D01*
X050322Y020867D01*
X050238Y021069D01*
X050084Y021224D01*
X049882Y021308D01*
X049663Y021308D01*
X049461Y021224D01*
X049306Y021069D01*
X049222Y020867D01*
X049222Y020648D01*
X049306Y020446D01*
X049257Y020563D02*
X047749Y020563D01*
X047895Y020722D02*
X049222Y020722D01*
X049228Y020880D02*
X047930Y020880D01*
X047893Y021039D02*
X049293Y021039D01*
X049434Y021197D02*
X047737Y021197D01*
X047408Y021197D02*
X044193Y021197D01*
X044351Y021039D02*
X044687Y021039D01*
X045258Y021039D02*
X045327Y021039D01*
X045898Y021039D02*
X047251Y021039D01*
X047214Y020880D02*
X046990Y020880D01*
X047005Y021673D02*
X051012Y021673D01*
X051012Y021831D02*
X047125Y021831D01*
X047182Y021990D02*
X051012Y021990D01*
X051006Y022148D02*
X047182Y022148D01*
X047133Y022307D02*
X050847Y022307D01*
X050689Y022465D02*
X048377Y022465D01*
X048207Y022465D02*
X047022Y022465D01*
X046780Y022624D02*
X047985Y022624D01*
X047932Y022782D02*
X047035Y022782D01*
X046993Y023575D02*
X047374Y023575D01*
X047426Y023733D02*
X041657Y023733D01*
X041815Y023575D02*
X044271Y023575D01*
X044144Y023416D02*
X041974Y023416D01*
X042132Y023258D02*
X044082Y023258D01*
X044082Y023099D02*
X042291Y023099D01*
X042449Y022941D02*
X044127Y022941D01*
X044230Y022782D02*
X042608Y022782D01*
X042766Y022624D02*
X044484Y022624D01*
X044242Y022465D02*
X042925Y022465D01*
X043083Y022307D02*
X044132Y022307D01*
X044082Y022148D02*
X043242Y022148D01*
X043400Y021990D02*
X044082Y021990D01*
X044139Y021831D02*
X043559Y021831D01*
X043717Y021673D02*
X044259Y021673D01*
X044034Y021356D02*
X051012Y021356D01*
X051012Y021514D02*
X043876Y021514D01*
X045005Y021673D02*
X045259Y021673D01*
X045139Y021831D02*
X045125Y021831D01*
X046005Y021673D02*
X046259Y021673D01*
X046139Y021831D02*
X046125Y021831D01*
X046120Y023416D02*
X046144Y023416D01*
X046271Y023575D02*
X045993Y023575D01*
X045271Y023575D02*
X044993Y023575D01*
X045120Y023416D02*
X045144Y023416D01*
X045254Y020246D02*
X044288Y020246D01*
X045085Y020088D02*
X045194Y020088D01*
X047624Y020246D02*
X049514Y020246D01*
X049324Y020088D02*
X047772Y020088D01*
X047772Y019929D02*
X049248Y019929D01*
X049222Y019771D02*
X047772Y019771D01*
X047772Y019612D02*
X049237Y019612D01*
X049303Y019454D02*
X047772Y019454D01*
X047772Y019295D02*
X049457Y019295D01*
X050088Y019295D02*
X050330Y019295D01*
X050242Y019454D02*
X050488Y019454D01*
X050647Y019612D02*
X050307Y019612D01*
X050322Y019771D02*
X050805Y019771D01*
X050964Y019929D02*
X050296Y019929D01*
X050220Y020088D02*
X051012Y020088D01*
X051012Y020246D02*
X050030Y020246D01*
X050197Y020405D02*
X051012Y020405D01*
X051012Y020563D02*
X050287Y020563D01*
X050322Y020722D02*
X051012Y020722D01*
X051012Y020880D02*
X050317Y020880D01*
X050251Y021039D02*
X051012Y021039D01*
X051012Y021197D02*
X050110Y021197D01*
X050530Y022624D02*
X048599Y022624D01*
X048650Y022782D02*
X050372Y022782D01*
X051572Y020563D02*
X051598Y020563D01*
X050171Y019137D02*
X047853Y019137D01*
X048012Y018978D02*
X050013Y018978D01*
X050594Y017710D02*
X045502Y017710D01*
X045502Y017552D02*
X050436Y017552D01*
X050323Y017393D02*
X045502Y017393D01*
X045502Y017235D02*
X050257Y017235D01*
X051590Y017710D02*
X052022Y017710D01*
X052022Y017552D02*
X051748Y017552D01*
X051862Y017393D02*
X052022Y017393D01*
X052022Y017235D02*
X051927Y017235D01*
X051962Y017076D02*
X052022Y017076D01*
X052022Y016918D02*
X051962Y016918D01*
X051943Y016759D02*
X052022Y016759D01*
X052022Y016601D02*
X051878Y016601D01*
X051787Y016442D02*
X052022Y016442D01*
X052022Y016284D02*
X051628Y016284D01*
X044765Y016601D02*
X044728Y016601D01*
X044728Y016759D02*
X044765Y016759D01*
X040092Y028418D02*
X040092Y032418D01*
X038492Y034018D01*
X026132Y034018D01*
X026092Y034058D01*
X025832Y034058D01*
X025222Y034036D02*
X020222Y034036D01*
X020222Y034194D02*
X025228Y034194D01*
X025294Y034353D02*
X020222Y034353D01*
X020222Y034511D02*
X025423Y034511D01*
X025357Y034670D02*
X020222Y034670D01*
X020222Y034828D02*
X025267Y034828D01*
X025247Y033877D02*
X020222Y033877D01*
X020222Y033719D02*
X025312Y033719D01*
X025467Y033560D02*
X020222Y033560D01*
X020222Y033402D02*
X025314Y033402D01*
X025249Y033243D02*
X020222Y033243D01*
X020222Y033085D02*
X025222Y033085D01*
X025226Y032926D02*
X020222Y032926D01*
X020222Y032768D02*
X025292Y032768D01*
X025418Y032609D02*
X020222Y032609D01*
X020222Y032451D02*
X025704Y032451D01*
X025961Y032451D02*
X031126Y032451D01*
X031212Y032609D02*
X026246Y032609D01*
X026370Y034353D02*
X038572Y034353D01*
X038572Y034511D02*
X026241Y034511D01*
X026307Y034670D02*
X038572Y034670D01*
X038572Y034828D02*
X026397Y034828D01*
X026442Y034987D02*
X038572Y034987D01*
X038572Y035145D02*
X026442Y035145D01*
X026391Y035304D02*
X038572Y035304D01*
X038572Y035462D02*
X026290Y035462D01*
X020879Y037047D02*
X020506Y037047D01*
X020683Y037206D02*
X020701Y037206D01*
X020818Y039266D02*
X020566Y039266D01*
X020576Y039583D02*
X020724Y039583D01*
X020933Y039425D02*
X014950Y039425D01*
X014813Y040534D02*
X020942Y040534D01*
X020886Y040693D02*
X020539Y040693D01*
X020708Y040851D02*
X020716Y040851D01*
X020728Y040376D02*
X020572Y040376D01*
X020212Y040376D02*
X020172Y040376D01*
X020172Y040217D02*
X020212Y040217D01*
X020212Y040059D02*
X020172Y040059D01*
X020172Y039900D02*
X020212Y039900D01*
X020212Y039742D02*
X020172Y039742D01*
X020172Y039583D02*
X020212Y039583D01*
X021762Y041485D02*
X029284Y041485D01*
X029367Y041644D02*
X021649Y041644D01*
X021395Y041802D02*
X030674Y041802D01*
X030695Y041644D02*
X030017Y041644D01*
X030100Y041485D02*
X030793Y041485D01*
X030715Y041961D02*
X021598Y041961D01*
X020733Y044021D02*
X020651Y044021D01*
X020429Y044180D02*
X020955Y044180D01*
X031391Y041485D02*
X031393Y041485D01*
X036910Y031024D02*
X037674Y031024D01*
X037418Y030866D02*
X037167Y030866D01*
X037281Y030707D02*
X037304Y030707D01*
X038030Y031024D02*
X038583Y031024D01*
X038638Y030866D02*
X038287Y030866D01*
X038401Y030707D02*
X038512Y030707D01*
X029722Y029122D02*
X029478Y029122D01*
X029636Y028964D02*
X029722Y028964D01*
X020193Y022307D02*
X017613Y022307D01*
X017698Y022465D02*
X020035Y022465D01*
X019876Y022624D02*
X017710Y022624D01*
X017660Y022782D02*
X019718Y022782D01*
X019642Y024050D02*
X019590Y024050D01*
X019642Y024209D02*
X019431Y024209D01*
X019273Y024367D02*
X019642Y024367D01*
X019642Y024526D02*
X019114Y024526D01*
X018956Y024684D02*
X019642Y024684D01*
X019642Y024843D02*
X018797Y024843D01*
X018639Y025001D02*
X019642Y025001D01*
X017340Y025160D02*
X015742Y025160D01*
X015742Y025318D02*
X017182Y025318D01*
X017023Y025477D02*
X015742Y025477D01*
X015742Y025635D02*
X016865Y025635D01*
X016706Y025794D02*
X015742Y025794D01*
X015742Y025952D02*
X016548Y025952D01*
X016389Y026111D02*
X015742Y026111D01*
X015742Y026269D02*
X016287Y026269D01*
X016282Y026428D02*
X015742Y026428D01*
X015742Y026586D02*
X016282Y026586D01*
X016282Y026745D02*
X015742Y026745D01*
X015742Y026903D02*
X016282Y026903D01*
X016282Y027062D02*
X015742Y027062D01*
X016122Y027220D02*
X016282Y027220D01*
X016282Y027379D02*
X016262Y027379D01*
X015742Y025001D02*
X017204Y025001D01*
X017076Y024843D02*
X015742Y024843D01*
X015742Y024684D02*
X017034Y024684D01*
X017054Y024526D02*
X015742Y024526D01*
X015742Y024367D02*
X017151Y024367D01*
X021474Y020088D02*
X021482Y020088D01*
X015996Y018344D02*
X013957Y018344D01*
X016367Y030073D02*
X016522Y030073D01*
X016522Y030232D02*
X016329Y030232D01*
X016231Y030390D02*
X016522Y030390D01*
X016522Y030549D02*
X016175Y030549D01*
X016259Y030707D02*
X016522Y030707D01*
X016522Y030866D02*
X016270Y030866D01*
X016219Y031024D02*
X016522Y031024D01*
X016522Y031183D02*
X016063Y031183D01*
X015742Y031341D02*
X016522Y031341D01*
X016522Y031500D02*
X015742Y031500D01*
X015742Y031658D02*
X016522Y031658D01*
X016522Y031817D02*
X015742Y031817D01*
X015742Y031975D02*
X016522Y031975D01*
X016522Y032134D02*
X015742Y032134D01*
X015742Y032292D02*
X016522Y032292D01*
X016522Y032451D02*
X015742Y032451D01*
X015742Y032609D02*
X016522Y032609D01*
X016522Y032768D02*
X015742Y032768D01*
X015742Y032926D02*
X016522Y032926D01*
X016522Y033085D02*
X015742Y033085D01*
X015742Y033243D02*
X016522Y033243D01*
X016522Y033402D02*
X015742Y033402D01*
X015742Y033560D02*
X016522Y033560D01*
X017960Y031341D02*
X019642Y031341D01*
X019642Y031183D02*
X018030Y031183D01*
X018030Y031024D02*
X019642Y031024D01*
X019642Y030866D02*
X017969Y030866D01*
D18*
X046632Y023158D02*
X047452Y023158D01*
X047732Y023438D01*
X047732Y023538D01*
X047952Y023158D02*
X047452Y023158D01*
X047952Y023158D02*
X050392Y023158D01*
X051292Y022258D01*
X051292Y018898D01*
X051532Y018658D01*
X051612Y018738D01*
X048292Y022818D02*
X047952Y023158D01*
D19*
X045532Y032738D02*
X045532Y033778D01*
X043232Y036078D01*
X039832Y036078D01*
X038432Y037478D01*
X038412Y037458D02*
X038412Y038098D01*
X037852Y038658D01*
X027212Y038658D01*
X025892Y039978D01*
X021192Y039978D01*
M02*
