G75*
G70*
%OFA0B0*%
%FSLAX24Y24*%
%IPPOS*%
%LPD*%
%AMOC8*
5,1,8,0,0,1.08239X$1,22.5*
%
%ADD10C,0.0000*%
%ADD11C,0.0030*%
%ADD12C,0.0040*%
%ADD13C,0.0060*%
%ADD14C,0.0080*%
%ADD15C,0.0070*%
%ADD16C,0.0051*%
%ADD17C,0.0157*%
%ADD18C,0.0050*%
%ADD19C,0.0320*%
%ADD20C,0.0160*%
D10*
X012892Y010578D02*
X012892Y046011D01*
X052262Y046010D01*
X052262Y010578D01*
X012892Y010578D01*
X013462Y011778D02*
X013464Y011828D01*
X013470Y011878D01*
X013480Y011927D01*
X013494Y011975D01*
X013511Y012022D01*
X013532Y012067D01*
X013557Y012111D01*
X013585Y012152D01*
X013617Y012191D01*
X013651Y012228D01*
X013688Y012262D01*
X013728Y012292D01*
X013770Y012319D01*
X013814Y012343D01*
X013860Y012364D01*
X013907Y012380D01*
X013955Y012393D01*
X014005Y012402D01*
X014054Y012407D01*
X014105Y012408D01*
X014155Y012405D01*
X014204Y012398D01*
X014253Y012387D01*
X014301Y012372D01*
X014347Y012354D01*
X014392Y012332D01*
X014435Y012306D01*
X014476Y012277D01*
X014515Y012245D01*
X014551Y012210D01*
X014583Y012172D01*
X014613Y012132D01*
X014640Y012089D01*
X014663Y012045D01*
X014682Y011999D01*
X014698Y011951D01*
X014710Y011902D01*
X014718Y011853D01*
X014722Y011803D01*
X014722Y011753D01*
X014718Y011703D01*
X014710Y011654D01*
X014698Y011605D01*
X014682Y011557D01*
X014663Y011511D01*
X014640Y011467D01*
X014613Y011424D01*
X014583Y011384D01*
X014551Y011346D01*
X014515Y011311D01*
X014476Y011279D01*
X014435Y011250D01*
X014392Y011224D01*
X014347Y011202D01*
X014301Y011184D01*
X014253Y011169D01*
X014204Y011158D01*
X014155Y011151D01*
X014105Y011148D01*
X014054Y011149D01*
X014005Y011154D01*
X013955Y011163D01*
X013907Y011176D01*
X013860Y011192D01*
X013814Y011213D01*
X013770Y011237D01*
X013728Y011264D01*
X013688Y011294D01*
X013651Y011328D01*
X013617Y011365D01*
X013585Y011404D01*
X013557Y011445D01*
X013532Y011489D01*
X013511Y011534D01*
X013494Y011581D01*
X013480Y011629D01*
X013470Y011678D01*
X013464Y011728D01*
X013462Y011778D01*
X023536Y012628D02*
X023538Y012670D01*
X023544Y012712D01*
X023554Y012754D01*
X023567Y012794D01*
X023585Y012833D01*
X023606Y012870D01*
X023630Y012904D01*
X023658Y012937D01*
X023688Y012967D01*
X023721Y012993D01*
X023756Y013017D01*
X023794Y013037D01*
X023833Y013053D01*
X023873Y013066D01*
X023915Y013075D01*
X023957Y013080D01*
X024000Y013081D01*
X024042Y013078D01*
X024084Y013071D01*
X024125Y013060D01*
X024165Y013045D01*
X024203Y013027D01*
X024240Y013005D01*
X024274Y012980D01*
X024306Y012952D01*
X024334Y012921D01*
X024360Y012887D01*
X024383Y012851D01*
X024402Y012814D01*
X024418Y012774D01*
X024430Y012733D01*
X024438Y012692D01*
X024442Y012649D01*
X024442Y012607D01*
X024438Y012564D01*
X024430Y012523D01*
X024418Y012482D01*
X024402Y012442D01*
X024383Y012405D01*
X024360Y012369D01*
X024334Y012335D01*
X024306Y012304D01*
X024274Y012276D01*
X024240Y012251D01*
X024203Y012229D01*
X024165Y012211D01*
X024125Y012196D01*
X024084Y012185D01*
X024042Y012178D01*
X024000Y012175D01*
X023957Y012176D01*
X023915Y012181D01*
X023873Y012190D01*
X023833Y012203D01*
X023794Y012219D01*
X023756Y012239D01*
X023721Y012263D01*
X023688Y012289D01*
X023658Y012319D01*
X023630Y012352D01*
X023606Y012386D01*
X023585Y012423D01*
X023567Y012462D01*
X023554Y012502D01*
X023544Y012544D01*
X023538Y012586D01*
X023536Y012628D01*
X050642Y012628D02*
X050644Y012670D01*
X050650Y012712D01*
X050660Y012754D01*
X050673Y012794D01*
X050691Y012833D01*
X050712Y012870D01*
X050736Y012904D01*
X050764Y012937D01*
X050794Y012967D01*
X050827Y012993D01*
X050862Y013017D01*
X050900Y013037D01*
X050939Y013053D01*
X050979Y013066D01*
X051021Y013075D01*
X051063Y013080D01*
X051106Y013081D01*
X051148Y013078D01*
X051190Y013071D01*
X051231Y013060D01*
X051271Y013045D01*
X051309Y013027D01*
X051346Y013005D01*
X051380Y012980D01*
X051412Y012952D01*
X051440Y012921D01*
X051466Y012887D01*
X051489Y012851D01*
X051508Y012814D01*
X051524Y012774D01*
X051536Y012733D01*
X051544Y012692D01*
X051548Y012649D01*
X051548Y012607D01*
X051544Y012564D01*
X051536Y012523D01*
X051524Y012482D01*
X051508Y012442D01*
X051489Y012405D01*
X051466Y012369D01*
X051440Y012335D01*
X051412Y012304D01*
X051380Y012276D01*
X051346Y012251D01*
X051309Y012229D01*
X051271Y012211D01*
X051231Y012196D01*
X051190Y012185D01*
X051148Y012178D01*
X051106Y012175D01*
X051063Y012176D01*
X051021Y012181D01*
X050979Y012190D01*
X050939Y012203D01*
X050900Y012219D01*
X050862Y012239D01*
X050827Y012263D01*
X050794Y012289D01*
X050764Y012319D01*
X050736Y012352D01*
X050712Y012386D01*
X050691Y012423D01*
X050673Y012462D01*
X050660Y012502D01*
X050650Y012544D01*
X050644Y012586D01*
X050642Y012628D01*
X050462Y016978D02*
X050464Y017028D01*
X050470Y017078D01*
X050480Y017127D01*
X050494Y017175D01*
X050511Y017222D01*
X050532Y017267D01*
X050557Y017311D01*
X050585Y017352D01*
X050617Y017391D01*
X050651Y017428D01*
X050688Y017462D01*
X050728Y017492D01*
X050770Y017519D01*
X050814Y017543D01*
X050860Y017564D01*
X050907Y017580D01*
X050955Y017593D01*
X051005Y017602D01*
X051054Y017607D01*
X051105Y017608D01*
X051155Y017605D01*
X051204Y017598D01*
X051253Y017587D01*
X051301Y017572D01*
X051347Y017554D01*
X051392Y017532D01*
X051435Y017506D01*
X051476Y017477D01*
X051515Y017445D01*
X051551Y017410D01*
X051583Y017372D01*
X051613Y017332D01*
X051640Y017289D01*
X051663Y017245D01*
X051682Y017199D01*
X051698Y017151D01*
X051710Y017102D01*
X051718Y017053D01*
X051722Y017003D01*
X051722Y016953D01*
X051718Y016903D01*
X051710Y016854D01*
X051698Y016805D01*
X051682Y016757D01*
X051663Y016711D01*
X051640Y016667D01*
X051613Y016624D01*
X051583Y016584D01*
X051551Y016546D01*
X051515Y016511D01*
X051476Y016479D01*
X051435Y016450D01*
X051392Y016424D01*
X051347Y016402D01*
X051301Y016384D01*
X051253Y016369D01*
X051204Y016358D01*
X051155Y016351D01*
X051105Y016348D01*
X051054Y016349D01*
X051005Y016354D01*
X050955Y016363D01*
X050907Y016376D01*
X050860Y016392D01*
X050814Y016413D01*
X050770Y016437D01*
X050728Y016464D01*
X050688Y016494D01*
X050651Y016528D01*
X050617Y016565D01*
X050585Y016604D01*
X050557Y016645D01*
X050532Y016689D01*
X050511Y016734D01*
X050494Y016781D01*
X050480Y016829D01*
X050470Y016878D01*
X050464Y016928D01*
X050462Y016978D01*
X050462Y044778D02*
X050464Y044828D01*
X050470Y044878D01*
X050480Y044927D01*
X050494Y044975D01*
X050511Y045022D01*
X050532Y045067D01*
X050557Y045111D01*
X050585Y045152D01*
X050617Y045191D01*
X050651Y045228D01*
X050688Y045262D01*
X050728Y045292D01*
X050770Y045319D01*
X050814Y045343D01*
X050860Y045364D01*
X050907Y045380D01*
X050955Y045393D01*
X051005Y045402D01*
X051054Y045407D01*
X051105Y045408D01*
X051155Y045405D01*
X051204Y045398D01*
X051253Y045387D01*
X051301Y045372D01*
X051347Y045354D01*
X051392Y045332D01*
X051435Y045306D01*
X051476Y045277D01*
X051515Y045245D01*
X051551Y045210D01*
X051583Y045172D01*
X051613Y045132D01*
X051640Y045089D01*
X051663Y045045D01*
X051682Y044999D01*
X051698Y044951D01*
X051710Y044902D01*
X051718Y044853D01*
X051722Y044803D01*
X051722Y044753D01*
X051718Y044703D01*
X051710Y044654D01*
X051698Y044605D01*
X051682Y044557D01*
X051663Y044511D01*
X051640Y044467D01*
X051613Y044424D01*
X051583Y044384D01*
X051551Y044346D01*
X051515Y044311D01*
X051476Y044279D01*
X051435Y044250D01*
X051392Y044224D01*
X051347Y044202D01*
X051301Y044184D01*
X051253Y044169D01*
X051204Y044158D01*
X051155Y044151D01*
X051105Y044148D01*
X051054Y044149D01*
X051005Y044154D01*
X050955Y044163D01*
X050907Y044176D01*
X050860Y044192D01*
X050814Y044213D01*
X050770Y044237D01*
X050728Y044264D01*
X050688Y044294D01*
X050651Y044328D01*
X050617Y044365D01*
X050585Y044404D01*
X050557Y044445D01*
X050532Y044489D01*
X050511Y044534D01*
X050494Y044581D01*
X050480Y044629D01*
X050470Y044678D01*
X050464Y044728D01*
X050462Y044778D01*
X013462Y044778D02*
X013464Y044828D01*
X013470Y044878D01*
X013480Y044927D01*
X013494Y044975D01*
X013511Y045022D01*
X013532Y045067D01*
X013557Y045111D01*
X013585Y045152D01*
X013617Y045191D01*
X013651Y045228D01*
X013688Y045262D01*
X013728Y045292D01*
X013770Y045319D01*
X013814Y045343D01*
X013860Y045364D01*
X013907Y045380D01*
X013955Y045393D01*
X014005Y045402D01*
X014054Y045407D01*
X014105Y045408D01*
X014155Y045405D01*
X014204Y045398D01*
X014253Y045387D01*
X014301Y045372D01*
X014347Y045354D01*
X014392Y045332D01*
X014435Y045306D01*
X014476Y045277D01*
X014515Y045245D01*
X014551Y045210D01*
X014583Y045172D01*
X014613Y045132D01*
X014640Y045089D01*
X014663Y045045D01*
X014682Y044999D01*
X014698Y044951D01*
X014710Y044902D01*
X014718Y044853D01*
X014722Y044803D01*
X014722Y044753D01*
X014718Y044703D01*
X014710Y044654D01*
X014698Y044605D01*
X014682Y044557D01*
X014663Y044511D01*
X014640Y044467D01*
X014613Y044424D01*
X014583Y044384D01*
X014551Y044346D01*
X014515Y044311D01*
X014476Y044279D01*
X014435Y044250D01*
X014392Y044224D01*
X014347Y044202D01*
X014301Y044184D01*
X014253Y044169D01*
X014204Y044158D01*
X014155Y044151D01*
X014105Y044148D01*
X014054Y044149D01*
X014005Y044154D01*
X013955Y044163D01*
X013907Y044176D01*
X013860Y044192D01*
X013814Y044213D01*
X013770Y044237D01*
X013728Y044264D01*
X013688Y044294D01*
X013651Y044328D01*
X013617Y044365D01*
X013585Y044404D01*
X013557Y044445D01*
X013532Y044489D01*
X013511Y044534D01*
X013494Y044581D01*
X013480Y044629D01*
X013470Y044678D01*
X013464Y044728D01*
X013462Y044778D01*
D11*
X017627Y044643D02*
X017874Y044643D01*
X017996Y044643D02*
X018181Y044643D01*
X018242Y044581D01*
X018242Y044458D01*
X018181Y044396D01*
X017996Y044396D01*
X017996Y044273D02*
X017996Y044643D01*
X017751Y044643D02*
X017751Y044273D01*
X018364Y044273D02*
X018611Y044519D01*
X018611Y044581D01*
X018549Y044643D01*
X018426Y044643D01*
X018364Y044581D01*
X018364Y044273D02*
X018611Y044273D01*
X018549Y042883D02*
X018364Y042698D01*
X018611Y042698D01*
X018549Y042513D02*
X018549Y042883D01*
X018242Y042821D02*
X018242Y042698D01*
X018181Y042636D01*
X017996Y042636D01*
X017996Y042513D02*
X017996Y042883D01*
X018181Y042883D01*
X018242Y042821D01*
X017874Y042883D02*
X017627Y042883D01*
X017751Y042883D02*
X017751Y042513D01*
X017714Y041123D02*
X017467Y041123D01*
X017591Y041123D02*
X017591Y040753D01*
X017836Y040753D02*
X017836Y041123D01*
X018021Y041123D01*
X018082Y041061D01*
X018082Y040938D01*
X018021Y040876D01*
X017836Y040876D01*
X018204Y040999D02*
X018327Y041123D01*
X018327Y040753D01*
X018204Y040753D02*
X018451Y040753D01*
X018572Y040814D02*
X018572Y040876D01*
X018634Y040938D01*
X018757Y040938D01*
X018819Y040876D01*
X018819Y040814D01*
X018757Y040753D01*
X018634Y040753D01*
X018572Y040814D01*
X018634Y040938D02*
X018572Y040999D01*
X018572Y041061D01*
X018634Y041123D01*
X018757Y041123D01*
X018819Y041061D01*
X018819Y040999D01*
X018757Y040938D01*
X018757Y039363D02*
X018634Y039363D01*
X018572Y039301D01*
X018572Y039239D01*
X018634Y039178D01*
X018819Y039178D01*
X018819Y039301D02*
X018757Y039363D01*
X018819Y039301D02*
X018819Y039054D01*
X018757Y038993D01*
X018634Y038993D01*
X018572Y039054D01*
X018451Y039054D02*
X018389Y038993D01*
X018266Y038993D01*
X018204Y039054D01*
X018082Y039178D02*
X018021Y039116D01*
X017836Y039116D01*
X017836Y038993D02*
X017836Y039363D01*
X018021Y039363D01*
X018082Y039301D01*
X018082Y039178D01*
X018204Y039301D02*
X018266Y039363D01*
X018389Y039363D01*
X018451Y039301D01*
X018451Y039239D01*
X018389Y039178D01*
X018451Y039116D01*
X018451Y039054D01*
X018389Y039178D02*
X018327Y039178D01*
X017714Y039363D02*
X017467Y039363D01*
X017591Y039363D02*
X017591Y038993D01*
X018187Y037523D02*
X018434Y037523D01*
X018556Y037523D02*
X018741Y037523D01*
X018802Y037461D01*
X018802Y037338D01*
X018741Y037276D01*
X018556Y037276D01*
X018556Y037153D02*
X018556Y037523D01*
X018311Y037523D02*
X018311Y037153D01*
X018924Y037338D02*
X019171Y037338D01*
X019292Y037461D02*
X019354Y037523D01*
X019477Y037523D01*
X019539Y037461D01*
X019292Y037214D01*
X019354Y037153D01*
X019477Y037153D01*
X019539Y037214D01*
X019539Y037461D01*
X019292Y037461D02*
X019292Y037214D01*
X019109Y037153D02*
X019109Y037523D01*
X018924Y037338D01*
X018789Y034963D02*
X018604Y034778D01*
X018851Y034778D01*
X018972Y034839D02*
X019096Y034963D01*
X019096Y034593D01*
X019219Y034593D02*
X018972Y034593D01*
X018789Y034593D02*
X018789Y034963D01*
X018482Y034901D02*
X018482Y034778D01*
X018421Y034716D01*
X018236Y034716D01*
X018236Y034593D02*
X018236Y034963D01*
X018421Y034963D01*
X018482Y034901D01*
X018114Y034963D02*
X017867Y034963D01*
X017991Y034963D02*
X017991Y034593D01*
X019194Y033203D02*
X019441Y033203D01*
X019562Y033203D02*
X019747Y033203D01*
X019809Y033141D01*
X019809Y033018D01*
X019747Y032956D01*
X019562Y032956D01*
X019562Y032833D02*
X019562Y033203D01*
X019317Y033203D02*
X019317Y032833D01*
X019931Y032833D02*
X020177Y033079D01*
X020177Y033141D01*
X020116Y033203D01*
X019992Y033203D01*
X019931Y033141D01*
X019931Y032833D02*
X020177Y032833D01*
X020299Y033018D02*
X020546Y033018D01*
X020484Y033203D02*
X020299Y033018D01*
X020484Y032833D02*
X020484Y033203D01*
X021547Y032969D02*
X021547Y032846D01*
X021609Y032784D01*
X021670Y032784D01*
X021732Y032846D01*
X021732Y033031D01*
X021609Y033031D02*
X021547Y032969D01*
X021609Y033031D02*
X021855Y033031D01*
X021917Y032969D01*
X021917Y032846D01*
X021855Y032784D01*
X021732Y032663D02*
X021732Y032416D01*
X021547Y032601D01*
X021917Y032601D01*
X021855Y032294D02*
X021917Y032233D01*
X021917Y032109D01*
X021855Y032048D01*
X021609Y032048D01*
X021547Y032109D01*
X021547Y032233D01*
X021609Y032294D01*
X022427Y033713D02*
X022551Y033713D01*
X022489Y033713D02*
X022489Y034083D01*
X022427Y034083D02*
X022551Y034083D01*
X022673Y034021D02*
X022673Y033774D01*
X022734Y033713D01*
X022858Y033713D01*
X022920Y033774D01*
X023041Y033713D02*
X023288Y033713D01*
X023164Y033713D02*
X023164Y034083D01*
X023041Y033959D01*
X022920Y034021D02*
X022858Y034083D01*
X022734Y034083D01*
X022673Y034021D01*
X023409Y033898D02*
X023656Y033898D01*
X023595Y034083D02*
X023409Y033898D01*
X023595Y033713D02*
X023595Y034083D01*
X024267Y035293D02*
X024267Y035663D01*
X024452Y035663D01*
X024514Y035601D01*
X024514Y035478D01*
X024452Y035416D01*
X024267Y035416D01*
X024391Y035416D02*
X024514Y035293D01*
X024636Y035293D02*
X024882Y035293D01*
X025004Y035293D02*
X025251Y035539D01*
X025251Y035601D01*
X025189Y035663D01*
X025066Y035663D01*
X025004Y035601D01*
X024759Y035663D02*
X024759Y035293D01*
X025004Y035293D02*
X025251Y035293D01*
X024759Y035663D02*
X024636Y035539D01*
X025431Y036193D02*
X025431Y036563D01*
X025554Y036563D02*
X025307Y036563D01*
X025676Y036563D02*
X025861Y036563D01*
X025922Y036501D01*
X025922Y036378D01*
X025861Y036316D01*
X025676Y036316D01*
X025676Y036193D02*
X025676Y036563D01*
X026044Y036501D02*
X026106Y036563D01*
X026229Y036563D01*
X026291Y036501D01*
X026291Y036439D01*
X026229Y036378D01*
X026291Y036316D01*
X026291Y036254D01*
X026229Y036193D01*
X026106Y036193D01*
X026044Y036254D01*
X026167Y036378D02*
X026229Y036378D01*
X026412Y036501D02*
X026474Y036563D01*
X026597Y036563D01*
X026659Y036501D01*
X026412Y036254D01*
X026474Y036193D01*
X026597Y036193D01*
X026659Y036254D01*
X026659Y036501D01*
X026412Y036501D02*
X026412Y036254D01*
X024677Y038353D02*
X024739Y038414D01*
X024739Y038661D01*
X024677Y038723D01*
X024554Y038723D01*
X024492Y038661D01*
X024492Y038599D01*
X024554Y038538D01*
X024739Y038538D01*
X024677Y038353D02*
X024554Y038353D01*
X024492Y038414D01*
X024371Y038353D02*
X024124Y038353D01*
X024371Y038599D01*
X024371Y038661D01*
X024309Y038723D01*
X024186Y038723D01*
X024124Y038661D01*
X024002Y038661D02*
X024002Y038538D01*
X023941Y038476D01*
X023756Y038476D01*
X023756Y038353D02*
X023756Y038723D01*
X023941Y038723D01*
X024002Y038661D01*
X023634Y038723D02*
X023387Y038723D01*
X023511Y038723D02*
X023511Y038353D01*
X022397Y038416D02*
X022027Y038416D01*
X022027Y038601D01*
X022089Y038663D01*
X022212Y038663D01*
X022274Y038601D01*
X022274Y038416D01*
X022335Y038233D02*
X022027Y038233D01*
X022027Y038294D02*
X022027Y038171D01*
X022169Y037911D02*
X022107Y037849D01*
X022107Y037726D01*
X022169Y037664D01*
X022169Y037543D02*
X022107Y037481D01*
X022107Y037358D01*
X022169Y037296D01*
X022169Y037174D02*
X022107Y037113D01*
X022107Y036928D01*
X022477Y036928D01*
X022354Y036928D02*
X022354Y037113D01*
X022292Y037174D01*
X022169Y037174D01*
X022477Y037296D02*
X022230Y037543D01*
X022169Y037543D01*
X022292Y037788D02*
X022292Y037849D01*
X022354Y037911D01*
X022415Y037911D01*
X022477Y037849D01*
X022477Y037726D01*
X022415Y037664D01*
X022477Y037543D02*
X022477Y037296D01*
X022415Y036744D02*
X022107Y036744D01*
X022107Y036683D02*
X022107Y036806D01*
X022415Y036744D02*
X022477Y036683D01*
X022477Y036621D01*
X022415Y036559D01*
X021546Y035043D02*
X021423Y035043D01*
X021361Y034981D01*
X021240Y034981D02*
X021178Y035043D01*
X021054Y035043D01*
X020993Y034981D01*
X020993Y034734D01*
X021054Y034673D01*
X021178Y034673D01*
X021240Y034734D01*
X021361Y034673D02*
X021608Y034919D01*
X021608Y034981D01*
X021546Y035043D01*
X021608Y034673D02*
X021361Y034673D01*
X020871Y034673D02*
X020747Y034673D01*
X020809Y034673D02*
X020809Y035043D01*
X020747Y035043D02*
X020871Y035043D01*
X022292Y037849D02*
X022230Y037911D01*
X022169Y037911D01*
X022335Y038048D02*
X022397Y038109D01*
X022397Y038171D01*
X022335Y038233D01*
X022335Y038784D02*
X022397Y038846D01*
X022397Y038969D01*
X022335Y039031D01*
X022274Y039031D01*
X022212Y038969D01*
X022212Y038784D01*
X022335Y038784D01*
X022212Y038784D02*
X022089Y038908D01*
X022027Y039031D01*
X022027Y039371D02*
X022027Y039494D01*
X022027Y039433D02*
X022335Y039433D01*
X022397Y039371D01*
X022397Y039309D01*
X022335Y039248D01*
X022274Y039616D02*
X022274Y039801D01*
X022212Y039863D01*
X022089Y039863D01*
X022027Y039801D01*
X022027Y039616D01*
X022397Y039616D01*
X022397Y039984D02*
X022150Y040231D01*
X022089Y040231D01*
X022027Y040169D01*
X022027Y040046D01*
X022089Y039984D01*
X022397Y039984D02*
X022397Y040231D01*
X022335Y040448D02*
X022397Y040509D01*
X022397Y040571D01*
X022335Y040633D01*
X022027Y040633D01*
X022027Y040694D02*
X022027Y040571D01*
X022027Y040816D02*
X022027Y041001D01*
X022089Y041063D01*
X022212Y041063D01*
X022274Y041001D01*
X022274Y040816D01*
X022397Y040816D02*
X022027Y040816D01*
X022089Y041184D02*
X022150Y041184D01*
X022212Y041246D01*
X022212Y041369D01*
X022274Y041431D01*
X022335Y041431D01*
X022397Y041369D01*
X022397Y041246D01*
X022335Y041184D01*
X022274Y041184D01*
X022212Y041246D01*
X022212Y041369D02*
X022150Y041431D01*
X022089Y041431D01*
X022027Y041369D01*
X022027Y041246D01*
X022089Y041184D01*
X022255Y041648D02*
X022317Y041709D01*
X022317Y041771D01*
X022255Y041833D01*
X021947Y041833D01*
X021947Y041894D02*
X021947Y041771D01*
X021947Y042016D02*
X021947Y042201D01*
X022009Y042263D01*
X022132Y042263D01*
X022194Y042201D01*
X022194Y042016D01*
X022317Y042016D02*
X021947Y042016D01*
X021947Y042384D02*
X022132Y042384D01*
X022070Y042508D01*
X022070Y042569D01*
X022132Y042631D01*
X022255Y042631D01*
X022317Y042569D01*
X022317Y042446D01*
X022255Y042384D01*
X021947Y042384D02*
X021947Y042631D01*
X021947Y043003D02*
X021947Y043126D01*
X021947Y043064D02*
X022255Y043064D01*
X022317Y043003D01*
X022317Y042941D01*
X022255Y042879D01*
X022194Y043248D02*
X022194Y043433D01*
X022132Y043494D01*
X022009Y043494D01*
X021947Y043433D01*
X021947Y043248D01*
X022317Y043248D01*
X022317Y043616D02*
X022070Y043863D01*
X022009Y043863D01*
X021947Y043801D01*
X021947Y043678D01*
X022009Y043616D01*
X022317Y043616D02*
X022317Y043863D01*
X022255Y043984D02*
X022009Y044231D01*
X022255Y044231D01*
X022317Y044169D01*
X022317Y044046D01*
X022255Y043984D01*
X022009Y043984D01*
X021947Y044046D01*
X021947Y044169D01*
X022009Y044231D01*
X023467Y043763D02*
X023714Y043763D01*
X023836Y043763D02*
X024021Y043763D01*
X024082Y043701D01*
X024082Y043578D01*
X024021Y043516D01*
X023836Y043516D01*
X023836Y043393D02*
X023836Y043763D01*
X023591Y043763D02*
X023591Y043393D01*
X024204Y043393D02*
X024451Y043393D01*
X024327Y043393D02*
X024327Y043763D01*
X024204Y043639D01*
X024389Y045073D02*
X024389Y045443D01*
X024204Y045258D01*
X024451Y045258D01*
X024572Y045258D02*
X024819Y045258D01*
X024757Y045073D02*
X024757Y045443D01*
X024572Y045258D01*
X024082Y045258D02*
X024021Y045196D01*
X023836Y045196D01*
X023836Y045073D02*
X023836Y045443D01*
X024021Y045443D01*
X024082Y045381D01*
X024082Y045258D01*
X023714Y045443D02*
X023467Y045443D01*
X023591Y045443D02*
X023591Y045073D01*
X025529Y042936D02*
X025590Y042936D01*
X025652Y042874D01*
X025714Y042936D01*
X025775Y042936D01*
X025837Y042874D01*
X025837Y042751D01*
X025775Y042689D01*
X025652Y042568D02*
X025652Y042321D01*
X025467Y042506D01*
X025837Y042506D01*
X025775Y042199D02*
X025837Y042138D01*
X025837Y042014D01*
X025775Y041953D01*
X025529Y041953D01*
X025467Y042014D01*
X025467Y042138D01*
X025529Y042199D01*
X025529Y042689D02*
X025467Y042751D01*
X025467Y042874D01*
X025529Y042936D01*
X025652Y042874D02*
X025652Y042813D01*
X024451Y042021D02*
X024451Y041959D01*
X024389Y041898D01*
X024451Y041836D01*
X024451Y041774D01*
X024389Y041713D01*
X024266Y041713D01*
X024204Y041774D01*
X024082Y041898D02*
X024021Y041836D01*
X023836Y041836D01*
X023836Y041713D02*
X023836Y042083D01*
X024021Y042083D01*
X024082Y042021D01*
X024082Y041898D01*
X024204Y042021D02*
X024266Y042083D01*
X024389Y042083D01*
X024451Y042021D01*
X024389Y041898D02*
X024327Y041898D01*
X023714Y042083D02*
X023467Y042083D01*
X023591Y042083D02*
X023591Y041713D01*
X023634Y040403D02*
X023387Y040403D01*
X023511Y040403D02*
X023511Y040033D01*
X023756Y040033D02*
X023756Y040403D01*
X023941Y040403D01*
X024002Y040341D01*
X024002Y040218D01*
X023941Y040156D01*
X023756Y040156D01*
X024124Y040279D02*
X024247Y040403D01*
X024247Y040033D01*
X024124Y040033D02*
X024371Y040033D01*
X024492Y040094D02*
X024554Y040033D01*
X024677Y040033D01*
X024739Y040094D01*
X024739Y040341D01*
X024677Y040403D01*
X024554Y040403D01*
X024492Y040341D01*
X024492Y040279D01*
X024554Y040218D01*
X024739Y040218D01*
X030442Y040323D02*
X030689Y040323D01*
X030811Y040323D02*
X030996Y040323D01*
X031057Y040261D01*
X031057Y040138D01*
X030996Y040076D01*
X030811Y040076D01*
X030811Y039953D02*
X030811Y040323D01*
X030566Y040323D02*
X030566Y039953D01*
X031179Y040014D02*
X031241Y039953D01*
X031364Y039953D01*
X031426Y040014D01*
X031426Y040138D01*
X031364Y040199D01*
X031302Y040199D01*
X031179Y040138D01*
X031179Y040323D01*
X031426Y040323D01*
X030815Y041728D02*
X030877Y041789D01*
X030877Y041913D01*
X030815Y041974D01*
X030692Y042096D02*
X030692Y042343D01*
X030692Y042464D02*
X030692Y042711D01*
X030507Y042649D02*
X030692Y042464D01*
X030507Y042281D02*
X030692Y042096D01*
X030569Y041974D02*
X030507Y041913D01*
X030507Y041789D01*
X030569Y041728D01*
X030815Y041728D01*
X030877Y042281D02*
X030507Y042281D01*
X030507Y042649D02*
X030877Y042649D01*
X032667Y042609D02*
X032852Y042609D01*
X032790Y042733D01*
X032790Y042794D01*
X032852Y042856D01*
X032975Y042856D01*
X033037Y042794D01*
X033037Y042671D01*
X032975Y042609D01*
X032852Y042488D02*
X032852Y042241D01*
X032667Y042426D01*
X033037Y042426D01*
X032975Y042119D02*
X033037Y042058D01*
X033037Y041934D01*
X032975Y041873D01*
X032729Y041873D01*
X032667Y041934D01*
X032667Y042058D01*
X032729Y042119D01*
X032667Y042609D02*
X032667Y042856D01*
X037547Y042711D02*
X037609Y042588D01*
X037732Y042464D01*
X037732Y042649D01*
X037794Y042711D01*
X037855Y042711D01*
X037917Y042649D01*
X037917Y042526D01*
X037855Y042464D01*
X037732Y042464D01*
X037732Y042343D02*
X037732Y042096D01*
X037547Y042281D01*
X037917Y042281D01*
X037855Y041974D02*
X037917Y041913D01*
X037917Y041789D01*
X037855Y041728D01*
X037609Y041728D01*
X037547Y041789D01*
X037547Y041913D01*
X037609Y041974D01*
X037882Y040323D02*
X038129Y040323D01*
X038251Y040323D02*
X038251Y039953D01*
X038251Y040076D02*
X038436Y040076D01*
X038497Y040138D01*
X038497Y040261D01*
X038436Y040323D01*
X038251Y040323D01*
X038006Y040323D02*
X038006Y039953D01*
X038619Y040014D02*
X038619Y040138D01*
X038804Y040138D01*
X038866Y040076D01*
X038866Y040014D01*
X038804Y039953D01*
X038681Y039953D01*
X038619Y040014D01*
X038619Y040138D02*
X038742Y040261D01*
X038866Y040323D01*
X040329Y041953D02*
X040575Y041953D01*
X040637Y042014D01*
X040637Y042138D01*
X040575Y042199D01*
X040575Y042321D02*
X040637Y042383D01*
X040637Y042506D01*
X040575Y042568D01*
X040452Y042568D01*
X040390Y042506D01*
X040390Y042444D01*
X040452Y042321D01*
X040267Y042321D01*
X040267Y042568D01*
X040329Y042689D02*
X040267Y042751D01*
X040267Y042874D01*
X040329Y042936D01*
X040575Y042689D01*
X040637Y042751D01*
X040637Y042874D01*
X040575Y042936D01*
X040329Y042936D01*
X040329Y042689D02*
X040575Y042689D01*
X040329Y042199D02*
X040267Y042138D01*
X040267Y042014D01*
X040329Y041953D01*
X044874Y040323D02*
X045121Y040323D01*
X045242Y040323D02*
X045427Y040323D01*
X045489Y040261D01*
X045489Y040138D01*
X045427Y040076D01*
X045242Y040076D01*
X045242Y039953D02*
X045242Y040323D01*
X044997Y040323D02*
X044997Y039953D01*
X045611Y040138D02*
X045857Y040138D01*
X045979Y040138D02*
X046102Y040199D01*
X046164Y040199D01*
X046226Y040138D01*
X046226Y040014D01*
X046164Y039953D01*
X046041Y039953D01*
X045979Y040014D01*
X045979Y040138D02*
X045979Y040323D01*
X046226Y040323D01*
X045796Y040323D02*
X045611Y040138D01*
X045796Y039953D02*
X045796Y040323D01*
X045455Y041728D02*
X045517Y041789D01*
X045517Y041913D01*
X045455Y041974D01*
X045455Y042096D02*
X045517Y042158D01*
X045517Y042281D01*
X045455Y042343D01*
X045332Y042343D01*
X045270Y042281D01*
X045270Y042219D01*
X045332Y042096D01*
X045147Y042096D01*
X045147Y042343D01*
X045270Y042464D02*
X045147Y042588D01*
X045517Y042588D01*
X045517Y042711D02*
X045517Y042464D01*
X045209Y041974D02*
X045147Y041913D01*
X045147Y041789D01*
X045209Y041728D01*
X045455Y041728D01*
X044169Y033991D02*
X044415Y033744D01*
X044477Y033744D01*
X044477Y033623D02*
X044477Y033376D01*
X044230Y033623D01*
X044169Y033623D01*
X044107Y033561D01*
X044107Y033438D01*
X044169Y033376D01*
X044169Y033254D02*
X044292Y033254D01*
X044354Y033193D01*
X044354Y033008D01*
X044477Y033008D02*
X044107Y033008D01*
X044107Y033193D01*
X044169Y033254D01*
X044107Y032886D02*
X044107Y032639D01*
X044107Y032763D02*
X044477Y032763D01*
X043997Y032249D02*
X043627Y032249D01*
X043812Y032064D01*
X043812Y032311D01*
X043812Y031943D02*
X043874Y031881D01*
X043874Y031696D01*
X043997Y031696D02*
X043627Y031696D01*
X043627Y031881D01*
X043689Y031943D01*
X043812Y031943D01*
X043627Y031574D02*
X043627Y031451D01*
X043627Y031513D02*
X043935Y031513D01*
X043997Y031451D01*
X043997Y031389D01*
X043935Y031328D01*
X044267Y031338D02*
X044267Y031214D01*
X044329Y031153D01*
X044575Y031153D01*
X044637Y031214D01*
X044637Y031338D01*
X044575Y031399D01*
X044575Y031521D02*
X044637Y031521D01*
X044575Y031521D02*
X044329Y031768D01*
X044267Y031768D01*
X044267Y031521D01*
X044329Y031399D02*
X044267Y031338D01*
X045747Y030523D02*
X045844Y030523D01*
X045796Y030523D02*
X045796Y030233D01*
X045844Y030233D02*
X045747Y030233D01*
X045944Y030281D02*
X045992Y030233D01*
X046089Y030233D01*
X046137Y030281D01*
X046238Y030233D02*
X046432Y030233D01*
X046335Y030233D02*
X046335Y030523D01*
X046238Y030426D01*
X046137Y030474D02*
X046089Y030523D01*
X045992Y030523D01*
X045944Y030474D01*
X045944Y030281D01*
X046533Y030281D02*
X046581Y030233D01*
X046678Y030233D01*
X046726Y030281D01*
X046726Y030329D01*
X046678Y030378D01*
X046630Y030378D01*
X046678Y030378D02*
X046726Y030426D01*
X046726Y030474D01*
X046678Y030523D01*
X046581Y030523D01*
X046533Y030474D01*
X047467Y030829D02*
X047467Y030953D01*
X047529Y031014D01*
X047652Y031136D02*
X047467Y031321D01*
X047837Y031321D01*
X047837Y031504D02*
X047837Y031751D01*
X047837Y031628D02*
X047467Y031628D01*
X047590Y031504D01*
X047652Y031383D02*
X047652Y031136D01*
X047775Y031014D02*
X047837Y030953D01*
X047837Y030829D01*
X047775Y030768D01*
X047529Y030768D01*
X047467Y030829D01*
X047835Y030011D02*
X047787Y029963D01*
X047787Y029866D01*
X047835Y029818D01*
X047835Y029717D02*
X047787Y029668D01*
X047787Y029572D01*
X047835Y029523D01*
X047835Y029422D02*
X047932Y029422D01*
X047980Y029374D01*
X047980Y029229D01*
X048077Y029229D02*
X047787Y029229D01*
X047787Y029374D01*
X047835Y029422D01*
X048077Y029523D02*
X047884Y029717D01*
X047835Y029717D01*
X048077Y029717D02*
X048077Y029523D01*
X048077Y029818D02*
X047884Y030011D01*
X047835Y030011D01*
X048077Y030011D02*
X048077Y029818D01*
X048029Y029079D02*
X047787Y029079D01*
X047787Y029031D02*
X047787Y029127D01*
X048029Y029079D02*
X048077Y029031D01*
X048077Y028982D01*
X048029Y028934D01*
X045539Y028919D02*
X045539Y028981D01*
X045477Y029043D01*
X045354Y029043D01*
X045292Y028981D01*
X045171Y028981D02*
X045109Y029043D01*
X044986Y029043D01*
X044924Y028981D01*
X044802Y028981D02*
X044802Y028858D01*
X044741Y028796D01*
X044556Y028796D01*
X044556Y028673D02*
X044556Y029043D01*
X044741Y029043D01*
X044802Y028981D01*
X044924Y028673D02*
X045171Y028919D01*
X045171Y028981D01*
X045171Y028673D02*
X044924Y028673D01*
X045011Y028483D02*
X045011Y028113D01*
X044764Y028483D01*
X044764Y028113D01*
X044642Y028174D02*
X044642Y028298D01*
X044519Y028298D01*
X044642Y028421D02*
X044581Y028483D01*
X044457Y028483D01*
X044396Y028421D01*
X044396Y028174D01*
X044457Y028113D01*
X044581Y028113D01*
X044642Y028174D01*
X044274Y028113D02*
X044274Y028359D01*
X044151Y028483D01*
X044027Y028359D01*
X044027Y028113D01*
X044027Y028298D02*
X044274Y028298D01*
X044311Y028673D02*
X044311Y029043D01*
X044434Y029043D02*
X044187Y029043D01*
X045132Y028483D02*
X045317Y028483D01*
X045379Y028421D01*
X045379Y028174D01*
X045317Y028113D01*
X045132Y028113D01*
X045132Y028483D01*
X045292Y028673D02*
X045539Y028919D01*
X045539Y028673D02*
X045292Y028673D01*
X045449Y025271D02*
X045695Y025024D01*
X045757Y025086D01*
X045757Y025209D01*
X045695Y025271D01*
X045449Y025271D01*
X045387Y025209D01*
X045387Y025086D01*
X045449Y025024D01*
X045695Y025024D01*
X045757Y024903D02*
X045757Y024656D01*
X045757Y024779D02*
X045387Y024779D01*
X045510Y024656D01*
X045449Y024534D02*
X045387Y024473D01*
X045387Y024349D01*
X045449Y024288D01*
X045695Y024288D01*
X045757Y024349D01*
X045757Y024473D01*
X045695Y024534D01*
X045117Y024718D02*
X045117Y024841D01*
X045055Y024903D01*
X045055Y025024D02*
X045117Y025086D01*
X045117Y025209D01*
X045055Y025271D01*
X044809Y025271D01*
X044747Y025209D01*
X044747Y025086D01*
X044809Y025024D01*
X044870Y025024D01*
X044932Y025086D01*
X044932Y025271D01*
X044809Y024903D02*
X044747Y024841D01*
X044747Y024718D01*
X044809Y024656D01*
X045055Y024656D01*
X045117Y024718D01*
X044397Y024681D02*
X044397Y024558D01*
X044335Y024496D01*
X044089Y024496D01*
X044027Y024558D01*
X044027Y024681D01*
X044089Y024743D01*
X044212Y024864D02*
X044212Y025049D01*
X044274Y025111D01*
X044335Y025111D01*
X044397Y025049D01*
X044397Y024926D01*
X044335Y024864D01*
X044212Y024864D01*
X044089Y024988D01*
X044027Y025111D01*
X044335Y024743D02*
X044397Y024681D01*
X047307Y023403D02*
X047452Y023258D01*
X047452Y023451D01*
X047597Y023403D02*
X047307Y023403D01*
X047307Y023060D02*
X047597Y023060D01*
X047597Y022963D02*
X047597Y023157D01*
X047404Y022963D02*
X047307Y023060D01*
X047355Y022862D02*
X047452Y022862D01*
X047500Y022814D01*
X047500Y022669D01*
X047597Y022669D02*
X047307Y022669D01*
X047307Y022814D01*
X047355Y022862D01*
X047307Y022567D02*
X047307Y022471D01*
X047307Y022519D02*
X047549Y022519D01*
X047597Y022471D01*
X047597Y022422D01*
X047549Y022374D01*
X047549Y022411D02*
X047597Y022363D01*
X047597Y022266D01*
X047549Y022218D01*
X047597Y022117D02*
X047597Y021923D01*
X047597Y022020D02*
X047307Y022020D01*
X047404Y021923D01*
X047452Y021822D02*
X047500Y021774D01*
X047500Y021629D01*
X047597Y021629D02*
X047307Y021629D01*
X047307Y021774D01*
X047355Y021822D01*
X047452Y021822D01*
X047307Y021527D02*
X047307Y021431D01*
X047307Y021479D02*
X047549Y021479D01*
X047597Y021431D01*
X047597Y021382D01*
X047549Y021334D01*
X047110Y021321D02*
X047062Y021273D01*
X046965Y021273D01*
X046916Y021321D01*
X046916Y021369D01*
X046965Y021418D01*
X047062Y021418D01*
X047110Y021369D01*
X047110Y021321D01*
X047062Y021418D02*
X047110Y021466D01*
X047110Y021514D01*
X047062Y021563D01*
X046965Y021563D01*
X046916Y021514D01*
X046916Y021466D01*
X046965Y021418D01*
X046815Y021273D02*
X046622Y021273D01*
X046719Y021273D02*
X046719Y021563D01*
X046622Y021466D01*
X046521Y021514D02*
X046472Y021563D01*
X046376Y021563D01*
X046327Y021514D01*
X046327Y021321D01*
X046376Y021273D01*
X046472Y021273D01*
X046521Y021321D01*
X047355Y022218D02*
X047307Y022266D01*
X047307Y022363D01*
X047355Y022411D01*
X047404Y022411D01*
X047452Y022363D01*
X047500Y022411D01*
X047549Y022411D01*
X047452Y022363D02*
X047452Y022315D01*
X047516Y020443D02*
X047467Y020394D01*
X047467Y020201D01*
X047516Y020153D01*
X047612Y020153D01*
X047661Y020201D01*
X047762Y020153D02*
X047955Y020153D01*
X047859Y020153D02*
X047859Y020443D01*
X047762Y020346D01*
X047661Y020394D02*
X047612Y020443D01*
X047516Y020443D01*
X048056Y020443D02*
X048250Y020443D01*
X048250Y020394D01*
X048056Y020201D01*
X048056Y020153D01*
X048987Y019123D02*
X049111Y019123D01*
X049049Y019123D02*
X049049Y018753D01*
X048987Y018753D02*
X049111Y018753D01*
X049233Y018814D02*
X049294Y018753D01*
X049418Y018753D01*
X049480Y018814D01*
X049601Y018753D02*
X049848Y018999D01*
X049848Y019061D01*
X049786Y019123D01*
X049663Y019123D01*
X049601Y019061D01*
X049480Y019061D02*
X049418Y019123D01*
X049294Y019123D01*
X049233Y019061D01*
X049233Y018814D01*
X049601Y018753D02*
X049848Y018753D01*
X049969Y018753D02*
X050216Y018999D01*
X050216Y019061D01*
X050155Y019123D01*
X050031Y019123D01*
X049969Y019061D01*
X049969Y018753D02*
X050216Y018753D01*
X050069Y018403D02*
X049946Y018403D01*
X049884Y018341D01*
X049762Y018218D02*
X049516Y018218D01*
X049701Y018403D01*
X049701Y018033D01*
X049884Y018033D02*
X050131Y018279D01*
X050131Y018341D01*
X050069Y018403D01*
X050131Y018033D02*
X049884Y018033D01*
X049394Y018094D02*
X049332Y018033D01*
X049209Y018033D01*
X049147Y018094D01*
X049147Y018341D01*
X049209Y018403D01*
X049332Y018403D01*
X049394Y018341D01*
X050587Y019671D02*
X050587Y019767D01*
X050587Y019719D02*
X050829Y019719D01*
X050877Y019671D01*
X050877Y019622D01*
X050829Y019574D01*
X050877Y019869D02*
X050587Y019869D01*
X050587Y020014D01*
X050635Y020062D01*
X050732Y020062D01*
X050780Y020014D01*
X050780Y019869D01*
X050877Y020163D02*
X050684Y020357D01*
X050635Y020357D01*
X050587Y020308D01*
X050587Y020212D01*
X050635Y020163D01*
X050877Y020163D02*
X050877Y020357D01*
X050732Y020458D02*
X050732Y020651D01*
X050587Y020603D02*
X050732Y020458D01*
X050877Y020603D02*
X050587Y020603D01*
X050597Y023073D02*
X050474Y023073D01*
X050412Y023134D01*
X050291Y023134D02*
X050229Y023073D01*
X050106Y023073D01*
X050044Y023134D01*
X049922Y023258D02*
X049861Y023196D01*
X049676Y023196D01*
X049676Y023073D02*
X049676Y023443D01*
X049861Y023443D01*
X049922Y023381D01*
X049922Y023258D01*
X050044Y023381D02*
X050106Y023443D01*
X050229Y023443D01*
X050291Y023381D01*
X050291Y023319D01*
X050229Y023258D01*
X050291Y023196D01*
X050291Y023134D01*
X050229Y023258D02*
X050167Y023258D01*
X050412Y023381D02*
X050474Y023443D01*
X050597Y023443D01*
X050659Y023381D01*
X050659Y023319D01*
X050597Y023258D01*
X050659Y023196D01*
X050659Y023134D01*
X050597Y023073D01*
X050597Y023258D02*
X050536Y023258D01*
X049554Y023443D02*
X049307Y023443D01*
X049431Y023443D02*
X049431Y023073D01*
X044966Y019323D02*
X044773Y019323D01*
X044773Y019178D01*
X044869Y019226D01*
X044918Y019226D01*
X044966Y019178D01*
X044966Y019081D01*
X044918Y019033D01*
X044821Y019033D01*
X044773Y019081D01*
X044671Y019033D02*
X044478Y019033D01*
X044575Y019033D02*
X044575Y019323D01*
X044478Y019226D01*
X044377Y019274D02*
X044328Y019323D01*
X044232Y019323D01*
X044183Y019274D01*
X044183Y019081D01*
X044232Y019033D01*
X044328Y019033D01*
X044377Y019081D01*
X044328Y018843D02*
X044232Y018843D01*
X044183Y018794D01*
X044183Y018601D01*
X044232Y018553D01*
X044328Y018553D01*
X044377Y018601D01*
X044478Y018553D02*
X044671Y018553D01*
X044575Y018553D02*
X044575Y018843D01*
X044478Y018746D01*
X044377Y018794D02*
X044328Y018843D01*
X044773Y018698D02*
X044918Y018698D01*
X044966Y018649D01*
X044966Y018601D01*
X044918Y018553D01*
X044821Y018553D01*
X044773Y018601D01*
X044773Y018698D01*
X044869Y018794D01*
X044966Y018843D01*
X044970Y017563D02*
X044776Y017563D01*
X044776Y017418D01*
X044873Y017466D01*
X044922Y017466D01*
X044970Y017418D01*
X044970Y017321D01*
X044922Y017273D01*
X044825Y017273D01*
X044776Y017321D01*
X044675Y017273D02*
X044482Y017273D01*
X044675Y017466D01*
X044675Y017514D01*
X044627Y017563D01*
X044530Y017563D01*
X044482Y017514D01*
X044381Y017514D02*
X044381Y017418D01*
X044332Y017369D01*
X044187Y017369D01*
X044187Y017273D02*
X044187Y017563D01*
X044332Y017563D01*
X044381Y017514D01*
X044284Y017369D02*
X044381Y017273D01*
X043130Y017273D02*
X042936Y017273D01*
X043033Y017273D02*
X043033Y017563D01*
X042936Y017466D01*
X042835Y017466D02*
X042835Y017514D01*
X042787Y017563D01*
X042690Y017563D01*
X042642Y017514D01*
X042541Y017514D02*
X042541Y017418D01*
X042492Y017369D01*
X042347Y017369D01*
X042347Y017273D02*
X042347Y017563D01*
X042492Y017563D01*
X042541Y017514D01*
X042444Y017369D02*
X042541Y017273D01*
X042642Y017273D02*
X042835Y017466D01*
X042835Y017273D02*
X042642Y017273D01*
X042591Y018313D02*
X042398Y018313D01*
X042591Y018506D01*
X042591Y018554D01*
X042543Y018603D01*
X042446Y018603D01*
X042398Y018554D01*
X042297Y018554D02*
X042297Y018458D01*
X042248Y018409D01*
X042103Y018409D01*
X042103Y018313D02*
X042103Y018603D01*
X042248Y018603D01*
X042297Y018554D01*
X042200Y018409D02*
X042297Y018313D01*
X042693Y018361D02*
X042741Y018313D01*
X042838Y018313D01*
X042886Y018361D01*
X042886Y018409D01*
X042838Y018458D01*
X042789Y018458D01*
X042838Y018458D02*
X042886Y018506D01*
X042886Y018554D01*
X042838Y018603D01*
X042741Y018603D01*
X042693Y018554D01*
X042642Y019993D02*
X042835Y020186D01*
X042835Y020234D01*
X042787Y020283D01*
X042690Y020283D01*
X042642Y020234D01*
X042541Y020234D02*
X042541Y020138D01*
X042492Y020089D01*
X042347Y020089D01*
X042347Y019993D02*
X042347Y020283D01*
X042492Y020283D01*
X042541Y020234D01*
X042444Y020089D02*
X042541Y019993D01*
X042642Y019993D02*
X042835Y019993D01*
X042936Y019993D02*
X043130Y020186D01*
X043130Y020234D01*
X043082Y020283D01*
X042985Y020283D01*
X042936Y020234D01*
X042936Y019993D02*
X043130Y019993D01*
X041370Y020041D02*
X041322Y019993D01*
X041225Y019993D01*
X041176Y020041D01*
X041176Y020089D01*
X041225Y020138D01*
X041322Y020138D01*
X041370Y020089D01*
X041370Y020041D01*
X041322Y020138D02*
X041370Y020186D01*
X041370Y020234D01*
X041322Y020283D01*
X041225Y020283D01*
X041176Y020234D01*
X041176Y020186D01*
X041225Y020138D01*
X041075Y019993D02*
X040882Y019993D01*
X040979Y019993D02*
X040979Y020283D01*
X040882Y020186D01*
X040781Y020138D02*
X040732Y020089D01*
X040587Y020089D01*
X040587Y019993D02*
X040587Y020283D01*
X040732Y020283D01*
X040781Y020234D01*
X040781Y020138D01*
X040684Y020089D02*
X040781Y019993D01*
X039610Y020138D02*
X039416Y020138D01*
X039562Y020283D01*
X039562Y019993D01*
X039315Y020041D02*
X039267Y019993D01*
X039170Y019993D01*
X039122Y020041D01*
X039021Y019993D02*
X038924Y020089D01*
X038972Y020089D02*
X038827Y020089D01*
X038827Y019993D02*
X038827Y020283D01*
X038972Y020283D01*
X039021Y020234D01*
X039021Y020138D01*
X038972Y020089D01*
X039122Y020234D02*
X039170Y020283D01*
X039267Y020283D01*
X039315Y020234D01*
X039315Y020186D01*
X039267Y020138D01*
X039315Y020089D01*
X039315Y020041D01*
X039267Y020138D02*
X039219Y020138D01*
X037770Y020186D02*
X037722Y020138D01*
X037625Y020138D01*
X037576Y020186D01*
X037576Y020234D01*
X037625Y020283D01*
X037722Y020283D01*
X037770Y020234D01*
X037770Y020186D01*
X037722Y020138D02*
X037770Y020089D01*
X037770Y020041D01*
X037722Y019993D01*
X037625Y019993D01*
X037576Y020041D01*
X037576Y020089D01*
X037625Y020138D01*
X037475Y020186D02*
X037427Y020138D01*
X037475Y020089D01*
X037475Y020041D01*
X037427Y019993D01*
X037330Y019993D01*
X037282Y020041D01*
X037181Y019993D02*
X037084Y020089D01*
X037132Y020089D02*
X036987Y020089D01*
X036987Y019993D02*
X036987Y020283D01*
X037132Y020283D01*
X037181Y020234D01*
X037181Y020138D01*
X037132Y020089D01*
X037282Y020234D02*
X037330Y020283D01*
X037427Y020283D01*
X037475Y020234D01*
X037475Y020186D01*
X037427Y020138D02*
X037379Y020138D01*
X035757Y020829D02*
X035757Y020953D01*
X035695Y021014D01*
X035757Y021136D02*
X035757Y021383D01*
X035757Y021504D02*
X035757Y021751D01*
X035757Y021628D02*
X035387Y021628D01*
X035510Y021504D01*
X035387Y021259D02*
X035757Y021259D01*
X035510Y021136D02*
X035387Y021259D01*
X035449Y021014D02*
X035387Y020953D01*
X035387Y020829D01*
X035449Y020768D01*
X035695Y020768D01*
X035757Y020829D01*
X035037Y020829D02*
X035037Y020953D01*
X034975Y021014D01*
X035037Y021136D02*
X035037Y021383D01*
X035037Y021504D02*
X034790Y021751D01*
X034729Y021751D01*
X034667Y021689D01*
X034667Y021566D01*
X034729Y021504D01*
X034667Y021259D02*
X035037Y021259D01*
X035037Y021504D02*
X035037Y021751D01*
X034667Y021259D02*
X034790Y021136D01*
X034729Y021014D02*
X034667Y020953D01*
X034667Y020829D01*
X034729Y020768D01*
X034975Y020768D01*
X035037Y020829D01*
X034397Y020829D02*
X034397Y020953D01*
X034335Y021014D01*
X034397Y021136D02*
X034397Y021383D01*
X034397Y021259D02*
X034027Y021259D01*
X034150Y021136D01*
X034089Y021014D02*
X034027Y020953D01*
X034027Y020829D01*
X034089Y020768D01*
X034335Y020768D01*
X034397Y020829D01*
X034335Y021504D02*
X034397Y021566D01*
X034397Y021689D01*
X034335Y021751D01*
X034274Y021751D01*
X034212Y021689D01*
X034212Y021628D01*
X034212Y021689D02*
X034150Y021751D01*
X034089Y021751D01*
X034027Y021689D01*
X034027Y021566D01*
X034089Y021504D01*
X033526Y020914D02*
X033478Y020963D01*
X033381Y020963D01*
X033333Y020914D01*
X033231Y020914D02*
X033231Y020818D01*
X033183Y020769D01*
X033038Y020769D01*
X033038Y020673D02*
X033038Y020963D01*
X033183Y020963D01*
X033231Y020914D01*
X033333Y020721D02*
X033381Y020673D01*
X033478Y020673D01*
X033526Y020721D01*
X033526Y020769D01*
X033478Y020818D01*
X033429Y020818D01*
X033478Y020818D02*
X033526Y020866D01*
X033526Y020914D01*
X032937Y020963D02*
X032840Y020963D01*
X032888Y020963D02*
X032888Y020721D01*
X032840Y020673D01*
X032792Y020673D01*
X032743Y020721D01*
X032406Y020721D02*
X032358Y020673D01*
X032261Y020673D01*
X032213Y020721D01*
X032213Y020769D01*
X032261Y020818D01*
X032358Y020818D01*
X032406Y020769D01*
X032406Y020721D01*
X032358Y020818D02*
X032406Y020866D01*
X032406Y020914D01*
X032358Y020963D01*
X032261Y020963D01*
X032213Y020914D01*
X032213Y020866D01*
X032261Y020818D01*
X032111Y020673D02*
X031918Y020673D01*
X032015Y020673D02*
X032015Y020963D01*
X031918Y020866D01*
X031817Y020818D02*
X031768Y020769D01*
X031623Y020769D01*
X031623Y020673D02*
X031623Y020963D01*
X031768Y020963D01*
X031817Y020914D01*
X031817Y020818D01*
X031522Y020963D02*
X031425Y020963D01*
X031474Y020963D02*
X031474Y020721D01*
X031425Y020673D01*
X031377Y020673D01*
X031329Y020721D01*
X029877Y020527D02*
X029829Y020575D01*
X029635Y020575D01*
X029587Y020527D01*
X029587Y020430D01*
X029635Y020382D01*
X029684Y020382D01*
X029732Y020430D01*
X029732Y020575D01*
X029798Y020713D02*
X029798Y021003D01*
X029653Y020858D01*
X029846Y020858D01*
X029551Y020906D02*
X029551Y020954D01*
X029503Y021003D01*
X029406Y021003D01*
X029358Y020954D01*
X029257Y020954D02*
X029208Y021003D01*
X029112Y021003D01*
X029063Y020954D01*
X029063Y020761D01*
X029112Y020713D01*
X029208Y020713D01*
X029257Y020761D01*
X029358Y020713D02*
X029551Y020906D01*
X029551Y020713D02*
X029358Y020713D01*
X029269Y020575D02*
X029317Y020527D01*
X029317Y020430D01*
X029269Y020382D01*
X029075Y020575D01*
X029269Y020575D01*
X029269Y020382D02*
X029075Y020382D01*
X029027Y020430D01*
X029027Y020527D01*
X029075Y020575D01*
X029075Y020281D02*
X029027Y020232D01*
X029027Y020136D01*
X029075Y020087D01*
X029075Y019986D02*
X029027Y019938D01*
X029027Y019841D01*
X029075Y019793D01*
X029269Y019793D01*
X029317Y019841D01*
X029317Y019938D01*
X029269Y019986D01*
X029317Y020087D02*
X029124Y020281D01*
X029075Y020281D01*
X029317Y020281D02*
X029317Y020087D01*
X029587Y020184D02*
X029877Y020184D01*
X029877Y020087D02*
X029877Y020281D01*
X029829Y020382D02*
X029877Y020430D01*
X029877Y020527D01*
X029587Y020184D02*
X029684Y020087D01*
X029635Y019986D02*
X029587Y019938D01*
X029587Y019841D01*
X029635Y019793D01*
X029829Y019793D01*
X029877Y019841D01*
X029877Y019938D01*
X029829Y019986D01*
X028499Y019301D02*
X028437Y019363D01*
X028314Y019363D01*
X028252Y019301D01*
X028131Y019301D02*
X028131Y019239D01*
X028069Y019178D01*
X028131Y019116D01*
X028131Y019054D01*
X028069Y018993D01*
X027946Y018993D01*
X027884Y019054D01*
X027762Y019178D02*
X027701Y019116D01*
X027516Y019116D01*
X027516Y018993D02*
X027516Y019363D01*
X027701Y019363D01*
X027762Y019301D01*
X027762Y019178D01*
X027884Y019301D02*
X027946Y019363D01*
X028069Y019363D01*
X028131Y019301D01*
X028069Y019178D02*
X028007Y019178D01*
X028252Y018993D02*
X028499Y019239D01*
X028499Y019301D01*
X028499Y018993D02*
X028252Y018993D01*
X027394Y019363D02*
X027147Y019363D01*
X027271Y019363D02*
X027271Y018993D01*
X026637Y018954D02*
X026637Y018831D01*
X026575Y018769D01*
X026452Y018769D02*
X026390Y018893D01*
X026390Y018954D01*
X026452Y019016D01*
X026575Y019016D01*
X026637Y018954D01*
X026452Y018769D02*
X026267Y018769D01*
X026267Y019016D01*
X026329Y018648D02*
X026267Y018586D01*
X026267Y018463D01*
X026329Y018401D01*
X026329Y018279D02*
X026267Y018218D01*
X026267Y018094D01*
X026329Y018033D01*
X026575Y018033D01*
X026637Y018094D01*
X026637Y018218D01*
X026575Y018279D01*
X026637Y018401D02*
X026390Y018648D01*
X026329Y018648D01*
X026637Y018648D02*
X026637Y018401D01*
X026669Y019713D02*
X026717Y019761D01*
X026717Y019809D01*
X026669Y019858D01*
X026427Y019858D01*
X026427Y019906D02*
X026427Y019809D01*
X026427Y020007D02*
X026427Y020152D01*
X026475Y020201D01*
X026572Y020201D01*
X026620Y020152D01*
X026620Y020007D01*
X026717Y020007D02*
X026427Y020007D01*
X026475Y020302D02*
X026427Y020350D01*
X026427Y020447D01*
X026475Y020495D01*
X026524Y020495D01*
X026717Y020302D01*
X026717Y020495D01*
X026669Y020597D02*
X026717Y020645D01*
X026717Y020742D01*
X026669Y020790D01*
X026572Y020790D01*
X026524Y020742D01*
X026524Y020693D01*
X026572Y020597D01*
X026427Y020597D01*
X026427Y020790D01*
X026511Y020993D02*
X026511Y021283D01*
X026613Y021283D02*
X026758Y021283D01*
X026806Y021234D01*
X026806Y021041D01*
X026758Y020993D01*
X026613Y020993D01*
X026613Y021283D01*
X026318Y021283D02*
X026511Y020993D01*
X026318Y020993D02*
X026318Y021283D01*
X026217Y021234D02*
X026168Y021283D01*
X026072Y021283D01*
X026023Y021234D01*
X026023Y021041D01*
X026072Y020993D01*
X026168Y020993D01*
X026217Y021041D01*
X026217Y021138D01*
X026120Y021138D01*
X025922Y021041D02*
X025922Y021234D01*
X025874Y021283D01*
X025729Y021283D01*
X025729Y020993D01*
X025874Y020993D01*
X025922Y021041D01*
X024946Y020698D02*
X024699Y020698D01*
X024884Y020883D01*
X024884Y020513D01*
X024577Y020513D02*
X024331Y020513D01*
X024454Y020513D02*
X024454Y020883D01*
X024331Y020759D01*
X024209Y020698D02*
X024147Y020636D01*
X023962Y020636D01*
X023962Y020513D02*
X023962Y020883D01*
X024147Y020883D01*
X024209Y020821D01*
X024209Y020698D01*
X023841Y020883D02*
X023594Y020883D01*
X023717Y020883D02*
X023717Y020513D01*
X023266Y020519D02*
X023204Y020458D01*
X023266Y020396D01*
X023266Y020334D01*
X023204Y020273D01*
X023081Y020273D01*
X023019Y020334D01*
X022897Y020273D02*
X022651Y020273D01*
X022774Y020273D02*
X022774Y020643D01*
X022651Y020519D01*
X022529Y020458D02*
X022467Y020396D01*
X022282Y020396D01*
X022282Y020273D02*
X022282Y020643D01*
X022467Y020643D01*
X022529Y020581D01*
X022529Y020458D01*
X022161Y020643D02*
X021914Y020643D01*
X022037Y020643D02*
X022037Y020273D01*
X021318Y021173D02*
X021221Y021173D01*
X021173Y021221D01*
X021366Y021414D01*
X021366Y021221D01*
X021318Y021173D01*
X021173Y021221D02*
X021173Y021414D01*
X021221Y021463D01*
X021318Y021463D01*
X021366Y021414D01*
X021071Y021173D02*
X020878Y021173D01*
X020975Y021173D02*
X020975Y021463D01*
X020878Y021366D01*
X020777Y021318D02*
X020728Y021269D01*
X020583Y021269D01*
X020583Y021173D02*
X020583Y021463D01*
X020728Y021463D01*
X020777Y021414D01*
X020777Y021318D01*
X020680Y021269D02*
X020777Y021173D01*
X019859Y021461D02*
X019612Y021214D01*
X019612Y021153D01*
X019429Y021153D02*
X019429Y021523D01*
X019244Y021338D01*
X019491Y021338D01*
X019612Y021523D02*
X019859Y021523D01*
X019859Y021461D01*
X019122Y021461D02*
X019122Y021338D01*
X019061Y021276D01*
X018876Y021276D01*
X018876Y021153D02*
X018876Y021523D01*
X019061Y021523D01*
X019122Y021461D01*
X018754Y021523D02*
X018507Y021523D01*
X018631Y021523D02*
X018631Y021153D01*
X018077Y021136D02*
X017830Y021383D01*
X017769Y021383D01*
X017707Y021321D01*
X017707Y021198D01*
X017769Y021136D01*
X017769Y021014D02*
X017707Y020953D01*
X017707Y020829D01*
X017769Y020768D01*
X018015Y020768D01*
X018077Y020829D01*
X018077Y020953D01*
X018015Y021014D01*
X018077Y021136D02*
X018077Y021383D01*
X018015Y021504D02*
X017769Y021751D01*
X018015Y021751D01*
X018077Y021689D01*
X018077Y021566D01*
X018015Y021504D01*
X017769Y021504D01*
X017707Y021566D01*
X017707Y021689D01*
X017769Y021751D01*
X017707Y020646D02*
X017707Y020522D01*
X017707Y020584D02*
X018077Y020584D01*
X018077Y020522D02*
X018077Y020646D01*
X017284Y019283D02*
X017346Y019221D01*
X017346Y019159D01*
X017284Y019098D01*
X017346Y019036D01*
X017346Y018974D01*
X017284Y018913D01*
X017161Y018913D01*
X017099Y018974D01*
X016977Y019098D02*
X016731Y019098D01*
X016916Y019283D01*
X016916Y018913D01*
X017222Y019098D02*
X017284Y019098D01*
X017284Y019283D02*
X017161Y019283D01*
X017099Y019221D01*
X016609Y019221D02*
X016609Y019098D01*
X016547Y019036D01*
X016362Y019036D01*
X016362Y018913D02*
X016362Y019283D01*
X016547Y019283D01*
X016609Y019221D01*
X016241Y019283D02*
X015994Y019283D01*
X016117Y019283D02*
X016117Y018913D01*
X014869Y020513D02*
X014746Y020513D01*
X014684Y020574D01*
X014562Y020574D02*
X014501Y020513D01*
X014377Y020513D01*
X014316Y020574D01*
X014194Y020574D02*
X014132Y020513D01*
X014009Y020513D01*
X013947Y020574D01*
X013947Y020821D01*
X014009Y020883D01*
X014132Y020883D01*
X014194Y020821D01*
X014316Y020821D02*
X014377Y020883D01*
X014501Y020883D01*
X014562Y020821D01*
X014562Y020759D01*
X014501Y020698D01*
X014562Y020636D01*
X014562Y020574D01*
X014501Y020698D02*
X014439Y020698D01*
X014684Y020698D02*
X014807Y020759D01*
X014869Y020759D01*
X014931Y020698D01*
X014931Y020574D01*
X014869Y020513D01*
X014684Y020698D02*
X014684Y020883D01*
X014931Y020883D01*
X014921Y020993D02*
X014859Y021054D01*
X014921Y020993D02*
X015044Y020993D01*
X015106Y021054D01*
X015106Y021178D01*
X015044Y021239D01*
X014982Y021239D01*
X014859Y021178D01*
X014859Y021363D01*
X015106Y021363D01*
X014737Y021301D02*
X014737Y021239D01*
X014676Y021178D01*
X014737Y021116D01*
X014737Y021054D01*
X014676Y020993D01*
X014552Y020993D01*
X014491Y021054D01*
X014369Y021178D02*
X014307Y021116D01*
X014122Y021116D01*
X014122Y020993D02*
X014122Y021363D01*
X014307Y021363D01*
X014369Y021301D01*
X014369Y021178D01*
X014491Y021301D02*
X014552Y021363D01*
X014676Y021363D01*
X014737Y021301D01*
X014676Y021178D02*
X014614Y021178D01*
X014001Y021363D02*
X013754Y021363D01*
X013877Y021363D02*
X013877Y020993D01*
X017147Y023134D02*
X017209Y023073D01*
X017455Y023073D01*
X017517Y023134D01*
X017517Y023258D01*
X017455Y023319D01*
X017332Y023441D02*
X017332Y023688D01*
X017270Y023809D02*
X017209Y023809D01*
X017147Y023871D01*
X017147Y023994D01*
X017209Y024056D01*
X017270Y024056D01*
X017332Y023994D01*
X017332Y023871D01*
X017270Y023809D01*
X017332Y023871D02*
X017394Y023809D01*
X017455Y023809D01*
X017517Y023871D01*
X017517Y023994D01*
X017455Y024056D01*
X017394Y024056D01*
X017332Y023994D01*
X017147Y023626D02*
X017332Y023441D01*
X017209Y023319D02*
X017147Y023258D01*
X017147Y023134D01*
X017147Y023626D02*
X017517Y023626D01*
X017544Y025473D02*
X017667Y025473D01*
X017729Y025534D01*
X017851Y025658D02*
X018097Y025658D01*
X018219Y025534D02*
X018219Y025473D01*
X018219Y025534D02*
X018466Y025781D01*
X018466Y025843D01*
X018219Y025843D01*
X018036Y025843D02*
X017851Y025658D01*
X017729Y025781D02*
X017667Y025843D01*
X017544Y025843D01*
X017482Y025781D01*
X017482Y025534D01*
X017544Y025473D01*
X018036Y025473D02*
X018036Y025843D01*
X018714Y026643D02*
X018961Y026643D01*
X019082Y026643D02*
X019267Y026643D01*
X019329Y026581D01*
X019329Y026458D01*
X019267Y026396D01*
X019082Y026396D01*
X019082Y026273D02*
X019082Y026643D01*
X018837Y026643D02*
X018837Y026273D01*
X019451Y026273D02*
X019697Y026519D01*
X019697Y026581D01*
X019636Y026643D01*
X019512Y026643D01*
X019451Y026581D01*
X019451Y026273D02*
X019697Y026273D01*
X019819Y026334D02*
X019881Y026273D01*
X020004Y026273D01*
X020066Y026334D01*
X020066Y026458D01*
X020004Y026519D01*
X019942Y026519D01*
X019819Y026458D01*
X019819Y026643D01*
X020066Y026643D01*
X020725Y027393D02*
X020848Y027393D01*
X020787Y027393D02*
X020787Y027763D01*
X020848Y027763D02*
X020725Y027763D01*
X020971Y027701D02*
X020971Y027454D01*
X021032Y027393D01*
X021156Y027393D01*
X021217Y027454D01*
X021339Y027454D02*
X021401Y027393D01*
X021524Y027393D01*
X021586Y027454D01*
X021586Y027516D01*
X021524Y027578D01*
X021462Y027578D01*
X021524Y027578D02*
X021586Y027639D01*
X021586Y027701D01*
X021524Y027763D01*
X021401Y027763D01*
X021339Y027701D01*
X021217Y027701D02*
X021156Y027763D01*
X021032Y027763D01*
X020971Y027701D01*
X021707Y026883D02*
X021954Y026883D01*
X022076Y026883D02*
X022261Y026883D01*
X022322Y026821D01*
X022322Y026698D01*
X022261Y026636D01*
X022076Y026636D01*
X022076Y026513D02*
X022076Y026883D01*
X021831Y026883D02*
X021831Y026513D01*
X022444Y026513D02*
X022691Y026513D01*
X022812Y026513D02*
X023059Y026513D01*
X022936Y026513D02*
X022936Y026883D01*
X022812Y026759D01*
X022567Y026883D02*
X022567Y026513D01*
X022444Y026759D02*
X022567Y026883D01*
X022715Y025055D02*
X022667Y025007D01*
X022667Y024910D01*
X022715Y024862D01*
X022715Y024761D02*
X022764Y024761D01*
X022812Y024712D01*
X022860Y024761D01*
X022909Y024761D01*
X022957Y024712D01*
X022957Y024616D01*
X022909Y024567D01*
X022909Y024466D02*
X022957Y024418D01*
X022957Y024321D01*
X022909Y024273D01*
X022715Y024273D01*
X022667Y024321D01*
X022667Y024418D01*
X022715Y024466D01*
X022715Y024567D02*
X022667Y024616D01*
X022667Y024712D01*
X022715Y024761D01*
X022812Y024712D02*
X022812Y024664D01*
X022957Y024862D02*
X022764Y025055D01*
X022715Y025055D01*
X022957Y025055D02*
X022957Y024862D01*
X022149Y024483D02*
X022149Y024193D01*
X022053Y024193D02*
X022246Y024193D01*
X022053Y024386D02*
X022149Y024483D01*
X021855Y024483D02*
X021855Y024193D01*
X021951Y024193D02*
X021758Y024193D01*
X021657Y024193D02*
X021560Y024289D01*
X021608Y024289D02*
X021463Y024289D01*
X021463Y024193D02*
X021463Y024483D01*
X021608Y024483D01*
X021657Y024434D01*
X021657Y024338D01*
X021608Y024289D01*
X021758Y024386D02*
X021855Y024483D01*
X021117Y023831D02*
X021117Y023584D01*
X020870Y023831D01*
X020809Y023831D01*
X020747Y023769D01*
X020747Y023646D01*
X020809Y023584D01*
X020747Y023339D02*
X021117Y023339D01*
X021117Y023216D02*
X021117Y023463D01*
X020870Y023216D02*
X020747Y023339D01*
X020809Y023094D02*
X020747Y023033D01*
X020747Y022909D01*
X020809Y022848D01*
X021055Y022848D01*
X021117Y022909D01*
X021117Y023033D01*
X021055Y023094D01*
X021117Y022726D02*
X021117Y022602D01*
X021118Y022594D02*
X021166Y022643D01*
X021263Y022643D01*
X021311Y022594D01*
X021311Y022546D01*
X021263Y022498D01*
X021311Y022449D01*
X021311Y022401D01*
X021263Y022353D01*
X021166Y022353D01*
X021118Y022401D01*
X021017Y022401D02*
X020968Y022353D01*
X020872Y022353D01*
X020823Y022401D01*
X020823Y022594D01*
X020872Y022643D01*
X020968Y022643D01*
X021017Y022594D01*
X021117Y022664D02*
X020747Y022664D01*
X020747Y022602D02*
X020747Y022726D01*
X021215Y022498D02*
X021263Y022498D01*
X021413Y022594D02*
X021461Y022643D01*
X021558Y022643D01*
X021606Y022594D01*
X021606Y022546D01*
X021558Y022498D01*
X021606Y022449D01*
X021606Y022401D01*
X021558Y022353D01*
X021461Y022353D01*
X021413Y022401D01*
X021509Y022498D02*
X021558Y022498D01*
X023081Y020643D02*
X023204Y020643D01*
X023266Y020581D01*
X023266Y020519D01*
X023204Y020458D02*
X023142Y020458D01*
X023019Y020581D02*
X023081Y020643D01*
X021364Y018963D02*
X021179Y018778D01*
X021426Y018778D01*
X021364Y018593D02*
X021364Y018963D01*
X021057Y018901D02*
X020996Y018963D01*
X020872Y018963D01*
X020811Y018901D01*
X020811Y018654D01*
X020872Y018593D01*
X020996Y018593D01*
X021057Y018654D01*
X020688Y018593D02*
X020565Y018593D01*
X020627Y018593D02*
X020627Y018963D01*
X020688Y018963D02*
X020565Y018963D01*
X020797Y018216D02*
X020797Y017969D01*
X020797Y018093D02*
X020427Y018093D01*
X020550Y017969D01*
X020550Y017848D02*
X020612Y017786D01*
X020674Y017848D01*
X020735Y017848D01*
X020797Y017786D01*
X020797Y017663D01*
X020735Y017601D01*
X020735Y017479D02*
X020797Y017418D01*
X020797Y017294D01*
X020735Y017233D01*
X020489Y017233D01*
X020427Y017294D01*
X020427Y017418D01*
X020489Y017479D01*
X020489Y017601D02*
X020427Y017663D01*
X020427Y017786D01*
X020489Y017848D01*
X020550Y017848D01*
X020612Y017786D02*
X020612Y017724D01*
X019666Y017934D02*
X019666Y017996D01*
X019604Y018058D01*
X019419Y018058D01*
X019419Y017934D01*
X019481Y017873D01*
X019604Y017873D01*
X019666Y017934D01*
X019542Y018181D02*
X019419Y018058D01*
X019297Y018119D02*
X019297Y018181D01*
X019236Y018243D01*
X019112Y018243D01*
X019051Y018181D01*
X018929Y018181D02*
X018929Y018058D01*
X018867Y017996D01*
X018682Y017996D01*
X018682Y017873D02*
X018682Y018243D01*
X018867Y018243D01*
X018929Y018181D01*
X019051Y017873D02*
X019297Y018119D01*
X019297Y017873D02*
X019051Y017873D01*
X019542Y018181D02*
X019666Y018243D01*
X018561Y018243D02*
X018314Y018243D01*
X018437Y018243D02*
X018437Y017873D01*
X021557Y015523D02*
X021680Y015523D01*
X021618Y015523D02*
X021618Y015153D01*
X021557Y015153D02*
X021680Y015153D01*
X021802Y015214D02*
X021864Y015153D01*
X021987Y015153D01*
X022049Y015214D01*
X022171Y015153D02*
X022417Y015153D01*
X022539Y015153D02*
X022539Y015214D01*
X022786Y015461D01*
X022786Y015523D01*
X022539Y015523D01*
X022294Y015523D02*
X022294Y015153D01*
X022171Y015399D02*
X022294Y015523D01*
X022049Y015461D02*
X021987Y015523D01*
X021864Y015523D01*
X021802Y015461D01*
X021802Y015214D01*
X023227Y016029D02*
X023227Y016153D01*
X023289Y016214D01*
X023289Y016336D02*
X023227Y016398D01*
X023227Y016521D01*
X023289Y016583D01*
X023350Y016583D01*
X023412Y016521D01*
X023474Y016583D01*
X023535Y016583D01*
X023597Y016521D01*
X023597Y016398D01*
X023535Y016336D01*
X023535Y016214D02*
X023597Y016153D01*
X023597Y016029D01*
X023535Y015968D01*
X023289Y015968D01*
X023227Y016029D01*
X023412Y016459D02*
X023412Y016521D01*
X023289Y016704D02*
X023227Y016766D01*
X023227Y016889D01*
X023289Y016951D01*
X023535Y016704D01*
X023597Y016766D01*
X023597Y016889D01*
X023535Y016951D01*
X023289Y016951D01*
X023289Y016704D02*
X023535Y016704D01*
X024347Y016329D02*
X024347Y016206D01*
X024409Y016144D01*
X024470Y016144D01*
X024532Y016206D01*
X024532Y016391D01*
X024409Y016391D02*
X024347Y016329D01*
X024409Y016391D02*
X024655Y016391D01*
X024717Y016329D01*
X024717Y016206D01*
X024655Y016144D01*
X024717Y016023D02*
X024717Y015776D01*
X024470Y016023D01*
X024409Y016023D01*
X024347Y015961D01*
X024347Y015838D01*
X024409Y015776D01*
X024409Y015654D02*
X024347Y015593D01*
X024347Y015469D01*
X024409Y015408D01*
X024655Y015408D01*
X024717Y015469D01*
X024717Y015593D01*
X024655Y015654D01*
X024837Y015763D02*
X024960Y015763D01*
X024898Y015763D02*
X024898Y015393D01*
X024837Y015393D02*
X024960Y015393D01*
X025082Y015454D02*
X025144Y015393D01*
X025267Y015393D01*
X025329Y015454D01*
X025451Y015393D02*
X025697Y015393D01*
X025574Y015393D02*
X025574Y015763D01*
X025451Y015639D01*
X025329Y015701D02*
X025267Y015763D01*
X025144Y015763D01*
X025082Y015701D01*
X025082Y015454D01*
X025819Y015454D02*
X025819Y015578D01*
X026004Y015578D01*
X026066Y015516D01*
X026066Y015454D01*
X026004Y015393D01*
X025881Y015393D01*
X025819Y015454D01*
X025819Y015578D02*
X025942Y015701D01*
X026066Y015763D01*
X027354Y016403D02*
X027601Y016403D01*
X027722Y016403D02*
X027907Y016403D01*
X027969Y016341D01*
X027969Y016218D01*
X027907Y016156D01*
X027722Y016156D01*
X027722Y016033D02*
X027722Y016403D01*
X027477Y016403D02*
X027477Y016033D01*
X028091Y016033D02*
X028337Y016033D01*
X028214Y016033D02*
X028214Y016403D01*
X028091Y016279D01*
X028459Y016218D02*
X028644Y016218D01*
X028706Y016156D01*
X028706Y016094D01*
X028644Y016033D01*
X028521Y016033D01*
X028459Y016094D01*
X028459Y016218D01*
X028582Y016341D01*
X028706Y016403D01*
X031467Y017161D02*
X031516Y017113D01*
X031612Y017113D01*
X031661Y017161D01*
X031762Y017113D02*
X031955Y017306D01*
X031955Y017354D01*
X031907Y017403D01*
X031810Y017403D01*
X031762Y017354D01*
X031661Y017354D02*
X031612Y017403D01*
X031516Y017403D01*
X031467Y017354D01*
X031467Y017161D01*
X031762Y017113D02*
X031955Y017113D01*
X032056Y017113D02*
X032250Y017306D01*
X032250Y017354D01*
X032202Y017403D01*
X032105Y017403D01*
X032056Y017354D01*
X032035Y017593D02*
X031842Y017593D01*
X032035Y017786D01*
X032035Y017834D01*
X031987Y017883D01*
X031890Y017883D01*
X031842Y017834D01*
X031741Y017834D02*
X031692Y017883D01*
X031596Y017883D01*
X031547Y017834D01*
X031547Y017641D01*
X031596Y017593D01*
X031692Y017593D01*
X031741Y017641D01*
X032136Y017593D02*
X032330Y017593D01*
X032233Y017593D02*
X032233Y017883D01*
X032136Y017786D01*
X032056Y017113D02*
X032250Y017113D01*
X033227Y016683D02*
X033227Y016393D01*
X033227Y016489D02*
X033372Y016489D01*
X033421Y016538D01*
X033421Y016634D01*
X033372Y016683D01*
X033227Y016683D01*
X033324Y016489D02*
X033421Y016393D01*
X033522Y016393D02*
X033522Y016441D01*
X033715Y016634D01*
X033715Y016683D01*
X033522Y016683D01*
X033601Y018273D02*
X033848Y018519D01*
X033848Y018581D01*
X033786Y018643D01*
X033663Y018643D01*
X033601Y018581D01*
X033480Y018581D02*
X033418Y018643D01*
X033294Y018643D01*
X033233Y018581D01*
X033233Y018334D01*
X033294Y018273D01*
X033418Y018273D01*
X033480Y018334D01*
X033601Y018273D02*
X033848Y018273D01*
X033969Y018458D02*
X034216Y018458D01*
X034155Y018273D02*
X034155Y018643D01*
X033969Y018458D01*
X033111Y018643D02*
X032987Y018643D01*
X033049Y018643D02*
X033049Y018273D01*
X032987Y018273D02*
X033111Y018273D01*
X035627Y017723D02*
X035772Y017723D01*
X035821Y017674D01*
X035821Y017578D01*
X035772Y017529D01*
X035627Y017529D01*
X035627Y017433D02*
X035627Y017723D01*
X035724Y017529D02*
X035821Y017433D01*
X035922Y017481D02*
X035970Y017433D01*
X036067Y017433D01*
X036115Y017481D01*
X036115Y017529D01*
X036067Y017578D01*
X036019Y017578D01*
X036067Y017578D02*
X036115Y017626D01*
X036115Y017674D01*
X036067Y017723D01*
X035970Y017723D01*
X035922Y017674D01*
X036216Y017674D02*
X036265Y017723D01*
X036362Y017723D01*
X036410Y017674D01*
X036410Y017626D01*
X036362Y017578D01*
X036410Y017529D01*
X036410Y017481D01*
X036362Y017433D01*
X036265Y017433D01*
X036216Y017481D01*
X036313Y017578D02*
X036362Y017578D01*
X036987Y017563D02*
X037132Y017563D01*
X037181Y017514D01*
X037181Y017418D01*
X037132Y017369D01*
X036987Y017369D01*
X036987Y017273D02*
X036987Y017563D01*
X037084Y017369D02*
X037181Y017273D01*
X037282Y017321D02*
X037330Y017273D01*
X037427Y017273D01*
X037475Y017321D01*
X037475Y017369D01*
X037427Y017418D01*
X037379Y017418D01*
X037427Y017418D02*
X037475Y017466D01*
X037475Y017514D01*
X037427Y017563D01*
X037330Y017563D01*
X037282Y017514D01*
X037576Y017563D02*
X037770Y017563D01*
X037770Y017514D01*
X037576Y017321D01*
X037576Y017273D01*
X037558Y018313D02*
X037461Y018313D01*
X037413Y018361D01*
X037311Y018361D02*
X037263Y018313D01*
X037166Y018313D01*
X037118Y018361D01*
X037017Y018313D02*
X036920Y018409D01*
X036968Y018409D02*
X036823Y018409D01*
X036823Y018313D02*
X036823Y018603D01*
X036968Y018603D01*
X037017Y018554D01*
X037017Y018458D01*
X036968Y018409D01*
X037118Y018554D02*
X037166Y018603D01*
X037263Y018603D01*
X037311Y018554D01*
X037311Y018506D01*
X037263Y018458D01*
X037311Y018409D01*
X037311Y018361D01*
X037263Y018458D02*
X037215Y018458D01*
X037413Y018506D02*
X037461Y018458D01*
X037606Y018458D01*
X037606Y018554D02*
X037558Y018603D01*
X037461Y018603D01*
X037413Y018554D01*
X037413Y018506D01*
X037606Y018554D02*
X037606Y018361D01*
X037558Y018313D01*
X038583Y018313D02*
X038583Y018603D01*
X038728Y018603D01*
X038777Y018554D01*
X038777Y018458D01*
X038728Y018409D01*
X038583Y018409D01*
X038680Y018409D02*
X038777Y018313D01*
X038878Y018361D02*
X038926Y018313D01*
X039023Y018313D01*
X039071Y018361D01*
X039071Y018409D01*
X039023Y018458D01*
X038975Y018458D01*
X039023Y018458D02*
X039071Y018506D01*
X039071Y018554D01*
X039023Y018603D01*
X038926Y018603D01*
X038878Y018554D01*
X039173Y018603D02*
X039173Y018458D01*
X039269Y018506D01*
X039318Y018506D01*
X039366Y018458D01*
X039366Y018361D01*
X039318Y018313D01*
X039221Y018313D01*
X039173Y018361D01*
X039173Y018603D02*
X039366Y018603D01*
X040343Y018603D02*
X040343Y018313D01*
X040343Y018409D02*
X040488Y018409D01*
X040537Y018458D01*
X040537Y018554D01*
X040488Y018603D01*
X040343Y018603D01*
X040440Y018409D02*
X040537Y018313D01*
X040638Y018313D02*
X040831Y018313D01*
X040735Y018313D02*
X040735Y018603D01*
X040638Y018506D01*
X040933Y018506D02*
X040981Y018458D01*
X041126Y018458D01*
X041126Y018554D02*
X041078Y018603D01*
X040981Y018603D01*
X040933Y018554D01*
X040933Y018506D01*
X040933Y018361D02*
X040981Y018313D01*
X041078Y018313D01*
X041126Y018361D01*
X041126Y018554D01*
X041096Y017563D02*
X041290Y017563D01*
X041290Y017514D01*
X041096Y017321D01*
X041096Y017273D01*
X040995Y017273D02*
X040802Y017273D01*
X040899Y017273D02*
X040899Y017563D01*
X040802Y017466D01*
X040701Y017418D02*
X040652Y017369D01*
X040507Y017369D01*
X040507Y017273D02*
X040507Y017563D01*
X040652Y017563D01*
X040701Y017514D01*
X040701Y017418D01*
X040604Y017369D02*
X040701Y017273D01*
X039530Y017321D02*
X039482Y017273D01*
X039385Y017273D01*
X039336Y017321D01*
X039336Y017418D02*
X039433Y017466D01*
X039482Y017466D01*
X039530Y017418D01*
X039530Y017321D01*
X039336Y017418D02*
X039336Y017563D01*
X039530Y017563D01*
X039139Y017563D02*
X039139Y017273D01*
X039235Y017273D02*
X039042Y017273D01*
X038941Y017273D02*
X038844Y017369D01*
X038892Y017369D02*
X038747Y017369D01*
X038747Y017273D02*
X038747Y017563D01*
X038892Y017563D01*
X038941Y017514D01*
X038941Y017418D01*
X038892Y017369D01*
X039042Y017466D02*
X039139Y017563D01*
X038975Y015803D02*
X038975Y015513D01*
X039071Y015513D02*
X038878Y015513D01*
X038777Y015513D02*
X038680Y015609D01*
X038728Y015609D02*
X038583Y015609D01*
X038583Y015513D02*
X038583Y015803D01*
X038728Y015803D01*
X038777Y015754D01*
X038777Y015658D01*
X038728Y015609D01*
X038878Y015706D02*
X038975Y015803D01*
X039173Y015658D02*
X039366Y015658D01*
X039318Y015803D02*
X039173Y015658D01*
X039318Y015513D02*
X039318Y015803D01*
X040343Y015803D02*
X040488Y015803D01*
X040537Y015754D01*
X040537Y015658D01*
X040488Y015609D01*
X040343Y015609D01*
X040343Y015513D02*
X040343Y015803D01*
X040440Y015609D02*
X040537Y015513D01*
X040638Y015513D02*
X040831Y015513D01*
X040735Y015513D02*
X040735Y015803D01*
X040638Y015706D01*
X040933Y015658D02*
X041078Y015658D01*
X041126Y015609D01*
X041126Y015561D01*
X041078Y015513D01*
X040981Y015513D01*
X040933Y015561D01*
X040933Y015658D01*
X041029Y015754D01*
X041126Y015803D01*
X042183Y015803D02*
X042328Y015803D01*
X042377Y015754D01*
X042377Y015658D01*
X042328Y015609D01*
X042183Y015609D01*
X042183Y015513D02*
X042183Y015803D01*
X042280Y015609D02*
X042377Y015513D01*
X042478Y015513D02*
X042671Y015706D01*
X042671Y015754D01*
X042623Y015803D01*
X042526Y015803D01*
X042478Y015754D01*
X042478Y015513D02*
X042671Y015513D01*
X042773Y015561D02*
X042966Y015754D01*
X042966Y015561D01*
X042918Y015513D01*
X042821Y015513D01*
X042773Y015561D01*
X042773Y015754D01*
X042821Y015803D01*
X042918Y015803D01*
X042966Y015754D01*
X043943Y015803D02*
X044088Y015803D01*
X044137Y015754D01*
X044137Y015658D01*
X044088Y015609D01*
X043943Y015609D01*
X043943Y015513D02*
X043943Y015803D01*
X044040Y015609D02*
X044137Y015513D01*
X044238Y015513D02*
X044431Y015706D01*
X044431Y015754D01*
X044383Y015803D01*
X044286Y015803D01*
X044238Y015754D01*
X044238Y015513D02*
X044431Y015513D01*
X044533Y015561D02*
X044581Y015513D01*
X044678Y015513D01*
X044726Y015561D01*
X044726Y015658D01*
X044678Y015706D01*
X044629Y015706D01*
X044533Y015658D01*
X044533Y015803D01*
X044726Y015803D01*
X045480Y015483D02*
X045577Y015483D01*
X045528Y015483D02*
X045528Y015241D01*
X045480Y015193D01*
X045432Y015193D01*
X045383Y015241D01*
X045678Y015289D02*
X045823Y015289D01*
X045871Y015338D01*
X045871Y015434D01*
X045823Y015483D01*
X045678Y015483D01*
X045678Y015193D01*
X045973Y015241D02*
X046021Y015193D01*
X046118Y015193D01*
X046166Y015241D01*
X046166Y015289D01*
X046118Y015338D01*
X046069Y015338D01*
X046118Y015338D02*
X046166Y015386D01*
X046166Y015434D01*
X046118Y015483D01*
X046021Y015483D01*
X045973Y015434D01*
X046716Y016953D02*
X046812Y016953D01*
X046861Y017001D01*
X046962Y016953D02*
X047155Y016953D01*
X047059Y016953D02*
X047059Y017243D01*
X046962Y017146D01*
X046861Y017194D02*
X046812Y017243D01*
X046716Y017243D01*
X046667Y017194D01*
X046667Y017001D01*
X046716Y016953D01*
X046716Y017433D02*
X046812Y017433D01*
X046861Y017481D01*
X046962Y017481D02*
X046962Y017529D01*
X047010Y017578D01*
X047107Y017578D01*
X047155Y017529D01*
X047155Y017481D01*
X047107Y017433D01*
X047010Y017433D01*
X046962Y017481D01*
X047010Y017578D02*
X046962Y017626D01*
X046962Y017674D01*
X047010Y017723D01*
X047107Y017723D01*
X047155Y017674D01*
X047155Y017626D01*
X047107Y017578D01*
X046861Y017674D02*
X046812Y017723D01*
X046716Y017723D01*
X046667Y017674D01*
X046667Y017481D01*
X046716Y017433D01*
X047256Y017098D02*
X047450Y017098D01*
X047402Y017243D02*
X047256Y017098D01*
X047402Y016953D02*
X047402Y017243D01*
X049051Y016563D02*
X049236Y016563D01*
X049297Y016501D01*
X049297Y016378D01*
X049236Y016316D01*
X049051Y016316D01*
X049174Y016316D02*
X049297Y016193D01*
X049419Y016254D02*
X049419Y016316D01*
X049481Y016378D01*
X049604Y016378D01*
X049666Y016316D01*
X049666Y016254D01*
X049604Y016193D01*
X049481Y016193D01*
X049419Y016254D01*
X049481Y016378D02*
X049419Y016439D01*
X049419Y016501D01*
X049481Y016563D01*
X049604Y016563D01*
X049666Y016501D01*
X049666Y016439D01*
X049604Y016378D01*
X049051Y016193D02*
X049051Y016563D01*
X037526Y015803D02*
X037429Y015754D01*
X037333Y015658D01*
X037478Y015658D01*
X037526Y015609D01*
X037526Y015561D01*
X037478Y015513D01*
X037381Y015513D01*
X037333Y015561D01*
X037333Y015658D01*
X037231Y015706D02*
X037183Y015658D01*
X037231Y015609D01*
X037231Y015561D01*
X037183Y015513D01*
X037086Y015513D01*
X037038Y015561D01*
X036937Y015513D02*
X036840Y015609D01*
X036888Y015609D02*
X036743Y015609D01*
X036743Y015513D02*
X036743Y015803D01*
X036888Y015803D01*
X036937Y015754D01*
X036937Y015658D01*
X036888Y015609D01*
X037038Y015754D02*
X037086Y015803D01*
X037183Y015803D01*
X037231Y015754D01*
X037231Y015706D01*
X037183Y015658D02*
X037135Y015658D01*
X035766Y015593D02*
X035573Y015593D01*
X035766Y015786D01*
X035766Y015834D01*
X035718Y015883D01*
X035621Y015883D01*
X035573Y015834D01*
X035471Y015834D02*
X035471Y015786D01*
X035423Y015738D01*
X035471Y015689D01*
X035471Y015641D01*
X035423Y015593D01*
X035326Y015593D01*
X035278Y015641D01*
X035177Y015593D02*
X035080Y015689D01*
X035128Y015689D02*
X034983Y015689D01*
X034983Y015593D02*
X034983Y015883D01*
X035128Y015883D01*
X035177Y015834D01*
X035177Y015738D01*
X035128Y015689D01*
X035278Y015834D02*
X035326Y015883D01*
X035423Y015883D01*
X035471Y015834D01*
X035423Y015738D02*
X035375Y015738D01*
X029798Y021353D02*
X029701Y021353D01*
X029653Y021401D01*
X029551Y021353D02*
X029358Y021353D01*
X029551Y021546D01*
X029551Y021594D01*
X029503Y021643D01*
X029406Y021643D01*
X029358Y021594D01*
X029257Y021594D02*
X029208Y021643D01*
X029112Y021643D01*
X029063Y021594D01*
X029063Y021401D01*
X029112Y021353D01*
X029208Y021353D01*
X029257Y021401D01*
X029653Y021594D02*
X029701Y021643D01*
X029798Y021643D01*
X029846Y021594D01*
X029846Y021546D01*
X029798Y021498D01*
X029846Y021449D01*
X029846Y021401D01*
X029798Y021353D01*
X029798Y021498D02*
X029749Y021498D01*
X029867Y022273D02*
X029964Y022273D01*
X029916Y022273D02*
X029916Y022563D01*
X029964Y022563D02*
X029867Y022563D01*
X030064Y022514D02*
X030064Y022321D01*
X030112Y022273D01*
X030209Y022273D01*
X030257Y022321D01*
X030358Y022273D02*
X030552Y022273D01*
X030455Y022273D02*
X030455Y022563D01*
X030358Y022466D01*
X030257Y022514D02*
X030209Y022563D01*
X030112Y022563D01*
X030064Y022514D01*
X030329Y022816D02*
X030575Y022816D01*
X030637Y022878D01*
X030637Y023001D01*
X030575Y023063D01*
X030575Y023184D02*
X030637Y023246D01*
X030637Y023369D01*
X030575Y023431D01*
X030452Y023431D01*
X030390Y023369D01*
X030390Y023308D01*
X030452Y023184D01*
X030267Y023184D01*
X030267Y023431D01*
X030329Y023063D02*
X030267Y023001D01*
X030267Y022878D01*
X030329Y022816D01*
X030653Y022514D02*
X030701Y022563D01*
X030798Y022563D01*
X030846Y022514D01*
X030653Y022321D01*
X030701Y022273D01*
X030798Y022273D01*
X030846Y022321D01*
X030846Y022514D01*
X030653Y022514D02*
X030653Y022321D01*
X028406Y021074D02*
X028406Y021026D01*
X028358Y020978D01*
X028406Y020929D01*
X028406Y020881D01*
X028358Y020833D01*
X028261Y020833D01*
X028213Y020881D01*
X028111Y020833D02*
X027918Y020833D01*
X028111Y021026D01*
X028111Y021074D01*
X028063Y021123D01*
X027966Y021123D01*
X027918Y021074D01*
X027817Y021074D02*
X027817Y020978D01*
X027768Y020929D01*
X027623Y020929D01*
X027623Y020833D02*
X027623Y021123D01*
X027768Y021123D01*
X027817Y021074D01*
X027522Y021123D02*
X027329Y021123D01*
X027425Y021123D02*
X027425Y020833D01*
X028213Y021074D02*
X028261Y021123D01*
X028358Y021123D01*
X028406Y021074D01*
X028358Y020978D02*
X028309Y020978D01*
X026717Y022422D02*
X026717Y022471D01*
X026669Y022519D01*
X026427Y022519D01*
X026427Y022471D02*
X026427Y022567D01*
X026427Y022669D02*
X026427Y022814D01*
X026475Y022862D01*
X026572Y022862D01*
X026620Y022814D01*
X026620Y022669D01*
X026717Y022669D02*
X026427Y022669D01*
X026524Y022963D02*
X026427Y023060D01*
X026717Y023060D01*
X026717Y022963D02*
X026717Y023157D01*
X026669Y023258D02*
X026717Y023306D01*
X026717Y023403D01*
X026669Y023451D01*
X026620Y023451D01*
X026572Y023403D01*
X026572Y023258D01*
X026669Y023258D01*
X026572Y023258D02*
X026475Y023355D01*
X026427Y023451D01*
X026669Y023814D02*
X026717Y023862D01*
X026717Y023911D01*
X026669Y023959D01*
X026427Y023959D01*
X026427Y023911D02*
X026427Y024007D01*
X026427Y024109D02*
X026427Y024254D01*
X026475Y024302D01*
X026572Y024302D01*
X026620Y024254D01*
X026620Y024109D01*
X026717Y024109D02*
X026427Y024109D01*
X026524Y024403D02*
X026427Y024500D01*
X026717Y024500D01*
X026717Y024403D02*
X026717Y024597D01*
X026669Y024698D02*
X026717Y024746D01*
X026717Y024843D01*
X026669Y024891D01*
X026572Y024891D01*
X026524Y024843D01*
X026524Y024795D01*
X026572Y024698D01*
X026427Y024698D01*
X026427Y024891D01*
X027129Y024056D02*
X027375Y023809D01*
X027437Y023871D01*
X027437Y023994D01*
X027375Y024056D01*
X027129Y024056D01*
X027067Y023994D01*
X027067Y023871D01*
X027129Y023809D01*
X027375Y023809D01*
X027252Y023688D02*
X027252Y023441D01*
X027067Y023626D01*
X027437Y023626D01*
X027375Y023319D02*
X027437Y023258D01*
X027437Y023134D01*
X027375Y023073D01*
X027129Y023073D01*
X027067Y023134D01*
X027067Y023258D01*
X027129Y023319D01*
X026717Y022422D02*
X026669Y022374D01*
X029787Y024551D02*
X029787Y024647D01*
X029787Y024599D02*
X030029Y024599D01*
X030077Y024551D01*
X030077Y024502D01*
X030029Y024454D01*
X030077Y024749D02*
X029787Y024749D01*
X029787Y024894D01*
X029835Y024942D01*
X029932Y024942D01*
X029980Y024894D01*
X029980Y024749D01*
X030077Y025043D02*
X029884Y025237D01*
X029835Y025237D01*
X029787Y025188D01*
X029787Y025092D01*
X029835Y025043D01*
X030077Y025043D02*
X030077Y025237D01*
X030077Y025338D02*
X030077Y025531D01*
X030077Y025435D02*
X029787Y025435D01*
X029884Y025338D01*
X030151Y025793D02*
X030151Y026163D01*
X030274Y026163D02*
X030027Y026163D01*
X030027Y026353D02*
X030212Y026353D01*
X030274Y026414D01*
X030274Y026661D01*
X030212Y026723D01*
X030027Y026723D01*
X030027Y026353D01*
X030396Y026476D02*
X030519Y026353D01*
X030642Y026476D01*
X030642Y026723D01*
X030764Y026723D02*
X030949Y026723D01*
X031011Y026661D01*
X031011Y026414D01*
X030949Y026353D01*
X030764Y026353D01*
X030764Y026723D01*
X031132Y026723D02*
X031317Y026723D01*
X031379Y026661D01*
X031379Y026414D01*
X031317Y026353D01*
X031132Y026353D01*
X031132Y026723D01*
X030949Y026163D02*
X031011Y026101D01*
X031011Y026039D01*
X030949Y025978D01*
X030826Y025978D01*
X030764Y026039D01*
X030764Y026101D01*
X030826Y026163D01*
X030949Y026163D01*
X030949Y025978D02*
X031011Y025916D01*
X031011Y025854D01*
X030949Y025793D01*
X030826Y025793D01*
X030764Y025854D01*
X030764Y025916D01*
X030826Y025978D01*
X030642Y025978D02*
X030581Y025916D01*
X030396Y025916D01*
X030396Y025793D02*
X030396Y026163D01*
X030581Y026163D01*
X030642Y026101D01*
X030642Y025978D01*
X030396Y026476D02*
X030396Y026723D01*
X031304Y025443D02*
X031242Y025381D01*
X031242Y025134D01*
X031304Y025073D01*
X031427Y025073D01*
X031489Y025134D01*
X031611Y025134D02*
X031672Y025073D01*
X031796Y025073D01*
X031857Y025134D01*
X031857Y025258D01*
X031796Y025319D01*
X031734Y025319D01*
X031611Y025258D01*
X031611Y025443D01*
X031857Y025443D01*
X031979Y025443D02*
X031979Y025258D01*
X032102Y025319D01*
X032164Y025319D01*
X032226Y025258D01*
X032226Y025134D01*
X032164Y025073D01*
X032041Y025073D01*
X031979Y025134D01*
X031979Y025443D02*
X032226Y025443D01*
X031489Y025381D02*
X031427Y025443D01*
X031304Y025443D01*
X028306Y027614D02*
X028244Y027553D01*
X028121Y027553D01*
X028059Y027614D01*
X028059Y027676D01*
X028121Y027738D01*
X028244Y027738D01*
X028306Y027676D01*
X028306Y027614D01*
X028244Y027738D02*
X028306Y027799D01*
X028306Y027861D01*
X028244Y027923D01*
X028121Y027923D01*
X028059Y027861D01*
X028059Y027799D01*
X028121Y027738D01*
X027937Y027799D02*
X027876Y027738D01*
X027937Y027676D01*
X027937Y027614D01*
X027876Y027553D01*
X027752Y027553D01*
X027691Y027614D01*
X027569Y027738D02*
X027507Y027676D01*
X027322Y027676D01*
X027322Y027553D02*
X027322Y027923D01*
X027507Y027923D01*
X027569Y027861D01*
X027569Y027738D01*
X027691Y027861D02*
X027752Y027923D01*
X027876Y027923D01*
X027937Y027861D01*
X027937Y027799D01*
X027876Y027738D02*
X027814Y027738D01*
X027557Y027363D02*
X027434Y027363D01*
X027372Y027301D01*
X027557Y027363D02*
X027619Y027301D01*
X027619Y027239D01*
X027372Y026993D01*
X027619Y026993D01*
X027251Y026993D02*
X027004Y026993D01*
X027127Y026993D02*
X027127Y027363D01*
X027004Y027239D01*
X026882Y027178D02*
X026821Y027116D01*
X026636Y027116D01*
X026636Y026993D02*
X026636Y027363D01*
X026821Y027363D01*
X026882Y027301D01*
X026882Y027178D01*
X026514Y027363D02*
X026267Y027363D01*
X026391Y027363D02*
X026391Y026993D01*
X027077Y027553D02*
X027077Y027923D01*
X026954Y027923D02*
X027201Y027923D01*
X027795Y030273D02*
X027989Y030273D01*
X028037Y030321D01*
X028037Y030418D01*
X027989Y030466D01*
X027989Y030567D02*
X028037Y030616D01*
X028037Y030712D01*
X027989Y030761D01*
X027892Y030761D01*
X027844Y030712D01*
X027844Y030664D01*
X027892Y030567D01*
X027747Y030567D01*
X027747Y030761D01*
X027795Y030862D02*
X027844Y030862D01*
X027892Y030910D01*
X027892Y031007D01*
X027940Y031055D01*
X027989Y031055D01*
X028037Y031007D01*
X028037Y030910D01*
X027989Y030862D01*
X027940Y030862D01*
X027892Y030910D01*
X027892Y031007D02*
X027844Y031055D01*
X027795Y031055D01*
X027747Y031007D01*
X027747Y030910D01*
X027795Y030862D01*
X027684Y031073D02*
X027561Y031073D01*
X027499Y031134D01*
X027499Y031258D02*
X027622Y031319D01*
X027684Y031319D01*
X027746Y031258D01*
X027746Y031134D01*
X027684Y031073D01*
X027499Y031258D02*
X027499Y031443D01*
X027746Y031443D01*
X027254Y031443D02*
X027254Y031073D01*
X027131Y031073D02*
X027377Y031073D01*
X027131Y031319D02*
X027254Y031443D01*
X027009Y031381D02*
X027009Y031258D01*
X026947Y031196D01*
X026762Y031196D01*
X026762Y031073D02*
X026762Y031443D01*
X026947Y031443D01*
X027009Y031381D01*
X026641Y031443D02*
X026394Y031443D01*
X026517Y031443D02*
X026517Y031073D01*
X025899Y032033D02*
X025899Y032094D01*
X026146Y032341D01*
X026146Y032403D01*
X025899Y032403D01*
X025777Y032341D02*
X025777Y032218D01*
X025716Y032156D01*
X025531Y032156D01*
X025531Y032033D02*
X025531Y032403D01*
X025716Y032403D01*
X025777Y032341D01*
X025409Y032403D02*
X025286Y032403D01*
X025347Y032403D02*
X025347Y032094D01*
X025286Y032033D01*
X025224Y032033D01*
X025162Y032094D01*
X024997Y031589D02*
X024627Y031589D01*
X024812Y031404D01*
X024812Y031651D01*
X024750Y031283D02*
X024812Y031221D01*
X024874Y031283D01*
X024935Y031283D01*
X024997Y031221D01*
X024997Y031098D01*
X024935Y031036D01*
X024935Y030914D02*
X024997Y030853D01*
X024997Y030729D01*
X024935Y030668D01*
X024689Y030668D01*
X024627Y030729D01*
X024627Y030853D01*
X024689Y030914D01*
X024689Y031036D02*
X024627Y031098D01*
X024627Y031221D01*
X024689Y031283D01*
X024750Y031283D01*
X024812Y031221D02*
X024812Y031159D01*
X026757Y033073D02*
X026757Y033443D01*
X026634Y033443D02*
X026881Y033443D01*
X027002Y033443D02*
X027187Y033443D01*
X027249Y033381D01*
X027249Y033258D01*
X027187Y033196D01*
X027002Y033196D01*
X027002Y033073D02*
X027002Y033443D01*
X027371Y033381D02*
X027432Y033443D01*
X027556Y033443D01*
X027617Y033381D01*
X027617Y033319D01*
X027556Y033258D01*
X027617Y033196D01*
X027617Y033134D01*
X027556Y033073D01*
X027432Y033073D01*
X027371Y033134D01*
X027494Y033258D02*
X027556Y033258D01*
X027739Y033134D02*
X027986Y033381D01*
X027986Y033443D01*
X027739Y033443D01*
X027739Y033134D02*
X027739Y033073D01*
X029227Y033129D02*
X029412Y032944D01*
X029412Y033191D01*
X029597Y033129D02*
X029227Y033129D01*
X029289Y032823D02*
X029227Y032761D01*
X029227Y032638D01*
X029289Y032576D01*
X029535Y032576D01*
X029597Y032638D01*
X029597Y032761D01*
X029535Y032823D01*
X031467Y031754D02*
X031467Y031561D01*
X031516Y031513D01*
X031612Y031513D01*
X031661Y031561D01*
X031762Y031561D02*
X031810Y031513D01*
X031907Y031513D01*
X031955Y031561D01*
X031955Y031658D01*
X031907Y031706D01*
X031859Y031706D01*
X031762Y031658D01*
X031762Y031803D01*
X031955Y031803D01*
X032056Y031754D02*
X032105Y031803D01*
X032202Y031803D01*
X032250Y031754D01*
X032250Y031706D01*
X032202Y031658D01*
X032250Y031609D01*
X032250Y031561D01*
X032202Y031513D01*
X032105Y031513D01*
X032056Y031561D01*
X032153Y031658D02*
X032202Y031658D01*
X031661Y031754D02*
X031612Y031803D01*
X031516Y031803D01*
X031467Y031754D01*
X032907Y032974D02*
X032907Y033221D01*
X032969Y033283D01*
X033092Y033283D01*
X033154Y033221D01*
X033276Y033221D02*
X033337Y033283D01*
X033461Y033283D01*
X033522Y033221D01*
X033522Y033159D01*
X033461Y033098D01*
X033522Y033036D01*
X033522Y032974D01*
X033461Y032913D01*
X033337Y032913D01*
X033276Y032974D01*
X033154Y032974D02*
X033092Y032913D01*
X032969Y032913D01*
X032907Y032974D01*
X033399Y033098D02*
X033461Y033098D01*
X033644Y033159D02*
X033644Y033221D01*
X033706Y033283D01*
X033829Y033283D01*
X033891Y033221D01*
X033891Y032974D01*
X033829Y032913D01*
X033706Y032913D01*
X033644Y032974D01*
X033706Y033098D02*
X033891Y033098D01*
X033706Y033098D02*
X033644Y033159D01*
X033349Y033713D02*
X033226Y033713D01*
X033164Y033774D01*
X033164Y033836D01*
X033226Y033898D01*
X033349Y033898D01*
X033411Y033836D01*
X033411Y033774D01*
X033349Y033713D01*
X033349Y033898D02*
X033411Y033959D01*
X033411Y034021D01*
X033349Y034083D01*
X033226Y034083D01*
X033164Y034021D01*
X033164Y033959D01*
X033226Y033898D01*
X033042Y033959D02*
X033042Y034021D01*
X032981Y034083D01*
X032857Y034083D01*
X032796Y034021D01*
X032674Y034021D02*
X032612Y034083D01*
X032489Y034083D01*
X032427Y034021D01*
X032427Y033774D01*
X032489Y033713D01*
X032612Y033713D01*
X032674Y033774D01*
X032796Y033713D02*
X033042Y033959D01*
X033042Y033713D02*
X032796Y033713D01*
X030808Y034974D02*
X030746Y034913D01*
X030623Y034913D01*
X030561Y034974D01*
X030561Y035036D01*
X030623Y035098D01*
X030746Y035098D01*
X030808Y035036D01*
X030808Y034974D01*
X030746Y035098D02*
X030808Y035159D01*
X030808Y035221D01*
X030746Y035283D01*
X030623Y035283D01*
X030561Y035221D01*
X030561Y035159D01*
X030623Y035098D01*
X030440Y035221D02*
X030378Y035283D01*
X030254Y035283D01*
X030193Y035221D01*
X030193Y034974D01*
X030254Y034913D01*
X030378Y034913D01*
X030440Y034974D01*
X030071Y034913D02*
X029947Y034913D01*
X030009Y034913D02*
X030009Y035283D01*
X029947Y035283D02*
X030071Y035283D01*
X030791Y036673D02*
X030791Y037043D01*
X030914Y037043D02*
X030667Y037043D01*
X031036Y037043D02*
X031221Y037043D01*
X031282Y036981D01*
X031282Y036858D01*
X031221Y036796D01*
X031036Y036796D01*
X031036Y036673D02*
X031036Y037043D01*
X031404Y036981D02*
X031466Y037043D01*
X031589Y037043D01*
X031651Y036981D01*
X031651Y036919D01*
X031589Y036858D01*
X031651Y036796D01*
X031651Y036734D01*
X031589Y036673D01*
X031466Y036673D01*
X031404Y036734D01*
X031527Y036858D02*
X031589Y036858D01*
X031772Y036919D02*
X031896Y037043D01*
X031896Y036673D01*
X032019Y036673D02*
X031772Y036673D01*
X036587Y032021D02*
X036649Y032083D01*
X036772Y032083D01*
X036834Y032021D01*
X036956Y032021D02*
X037017Y032083D01*
X037141Y032083D01*
X037202Y032021D01*
X037202Y031959D01*
X037141Y031898D01*
X037202Y031836D01*
X037202Y031774D01*
X037141Y031713D01*
X037017Y031713D01*
X036956Y031774D01*
X036834Y031774D02*
X036772Y031713D01*
X036649Y031713D01*
X036587Y031774D01*
X036587Y032021D01*
X037079Y031898D02*
X037141Y031898D01*
X037324Y031774D02*
X037324Y031713D01*
X037324Y031774D02*
X037571Y032021D01*
X037571Y032083D01*
X037324Y032083D01*
X037929Y032673D02*
X038175Y032673D01*
X038237Y032734D01*
X038237Y032858D01*
X038175Y032919D01*
X038175Y033041D02*
X038237Y033103D01*
X038237Y033226D01*
X038175Y033288D01*
X038052Y033288D01*
X037990Y033226D01*
X037990Y033164D01*
X038052Y033041D01*
X037867Y033041D01*
X037867Y033288D01*
X037867Y033409D02*
X037867Y033656D01*
X037929Y033656D01*
X038175Y033409D01*
X038237Y033409D01*
X037929Y032919D02*
X037867Y032858D01*
X037867Y032734D01*
X037929Y032673D01*
X038844Y032403D02*
X038941Y032403D01*
X038892Y032403D02*
X038892Y032161D01*
X038844Y032113D01*
X038796Y032113D01*
X038747Y032161D01*
X039042Y032209D02*
X039187Y032209D01*
X039235Y032258D01*
X039235Y032354D01*
X039187Y032403D01*
X039042Y032403D01*
X039042Y032113D01*
X039336Y032113D02*
X039530Y032113D01*
X039433Y032113D02*
X039433Y032403D01*
X039336Y032306D01*
X039307Y032993D02*
X039307Y033239D01*
X039307Y033361D02*
X039307Y033546D01*
X039369Y033608D01*
X039492Y033608D01*
X039554Y033546D01*
X039554Y033361D01*
X039677Y033361D02*
X039307Y033361D01*
X039307Y033116D02*
X039677Y033116D01*
X039677Y033729D02*
X039430Y033976D01*
X039369Y033976D01*
X039307Y033914D01*
X039307Y033791D01*
X039369Y033729D01*
X039677Y033729D02*
X039677Y033976D01*
X039615Y034098D02*
X039554Y034098D01*
X039492Y034159D01*
X039492Y034283D01*
X039554Y034344D01*
X039615Y034344D01*
X039677Y034283D01*
X039677Y034159D01*
X039615Y034098D01*
X039492Y034159D02*
X039430Y034098D01*
X039369Y034098D01*
X039307Y034159D01*
X039307Y034283D01*
X039369Y034344D01*
X039430Y034344D01*
X039492Y034283D01*
X035997Y031594D02*
X035997Y031471D01*
X035935Y031409D01*
X035812Y031409D01*
X035812Y031594D01*
X035874Y031656D01*
X035935Y031656D01*
X035997Y031594D01*
X035812Y031409D02*
X035689Y031533D01*
X035627Y031656D01*
X035689Y031288D02*
X035750Y031288D01*
X035812Y031226D01*
X035874Y031288D01*
X035935Y031288D01*
X035997Y031226D01*
X035997Y031103D01*
X035935Y031041D01*
X035935Y030919D02*
X035997Y030858D01*
X035997Y030734D01*
X035935Y030673D01*
X035689Y030673D01*
X035627Y030734D01*
X035627Y030858D01*
X035689Y030919D01*
X035689Y031041D02*
X035627Y031103D01*
X035627Y031226D01*
X035689Y031288D01*
X035812Y031226D02*
X035812Y031164D01*
X034637Y031146D02*
X034637Y031023D01*
X034575Y030961D01*
X034575Y030839D02*
X034637Y030778D01*
X034637Y030654D01*
X034575Y030593D01*
X034329Y030593D01*
X034267Y030654D01*
X034267Y030778D01*
X034329Y030839D01*
X034267Y030961D02*
X034452Y030961D01*
X034390Y031084D01*
X034390Y031146D01*
X034452Y031208D01*
X034575Y031208D01*
X034637Y031146D01*
X034575Y031329D02*
X034637Y031391D01*
X034637Y031514D01*
X034575Y031576D01*
X034329Y031576D01*
X034267Y031514D01*
X034267Y031391D01*
X034329Y031329D01*
X034390Y031329D01*
X034452Y031391D01*
X034452Y031576D01*
X034267Y031208D02*
X034267Y030961D01*
X034907Y029031D02*
X034969Y028908D01*
X035092Y028784D01*
X035092Y028969D01*
X035154Y029031D01*
X035215Y029031D01*
X035277Y028969D01*
X035277Y028846D01*
X035215Y028784D01*
X035092Y028784D01*
X035092Y028663D02*
X035215Y028663D01*
X035277Y028601D01*
X035277Y028478D01*
X035215Y028416D01*
X035215Y028294D02*
X035277Y028233D01*
X035277Y028109D01*
X035215Y028048D01*
X034969Y028048D01*
X034907Y028109D01*
X034907Y028233D01*
X034969Y028294D01*
X034907Y028416D02*
X035092Y028416D01*
X035030Y028539D01*
X035030Y028601D01*
X035092Y028663D01*
X034907Y028663D02*
X034907Y028416D01*
X035943Y028561D02*
X035992Y028513D01*
X036040Y028513D01*
X036088Y028561D01*
X036088Y028803D01*
X036040Y028803D02*
X036137Y028803D01*
X036238Y028803D02*
X036238Y028513D01*
X036238Y028609D02*
X036383Y028609D01*
X036431Y028658D01*
X036431Y028754D01*
X036383Y028803D01*
X036238Y028803D01*
X036533Y028754D02*
X036533Y028706D01*
X036581Y028658D01*
X036726Y028658D01*
X036726Y028754D02*
X036678Y028803D01*
X036581Y028803D01*
X036533Y028754D01*
X036726Y028754D02*
X036726Y028561D01*
X036678Y028513D01*
X036581Y028513D01*
X036533Y028561D01*
X036689Y028561D02*
X036737Y028513D01*
X036785Y028513D01*
X036834Y028561D01*
X036834Y028803D01*
X036882Y028803D02*
X036785Y028803D01*
X036983Y028803D02*
X036983Y028513D01*
X036983Y028609D02*
X037128Y028609D01*
X037177Y028658D01*
X037177Y028754D01*
X037128Y028803D01*
X036983Y028803D01*
X037278Y028706D02*
X037375Y028803D01*
X037375Y028513D01*
X037471Y028513D02*
X037278Y028513D01*
X037573Y028561D02*
X037766Y028754D01*
X037766Y028561D01*
X037718Y028513D01*
X037621Y028513D01*
X037573Y028561D01*
X037573Y028754D01*
X037621Y028803D01*
X037718Y028803D01*
X037766Y028754D01*
X035597Y026651D02*
X035597Y026458D01*
X035597Y026555D02*
X035307Y026555D01*
X035404Y026458D01*
X035597Y026357D02*
X035597Y026163D01*
X035597Y026260D02*
X035307Y026260D01*
X035404Y026163D01*
X035452Y026062D02*
X035500Y026014D01*
X035500Y025869D01*
X035597Y025869D02*
X035307Y025869D01*
X035307Y026014D01*
X035355Y026062D01*
X035452Y026062D01*
X035307Y025767D02*
X035307Y025671D01*
X035307Y025719D02*
X035549Y025719D01*
X035597Y025671D01*
X035597Y025622D01*
X035549Y025574D01*
X035597Y025531D02*
X035597Y025338D01*
X035404Y025531D01*
X035355Y025531D01*
X035307Y025483D01*
X035307Y025386D01*
X035355Y025338D01*
X035307Y025140D02*
X035597Y025140D01*
X035597Y025043D02*
X035597Y025237D01*
X035404Y025043D02*
X035307Y025140D01*
X035355Y024942D02*
X035452Y024942D01*
X035500Y024894D01*
X035500Y024749D01*
X035597Y024749D02*
X035307Y024749D01*
X035307Y024894D01*
X035355Y024942D01*
X035307Y024647D02*
X035307Y024551D01*
X035307Y024599D02*
X035549Y024599D01*
X035597Y024551D01*
X035597Y024502D01*
X035549Y024454D01*
X031637Y028157D02*
X031637Y028254D01*
X031589Y028302D01*
X031589Y028403D02*
X031637Y028452D01*
X031637Y028548D01*
X031589Y028597D01*
X031540Y028597D01*
X031492Y028548D01*
X031492Y028403D01*
X031589Y028403D01*
X031492Y028403D02*
X031395Y028500D01*
X031347Y028597D01*
X031395Y028698D02*
X031347Y028746D01*
X031347Y028843D01*
X031395Y028891D01*
X031589Y028698D01*
X031637Y028746D01*
X031637Y028843D01*
X031589Y028891D01*
X031395Y028891D01*
X031395Y028698D02*
X031589Y028698D01*
X031395Y028302D02*
X031347Y028254D01*
X031347Y028157D01*
X031395Y028109D01*
X031589Y028109D01*
X031637Y028157D01*
X027795Y030273D02*
X027747Y030321D01*
X027747Y030418D01*
X027795Y030466D01*
X020179Y029683D02*
X020056Y029621D01*
X019932Y029498D01*
X020117Y029498D01*
X020179Y029436D01*
X020179Y029374D01*
X020117Y029313D01*
X019994Y029313D01*
X019932Y029374D01*
X019932Y029498D01*
X019811Y029498D02*
X019564Y029498D01*
X019749Y029683D01*
X019749Y029313D01*
X019442Y029498D02*
X019381Y029436D01*
X019196Y029436D01*
X019196Y029313D02*
X019196Y029683D01*
X019381Y029683D01*
X019442Y029621D01*
X019442Y029498D01*
X019074Y029683D02*
X018827Y029683D01*
X018951Y029683D02*
X018951Y029313D01*
X018875Y029953D02*
X018751Y029953D01*
X018689Y030014D01*
X018568Y029953D02*
X018321Y029953D01*
X018444Y029953D02*
X018444Y030323D01*
X018321Y030199D01*
X018200Y030261D02*
X018138Y030323D01*
X018014Y030323D01*
X017953Y030261D01*
X017953Y030014D01*
X018014Y029953D01*
X018138Y029953D01*
X018200Y030014D01*
X017831Y029953D02*
X017707Y029953D01*
X017769Y029953D02*
X017769Y030323D01*
X017707Y030323D02*
X017831Y030323D01*
X018689Y030261D02*
X018689Y030199D01*
X018751Y030138D01*
X018936Y030138D01*
X018936Y030261D02*
X018875Y030323D01*
X018751Y030323D01*
X018689Y030261D01*
X018936Y030261D02*
X018936Y030014D01*
X018875Y029953D01*
X017364Y028003D02*
X017241Y028003D01*
X017179Y027941D01*
X017057Y027818D02*
X016811Y027818D01*
X016996Y028003D01*
X016996Y027633D01*
X017179Y027633D02*
X017426Y027879D01*
X017426Y027941D01*
X017364Y028003D01*
X017426Y027633D02*
X017179Y027633D01*
X016689Y027818D02*
X016627Y027756D01*
X016442Y027756D01*
X016442Y027633D02*
X016442Y028003D01*
X016627Y028003D01*
X016689Y027941D01*
X016689Y027818D01*
X016321Y028003D02*
X016074Y028003D01*
X016197Y028003D02*
X016197Y027633D01*
X014902Y026883D02*
X014902Y026513D01*
X014779Y026513D02*
X015026Y026513D01*
X014779Y026759D02*
X014902Y026883D01*
X014657Y026821D02*
X014596Y026883D01*
X014472Y026883D01*
X014411Y026821D01*
X014411Y026574D01*
X014472Y026513D01*
X014596Y026513D01*
X014657Y026574D01*
X013935Y029713D02*
X013997Y029774D01*
X013997Y029898D01*
X013935Y029959D01*
X013997Y030081D02*
X013750Y030328D01*
X013689Y030328D01*
X013627Y030266D01*
X013627Y030143D01*
X013689Y030081D01*
X013689Y029959D02*
X013627Y029898D01*
X013627Y029774D01*
X013689Y029713D01*
X013935Y029713D01*
X013997Y030081D02*
X013997Y030328D01*
X013997Y030449D02*
X013935Y030449D01*
X013689Y030696D01*
X013627Y030696D01*
X013627Y030449D01*
X013877Y030753D02*
X013877Y031123D01*
X013754Y031123D02*
X014001Y031123D01*
X014122Y031123D02*
X014122Y030753D01*
X014122Y030876D02*
X014307Y030876D01*
X014369Y030938D01*
X014369Y031061D01*
X014307Y031123D01*
X014122Y031123D01*
X014491Y031061D02*
X014552Y031123D01*
X014676Y031123D01*
X014737Y031061D01*
X014737Y030999D01*
X014676Y030938D01*
X014737Y030876D01*
X014737Y030814D01*
X014676Y030753D01*
X014552Y030753D01*
X014491Y030814D01*
X014614Y030938D02*
X014676Y030938D01*
X014859Y030938D02*
X015106Y030938D01*
X015044Y031123D02*
X014859Y030938D01*
X015044Y030753D02*
X015044Y031123D01*
X015369Y032496D02*
X015615Y032496D01*
X015677Y032558D01*
X015677Y032681D01*
X015615Y032743D01*
X015615Y032864D02*
X015677Y032926D01*
X015677Y033049D01*
X015615Y033111D01*
X015554Y033111D01*
X015492Y033049D01*
X015492Y032988D01*
X015492Y033049D02*
X015430Y033111D01*
X015369Y033111D01*
X015307Y033049D01*
X015307Y032926D01*
X015369Y032864D01*
X015369Y032743D02*
X015307Y032681D01*
X015307Y032558D01*
X015369Y032496D01*
X015707Y033633D02*
X015707Y033729D01*
X015707Y033681D02*
X015997Y033681D01*
X015997Y033633D02*
X015997Y033729D01*
X015949Y033829D02*
X015997Y033877D01*
X015997Y033974D01*
X015949Y034022D01*
X015949Y034124D02*
X015997Y034172D01*
X015997Y034269D01*
X015949Y034317D01*
X015852Y034317D01*
X015804Y034269D01*
X015804Y034220D01*
X015852Y034124D01*
X015707Y034124D01*
X015707Y034317D01*
X015755Y034022D02*
X015707Y033974D01*
X015707Y033877D01*
X015755Y033829D01*
X015949Y033829D01*
X014157Y035454D02*
X014157Y035578D01*
X014095Y035639D01*
X014157Y035761D02*
X013910Y036008D01*
X013849Y036008D01*
X013787Y035946D01*
X013787Y035823D01*
X013849Y035761D01*
X013849Y035639D02*
X013787Y035578D01*
X013787Y035454D01*
X013849Y035393D01*
X014095Y035393D01*
X014157Y035454D01*
X014157Y035761D02*
X014157Y036008D01*
X014095Y036129D02*
X013972Y036129D01*
X013972Y036314D01*
X014034Y036376D01*
X014095Y036376D01*
X014157Y036314D01*
X014157Y036191D01*
X014095Y036129D01*
X013972Y036129D02*
X013849Y036253D01*
X013787Y036376D01*
X014277Y036433D02*
X014400Y036433D01*
X014338Y036433D02*
X014338Y036803D01*
X014277Y036803D02*
X014400Y036803D01*
X014522Y036741D02*
X014522Y036494D01*
X014584Y036433D01*
X014707Y036433D01*
X014769Y036494D01*
X014891Y036433D02*
X015137Y036433D01*
X015014Y036433D02*
X015014Y036803D01*
X014891Y036679D01*
X014769Y036741D02*
X014707Y036803D01*
X014584Y036803D01*
X014522Y036741D01*
X015259Y036741D02*
X015259Y036679D01*
X015321Y036618D01*
X015444Y036618D01*
X015506Y036556D01*
X015506Y036494D01*
X015444Y036433D01*
X015321Y036433D01*
X015259Y036494D01*
X015259Y036556D01*
X015321Y036618D01*
X015444Y036618D02*
X015506Y036679D01*
X015506Y036741D01*
X015444Y036803D01*
X015321Y036803D01*
X015259Y036741D01*
X022394Y018883D02*
X022641Y018883D01*
X022762Y018883D02*
X022947Y018883D01*
X023009Y018821D01*
X023009Y018698D01*
X022947Y018636D01*
X022762Y018636D01*
X022762Y018513D02*
X022762Y018883D01*
X022517Y018883D02*
X022517Y018513D01*
X023131Y018513D02*
X023377Y018513D01*
X023499Y018513D02*
X023499Y018574D01*
X023746Y018821D01*
X023746Y018883D01*
X023499Y018883D01*
X023254Y018883D02*
X023254Y018513D01*
X023131Y018759D02*
X023254Y018883D01*
X018255Y012488D02*
X018009Y012488D01*
X017947Y012426D01*
X017947Y012303D01*
X018009Y012241D01*
X018070Y012241D01*
X018132Y012303D01*
X018132Y012488D01*
X018255Y012488D02*
X018317Y012426D01*
X018317Y012303D01*
X018255Y012241D01*
X018317Y012119D02*
X018194Y011996D01*
X018194Y012058D02*
X018194Y011873D01*
X018317Y011873D02*
X017947Y011873D01*
X017947Y012058D01*
X018009Y012119D01*
X018132Y012119D01*
X018194Y012058D01*
X014786Y015534D02*
X014724Y015473D01*
X014601Y015473D01*
X014539Y015534D01*
X014539Y015658D01*
X014724Y015658D01*
X014786Y015596D01*
X014786Y015534D01*
X014662Y015781D02*
X014539Y015658D01*
X014417Y015719D02*
X014356Y015658D01*
X014417Y015596D01*
X014417Y015534D01*
X014356Y015473D01*
X014232Y015473D01*
X014171Y015534D01*
X014049Y015658D02*
X013987Y015596D01*
X013802Y015596D01*
X013802Y015473D02*
X013802Y015843D01*
X013987Y015843D01*
X014049Y015781D01*
X014049Y015658D01*
X014171Y015781D02*
X014232Y015843D01*
X014356Y015843D01*
X014417Y015781D01*
X014417Y015719D01*
X014356Y015658D02*
X014294Y015658D01*
X014662Y015781D02*
X014786Y015843D01*
X013681Y015843D02*
X013434Y015843D01*
X013557Y015843D02*
X013557Y015473D01*
X014072Y017313D02*
X014011Y017374D01*
X014011Y017621D01*
X014072Y017683D01*
X014196Y017683D01*
X014257Y017621D01*
X014379Y017621D02*
X014441Y017683D01*
X014564Y017683D01*
X014626Y017621D01*
X014626Y017559D01*
X014379Y017313D01*
X014626Y017313D01*
X014257Y017374D02*
X014196Y017313D01*
X014072Y017313D01*
X044107Y033744D02*
X044107Y033991D01*
X044169Y033991D01*
X048267Y033683D02*
X048514Y033683D01*
X048636Y033683D02*
X048821Y033683D01*
X048882Y033621D01*
X048882Y033498D01*
X048821Y033436D01*
X048636Y033436D01*
X048636Y033313D02*
X048636Y033683D01*
X048391Y033683D02*
X048391Y033313D01*
X048391Y033123D02*
X048514Y032999D01*
X048514Y032753D01*
X048636Y032876D02*
X048759Y032753D01*
X048882Y032876D01*
X048882Y033123D01*
X049004Y033123D02*
X049189Y033123D01*
X049251Y033061D01*
X049251Y032814D01*
X049189Y032753D01*
X049004Y032753D01*
X049004Y033123D01*
X049004Y033313D02*
X049004Y033374D01*
X049251Y033621D01*
X049251Y033683D01*
X049004Y033683D01*
X049372Y033123D02*
X049557Y033123D01*
X049619Y033061D01*
X049619Y032814D01*
X049557Y032753D01*
X049372Y032753D01*
X049372Y033123D01*
X048636Y033123D02*
X048636Y032876D01*
X048514Y032938D02*
X048267Y032938D01*
X048267Y032999D02*
X048391Y033123D01*
X048267Y032999D02*
X048267Y032753D01*
D12*
X042868Y034753D02*
X042562Y034753D01*
X042715Y034753D02*
X042715Y035214D01*
X042562Y035060D01*
X042408Y034983D02*
X042331Y034907D01*
X042101Y034907D01*
X042255Y034907D02*
X042408Y034753D01*
X042408Y034983D02*
X042408Y035137D01*
X042331Y035214D01*
X042101Y035214D01*
X042101Y034753D01*
X039628Y034793D02*
X039322Y034793D01*
X039628Y035100D01*
X039628Y035177D01*
X039552Y035254D01*
X039398Y035254D01*
X039322Y035177D01*
X039168Y035177D02*
X039168Y035023D01*
X039091Y034947D01*
X038861Y034947D01*
X039015Y034947D02*
X039168Y034793D01*
X038861Y034793D02*
X038861Y035254D01*
X039091Y035254D01*
X039168Y035177D01*
X033758Y030505D02*
X033758Y030044D01*
X033911Y030044D02*
X033604Y030044D01*
X033451Y030044D02*
X033144Y030044D01*
X033451Y030351D01*
X033451Y030428D01*
X033374Y030505D01*
X033221Y030505D01*
X033144Y030428D01*
X032990Y030428D02*
X032914Y030505D01*
X032760Y030505D01*
X032684Y030428D01*
X032684Y030121D01*
X032760Y030044D01*
X032914Y030044D01*
X032990Y030121D01*
X032530Y030044D02*
X032377Y030044D01*
X032453Y030044D02*
X032453Y030505D01*
X032377Y030505D02*
X032530Y030505D01*
X033604Y030351D02*
X033758Y030505D01*
X033796Y040248D02*
X033796Y040528D01*
X033703Y040434D01*
X033703Y040248D02*
X033890Y040248D01*
X034704Y040244D02*
X034891Y040431D01*
X034891Y040477D01*
X034844Y040524D01*
X034751Y040524D01*
X034704Y040477D01*
X034704Y040244D02*
X034891Y040244D01*
X035614Y040294D02*
X035661Y040248D01*
X035754Y040248D01*
X035801Y040294D01*
X035801Y040341D01*
X035754Y040388D01*
X035707Y040388D01*
X035754Y040388D02*
X035801Y040434D01*
X035801Y040481D01*
X035754Y040528D01*
X035661Y040528D01*
X035614Y040481D01*
X035260Y042418D02*
X035336Y042494D01*
X035336Y042801D01*
X035260Y042878D01*
X035106Y042878D01*
X035030Y042801D01*
X035030Y042724D01*
X035106Y042648D01*
X035336Y042648D01*
X035260Y042418D02*
X035106Y042418D01*
X035030Y042494D01*
X034876Y042494D02*
X034799Y042418D01*
X034646Y042418D01*
X034569Y042494D01*
X034569Y042801D01*
X034646Y042878D01*
X034799Y042878D01*
X034876Y042801D01*
X034416Y042878D02*
X034262Y042878D01*
X034339Y042878D02*
X034339Y042418D01*
X034262Y042418D02*
X034416Y042418D01*
X036462Y043588D02*
X036649Y043588D01*
X036602Y043728D02*
X036462Y043588D01*
X036602Y043448D02*
X036602Y043728D01*
X041303Y040434D02*
X041396Y040528D01*
X041396Y040248D01*
X041303Y040248D02*
X041490Y040248D01*
X042304Y040244D02*
X042491Y040431D01*
X042491Y040477D01*
X042444Y040524D01*
X042351Y040524D01*
X042304Y040477D01*
X042304Y040244D02*
X042491Y040244D01*
X043214Y040294D02*
X043261Y040248D01*
X043354Y040248D01*
X043401Y040294D01*
X043401Y040341D01*
X043354Y040388D01*
X043307Y040388D01*
X043354Y040388D02*
X043401Y040434D01*
X043401Y040481D01*
X043354Y040528D01*
X043261Y040528D01*
X043214Y040481D01*
X043167Y042418D02*
X043090Y042494D01*
X043167Y042418D02*
X043320Y042418D01*
X043397Y042494D01*
X043397Y042648D01*
X043320Y042724D01*
X043243Y042724D01*
X043090Y042648D01*
X043090Y042878D01*
X043397Y042878D01*
X042783Y042878D02*
X042783Y042418D01*
X042630Y042418D02*
X042936Y042418D01*
X042630Y042724D02*
X042783Y042878D01*
X042476Y042801D02*
X042399Y042878D01*
X042246Y042878D01*
X042169Y042801D01*
X042169Y042494D01*
X042246Y042418D01*
X042399Y042418D01*
X042476Y042494D01*
X042016Y042418D02*
X041862Y042418D01*
X041939Y042418D02*
X041939Y042878D01*
X041862Y042878D02*
X042016Y042878D01*
X044062Y043588D02*
X044249Y043588D01*
X044202Y043448D02*
X044202Y043728D01*
X044062Y043588D01*
X029449Y043588D02*
X029262Y043588D01*
X029402Y043728D01*
X029402Y043448D01*
X028443Y042878D02*
X028443Y042418D01*
X028290Y042418D02*
X028597Y042418D01*
X028290Y042724D02*
X028443Y042878D01*
X027983Y042878D02*
X027983Y042418D01*
X027830Y042418D02*
X028136Y042418D01*
X027830Y042724D02*
X027983Y042878D01*
X027676Y042801D02*
X027599Y042878D01*
X027446Y042878D01*
X027369Y042801D01*
X027369Y042494D01*
X027446Y042418D01*
X027599Y042418D01*
X027676Y042494D01*
X027216Y042418D02*
X027062Y042418D01*
X027139Y042418D02*
X027139Y042878D01*
X027062Y042878D02*
X027216Y042878D01*
X027551Y040524D02*
X027504Y040477D01*
X027551Y040524D02*
X027644Y040524D01*
X027691Y040477D01*
X027691Y040431D01*
X027504Y040244D01*
X027691Y040244D01*
X028414Y040294D02*
X028461Y040248D01*
X028554Y040248D01*
X028601Y040294D01*
X028601Y040341D01*
X028554Y040388D01*
X028507Y040388D01*
X028554Y040388D02*
X028601Y040434D01*
X028601Y040481D01*
X028554Y040528D01*
X028461Y040528D01*
X028414Y040481D01*
X026690Y040248D02*
X026503Y040248D01*
X026596Y040248D02*
X026596Y040528D01*
X026503Y040434D01*
X016966Y040998D02*
X016619Y040998D01*
X016966Y041345D01*
X016966Y041431D01*
X016879Y041518D01*
X016706Y041518D01*
X016619Y041431D01*
X016450Y041431D02*
X016364Y041518D01*
X016103Y041518D01*
X016103Y040998D01*
X016364Y040998D01*
X016450Y041084D01*
X016450Y041431D01*
X015935Y041431D02*
X015935Y041084D01*
X015848Y040998D01*
X015588Y040998D01*
X015588Y041518D01*
X015848Y041518D01*
X015935Y041431D01*
X015419Y041518D02*
X015419Y041171D01*
X015246Y040998D01*
X015072Y041171D01*
X015072Y041518D01*
X015166Y041958D02*
X015339Y042131D01*
X015339Y042478D01*
X015508Y042478D02*
X015508Y041958D01*
X015768Y041958D01*
X015855Y042044D01*
X015855Y042391D01*
X015768Y042478D01*
X015508Y042478D01*
X016023Y042478D02*
X016284Y042478D01*
X016370Y042391D01*
X016370Y042044D01*
X016284Y041958D01*
X016023Y041958D01*
X016023Y042478D01*
X016539Y042305D02*
X016713Y042478D01*
X016713Y041958D01*
X016886Y041958D02*
X016539Y041958D01*
X015166Y041958D02*
X014992Y042131D01*
X014992Y042478D01*
X015159Y040478D02*
X015072Y040391D01*
X015072Y040044D01*
X015159Y039958D01*
X015332Y039958D01*
X015419Y040044D01*
X015419Y040218D01*
X015246Y040218D01*
X015419Y040391D02*
X015332Y040478D01*
X015159Y040478D01*
X015588Y040478D02*
X015935Y039958D01*
X015935Y040478D01*
X016103Y040478D02*
X016103Y039958D01*
X016364Y039958D01*
X016450Y040044D01*
X016450Y040391D01*
X016364Y040478D01*
X016103Y040478D01*
X015588Y040478D02*
X015588Y039958D01*
X015675Y039358D02*
X015588Y039271D01*
X015588Y039185D01*
X015675Y039098D01*
X015848Y039098D01*
X015935Y039011D01*
X015935Y038924D01*
X015848Y038838D01*
X015675Y038838D01*
X015588Y038924D01*
X015419Y039011D02*
X015419Y039358D01*
X015675Y039358D02*
X015848Y039358D01*
X015935Y039271D01*
X016103Y039271D02*
X016103Y039185D01*
X016190Y039098D01*
X016364Y039098D01*
X016450Y039011D01*
X016450Y038924D01*
X016364Y038838D01*
X016190Y038838D01*
X016103Y038924D01*
X016103Y039271D02*
X016190Y039358D01*
X016364Y039358D01*
X016450Y039271D01*
X015419Y039011D02*
X015246Y038838D01*
X015072Y039011D01*
X015072Y039358D01*
X014759Y038398D02*
X014452Y038398D01*
X014759Y038398D02*
X014759Y038321D01*
X014452Y038014D01*
X014452Y037938D01*
X014298Y037938D02*
X013991Y037938D01*
X014145Y037938D02*
X014145Y038398D01*
X013991Y038244D01*
X013838Y038168D02*
X013761Y038091D01*
X013531Y038091D01*
X013531Y037938D02*
X013531Y038398D01*
X013761Y038398D01*
X013838Y038321D01*
X013838Y038168D01*
X013378Y038398D02*
X013224Y038398D01*
X013301Y038398D02*
X013301Y038014D01*
X013224Y037938D01*
X013147Y037938D01*
X013071Y038014D01*
X018376Y031837D02*
X018606Y031607D01*
X018606Y031914D01*
X018376Y031837D02*
X018837Y031837D01*
X018837Y031453D02*
X018683Y031300D01*
X018683Y031377D02*
X018683Y031147D01*
X018837Y031147D02*
X018376Y031147D01*
X018376Y031377D01*
X018453Y031453D01*
X018606Y031453D01*
X018683Y031377D01*
X013672Y028875D02*
X013595Y028952D01*
X013519Y028952D01*
X013442Y028875D01*
X013442Y028645D01*
X013595Y028645D01*
X013672Y028722D01*
X013672Y028875D01*
X013442Y028645D02*
X013289Y028798D01*
X013212Y028952D01*
X013289Y028491D02*
X013212Y028415D01*
X013212Y028261D01*
X013289Y028184D01*
X013595Y028184D01*
X013672Y028261D01*
X013672Y028415D01*
X013595Y028491D01*
X013672Y028031D02*
X013672Y027878D01*
X013672Y027954D02*
X013212Y027954D01*
X013212Y027878D02*
X013212Y028031D01*
X015856Y023914D02*
X015856Y023607D01*
X016086Y023607D01*
X016010Y023760D01*
X016010Y023837D01*
X016086Y023914D01*
X016240Y023914D01*
X016317Y023837D01*
X016317Y023684D01*
X016240Y023607D01*
X016317Y023453D02*
X016163Y023300D01*
X016163Y023377D02*
X016163Y023147D01*
X016317Y023147D02*
X015856Y023147D01*
X015856Y023377D01*
X015933Y023453D01*
X016086Y023453D01*
X016163Y023377D01*
X015469Y019484D02*
X015392Y019484D01*
X015392Y019177D01*
X015469Y019024D02*
X015392Y018947D01*
X015392Y018794D01*
X015469Y018717D01*
X015775Y018717D01*
X015852Y018794D01*
X015852Y018947D01*
X015775Y019024D01*
X015775Y019177D02*
X015852Y019177D01*
X015775Y019177D02*
X015469Y019484D01*
X015392Y018563D02*
X015392Y018410D01*
X015392Y018487D02*
X015852Y018487D01*
X015852Y018563D02*
X015852Y018410D01*
X018256Y016074D02*
X018333Y015920D01*
X018486Y015767D01*
X018486Y015997D01*
X018563Y016074D01*
X018640Y016074D01*
X018717Y015997D01*
X018717Y015844D01*
X018640Y015767D01*
X018486Y015767D01*
X018486Y015613D02*
X018563Y015537D01*
X018563Y015307D01*
X018563Y015460D02*
X018717Y015613D01*
X018486Y015613D02*
X018333Y015613D01*
X018256Y015537D01*
X018256Y015307D01*
X018717Y015307D01*
D13*
X021852Y017059D02*
X021852Y017696D01*
X022207Y017696D02*
X022618Y017696D01*
X022972Y017696D02*
X022972Y017059D01*
X024972Y017059D02*
X024972Y017696D01*
X025327Y017696D02*
X025738Y017696D01*
X026092Y017696D02*
X026092Y017059D01*
X021323Y019175D02*
X020862Y019175D01*
X020862Y019980D02*
X021323Y019980D01*
X014651Y019617D02*
X014013Y019617D01*
X014651Y019263D02*
X014651Y018852D01*
X014651Y018498D02*
X014013Y018498D01*
X014413Y027778D02*
X015051Y027778D01*
X015051Y028132D02*
X015051Y028543D01*
X015051Y028897D02*
X014413Y028897D01*
X014493Y033458D02*
X015131Y033458D01*
X015131Y033812D02*
X015131Y034223D01*
X015131Y034577D02*
X014493Y034577D01*
X019702Y034655D02*
X020163Y034655D01*
X020163Y035460D02*
X019702Y035460D01*
X021062Y028780D02*
X021523Y028780D01*
X021523Y027975D02*
X021062Y027975D01*
X028332Y023856D02*
X028332Y023219D01*
X028687Y023856D02*
X029098Y023856D01*
X029452Y023856D02*
X029452Y023219D01*
X037402Y024688D02*
X037829Y024688D01*
X037616Y024688D02*
X037616Y024048D01*
X038047Y024048D02*
X038047Y024688D01*
X038153Y024475D02*
X038367Y024475D01*
X038474Y024368D01*
X038474Y024048D01*
X038691Y024154D02*
X038691Y024368D01*
X038798Y024475D01*
X039012Y024475D01*
X039118Y024368D01*
X039118Y024261D01*
X038691Y024261D01*
X038691Y024154D02*
X038798Y024048D01*
X039012Y024048D01*
X039980Y024048D02*
X039980Y024688D01*
X040301Y024688D01*
X040407Y024581D01*
X040407Y024475D01*
X040301Y024368D01*
X039980Y024368D01*
X039980Y024048D02*
X040301Y024048D01*
X040407Y024154D01*
X040407Y024261D01*
X040301Y024368D01*
X040625Y024368D02*
X040732Y024475D01*
X040945Y024475D01*
X041052Y024368D01*
X041052Y024261D01*
X040625Y024261D01*
X040625Y024154D02*
X040625Y024368D01*
X040625Y024154D02*
X040732Y024048D01*
X040945Y024048D01*
X041269Y024154D02*
X041376Y024261D01*
X041697Y024261D01*
X041697Y024368D02*
X041697Y024048D01*
X041376Y024048D01*
X041269Y024154D01*
X041376Y024475D02*
X041590Y024475D01*
X041697Y024368D01*
X041914Y024475D02*
X042234Y024475D01*
X042341Y024368D01*
X042341Y024048D01*
X041914Y024048D02*
X041914Y024475D01*
X041970Y024848D02*
X041970Y025488D01*
X041756Y025275D01*
X041539Y025381D02*
X041432Y025488D01*
X041219Y025488D01*
X041112Y025381D01*
X041112Y024954D01*
X041219Y024848D01*
X041432Y024848D01*
X041539Y024954D01*
X041756Y024848D02*
X042183Y024848D01*
X040896Y024848D02*
X040682Y024848D01*
X040789Y024848D02*
X040789Y025488D01*
X040682Y025488D02*
X040896Y025488D01*
X043203Y024581D02*
X043310Y024688D01*
X043523Y024688D01*
X043630Y024581D01*
X043630Y024475D01*
X043203Y024048D01*
X043630Y024048D01*
X038153Y024475D02*
X038047Y024368D01*
X045452Y031139D02*
X045452Y031776D01*
X045807Y031139D02*
X046218Y031139D01*
X046572Y031139D02*
X046572Y031776D01*
X045371Y043428D02*
X045585Y043641D01*
X045585Y044068D01*
X045158Y044068D02*
X045158Y043641D01*
X045371Y043428D01*
X044940Y043534D02*
X044833Y043428D01*
X044620Y043428D01*
X044513Y043534D01*
X044513Y043748D02*
X044727Y043855D01*
X044833Y043855D01*
X044940Y043748D01*
X044940Y043534D01*
X044513Y043748D02*
X044513Y044068D01*
X044940Y044068D01*
X039045Y043901D02*
X038938Y044008D01*
X038724Y044008D01*
X038618Y043901D01*
X038400Y043901D02*
X038293Y044008D01*
X037973Y044008D01*
X037973Y043368D01*
X038293Y043368D01*
X038400Y043474D01*
X038400Y043901D01*
X038618Y043368D02*
X039045Y043795D01*
X039045Y043901D01*
X039045Y043368D02*
X038618Y043368D01*
X037756Y043474D02*
X037756Y043901D01*
X037649Y044008D01*
X037329Y044008D01*
X037329Y043368D01*
X037649Y043368D01*
X037756Y043474D01*
X037111Y043581D02*
X037111Y044008D01*
X037111Y043581D02*
X036898Y043368D01*
X036684Y043581D01*
X036684Y044008D01*
X031625Y043821D02*
X031625Y043394D01*
X031518Y043288D01*
X031198Y043288D01*
X031198Y043928D01*
X031518Y043928D01*
X031625Y043821D01*
X030980Y043821D02*
X030980Y043394D01*
X030873Y043288D01*
X030553Y043288D01*
X030553Y043928D01*
X030873Y043928D01*
X030980Y043821D01*
X030336Y043928D02*
X030336Y043501D01*
X030122Y043288D01*
X029909Y043501D01*
X029909Y043928D01*
X029772Y034256D02*
X029772Y033619D01*
X030127Y034256D02*
X030538Y034256D01*
X030892Y034256D02*
X030892Y033619D01*
X031769Y056251D02*
X032196Y056251D01*
X031983Y056251D02*
X031983Y056892D01*
X031769Y056678D01*
X032414Y056785D02*
X032521Y056892D01*
X032734Y056892D01*
X032841Y056785D01*
X032414Y056358D01*
X032521Y056251D01*
X032734Y056251D01*
X032841Y056358D01*
X032841Y056785D01*
X033059Y056785D02*
X033165Y056892D01*
X033379Y056892D01*
X033486Y056785D01*
X033059Y056358D01*
X033165Y056251D01*
X033379Y056251D01*
X033486Y056358D01*
X033486Y056785D01*
X033059Y056785D02*
X033059Y056358D01*
X032414Y056358D02*
X032414Y056785D01*
X001003Y028731D02*
X001003Y028517D01*
X000897Y028410D01*
X000470Y028837D01*
X000897Y028837D01*
X001003Y028731D01*
X000897Y028410D02*
X000470Y028410D01*
X000363Y028517D01*
X000363Y028731D01*
X000470Y028837D01*
X000470Y028193D02*
X000363Y028086D01*
X000363Y027873D01*
X000470Y027766D01*
X000576Y027766D01*
X000683Y027873D01*
X000683Y028193D01*
X000470Y028193D02*
X000897Y028193D01*
X001003Y028086D01*
X001003Y027873D01*
X000897Y027766D01*
X031769Y001577D02*
X031983Y001790D01*
X031983Y001149D01*
X032196Y001149D02*
X031769Y001149D01*
X032414Y001256D02*
X032841Y001683D01*
X032841Y001256D01*
X032734Y001149D01*
X032520Y001149D01*
X032414Y001256D01*
X032414Y001683D01*
X032520Y001790D01*
X032734Y001790D01*
X032841Y001683D01*
X033058Y001683D02*
X033165Y001790D01*
X033378Y001790D01*
X033485Y001683D01*
X033058Y001256D01*
X033165Y001149D01*
X033378Y001149D01*
X033485Y001256D01*
X033485Y001683D01*
X033058Y001683D02*
X033058Y001256D01*
X065215Y027872D02*
X065322Y027765D01*
X065428Y027765D01*
X065535Y027872D01*
X065535Y028192D01*
X065322Y028192D02*
X065215Y028085D01*
X065215Y027872D01*
X065322Y028192D02*
X065749Y028192D01*
X065855Y028085D01*
X065855Y027872D01*
X065749Y027765D01*
X065749Y028410D02*
X065322Y028410D01*
X065215Y028516D01*
X065215Y028730D01*
X065322Y028837D01*
X065749Y028410D01*
X065855Y028516D01*
X065855Y028730D01*
X065749Y028837D01*
X065322Y028837D01*
D14*
X050412Y033361D02*
X050412Y033667D01*
X050412Y033514D02*
X049491Y033514D01*
X049491Y033361D02*
X049491Y033667D01*
X049645Y033974D02*
X049491Y034128D01*
X049491Y034435D01*
X049645Y034588D01*
X049952Y034895D02*
X049952Y035509D01*
X050259Y035816D02*
X049491Y035816D01*
X049052Y035816D02*
X048438Y035816D01*
X048131Y036123D01*
X048438Y036430D01*
X049052Y036430D01*
X048899Y036737D02*
X049052Y036890D01*
X049052Y037197D01*
X048899Y037351D01*
X049491Y037197D02*
X049491Y036890D01*
X049645Y036737D01*
X050259Y036737D01*
X050412Y036890D01*
X050412Y037197D01*
X050259Y037351D01*
X049645Y037351D02*
X049491Y037197D01*
X048899Y036737D02*
X048285Y036737D01*
X048131Y036890D01*
X048131Y037197D01*
X048285Y037351D01*
X048592Y036430D02*
X048592Y035816D01*
X049052Y035509D02*
X048745Y035202D01*
X049052Y034895D01*
X048131Y034895D01*
X048131Y035509D02*
X049052Y035509D01*
X049491Y036430D02*
X050259Y036430D01*
X050412Y036276D01*
X050412Y035969D01*
X050259Y035816D01*
X050259Y034588D02*
X050412Y034435D01*
X050412Y034128D01*
X050259Y033974D01*
X049645Y033974D01*
X047322Y030118D02*
X046822Y030118D01*
X046572Y029868D01*
X046322Y030118D01*
X045822Y030118D01*
X045572Y029868D01*
X045572Y029368D01*
X045822Y029118D01*
X046322Y029118D01*
X046572Y029368D01*
X046822Y029118D01*
X047322Y029118D01*
X047572Y029368D01*
X047572Y029868D01*
X047322Y030118D01*
X043412Y031828D02*
X043412Y032328D01*
X043162Y032578D01*
X042662Y032578D01*
X042412Y032328D01*
X042162Y032578D01*
X041662Y032578D01*
X041412Y032328D01*
X041162Y032578D01*
X040662Y032578D01*
X040412Y032328D01*
X040412Y031828D01*
X040662Y031578D01*
X041162Y031578D01*
X041412Y031828D01*
X041662Y031578D01*
X042162Y031578D01*
X042412Y031828D01*
X042662Y031578D01*
X043162Y031578D01*
X043412Y031828D01*
X039552Y031668D02*
X039552Y031168D01*
X039302Y030918D01*
X039552Y030668D01*
X039552Y030168D01*
X039302Y029918D01*
X039552Y029668D01*
X039552Y029168D01*
X039302Y028918D01*
X038802Y028918D01*
X038552Y029168D01*
X038552Y029668D01*
X038802Y029918D01*
X038552Y030168D01*
X038552Y030668D01*
X038802Y030918D01*
X038552Y031168D01*
X038552Y031668D01*
X038802Y031918D01*
X039302Y031918D01*
X039552Y031668D01*
X038352Y030688D02*
X038102Y030938D01*
X037602Y030938D01*
X037352Y030688D01*
X037352Y030188D01*
X037602Y029938D01*
X037352Y029688D01*
X037352Y029188D01*
X037602Y028938D01*
X038102Y028938D01*
X038352Y029188D01*
X038352Y029688D01*
X038102Y029938D01*
X038352Y030188D01*
X038352Y030688D01*
X037232Y030688D02*
X037232Y030188D01*
X036982Y029938D01*
X037232Y029688D01*
X037232Y029188D01*
X036982Y028938D01*
X036482Y028938D01*
X036232Y029188D01*
X036232Y029688D01*
X036482Y029938D01*
X036232Y030188D01*
X036232Y030688D01*
X036482Y030938D01*
X036982Y030938D01*
X037232Y030688D01*
X034077Y030682D02*
X034077Y029193D01*
X032195Y029193D01*
X032187Y029193D02*
X032187Y030682D01*
X032195Y030682D02*
X034077Y030682D01*
X030963Y030409D02*
X030963Y029306D01*
X029861Y029306D01*
X029861Y030409D01*
X030963Y030409D01*
X030845Y029543D02*
X030609Y029543D01*
X030611Y029523D01*
X030616Y029503D01*
X030625Y029484D01*
X030637Y029467D01*
X030651Y029453D01*
X030668Y029441D01*
X030687Y029432D01*
X030707Y029427D01*
X030727Y029425D01*
X030747Y029427D01*
X030767Y029432D01*
X030786Y029441D01*
X030803Y029453D01*
X030817Y029467D01*
X030829Y029484D01*
X030838Y029503D01*
X030843Y029523D01*
X030845Y029543D01*
X033422Y026678D02*
X033172Y026428D01*
X033172Y025928D01*
X033422Y025678D01*
X033922Y025678D01*
X034172Y025928D01*
X034422Y025678D01*
X034922Y025678D01*
X035172Y025928D01*
X035172Y026428D01*
X034922Y026678D01*
X034422Y026678D01*
X034172Y026428D01*
X033922Y026678D01*
X033422Y026678D01*
X033422Y025638D02*
X033172Y025388D01*
X033172Y024888D01*
X033422Y024638D01*
X033922Y024638D01*
X034172Y024888D01*
X034422Y024638D01*
X034922Y024638D01*
X035172Y024888D01*
X035172Y025388D01*
X034922Y025638D01*
X034422Y025638D01*
X034172Y025388D01*
X033922Y025638D01*
X033422Y025638D01*
X033622Y024478D02*
X033122Y024478D01*
X032872Y024228D01*
X032872Y023728D01*
X033122Y023478D01*
X032872Y023228D01*
X032872Y022728D01*
X033122Y022478D01*
X032872Y022228D01*
X032872Y021728D01*
X033122Y021478D01*
X033622Y021478D01*
X033872Y021728D01*
X033872Y022228D01*
X033622Y022478D01*
X033872Y022728D01*
X033872Y023228D01*
X033622Y023478D01*
X033872Y023728D01*
X033872Y024228D01*
X033622Y024478D01*
X032752Y023988D02*
X032752Y023488D01*
X032502Y023238D01*
X032752Y022988D01*
X032752Y022488D01*
X032502Y022238D01*
X032752Y021988D01*
X032752Y021488D01*
X032502Y021238D01*
X032002Y021238D01*
X031752Y021488D01*
X031752Y021988D01*
X032002Y022238D01*
X031752Y022488D01*
X031752Y022988D01*
X032002Y023238D01*
X031752Y023488D01*
X031752Y023988D01*
X032002Y024238D01*
X032502Y024238D01*
X032752Y023988D01*
X029612Y024808D02*
X029612Y025308D01*
X029362Y025558D01*
X028862Y025558D01*
X028612Y025308D01*
X028362Y025558D01*
X027862Y025558D01*
X027612Y025308D01*
X027612Y024808D01*
X027862Y024558D01*
X028362Y024558D01*
X028612Y024808D01*
X028862Y024558D01*
X029362Y024558D01*
X029612Y024808D01*
X026292Y024828D02*
X026292Y024328D01*
X026042Y024078D01*
X025542Y024078D01*
X025292Y024328D01*
X025042Y024078D01*
X024542Y024078D01*
X024292Y024328D01*
X024042Y024078D01*
X023542Y024078D01*
X023292Y024328D01*
X023292Y024828D01*
X023542Y025078D01*
X024042Y025078D01*
X024292Y024828D01*
X024542Y025078D01*
X025042Y025078D01*
X025292Y024828D01*
X025542Y025078D01*
X026042Y025078D01*
X026292Y024828D01*
X026062Y023678D02*
X026312Y023428D01*
X026312Y022928D01*
X026062Y022678D01*
X025562Y022678D01*
X025312Y022928D01*
X025062Y022678D01*
X024562Y022678D01*
X024312Y022928D01*
X024062Y022678D01*
X023562Y022678D01*
X023312Y022928D01*
X023312Y023428D01*
X023562Y023678D01*
X024062Y023678D01*
X024312Y023428D01*
X024562Y023678D01*
X025062Y023678D01*
X025312Y023428D01*
X025562Y023678D01*
X026062Y023678D01*
X027102Y020678D02*
X026852Y020428D01*
X026852Y019928D01*
X027102Y019678D01*
X027602Y019678D01*
X027852Y019928D01*
X028102Y019678D01*
X028602Y019678D01*
X028852Y019928D01*
X028852Y020428D01*
X028602Y020678D01*
X028102Y020678D01*
X027852Y020428D01*
X027602Y020678D01*
X027102Y020678D01*
X026082Y032558D02*
X026332Y032808D01*
X026332Y033308D01*
X026082Y033558D01*
X026332Y033808D01*
X026332Y034308D01*
X026082Y034558D01*
X026332Y034808D01*
X026332Y035308D01*
X026082Y035558D01*
X025582Y035558D01*
X025332Y035308D01*
X025332Y034808D01*
X025582Y034558D01*
X025332Y034308D01*
X025332Y033808D01*
X025582Y033558D01*
X025332Y033308D01*
X025332Y032808D01*
X025582Y032558D01*
X026082Y032558D01*
X021442Y037078D02*
X020942Y037078D01*
X020692Y037328D01*
X020442Y037078D01*
X019942Y037078D01*
X019692Y037328D01*
X019692Y037828D01*
X019942Y038078D01*
X020442Y038078D01*
X020692Y037828D01*
X020942Y038078D01*
X021442Y038078D01*
X021692Y037828D01*
X021692Y037328D01*
X021442Y037078D01*
X021442Y038278D02*
X020942Y038278D01*
X020692Y038528D01*
X020442Y038278D01*
X019942Y038278D01*
X019692Y038528D01*
X019692Y039028D01*
X019942Y039278D01*
X020442Y039278D01*
X020692Y039028D01*
X020942Y039278D01*
X021442Y039278D01*
X021692Y039028D01*
X021692Y038528D01*
X021442Y038278D01*
X021442Y039478D02*
X020942Y039478D01*
X020692Y039728D01*
X020442Y039478D01*
X019942Y039478D01*
X019692Y039728D01*
X019692Y040228D01*
X019942Y040478D01*
X020442Y040478D01*
X020692Y040228D01*
X020942Y040478D01*
X021442Y040478D01*
X021692Y040228D01*
X021692Y039728D01*
X021442Y039478D01*
X021462Y040718D02*
X020962Y040718D01*
X020712Y040968D01*
X020462Y040718D01*
X019962Y040718D01*
X019712Y040968D01*
X019712Y041468D01*
X019962Y041718D01*
X020462Y041718D01*
X020712Y041468D01*
X020962Y041718D01*
X021462Y041718D01*
X021712Y041468D01*
X021712Y040968D01*
X021462Y040718D01*
X021442Y041918D02*
X020942Y041918D01*
X020692Y042168D01*
X020442Y041918D01*
X019942Y041918D01*
X019692Y042168D01*
X019692Y042668D01*
X019942Y042918D01*
X020442Y042918D01*
X020692Y042668D01*
X020942Y042918D01*
X021442Y042918D01*
X021692Y042668D01*
X021692Y042168D01*
X021442Y041918D01*
X021442Y043118D02*
X020942Y043118D01*
X020692Y043368D01*
X020442Y043118D01*
X019942Y043118D01*
X019692Y043368D01*
X019692Y043868D01*
X019942Y044118D01*
X020442Y044118D01*
X020692Y043868D01*
X020942Y044118D01*
X021442Y044118D01*
X021692Y043868D01*
X021692Y043368D01*
X021442Y043118D01*
X026752Y043078D02*
X026752Y041678D01*
X029332Y041678D01*
X029332Y043078D01*
X026752Y043078D01*
X033952Y043078D02*
X033952Y041678D01*
X036532Y041678D01*
X036532Y043078D01*
X033952Y043078D01*
X041552Y043078D02*
X041552Y041678D01*
X044132Y041678D01*
X044132Y043078D01*
X041552Y043078D01*
X044382Y023658D02*
X044882Y023658D01*
X045132Y023408D01*
X045382Y023658D01*
X045882Y023658D01*
X046132Y023408D01*
X046382Y023658D01*
X046882Y023658D01*
X047132Y023408D01*
X047132Y022908D01*
X046882Y022658D01*
X046382Y022658D01*
X046132Y022908D01*
X045882Y022658D01*
X045382Y022658D01*
X045132Y022908D01*
X044882Y022658D01*
X044382Y022658D01*
X044132Y022908D01*
X044132Y023408D01*
X044382Y023658D01*
X044382Y022578D02*
X044882Y022578D01*
X045132Y022328D01*
X045382Y022578D01*
X045882Y022578D01*
X046132Y022328D01*
X046382Y022578D01*
X046882Y022578D01*
X047132Y022328D01*
X047132Y021828D01*
X046882Y021578D01*
X046382Y021578D01*
X046132Y021828D01*
X045882Y021578D01*
X045382Y021578D01*
X045132Y021828D01*
X044882Y021578D01*
X044382Y021578D01*
X044132Y021828D01*
X044132Y022328D01*
X044382Y022578D01*
X049272Y021008D02*
X049272Y020508D01*
X049522Y020258D01*
X049272Y020008D01*
X049272Y019508D01*
X049522Y019258D01*
X050022Y019258D01*
X050272Y019508D01*
X050272Y020008D01*
X050022Y020258D01*
X050272Y020508D01*
X050272Y021008D01*
X050022Y021258D01*
X049522Y021258D01*
X049272Y021008D01*
X014892Y038928D02*
X014642Y038678D01*
X014142Y038678D01*
X013892Y038928D01*
X013892Y039428D01*
X014142Y039678D01*
X013892Y039928D01*
X013892Y040428D01*
X014142Y040678D01*
X013892Y040928D01*
X013892Y041428D01*
X014142Y041678D01*
X013892Y041678D01*
X013892Y041928D01*
X013892Y042178D01*
X013892Y042678D01*
X014392Y042678D01*
X014892Y042678D01*
X014892Y042178D01*
X014892Y041678D01*
X014642Y041678D01*
X014892Y041428D01*
X014892Y040928D01*
X014642Y040678D01*
X014892Y040428D01*
X014892Y039928D01*
X014642Y039678D01*
X014892Y039428D01*
X014892Y038928D01*
X014892Y041928D02*
X014892Y042178D01*
X014892Y042428D01*
X014642Y042678D02*
X014392Y042678D01*
X014142Y042678D01*
X013892Y042428D02*
X013892Y042178D01*
D15*
X050847Y037308D02*
X050847Y036781D01*
X051242Y036781D01*
X051110Y037044D01*
X051110Y037176D01*
X051242Y037308D01*
X051505Y037308D01*
X051637Y037176D01*
X051637Y036912D01*
X051505Y036781D01*
X051637Y036516D02*
X051637Y035989D01*
X051637Y036252D02*
X050847Y036252D01*
X051110Y035989D01*
X050978Y035724D02*
X051505Y035197D01*
X051637Y035329D01*
X051637Y035592D01*
X051505Y035724D01*
X050978Y035724D01*
X050847Y035592D01*
X050847Y035329D01*
X050978Y035197D01*
X051505Y035197D01*
X051637Y034932D02*
X051637Y034405D01*
X051110Y034932D01*
X050978Y034932D01*
X050847Y034800D01*
X050847Y034537D01*
X050978Y034405D01*
X051242Y034140D02*
X051242Y033613D01*
X051505Y033348D02*
X051637Y033217D01*
X051637Y032953D01*
X051505Y032821D01*
X050978Y033348D01*
X051505Y033348D01*
X051505Y032821D02*
X050978Y032821D01*
X050847Y032953D01*
X050847Y033217D01*
X050978Y033348D01*
X051637Y032557D02*
X051637Y032029D01*
X051637Y032293D02*
X050847Y032293D01*
X051110Y032029D01*
X051110Y031765D02*
X051637Y031501D01*
X051110Y031238D01*
D16*
X012892Y010578D02*
X000492Y010578D01*
X001260Y010578D02*
X001362Y011601D01*
X001385Y011601D02*
X001260Y010578D01*
X001157Y011601D01*
X001134Y011601D02*
X001385Y011601D01*
X001311Y011601D02*
X001260Y010578D01*
X001208Y011601D01*
X001134Y011601D02*
X001260Y010578D01*
X001260Y046011D01*
X001362Y044988D01*
X001385Y044988D02*
X001260Y046011D01*
X001157Y044988D01*
X001134Y044988D02*
X001385Y044988D01*
X001311Y044988D02*
X001260Y046011D01*
X001208Y044988D01*
X001134Y044988D02*
X001260Y046011D01*
X000492Y046011D02*
X012892Y046011D01*
X012893Y056763D01*
X012892Y055996D02*
X013916Y056121D01*
X013916Y055870D01*
X012892Y055996D01*
X013916Y055893D01*
X013916Y055944D02*
X012892Y055996D01*
X013916Y056098D01*
X013916Y056047D02*
X012892Y055996D01*
X052263Y055994D01*
X051239Y055892D01*
X051239Y055869D02*
X052263Y055994D01*
X051239Y056097D01*
X051239Y056120D02*
X051239Y055869D01*
X051239Y055943D02*
X052263Y055994D01*
X051239Y056046D01*
X051239Y056120D02*
X052263Y055994D01*
X052263Y056762D02*
X052262Y046010D01*
X066879Y046010D01*
X066111Y046010D02*
X066214Y044987D01*
X066237Y044987D02*
X066111Y046010D01*
X066009Y044987D01*
X065986Y044987D02*
X066237Y044987D01*
X066163Y044987D02*
X066111Y046010D01*
X066060Y044987D01*
X065986Y044987D02*
X066111Y046010D01*
X066111Y010578D01*
X066214Y011601D01*
X066237Y011601D02*
X066111Y010578D01*
X066009Y011601D01*
X065986Y011601D02*
X066237Y011601D01*
X066163Y011601D02*
X066111Y010578D01*
X066060Y011601D01*
X065986Y011601D02*
X066111Y010578D01*
X066879Y010578D02*
X052262Y010578D01*
X052262Y000126D01*
X052262Y000893D02*
X051239Y000791D01*
X051239Y000768D02*
X052262Y000893D01*
X051239Y000996D01*
X051239Y001019D02*
X051239Y000768D01*
X051239Y000842D02*
X052262Y000893D01*
X051239Y000944D01*
X051239Y001019D02*
X052262Y000893D01*
X012892Y000893D01*
X013916Y000791D01*
X013916Y000768D02*
X012892Y000893D01*
X013916Y000996D01*
X013916Y001019D02*
X013916Y000768D01*
X013916Y000842D02*
X012892Y000893D01*
X013916Y000944D01*
X013916Y001019D02*
X012892Y000893D01*
X012892Y000126D02*
X012892Y010578D01*
D17*
X032345Y029347D03*
D18*
X037142Y027128D02*
X042642Y027128D01*
X042642Y021628D01*
X037142Y021628D01*
X037142Y027128D01*
X042642Y027128D02*
X042642Y021628D01*
X046877Y019638D02*
X046877Y019362D01*
X046877Y019638D01*
X047173Y019638D01*
X046877Y019638D01*
X047448Y019638D02*
X047527Y019638D01*
X047803Y019638D02*
X047881Y019638D01*
X048177Y019638D02*
X048452Y019638D01*
X048452Y019382D01*
X048452Y019638D01*
X048177Y019638D01*
X048191Y019460D02*
X048193Y019478D01*
X048199Y019495D01*
X048208Y019511D01*
X048221Y019524D01*
X048236Y019534D01*
X048253Y019541D01*
X048270Y019544D01*
X048289Y019543D01*
X048306Y019538D01*
X048322Y019530D01*
X048336Y019518D01*
X048347Y019503D01*
X048355Y019487D01*
X048359Y019469D01*
X048359Y019451D01*
X048355Y019433D01*
X048347Y019417D01*
X048336Y019402D01*
X048322Y019390D01*
X048306Y019382D01*
X048289Y019377D01*
X048270Y019376D01*
X048253Y019379D01*
X048236Y019386D01*
X048221Y019396D01*
X048208Y019409D01*
X048199Y019425D01*
X048193Y019442D01*
X048191Y019460D01*
X048452Y019067D02*
X048452Y018988D01*
X048452Y018712D02*
X048452Y018634D01*
X048452Y018338D02*
X048452Y018063D01*
X048196Y018063D01*
X048452Y018063D01*
X048452Y018338D01*
X047881Y018063D02*
X047803Y018063D01*
X047527Y018063D02*
X047448Y018063D01*
X047153Y018063D02*
X047133Y018063D01*
X046877Y018063D01*
X046877Y018319D01*
X046877Y018063D01*
X047133Y018063D01*
X047153Y018063D01*
X046877Y018653D02*
X046877Y018693D01*
X046877Y019008D02*
X046877Y019067D01*
X032612Y018932D02*
X032612Y018854D01*
X032612Y018558D02*
X032612Y018283D01*
X032356Y018283D01*
X032612Y018283D01*
X032612Y018558D01*
X032041Y018283D02*
X031963Y018283D01*
X031687Y018283D02*
X031608Y018283D01*
X031313Y018283D02*
X031293Y018283D01*
X031037Y018283D01*
X031037Y018539D01*
X031037Y018283D01*
X031293Y018283D01*
X031313Y018283D01*
X031037Y018873D02*
X031037Y018913D01*
X031037Y019228D02*
X031037Y019287D01*
X031037Y019582D02*
X031037Y019858D01*
X031333Y019858D01*
X031037Y019858D01*
X031037Y019582D01*
X031608Y019858D02*
X031687Y019858D01*
X031963Y019858D02*
X032041Y019858D01*
X032337Y019858D02*
X032612Y019858D01*
X032612Y019602D01*
X032612Y019858D01*
X032337Y019858D01*
X032351Y019680D02*
X032353Y019698D01*
X032359Y019715D01*
X032368Y019731D01*
X032381Y019744D01*
X032396Y019754D01*
X032413Y019761D01*
X032430Y019764D01*
X032449Y019763D01*
X032466Y019758D01*
X032482Y019750D01*
X032496Y019738D01*
X032507Y019723D01*
X032515Y019707D01*
X032519Y019689D01*
X032519Y019671D01*
X032515Y019653D01*
X032507Y019637D01*
X032496Y019622D01*
X032482Y019610D01*
X032466Y019602D01*
X032449Y019597D01*
X032430Y019596D01*
X032413Y019599D01*
X032396Y019606D01*
X032381Y019616D01*
X032368Y019629D01*
X032359Y019645D01*
X032353Y019662D01*
X032351Y019680D01*
X032612Y019287D02*
X032612Y019208D01*
X020961Y019838D02*
X020963Y019852D01*
X020968Y019864D01*
X020977Y019875D01*
X020989Y019883D01*
X021002Y019888D01*
X021015Y019889D01*
X021029Y019886D01*
X021041Y019880D01*
X021052Y019870D01*
X021059Y019858D01*
X021063Y019845D01*
X021063Y019831D01*
X021059Y019818D01*
X021052Y019806D01*
X021041Y019796D01*
X021029Y019790D01*
X021015Y019787D01*
X021002Y019788D01*
X020989Y019793D01*
X020977Y019801D01*
X020968Y019812D01*
X020963Y019824D01*
X020961Y019838D01*
X018142Y018078D02*
X018142Y017238D01*
X018142Y018077D02*
X017012Y018077D01*
X016882Y017388D02*
X016882Y016238D01*
X017022Y015558D02*
X018142Y015558D01*
X018142Y016418D01*
X017341Y021531D02*
X017343Y021544D01*
X017349Y021556D01*
X017358Y021565D01*
X017369Y021572D01*
X017382Y021575D01*
X017395Y021574D01*
X017407Y021569D01*
X017417Y021561D01*
X017425Y021550D01*
X017429Y021538D01*
X017429Y021524D01*
X017425Y021512D01*
X017417Y021501D01*
X017407Y021493D01*
X017395Y021488D01*
X017382Y021487D01*
X017369Y021490D01*
X017358Y021497D01*
X017349Y021506D01*
X017343Y021518D01*
X017341Y021531D01*
X015742Y023398D02*
X015742Y024258D01*
X015742Y025078D02*
X015742Y025918D01*
X015742Y025917D02*
X014612Y025917D01*
X014482Y025228D02*
X014482Y024078D01*
X014622Y023398D02*
X015742Y023398D01*
X019984Y023928D02*
X019986Y023953D01*
X019992Y023977D01*
X020001Y024000D01*
X020014Y024021D01*
X020030Y024040D01*
X020049Y024056D01*
X020070Y024069D01*
X020093Y024078D01*
X020117Y024084D01*
X020142Y024086D01*
X020167Y024084D01*
X020191Y024078D01*
X020214Y024069D01*
X020235Y024056D01*
X020254Y024040D01*
X020270Y024021D01*
X020283Y024000D01*
X020292Y023977D01*
X020298Y023953D01*
X020300Y023928D01*
X020298Y023903D01*
X020292Y023879D01*
X020283Y023856D01*
X020270Y023835D01*
X020254Y023816D01*
X020235Y023800D01*
X020214Y023787D01*
X020191Y023778D01*
X020167Y023772D01*
X020142Y023770D01*
X020117Y023772D01*
X020093Y023778D01*
X020070Y023787D01*
X020049Y023800D01*
X020030Y023816D01*
X020014Y023835D01*
X020001Y023856D01*
X019992Y023879D01*
X019986Y023903D01*
X019984Y023928D01*
X021161Y028638D02*
X021163Y028652D01*
X021168Y028664D01*
X021177Y028675D01*
X021189Y028683D01*
X021202Y028688D01*
X021215Y028689D01*
X021229Y028686D01*
X021241Y028680D01*
X021252Y028670D01*
X021259Y028658D01*
X021263Y028645D01*
X021263Y028631D01*
X021259Y028618D01*
X021252Y028606D01*
X021241Y028596D01*
X021229Y028590D01*
X021215Y028587D01*
X021202Y028588D01*
X021189Y028593D01*
X021177Y028601D01*
X021168Y028612D01*
X021163Y028624D01*
X021161Y028638D01*
X018262Y031398D02*
X018262Y032258D01*
X018262Y033078D02*
X018262Y033918D01*
X018262Y033917D02*
X017132Y033917D01*
X017002Y033228D02*
X017002Y032078D01*
X017142Y031398D02*
X018262Y031398D01*
X017241Y030291D02*
X017243Y030304D01*
X017249Y030316D01*
X017258Y030325D01*
X017269Y030332D01*
X017282Y030335D01*
X017295Y030334D01*
X017307Y030329D01*
X017317Y030321D01*
X017325Y030310D01*
X017329Y030298D01*
X017329Y030284D01*
X017325Y030272D01*
X017317Y030261D01*
X017307Y030253D01*
X017295Y030248D01*
X017282Y030247D01*
X017269Y030250D01*
X017258Y030257D01*
X017249Y030266D01*
X017243Y030278D01*
X017241Y030291D01*
X019801Y035318D02*
X019803Y035332D01*
X019808Y035344D01*
X019817Y035355D01*
X019829Y035363D01*
X019842Y035368D01*
X019855Y035369D01*
X019869Y035366D01*
X019881Y035360D01*
X019892Y035350D01*
X019899Y035338D01*
X019903Y035325D01*
X019903Y035311D01*
X019899Y035298D01*
X019892Y035286D01*
X019881Y035276D01*
X019869Y035270D01*
X019855Y035267D01*
X019842Y035268D01*
X019829Y035273D01*
X019817Y035281D01*
X019808Y035292D01*
X019803Y035304D01*
X019801Y035318D01*
X017261Y036411D02*
X017263Y036424D01*
X017269Y036436D01*
X017278Y036445D01*
X017289Y036452D01*
X017302Y036455D01*
X017315Y036454D01*
X017327Y036449D01*
X017337Y036441D01*
X017345Y036430D01*
X017349Y036418D01*
X017349Y036404D01*
X017345Y036392D01*
X017337Y036381D01*
X017327Y036373D01*
X017315Y036368D01*
X017302Y036367D01*
X017289Y036370D01*
X017278Y036377D01*
X017269Y036386D01*
X017263Y036398D01*
X017261Y036411D01*
X023624Y034208D02*
X023626Y034233D01*
X023632Y034257D01*
X023641Y034280D01*
X023654Y034301D01*
X023670Y034320D01*
X023689Y034336D01*
X023710Y034349D01*
X023733Y034358D01*
X023757Y034364D01*
X023782Y034366D01*
X023807Y034364D01*
X023831Y034358D01*
X023854Y034349D01*
X023875Y034336D01*
X023894Y034320D01*
X023910Y034301D01*
X023923Y034280D01*
X023932Y034257D01*
X023938Y034233D01*
X023940Y034208D01*
X023938Y034183D01*
X023932Y034159D01*
X023923Y034136D01*
X023910Y034115D01*
X023894Y034096D01*
X023875Y034080D01*
X023854Y034067D01*
X023831Y034058D01*
X023807Y034052D01*
X023782Y034050D01*
X023757Y034052D01*
X023733Y034058D01*
X023710Y034067D01*
X023689Y034080D01*
X023670Y034096D01*
X023654Y034115D01*
X023641Y034136D01*
X023632Y034159D01*
X023626Y034183D01*
X023624Y034208D01*
X039112Y035368D02*
X039972Y035368D01*
X040792Y035368D02*
X041632Y035368D01*
X041632Y036497D01*
X040942Y036628D02*
X039792Y036628D01*
X039112Y036487D02*
X039112Y035368D01*
X042352Y035328D02*
X043212Y035328D01*
X044032Y035328D02*
X044872Y035328D01*
X044872Y036457D01*
X044182Y036588D02*
X043032Y036588D01*
X042352Y036447D02*
X042352Y035328D01*
X048069Y040352D02*
X048071Y040434D01*
X048077Y040516D01*
X048087Y040597D01*
X048101Y040678D01*
X048119Y040759D01*
X048141Y040838D01*
X048167Y040916D01*
X048196Y040992D01*
X048230Y041067D01*
X048267Y041141D01*
X048307Y041212D01*
X048351Y041281D01*
X048398Y041349D01*
X048449Y041413D01*
X048502Y041476D01*
X048559Y041535D01*
X048618Y041592D01*
X048681Y041645D01*
X048745Y041696D01*
X048813Y041743D01*
X048882Y041787D01*
X048953Y041827D01*
X049027Y041864D01*
X049102Y041898D01*
X049178Y041927D01*
X049256Y041953D01*
X049335Y041975D01*
X049416Y041993D01*
X049497Y042007D01*
X049578Y042017D01*
X049660Y042023D01*
X049742Y042025D01*
X049824Y042023D01*
X049906Y042017D01*
X049987Y042007D01*
X050068Y041993D01*
X050149Y041975D01*
X050228Y041953D01*
X050306Y041927D01*
X050382Y041898D01*
X050457Y041864D01*
X050531Y041827D01*
X050602Y041787D01*
X050671Y041743D01*
X050739Y041696D01*
X050803Y041645D01*
X050866Y041592D01*
X050925Y041535D01*
X050982Y041476D01*
X051035Y041413D01*
X051086Y041349D01*
X051133Y041281D01*
X051177Y041212D01*
X051217Y041141D01*
X051254Y041067D01*
X051288Y040992D01*
X051317Y040916D01*
X051343Y040838D01*
X051365Y040759D01*
X051383Y040678D01*
X051397Y040597D01*
X051407Y040516D01*
X051413Y040434D01*
X051415Y040352D01*
X051413Y040270D01*
X051407Y040188D01*
X051397Y040107D01*
X051383Y040026D01*
X051365Y039945D01*
X051343Y039866D01*
X051317Y039788D01*
X051288Y039712D01*
X051254Y039637D01*
X051217Y039563D01*
X051177Y039492D01*
X051133Y039423D01*
X051086Y039355D01*
X051035Y039291D01*
X050982Y039228D01*
X050925Y039169D01*
X050866Y039112D01*
X050803Y039059D01*
X050739Y039008D01*
X050671Y038961D01*
X050602Y038917D01*
X050531Y038877D01*
X050457Y038840D01*
X050382Y038806D01*
X050306Y038777D01*
X050228Y038751D01*
X050149Y038729D01*
X050068Y038711D01*
X049987Y038697D01*
X049906Y038687D01*
X049824Y038681D01*
X049742Y038679D01*
X049660Y038681D01*
X049578Y038687D01*
X049497Y038697D01*
X049416Y038711D01*
X049335Y038729D01*
X049256Y038751D01*
X049178Y038777D01*
X049102Y038806D01*
X049027Y038840D01*
X048953Y038877D01*
X048882Y038917D01*
X048813Y038961D01*
X048745Y039008D01*
X048681Y039059D01*
X048618Y039112D01*
X048559Y039169D01*
X048502Y039228D01*
X048449Y039291D01*
X048398Y039355D01*
X048351Y039423D01*
X048307Y039492D01*
X048267Y039563D01*
X048230Y039637D01*
X048196Y039712D01*
X048167Y039788D01*
X048141Y039866D01*
X048119Y039945D01*
X048101Y040026D01*
X048087Y040107D01*
X048077Y040188D01*
X048071Y040270D01*
X048069Y040352D01*
D19*
X049151Y040367D02*
X050805Y040367D01*
X049151Y039265D02*
X049151Y041470D01*
D20*
X049545Y041548D02*
X049545Y041312D01*
X049545Y041076D01*
X049545Y041312D02*
X050490Y041312D01*
X050490Y042178D01*
X048758Y041312D02*
X048758Y039462D01*
X047616Y039462D01*
X049545Y039422D02*
X049545Y039659D01*
X049545Y039422D02*
X049545Y039186D01*
X049545Y039422D02*
X050490Y039422D01*
X050490Y038478D01*
M02*
