G75*
G70*
%OFA0B0*%
%FSLAX24Y24*%
%IPPOS*%
%LPD*%
%AMOC8*
5,1,8,0,0,1.08239X$1,22.5*
%
%ADD10C,0.0000*%
%ADD11C,0.0030*%
%ADD12C,0.0051*%
%ADD13C,0.0060*%
D10*
X012892Y010578D02*
X012892Y046011D01*
X052262Y046010D01*
X052262Y010578D01*
X012892Y010578D01*
X013462Y011778D02*
X013464Y011828D01*
X013470Y011878D01*
X013480Y011927D01*
X013494Y011975D01*
X013511Y012022D01*
X013532Y012067D01*
X013557Y012111D01*
X013585Y012152D01*
X013617Y012191D01*
X013651Y012228D01*
X013688Y012262D01*
X013728Y012292D01*
X013770Y012319D01*
X013814Y012343D01*
X013860Y012364D01*
X013907Y012380D01*
X013955Y012393D01*
X014005Y012402D01*
X014054Y012407D01*
X014105Y012408D01*
X014155Y012405D01*
X014204Y012398D01*
X014253Y012387D01*
X014301Y012372D01*
X014347Y012354D01*
X014392Y012332D01*
X014435Y012306D01*
X014476Y012277D01*
X014515Y012245D01*
X014551Y012210D01*
X014583Y012172D01*
X014613Y012132D01*
X014640Y012089D01*
X014663Y012045D01*
X014682Y011999D01*
X014698Y011951D01*
X014710Y011902D01*
X014718Y011853D01*
X014722Y011803D01*
X014722Y011753D01*
X014718Y011703D01*
X014710Y011654D01*
X014698Y011605D01*
X014682Y011557D01*
X014663Y011511D01*
X014640Y011467D01*
X014613Y011424D01*
X014583Y011384D01*
X014551Y011346D01*
X014515Y011311D01*
X014476Y011279D01*
X014435Y011250D01*
X014392Y011224D01*
X014347Y011202D01*
X014301Y011184D01*
X014253Y011169D01*
X014204Y011158D01*
X014155Y011151D01*
X014105Y011148D01*
X014054Y011149D01*
X014005Y011154D01*
X013955Y011163D01*
X013907Y011176D01*
X013860Y011192D01*
X013814Y011213D01*
X013770Y011237D01*
X013728Y011264D01*
X013688Y011294D01*
X013651Y011328D01*
X013617Y011365D01*
X013585Y011404D01*
X013557Y011445D01*
X013532Y011489D01*
X013511Y011534D01*
X013494Y011581D01*
X013480Y011629D01*
X013470Y011678D01*
X013464Y011728D01*
X013462Y011778D01*
X023536Y012628D02*
X023538Y012670D01*
X023544Y012712D01*
X023554Y012754D01*
X023567Y012794D01*
X023585Y012833D01*
X023606Y012870D01*
X023630Y012904D01*
X023658Y012937D01*
X023688Y012967D01*
X023721Y012993D01*
X023756Y013017D01*
X023794Y013037D01*
X023833Y013053D01*
X023873Y013066D01*
X023915Y013075D01*
X023957Y013080D01*
X024000Y013081D01*
X024042Y013078D01*
X024084Y013071D01*
X024125Y013060D01*
X024165Y013045D01*
X024203Y013027D01*
X024240Y013005D01*
X024274Y012980D01*
X024306Y012952D01*
X024334Y012921D01*
X024360Y012887D01*
X024383Y012851D01*
X024402Y012814D01*
X024418Y012774D01*
X024430Y012733D01*
X024438Y012692D01*
X024442Y012649D01*
X024442Y012607D01*
X024438Y012564D01*
X024430Y012523D01*
X024418Y012482D01*
X024402Y012442D01*
X024383Y012405D01*
X024360Y012369D01*
X024334Y012335D01*
X024306Y012304D01*
X024274Y012276D01*
X024240Y012251D01*
X024203Y012229D01*
X024165Y012211D01*
X024125Y012196D01*
X024084Y012185D01*
X024042Y012178D01*
X024000Y012175D01*
X023957Y012176D01*
X023915Y012181D01*
X023873Y012190D01*
X023833Y012203D01*
X023794Y012219D01*
X023756Y012239D01*
X023721Y012263D01*
X023688Y012289D01*
X023658Y012319D01*
X023630Y012352D01*
X023606Y012386D01*
X023585Y012423D01*
X023567Y012462D01*
X023554Y012502D01*
X023544Y012544D01*
X023538Y012586D01*
X023536Y012628D01*
X050642Y012628D02*
X050644Y012670D01*
X050650Y012712D01*
X050660Y012754D01*
X050673Y012794D01*
X050691Y012833D01*
X050712Y012870D01*
X050736Y012904D01*
X050764Y012937D01*
X050794Y012967D01*
X050827Y012993D01*
X050862Y013017D01*
X050900Y013037D01*
X050939Y013053D01*
X050979Y013066D01*
X051021Y013075D01*
X051063Y013080D01*
X051106Y013081D01*
X051148Y013078D01*
X051190Y013071D01*
X051231Y013060D01*
X051271Y013045D01*
X051309Y013027D01*
X051346Y013005D01*
X051380Y012980D01*
X051412Y012952D01*
X051440Y012921D01*
X051466Y012887D01*
X051489Y012851D01*
X051508Y012814D01*
X051524Y012774D01*
X051536Y012733D01*
X051544Y012692D01*
X051548Y012649D01*
X051548Y012607D01*
X051544Y012564D01*
X051536Y012523D01*
X051524Y012482D01*
X051508Y012442D01*
X051489Y012405D01*
X051466Y012369D01*
X051440Y012335D01*
X051412Y012304D01*
X051380Y012276D01*
X051346Y012251D01*
X051309Y012229D01*
X051271Y012211D01*
X051231Y012196D01*
X051190Y012185D01*
X051148Y012178D01*
X051106Y012175D01*
X051063Y012176D01*
X051021Y012181D01*
X050979Y012190D01*
X050939Y012203D01*
X050900Y012219D01*
X050862Y012239D01*
X050827Y012263D01*
X050794Y012289D01*
X050764Y012319D01*
X050736Y012352D01*
X050712Y012386D01*
X050691Y012423D01*
X050673Y012462D01*
X050660Y012502D01*
X050650Y012544D01*
X050644Y012586D01*
X050642Y012628D01*
X050462Y016978D02*
X050464Y017028D01*
X050470Y017078D01*
X050480Y017127D01*
X050494Y017175D01*
X050511Y017222D01*
X050532Y017267D01*
X050557Y017311D01*
X050585Y017352D01*
X050617Y017391D01*
X050651Y017428D01*
X050688Y017462D01*
X050728Y017492D01*
X050770Y017519D01*
X050814Y017543D01*
X050860Y017564D01*
X050907Y017580D01*
X050955Y017593D01*
X051005Y017602D01*
X051054Y017607D01*
X051105Y017608D01*
X051155Y017605D01*
X051204Y017598D01*
X051253Y017587D01*
X051301Y017572D01*
X051347Y017554D01*
X051392Y017532D01*
X051435Y017506D01*
X051476Y017477D01*
X051515Y017445D01*
X051551Y017410D01*
X051583Y017372D01*
X051613Y017332D01*
X051640Y017289D01*
X051663Y017245D01*
X051682Y017199D01*
X051698Y017151D01*
X051710Y017102D01*
X051718Y017053D01*
X051722Y017003D01*
X051722Y016953D01*
X051718Y016903D01*
X051710Y016854D01*
X051698Y016805D01*
X051682Y016757D01*
X051663Y016711D01*
X051640Y016667D01*
X051613Y016624D01*
X051583Y016584D01*
X051551Y016546D01*
X051515Y016511D01*
X051476Y016479D01*
X051435Y016450D01*
X051392Y016424D01*
X051347Y016402D01*
X051301Y016384D01*
X051253Y016369D01*
X051204Y016358D01*
X051155Y016351D01*
X051105Y016348D01*
X051054Y016349D01*
X051005Y016354D01*
X050955Y016363D01*
X050907Y016376D01*
X050860Y016392D01*
X050814Y016413D01*
X050770Y016437D01*
X050728Y016464D01*
X050688Y016494D01*
X050651Y016528D01*
X050617Y016565D01*
X050585Y016604D01*
X050557Y016645D01*
X050532Y016689D01*
X050511Y016734D01*
X050494Y016781D01*
X050480Y016829D01*
X050470Y016878D01*
X050464Y016928D01*
X050462Y016978D01*
X050462Y044778D02*
X050464Y044828D01*
X050470Y044878D01*
X050480Y044927D01*
X050494Y044975D01*
X050511Y045022D01*
X050532Y045067D01*
X050557Y045111D01*
X050585Y045152D01*
X050617Y045191D01*
X050651Y045228D01*
X050688Y045262D01*
X050728Y045292D01*
X050770Y045319D01*
X050814Y045343D01*
X050860Y045364D01*
X050907Y045380D01*
X050955Y045393D01*
X051005Y045402D01*
X051054Y045407D01*
X051105Y045408D01*
X051155Y045405D01*
X051204Y045398D01*
X051253Y045387D01*
X051301Y045372D01*
X051347Y045354D01*
X051392Y045332D01*
X051435Y045306D01*
X051476Y045277D01*
X051515Y045245D01*
X051551Y045210D01*
X051583Y045172D01*
X051613Y045132D01*
X051640Y045089D01*
X051663Y045045D01*
X051682Y044999D01*
X051698Y044951D01*
X051710Y044902D01*
X051718Y044853D01*
X051722Y044803D01*
X051722Y044753D01*
X051718Y044703D01*
X051710Y044654D01*
X051698Y044605D01*
X051682Y044557D01*
X051663Y044511D01*
X051640Y044467D01*
X051613Y044424D01*
X051583Y044384D01*
X051551Y044346D01*
X051515Y044311D01*
X051476Y044279D01*
X051435Y044250D01*
X051392Y044224D01*
X051347Y044202D01*
X051301Y044184D01*
X051253Y044169D01*
X051204Y044158D01*
X051155Y044151D01*
X051105Y044148D01*
X051054Y044149D01*
X051005Y044154D01*
X050955Y044163D01*
X050907Y044176D01*
X050860Y044192D01*
X050814Y044213D01*
X050770Y044237D01*
X050728Y044264D01*
X050688Y044294D01*
X050651Y044328D01*
X050617Y044365D01*
X050585Y044404D01*
X050557Y044445D01*
X050532Y044489D01*
X050511Y044534D01*
X050494Y044581D01*
X050480Y044629D01*
X050470Y044678D01*
X050464Y044728D01*
X050462Y044778D01*
X013462Y044778D02*
X013464Y044828D01*
X013470Y044878D01*
X013480Y044927D01*
X013494Y044975D01*
X013511Y045022D01*
X013532Y045067D01*
X013557Y045111D01*
X013585Y045152D01*
X013617Y045191D01*
X013651Y045228D01*
X013688Y045262D01*
X013728Y045292D01*
X013770Y045319D01*
X013814Y045343D01*
X013860Y045364D01*
X013907Y045380D01*
X013955Y045393D01*
X014005Y045402D01*
X014054Y045407D01*
X014105Y045408D01*
X014155Y045405D01*
X014204Y045398D01*
X014253Y045387D01*
X014301Y045372D01*
X014347Y045354D01*
X014392Y045332D01*
X014435Y045306D01*
X014476Y045277D01*
X014515Y045245D01*
X014551Y045210D01*
X014583Y045172D01*
X014613Y045132D01*
X014640Y045089D01*
X014663Y045045D01*
X014682Y044999D01*
X014698Y044951D01*
X014710Y044902D01*
X014718Y044853D01*
X014722Y044803D01*
X014722Y044753D01*
X014718Y044703D01*
X014710Y044654D01*
X014698Y044605D01*
X014682Y044557D01*
X014663Y044511D01*
X014640Y044467D01*
X014613Y044424D01*
X014583Y044384D01*
X014551Y044346D01*
X014515Y044311D01*
X014476Y044279D01*
X014435Y044250D01*
X014392Y044224D01*
X014347Y044202D01*
X014301Y044184D01*
X014253Y044169D01*
X014204Y044158D01*
X014155Y044151D01*
X014105Y044148D01*
X014054Y044149D01*
X014005Y044154D01*
X013955Y044163D01*
X013907Y044176D01*
X013860Y044192D01*
X013814Y044213D01*
X013770Y044237D01*
X013728Y044264D01*
X013688Y044294D01*
X013651Y044328D01*
X013617Y044365D01*
X013585Y044404D01*
X013557Y044445D01*
X013532Y044489D01*
X013511Y044534D01*
X013494Y044581D01*
X013480Y044629D01*
X013470Y044678D01*
X013464Y044728D01*
X013462Y044778D01*
D11*
X033907Y027483D02*
X034052Y027338D01*
X033858Y027338D01*
X033907Y027193D02*
X033907Y027483D01*
X034153Y027483D02*
X034346Y027483D01*
X034346Y027338D01*
X034250Y027386D01*
X034201Y027386D01*
X034153Y027338D01*
X034153Y027241D01*
X034201Y027193D01*
X034298Y027193D01*
X034346Y027241D01*
X034448Y027241D02*
X034496Y027193D01*
X034593Y027193D01*
X034641Y027241D01*
X034641Y027434D01*
X034593Y027483D01*
X034496Y027483D01*
X034448Y027434D01*
X040463Y020443D02*
X040414Y020394D01*
X040608Y020201D01*
X040560Y020153D01*
X040463Y020153D01*
X040414Y020201D01*
X040414Y020394D01*
X040463Y020443D02*
X040560Y020443D01*
X040608Y020394D01*
X040608Y020201D01*
X040709Y020201D02*
X040757Y020153D01*
X040854Y020153D01*
X040903Y020201D01*
X041004Y020153D02*
X041100Y020249D01*
X041052Y020249D02*
X041197Y020249D01*
X041197Y020153D02*
X041197Y020443D01*
X041052Y020443D01*
X041004Y020394D01*
X041004Y020298D01*
X041052Y020249D01*
X040903Y020394D02*
X040854Y020443D01*
X040757Y020443D01*
X040709Y020394D01*
X040709Y020346D01*
X040757Y020298D01*
X040709Y020249D01*
X040709Y020201D01*
X040757Y020298D02*
X040806Y020298D01*
X042174Y020249D02*
X042223Y020298D01*
X042368Y020298D01*
X042368Y020201D01*
X042320Y020153D01*
X042223Y020153D01*
X042174Y020201D01*
X042174Y020249D01*
X042271Y020394D02*
X042174Y020443D01*
X042271Y020394D02*
X042368Y020298D01*
X042469Y020346D02*
X042469Y020394D01*
X042517Y020443D01*
X042614Y020443D01*
X042663Y020394D01*
X042764Y020394D02*
X042764Y020298D01*
X042812Y020249D01*
X042957Y020249D01*
X042957Y020153D02*
X042957Y020443D01*
X042812Y020443D01*
X042764Y020394D01*
X042860Y020249D02*
X042764Y020153D01*
X042663Y020153D02*
X042469Y020346D01*
X042469Y020153D02*
X042663Y020153D01*
X043854Y020201D02*
X043903Y020153D01*
X044000Y020153D01*
X044048Y020201D01*
X043854Y020394D01*
X043854Y020201D01*
X043854Y020394D02*
X043903Y020443D01*
X044000Y020443D01*
X044048Y020394D01*
X044048Y020201D01*
X044149Y020298D02*
X044343Y020298D01*
X044197Y020443D01*
X044197Y020153D01*
X044444Y020153D02*
X044540Y020249D01*
X044492Y020249D02*
X044637Y020249D01*
X044637Y020153D02*
X044637Y020443D01*
X044492Y020443D01*
X044444Y020394D01*
X044444Y020298D01*
X044492Y020249D01*
X044441Y018763D02*
X044586Y018618D01*
X044393Y018618D01*
X044292Y018666D02*
X044195Y018763D01*
X044195Y018473D01*
X044292Y018473D02*
X044098Y018473D01*
X044441Y018473D02*
X044441Y018763D01*
X044688Y018714D02*
X044688Y018618D01*
X044736Y018569D01*
X044881Y018569D01*
X044881Y018473D02*
X044881Y018763D01*
X044736Y018763D01*
X044688Y018714D01*
X044784Y018569D02*
X044688Y018473D01*
X043121Y018473D02*
X043121Y018763D01*
X042976Y018763D01*
X042928Y018714D01*
X042928Y018618D01*
X042976Y018569D01*
X043121Y018569D01*
X043024Y018569D02*
X042928Y018473D01*
X042826Y018473D02*
X042633Y018666D01*
X042633Y018714D01*
X042681Y018763D01*
X042778Y018763D01*
X042826Y018714D01*
X042826Y018473D02*
X042633Y018473D01*
X042532Y018473D02*
X042532Y018521D01*
X042338Y018714D01*
X042338Y018763D01*
X042532Y018763D01*
X041361Y018683D02*
X041216Y018683D01*
X041168Y018634D01*
X041168Y018538D01*
X041216Y018489D01*
X041361Y018489D01*
X041361Y018393D02*
X041361Y018683D01*
X041264Y018489D02*
X041168Y018393D01*
X041066Y018441D02*
X041018Y018393D01*
X040921Y018393D01*
X040873Y018441D01*
X040873Y018489D01*
X040921Y018538D01*
X040970Y018538D01*
X040921Y018538D02*
X040873Y018586D01*
X040873Y018634D01*
X040921Y018683D01*
X041018Y018683D01*
X041066Y018634D01*
X040772Y018586D02*
X040675Y018683D01*
X040675Y018393D01*
X040772Y018393D02*
X040578Y018393D01*
X042254Y017114D02*
X042303Y017163D01*
X042400Y017163D01*
X042448Y017114D01*
X042448Y017066D01*
X042400Y017018D01*
X042254Y017018D01*
X042254Y017114D02*
X042254Y016921D01*
X042303Y016873D01*
X042400Y016873D01*
X042448Y016921D01*
X042549Y016873D02*
X042743Y016873D01*
X042549Y017066D01*
X042549Y017114D01*
X042597Y017163D01*
X042694Y017163D01*
X042743Y017114D01*
X042844Y017114D02*
X042844Y017018D01*
X042892Y016969D01*
X043037Y016969D01*
X043037Y016873D02*
X043037Y017163D01*
X042892Y017163D01*
X042844Y017114D01*
X042940Y016969D02*
X042844Y016873D01*
X044014Y016889D02*
X044014Y016841D01*
X044063Y016793D01*
X044160Y016793D01*
X044208Y016841D01*
X044111Y016938D02*
X044063Y016938D01*
X044014Y016889D01*
X044063Y016938D02*
X044014Y016986D01*
X044014Y017034D01*
X044063Y017083D01*
X044160Y017083D01*
X044208Y017034D01*
X044309Y016938D02*
X044503Y016938D01*
X044357Y017083D01*
X044357Y016793D01*
X044604Y016793D02*
X044700Y016889D01*
X044652Y016889D02*
X044797Y016889D01*
X044797Y016793D02*
X044797Y017083D01*
X044652Y017083D01*
X044604Y017034D01*
X044604Y016938D01*
X044652Y016889D01*
X044521Y015403D02*
X044666Y015258D01*
X044473Y015258D01*
X044372Y015354D02*
X044323Y015403D01*
X044227Y015403D01*
X044178Y015354D01*
X044178Y015306D01*
X044372Y015113D01*
X044178Y015113D01*
X044521Y015113D02*
X044521Y015403D01*
X044768Y015354D02*
X044768Y015258D01*
X044816Y015209D01*
X044961Y015209D01*
X044961Y015113D02*
X044961Y015403D01*
X044816Y015403D01*
X044768Y015354D01*
X044864Y015209D02*
X044768Y015113D01*
X043037Y015113D02*
X043037Y015403D01*
X042892Y015403D01*
X042844Y015354D01*
X042844Y015258D01*
X042892Y015209D01*
X043037Y015209D01*
X042940Y015209D02*
X042844Y015113D01*
X042743Y015113D02*
X042549Y015306D01*
X042549Y015354D01*
X042597Y015403D01*
X042694Y015403D01*
X042743Y015354D01*
X042743Y015113D02*
X042549Y015113D01*
X042448Y015161D02*
X042448Y015209D01*
X042400Y015258D01*
X042303Y015258D01*
X042254Y015209D01*
X042254Y015161D01*
X042303Y015113D01*
X042400Y015113D01*
X042448Y015161D01*
X042400Y015258D02*
X042448Y015306D01*
X042448Y015354D01*
X042400Y015403D01*
X042303Y015403D01*
X042254Y015354D01*
X042254Y015306D01*
X042303Y015258D01*
D12*
X012892Y010578D02*
X000492Y010578D01*
X001260Y010578D02*
X001362Y011601D01*
X001385Y011601D02*
X001260Y010578D01*
X001157Y011601D01*
X001134Y011601D02*
X001385Y011601D01*
X001311Y011601D02*
X001260Y010578D01*
X001208Y011601D01*
X001134Y011601D02*
X001260Y010578D01*
X001260Y046011D01*
X001362Y044988D01*
X001385Y044988D02*
X001260Y046011D01*
X001157Y044988D01*
X001134Y044988D02*
X001385Y044988D01*
X001311Y044988D02*
X001260Y046011D01*
X001208Y044988D01*
X001134Y044988D02*
X001260Y046011D01*
X000492Y046011D02*
X012892Y046011D01*
X012893Y056763D01*
X012892Y055996D02*
X013916Y056121D01*
X013916Y055870D01*
X012892Y055996D01*
X013916Y055893D01*
X013916Y055944D02*
X012892Y055996D01*
X013916Y056098D01*
X013916Y056047D02*
X012892Y055996D01*
X052263Y055994D01*
X051239Y055892D01*
X051239Y055869D02*
X052263Y055994D01*
X051239Y056097D01*
X051239Y056120D02*
X051239Y055869D01*
X051239Y055943D02*
X052263Y055994D01*
X051239Y056046D01*
X051239Y056120D02*
X052263Y055994D01*
X052263Y056762D02*
X052262Y046010D01*
X066879Y046010D01*
X066111Y046010D02*
X066214Y044987D01*
X066237Y044987D02*
X066111Y046010D01*
X066009Y044987D01*
X065986Y044987D02*
X066237Y044987D01*
X066163Y044987D02*
X066111Y046010D01*
X066060Y044987D01*
X065986Y044987D02*
X066111Y046010D01*
X066111Y010578D01*
X066214Y011601D01*
X066237Y011601D02*
X066111Y010578D01*
X066009Y011601D01*
X065986Y011601D02*
X066237Y011601D01*
X066163Y011601D02*
X066111Y010578D01*
X066060Y011601D01*
X065986Y011601D02*
X066111Y010578D01*
X066879Y010578D02*
X052262Y010578D01*
X052262Y000126D01*
X052262Y000893D02*
X051239Y000791D01*
X051239Y000768D02*
X052262Y000893D01*
X051239Y000996D01*
X051239Y001019D02*
X051239Y000768D01*
X051239Y000842D02*
X052262Y000893D01*
X051239Y000944D01*
X051239Y001019D02*
X052262Y000893D01*
X012892Y000893D01*
X013916Y000791D01*
X013916Y000768D02*
X012892Y000893D01*
X013916Y000996D01*
X013916Y001019D02*
X013916Y000768D01*
X013916Y000842D02*
X012892Y000893D01*
X013916Y000944D01*
X013916Y001019D02*
X012892Y000893D01*
X012892Y000126D02*
X012892Y010578D01*
D13*
X031769Y001577D02*
X031983Y001790D01*
X031983Y001149D01*
X032196Y001149D02*
X031769Y001149D01*
X032414Y001256D02*
X032841Y001683D01*
X032841Y001256D01*
X032734Y001149D01*
X032520Y001149D01*
X032414Y001256D01*
X032414Y001683D01*
X032520Y001790D01*
X032734Y001790D01*
X032841Y001683D01*
X033058Y001683D02*
X033165Y001790D01*
X033378Y001790D01*
X033485Y001683D01*
X033058Y001256D01*
X033165Y001149D01*
X033378Y001149D01*
X033485Y001256D01*
X033485Y001683D01*
X033058Y001683D02*
X033058Y001256D01*
X001003Y027873D02*
X001003Y028086D01*
X000897Y028193D01*
X000470Y028193D01*
X000363Y028086D01*
X000363Y027873D01*
X000470Y027766D01*
X000576Y027766D01*
X000683Y027873D01*
X000683Y028193D01*
X000897Y028410D02*
X000470Y028410D01*
X000363Y028517D01*
X000363Y028731D01*
X000470Y028837D01*
X000897Y028410D01*
X001003Y028517D01*
X001003Y028731D01*
X000897Y028837D01*
X000470Y028837D01*
X001003Y027873D02*
X000897Y027766D01*
X031769Y056251D02*
X032196Y056251D01*
X031983Y056251D02*
X031983Y056892D01*
X031769Y056678D01*
X032414Y056785D02*
X032521Y056892D01*
X032734Y056892D01*
X032841Y056785D01*
X032414Y056358D01*
X032521Y056251D01*
X032734Y056251D01*
X032841Y056358D01*
X032841Y056785D01*
X033059Y056785D02*
X033165Y056892D01*
X033379Y056892D01*
X033486Y056785D01*
X033059Y056358D01*
X033165Y056251D01*
X033379Y056251D01*
X033486Y056358D01*
X033486Y056785D01*
X033059Y056785D02*
X033059Y056358D01*
X032414Y056358D02*
X032414Y056785D01*
X065215Y028730D02*
X065322Y028837D01*
X065749Y028410D01*
X065855Y028516D01*
X065855Y028730D01*
X065749Y028837D01*
X065322Y028837D01*
X065215Y028730D02*
X065215Y028516D01*
X065322Y028410D01*
X065749Y028410D01*
X065749Y028192D02*
X065322Y028192D01*
X065215Y028085D01*
X065215Y027872D01*
X065322Y027765D01*
X065428Y027765D01*
X065535Y027872D01*
X065535Y028192D01*
X065749Y028192D02*
X065855Y028085D01*
X065855Y027872D01*
X065749Y027765D01*
M02*
