G75*
G70*
%OFA0B0*%
%FSLAX24Y24*%
%IPPOS*%
%LPD*%
%AMOC8*
5,1,8,0,0,1.08239X$1,22.5*
%
%ADD10C,0.1300*%
%ADD11R,0.0434X0.0473*%
%ADD12C,0.0780*%
%ADD13C,0.0555*%
%ADD14C,0.0946*%
%ADD15R,0.0473X0.0434*%
%ADD16R,0.0780X0.0780*%
D10*
X014092Y011778D03*
X051092Y016978D03*
X051092Y044778D03*
X014092Y044778D03*
D11*
X040478Y019778D03*
X040478Y019138D03*
X041147Y019138D03*
X041147Y019778D03*
X042318Y019778D03*
X042318Y019138D03*
X042987Y019138D03*
X042987Y019778D03*
X043998Y019778D03*
X043998Y019138D03*
X044667Y019138D03*
X044667Y019778D03*
X044747Y016418D03*
X044747Y015778D03*
X044078Y015778D03*
X044078Y016418D03*
X042987Y016418D03*
X042987Y015778D03*
X042318Y015778D03*
X042318Y016418D03*
D12*
X044632Y022078D03*
X045632Y022078D03*
X046632Y022078D03*
X046632Y023158D03*
X045632Y023158D03*
X044632Y023158D03*
X049772Y020758D03*
X049772Y019758D03*
X047072Y029618D03*
X046072Y029618D03*
X042912Y032078D03*
X041912Y032078D03*
X040912Y032078D03*
X039052Y031418D03*
X039052Y030418D03*
X039052Y029418D03*
X037852Y029438D03*
X037852Y030438D03*
X036732Y030438D03*
X036732Y029438D03*
X034672Y026178D03*
X033672Y026178D03*
X033672Y025138D03*
X034672Y025138D03*
X033372Y023978D03*
X033372Y022978D03*
X032252Y022738D03*
X033372Y021978D03*
X032252Y021738D03*
X032252Y023738D03*
X029112Y025058D03*
X028112Y025058D03*
X025792Y024578D03*
X024792Y024578D03*
X023792Y024578D03*
X023812Y023178D03*
X024812Y023178D03*
X025812Y023178D03*
X027352Y020178D03*
X028352Y020178D03*
X025832Y033058D03*
X025832Y034058D03*
X025832Y035058D03*
X021192Y037578D03*
X020192Y037578D03*
X020192Y038778D03*
X021192Y038778D03*
X021192Y039978D03*
X020192Y039978D03*
X020212Y041218D03*
X021212Y041218D03*
X021192Y042418D03*
X020192Y042418D03*
X020192Y043618D03*
X021192Y043618D03*
X014392Y041178D03*
X014392Y040178D03*
X014392Y039178D03*
D13*
X025792Y014128D03*
X025292Y013378D03*
X025792Y012631D03*
X026292Y013378D03*
X026792Y012631D03*
X027292Y013378D03*
X027792Y012631D03*
X028292Y013378D03*
X028792Y012631D03*
X029292Y013378D03*
X029792Y012631D03*
X030292Y013378D03*
X030792Y012631D03*
X031292Y013378D03*
X031792Y012631D03*
X032292Y013378D03*
X032792Y012631D03*
X033292Y013378D03*
X033792Y012631D03*
X034292Y013378D03*
X034792Y012631D03*
X035292Y013378D03*
X035792Y012631D03*
X036292Y013378D03*
X036792Y012631D03*
X037292Y013378D03*
X037792Y012631D03*
X038292Y013378D03*
X038792Y012631D03*
X039292Y013378D03*
X039792Y012631D03*
X040292Y013378D03*
X040792Y012631D03*
X041292Y013378D03*
X041792Y012631D03*
X042292Y013378D03*
X042792Y012631D03*
X043292Y013378D03*
X043792Y012631D03*
X044292Y013378D03*
X044792Y012631D03*
X045292Y013378D03*
X045792Y012631D03*
X046292Y013378D03*
X046792Y012631D03*
X047292Y013378D03*
X047792Y012631D03*
X048292Y013378D03*
X048792Y012631D03*
X049292Y013378D03*
X049792Y012631D03*
X049292Y011881D03*
X048292Y011881D03*
X047292Y011881D03*
X046292Y011881D03*
X045292Y011881D03*
X044292Y011881D03*
X043292Y011881D03*
X042292Y011881D03*
X041292Y011881D03*
X040292Y011881D03*
X039292Y011881D03*
X038292Y011881D03*
X037292Y011881D03*
X036292Y011881D03*
X035292Y011881D03*
X034292Y011881D03*
X033292Y011881D03*
X032292Y011881D03*
X031292Y011881D03*
X030292Y011881D03*
X029292Y011881D03*
X028292Y011881D03*
X027292Y011881D03*
X026292Y011881D03*
X025292Y011881D03*
X026792Y014128D03*
X027792Y014128D03*
X028792Y014128D03*
X029792Y014128D03*
X030792Y014128D03*
X031792Y014128D03*
X032792Y014128D03*
X033792Y014128D03*
X034792Y014128D03*
X035792Y014128D03*
X036792Y014128D03*
X037792Y014128D03*
X038792Y014128D03*
X039792Y014128D03*
X040792Y014128D03*
X041792Y014128D03*
X042792Y014128D03*
X043792Y014128D03*
X044792Y014128D03*
X045792Y014128D03*
X046792Y014128D03*
X047792Y014128D03*
X048792Y014128D03*
X049792Y014128D03*
D14*
X051095Y012628D03*
X023989Y012628D03*
D15*
X032478Y027298D03*
X033147Y027298D03*
D16*
X014392Y042178D03*
M02*
